<svg id="Layer_1" data-name="Layer 1" xmlns="http://www.w3.org/2000/svg" viewBox="0 0 480 480"><defs><style>.cls-1{fill:none;}.cls-2{fill:#ffc748;}.cls-3{fill:#395f7d;}.cls-4{fill:#85c3c0;}.cls-5{fill:#fd685f;}.cls-6{fill:#0d1a41;}.cls-7{fill:#fdd3b9;}.cls-8{fill:#000e27;}.cls-9{fill:#17232b;}.cls-10{fill:#fefefe;}.cls-11{fill:#3a5bbe;}.cls-12{fill:#ffd3b5;}.cls-13{fill:#b6b6b7;}.cls-14{fill:#f19757;}</style></defs><title>barunih</title><polygon class="cls-1" points="-274.1 205.6 187.6 205.6 187.6 429.1 -274.1 429.1 -274.1 214.7 -274.1 205.6"/><g id="_2301093710976" data-name=" 2301093710976"><polygon id="_1" data-name="1" class="cls-2" points="0.9 399.1 85.9 354.8 88.5 354.6 88.6 262 88.7 262 88.7 180.1 88.8 140.4 88.7 85.3 0.9 85.3 0.9 399.1"/><path class="cls-3" d="M88.1,443.3c-2.5,2.4-17.8,9.9-26.3,14.2h0c-1.9.9-3.5,1.7-4.5,2.3L36.1,470.9h0L26.4,476h0l-6.1,3.2H252l.1-72.2-2.9.4c-29,7.2-48.4,3.1-69.4-10.6-3.7-.3-60.9,30.9-69.4,35.2C105,434.7,93.3,441.8,88.1,443.3Z"/><path class="cls-4" d="M169.9,308.8l.1-86c-2.7-2.6-17-9.4-20.4-11.2-9.6-4.9-55.3-29.3-60.6-31.2l-.1,171.1C94.8,349.9,157.1,314.9,169.9,308.8Z"/><path class="cls-3" d="M89.1,168.3v12.1c5.3,1.9,51,26.3,60.6,31.2,3.4,1.7,17.7,8.5,20.4,11.2l-.1,86,.2-.7.1-85.4c3.9,1,13.3,6.2,17.2,8.3,5.4,2.9,11.4,6.4,17.2,9.2,2.6-1.4,4.1-8.8,8.4-11.4,1.6-3.8,5.1-4.4,8-9.6,1.8-3.3,4.6-8.8,5.1-12.7-1.8-2.1-4-5.2-2.3-8.7-4.6-1.3-2.4-5.8-.4-8.1.8-.9,6.1-6.2,6.9-6.6,2.5-1.2,3.7-.5,5.4.2V170.5l-.3-.2L185.1,141H185L88.7,85.3v83Zm146.7,52.2a.37.37,0,0,0-.3-.1l.3,5.1Z"/><path class="cls-4" d="M.9,479.1H20.4l.6-.3,5.4-2.8v-.1l21.8-11.4h0l9.1-4.7c5.4-2.9,27.6-13.5,30.8-16.4l.1-87.6c-1.3-1.2,1.9-1.5-2.2-.9L1,399.2v79.9Z"/><path class="cls-5" d="M86,354.9c4.2-.6.9-.3,2.2.9v87.5c5.1-1.4,16.8-8.5,22.3-11.4,8.4-4.3,65.6-35.4,69.4-35.2a26.31,26.31,0,0,0-4.7-3.6c-4.3-4.2-8.2-6.8-11.5-12-3.1-3.1-6.4-8.7-8.8-13.5-3.4-7-3.6-14.8-5.4-16.9.6-2.7-3.2-12.2-2.6-18l43.4-.1c-.2-4.2-.4-8.4-.4-12.7,0-2.7-.2-8.1,1.5-10.4l-.2-11.5c-3.1-.8-16,8.8-21.1,9.9l-.2.7c-12.8,6.2-75.1,41.1-81,42.7V351l-.4.2-.1,3.4Z"/><path class="cls-5" d="M334,393.2c1.4,3,.4,68.3.5,85.9H479l-7.8-5.7h-.1C450,458,428.9,442,407.5,427.1l-3.6-2.6c-2.7-2.1-5.5-4.2-7.9-6-3.7-2.7-12.9-10-16.6-11.5-1.2,4.7-3.6,2.9-7.7,2.3-5.3-.9-24-4.7-27-6.4-1.5-9.3,7.2-7.8,9.5-7.8-5.7-.9-3.9.4-8.8-2.6-2.5-1.5-5.4-2.5-6.9-4.5Zm69.9,31.3Z"/><path class="cls-6" d="M254.7,311c-.8,3.5-7.3,8.2-13.3,8-5,3.9-28.7.5-36.8-1.2-4.5-.9-7.4-1.1-9.7-4.1-1.2-.5-.1.2-1.3-.7s-.3-.1-1.1-1.1a11.44,11.44,0,0,1-1.3-2.3c-1.7,2.3-1.5,7.7-1.5,10.4-.1,4.2.2,8.4.4,12.7,2,7.1,2.2,14.3,7.7,18.5,4.4,3.4,12.6,6.4,20,6.7,9,.4,15.2-1.2,23-3.7,4.1-1.3,18.5-6.5,21.6-9a27.18,27.18,0,0,1,2.5-1.1c1.7-.7,3.3-1.4,5.3-2.2,12.5-4.8,16.1-4.2,16,8.5l-.1,11.1c-.4,2.3.4.8-.9,2.3,2.3,4.5.2,15,1.3,21.2l8.3.1L308,385l7.7.4,1.2-.5c.7-.3.5.9,1.1-.6.1-.3.4-.2.7-.4l-5.2-39.3c1.1-.8-1.5-1.6,1.7-.4-4.2-8.5-3.1-8.9-4.6-21-.5-3.6-.4-7.9-1.7-10.9-1.7-4-4.1-2.7-7.1-5-8-1.9-16.2,0-24.3.9C272.8,308.8,257.8,309.6,254.7,311Z"/><path class="cls-7" d="M254.7,311c3.1-1.5,18.1-2.2,22.9-2.7,10.2-1.2,33.3,1,35.2-10.5s-.4-12.2-.7-17.8l-.4-.2c-.2.2-.4.1-.5.4,0,.1-5.1,5.8-6.9,6.6-3.2,1.4-8.8,1.8-13,2.3-3.3.7-9.3,1.2-12.2-.3-1.5.1-9.1-.6-11.1-.7l-14.5-2.2-1.3-.3c-3.4-.5-2.9.4-4.7-3.2a83.87,83.87,0,0,1-5-12.8l-8.7,2.6-2.7.8-12.6,4c.9,5.6,12,29.8,20.6,32.2C242.7,310.1,252.8,309.3,254.7,311Z"/><path class="cls-2" d="M170.1,308c5.1-1.1,18-10.7,21.1-9.9l2.5-21.2,1.1-6.7a146.28,146.28,0,0,1,3.9-15.5c1.3-4.1,5.5-11,6.1-14.7-5.8-2.7-11.9-6.1-17.3-9.1-3.9-2.1-13.3-7.3-17.2-8.3Z"/><path class="cls-8" d="M315.8,385.4l14.3,10.8c1.9-1.1.1.1,2-1.5,1.1-.8.8-.9,1.9-1.6l4.6-5.3a35.49,35.49,0,0,1,3.8-5.1c1.9-2.1,3.1-3.6,5.1-4.8,1-3.1-1.7-4.7-6.1-8.9l-17.1-17.1c-2.7-2.7-5.7-6.7-9-7.8s-.7-.4-1.7.4l5.2,39.3c-.3.2-.6.1-.7.4-.5,1.5-.4.3-1.1.6Z"/><path class="cls-9" d="M223.8,197.7l4.8.1c1.1,2.3,1.5,2.8,1.1,5.6-.3,1.9-.2.9-1.2,2.6-.9,1.5-.8.4-1.1,2.5a28.24,28.24,0,0,0,3.5,6.4c1.5,2,3.7,3.5,4.4,5.5,5.3,1.2,4.4,4.4,11,4.1,2.3-4,3.4-8.7-.7-12.1-7.8-4.2-11.6-4.4-9.7-13.8,1-4.8,0-3.6-.4-7.8l11,4.7c2.8,1.4,3.5,1.7,7.1,1.4,5.4-3.4-2.3-13.5-7-14.2-2.7-.4-2.6.7-5.2,1.2-6.3,1.1-6.7-2.9-11.2-.7-1.4.6-4,.6-5.9,2.1C219.8,188.9,216.5,195.7,223.8,197.7Z"/><path class="cls-8" d="M259.6,347l8.5,5.6,17.2,11.3c1.3-1.5.6,0,.9-2.3l.1-11.1c.1-12.6-3.5-13.3-16-8.5-1.9.8-3.5,1.4-5.3,2.2a27.18,27.18,0,0,0-2.5,1.1Z"/><path class="cls-10" d="M279.2,288.7c2.9,1.5,8.9,1.1,12.2.3,1.1-1.5,2.3-3.4,3.6-4.9,2.7-3.3,9-10.3,10.6-14.1l12.1-.1c-.9,2.4-6.2,9-5.9,9.7l.4.2,7.1-10.2-13.5-1.2-5.7-9.5Z"/><path class="cls-11" d="M379.4,407c-1.3-2.3-11.9-10.9-14.1-11.7l-11.1-.3c-2.4,0-11.1-1.5-9.5,7.8,2.9,1.7,21.7,5.4,27,6.4C375.8,409.9,378.2,411.7,379.4,407Z"/><path class="cls-11" d="M303.2,414.9c.2-5.3-6.8-14.3-8.8-18.2l-7.6.2c-1.5,4.5,5.1,18.9,7.4,25.2,1.2,3.4,1.6,6.3,3.9,8,3.9-.2,4-1.5,4.2-5.3C302.6,421.2,302.9,418.6,303.2,414.9Z"/><path class="cls-7" d="M213,228.8c5.7-.5,5.2.3,9.2-2.2,7.2,2.8,4.9,4.2,13.7,2l-.5-8.2c-.7-2.1-2.9-3.5-4.4-5.5a24.82,24.82,0,0,1-3.5-6.4l-1.4-1.9c-.5,3.9-3.3,9.4-5.1,12.7C218.1,224.4,214.6,225,213,228.8Z"/><path class="cls-12" d="M294.4,396.7c2,3.9,9,13,8.8,18.2.8-1.4,3.9-25.7,4.8-29.9l-13.1.2c.1,2.1.3,4.2.3,6.3a28.05,28.05,0,0,1,0,2.9Z"/><path class="cls-13" d="M291.4,289c4.2-.4,9.7-.9,13-2.3,1.8-.8,6.9-6.5,6.9-6.6l.1-.2c.1-.1.2-.1.3-.2l.4.2,7.1-10.2-13.5-1.2Z"/><path class="cls-7" d="M338.6,387.9c1.5,2,4.4,3.1,6.9,4.5,4.8,2.9,3.1,1.7,8.8,2.6l11.1.3c-.1-.2-.3-.6-.4-.5l-1.6-1.6c-3.2-2.9-15.1-12.3-15.9-15.2-1.9,1.2-3.1,2.8-5.1,4.8A29.33,29.33,0,0,0,338.6,387.9Z"/><path class="cls-7" d="M245.7,212.3c.3-7.3,2.3-1.8,1.6-8.1-.3-3.1-.5-5.7-.7-8.8l-11-4.7c.4,4.2,1.4,2.9.4,7.8C234.1,208,237.9,208.1,245.7,212.3Z"/><path class="cls-14" d="M226.1,206.4l1.4,1.9c.2-2.1.2-1,1.1-2.5s.9-.7,1.2-2.6c.5-2.8.1-3.3-1.1-5.6l-4.8-.1C222.1,201.3,224.2,204.3,226.1,206.4Z"/><path class="cls-2" d="M175.1,393.2a38.29,38.29,0,0,1,4.7,3.5c21,13.7,40.3,17.7,69.4,10.6,1.7-1.1.4-.9,3.3-.6l.2,72.4h81.8c-.1-17.6.9-82.9-.5-85.9a13.45,13.45,0,0,0-1.9,1.6c-1.9,1.5-.1.4-2,1.5l-14.3-10.8L308,385c-.9,4.2-4.1,28.5-4.8,29.9-.3,3.6-.6,6.3-.8,10s-.3,5.1-4.2,5.3c-2.3-1.7-2.7-4.6-3.9-8-2.3-6.3-8.9-20.7-7.4-25.2l7.6-.2.8-2.3a28.05,28.05,0,0,0,0-2.9l-.3-6.3-8.3-.1c-1.2-6.2.9-16.7-1.3-21.2l-17.2-11.3-8.5-5.6c-2.7-.1-14.6,6-18.7,7.3-7.8,2.5-14,4.1-23,3.7-7.4-.3-15.6-3.3-20-6.7-5.5-4.2-5.7-11.4-7.7-18.5h-.1v-1.5H146.9v1.5c-1.5,13.4,7,38.3,16.7,48.3C167,386.3,170.9,389,175.1,393.2Z"/><path class="cls-10" d="M191.2,298.1l.2,11.5a9.26,9.26,0,0,0,1.3,2.3c.7.9-.3.1,1.1,1.1,1.2.9.1.3,1.3.7,2.3,2.9,5.2,3.1,9.7,4.1,9.4,1.9,46.7,8,50.1-6.8-1.9-1.7-12.1-.9-15.4-1.9-8.7-2.5-19.7-26.6-20.6-32.2l17.3-5.4c1.3-.4,6.8-2,7-1.4a83.63,83.63,0,0,0,4.8,12.2c1.7,3.6,1.3,2.7,4.7,3.2l-.4-3.5-1.8-10.3c-1.2-6.8-4.1-15.7-6.4-22.7-1.2-3.8-2.4-6.6-3.7-10.4-1-2.8-2.4-5-3.3-7.5l-.8-3.1c-9.4-.6-10.4.6-18.5-4.3l-1.2,1.1-1.8,1.8-3.1,3.5h.1c-5.6,5.3-10.4,17.5-12.7,24.8a130.11,130.11,0,0,0-3.9,15.5l-1.1,6.7Z"/></g><polygon class="cls-1" points="-255.7 164.3 205.9 164.3 205.9 387.8 -255.7 387.8 -255.7 173.4 -255.7 164.3"/></svg>