<?xml version="1.0" encoding="UTF-8"?>
<!DOCTYPE svg PUBLIC "-//W3C//DTD SVG 1.1//EN" "http://www.w3.org/Graphics/SVG/1.1/DTD/svg11.dtd">
<!-- Creator: CorelDRAW X8 -->
<svg xmlns="http://www.w3.org/2000/svg" xml:space="preserve" width="87.1521mm" height="66.0487mm" version="1.1" style="shape-rendering:geometricPrecision; text-rendering:geometricPrecision; image-rendering:optimizeQuality; fill-rule:evenodd; clip-rule:evenodd"
viewBox="0 0 8738 6622"
 xmlns:xlink="http://www.w3.org/1999/xlink">
 <defs>
  <style type="text/css">
    #_2808227780224 .fil3 {fill:#FEFEFE}
    #_2808227780224 .fil11 {fill:#DCDDDD}
    #_2808227780224 .fil12 {fill:#8B8B8C}
    #_2808227780224 .fil14 {fill:#FED900}
    #_2808227780224 .fil4 {fill:#54868C}
    #_2808227780224 .fil6 {fill:#095660}
    #_2808227780224 .fil7 {fill:#0D6572}
    #_2808227780224 .fil0 {fill:#395F7D}
    #_2808227780224 .fil2 {fill:#54868C}
    #_2808227780224 .fil8 {fill:#5BA872}
    #_2808227780224 .fil1 {fill:#9DCCD1}
    #_2808227780224 .fil10 {fill:#FBD9B4}
    #_2808227780224 .fil13 {fill:#FCFFFF}
    #_2808227780224 .fil5 {fill:#FED6B3}
    #_2808227780224 .fil9 {fill:#FFC550}
  </style>
 </defs>
 <g id="Layer_x0020_1">
  <metadata id="CorelCorpID_0Corel-Layer"/>
  <g id="_2808227780224">
   <path class="fil0" d="M4759 2111c-565,4 -1107,-123 -1626,-266 -519,-142 -1044,-557 -1597,-622 -764,-90 -1923,580 -956,1764 845,1035 -1710,2778 59,3397 528,185 1143,221 1742,233 1326,26 2656,-53 3982,-132 491,-29 984,-58 1464,-137 268,-43 -95,-131 96,-268 241,-174 379,-350 206,-552 -291,-337 -511,-478 -719,-844 -114,-201 -12,-434 136,-630 508,-669 1810,-2073 292,-2567 -620,-202 -1796,614 -3079,624z"/>
   <path class="fil1" d="M1153 0l2873 0c151,0 276,120 276,268l0 5541c0,148 -125,268 -276,268l-2873 0c-152,0 -276,-120 -276,-268l0 -5541c0,-148 124,-268 276,-268z"/>
   <path class="fil2" d="M1138 153l2718 0c144,0 262,117 262,261l0 5402c0,144 -118,261 -262,261l-2718 0c-143,0 -261,-117 -261,-261l0 -5402c0,-144 118,-261 261,-261z"/>
   <polygon class="fil3" points="1003,560 3995,560 3995,5461 1003,5461 "/>
   <path class="fil4" d="M4554 2924l250 9 4 48c5,-63 -7,-48 53,-61l287 -2 5 -46c0,-2 2,-9 3,-11l8 -26c127,-12 121,69 215,121l1006 46 109 2c87,2 170,8 253,11 50,2 219,-15 229,31 24,-32 48,-47 74,-74 44,-47 39,-49 111,-48l30 95c100,2 280,-29 340,30l284 5 9 -154 15 -306c-5,-130 34,-404 5,-500l-3448 -146 -136 -5 -40 965 52 2 1 0 105 5 0 0 176 9z"/>
   <path class="fil5" d="M5812 3680c-11,82 -68,152 -94,239 -25,79 -45,176 -45,270 -1,102 13,199 62,268 62,87 92,75 189,128 4,76 -8,129 -49,173l11 118c85,35 98,41 212,34 1,-1 87,-31 110,-41 50,-23 70,-43 115,-54 24,-38 33,-52 76,-84 -4,-79 -3,-185 31,-241l32 -115c117,-181 245,-158 180,-349 -129,-43 -153,17 -184,78 -31,63 16,31 -43,50 -31,-59 37,-139 36,-219 0,-47 -17,-85 -22,-128 -6,-57 5,-85 1,-141 -124,-105 -245,-75 -527,-155l-91 169z"/>
   <path class="fil6" d="M7382 3773c0,44 36,253 79,298l25 -58c50,54 29,87 122,106 230,46 395,-65 427,271 105,-92 137,40 120,148 -29,59 -86,-27 -115,234 -12,113 -3,223 -10,335 28,69 27,143 103,168 87,29 159,-36 223,-57 78,-109 126,-154 88,-364 -26,-142 -67,-259 -82,-412 18,-332 -46,-534 -281,-653 -98,-49 -238,-105 -353,-122 -227,-35 -266,49 -346,106z"/>
   <path class="fil5" d="M7461 4071c-15,68 7,133 8,198 3,71 -2,118 -48,153l-6 45c5,95 30,191 84,238 110,95 337,-98 260,178 -17,61 -46,69 -104,84 -12,113 77,123 116,166 170,29 121,26 259,-26 7,-112 -2,-222 10,-335 29,-261 86,-175 115,-234 17,-108 -15,-240 -120,-148 -32,-336 -197,-225 -427,-271 -93,-19 -72,-52 -122,-106l-25 58z"/>
   <path class="fil7" d="M5812 3680l91 -169c282,80 403,50 527,155 4,56 -7,84 -1,141 5,43 22,81 22,128 1,80 -67,160 -36,219 59,-19 12,13 43,-50 31,-61 55,-121 184,-78 65,191 -63,168 -180,349 53,-3 89,-16 130,-40 39,-23 22,-11 53,-42l52 -56c84,-76 179,-364 142,-519 -13,-56 -73,-192 -99,-234 -51,-83 -103,-77 -198,-124 -51,-10 -96,-20 -145,-40l-106 -62c-128,-37 -307,-123 -378,32 -34,72 -14,124 -54,201 -47,90 -35,82 -47,189z"/>
   <path class="fil8" d="M5328 5528c57,100 76,101 60,231 -12,96 -29,203 -15,298l1 23 1308 0c12,-95 30,-444 29,-493 21,-16 11,-6 29,-26 23,-25 199,-303 210,-343 56,-98 154,-258 216,-343l15 -20c2,-2 6,-7 9,-10l-2 -7c45,-88 92,-139 130,-237 27,-16 24,-28 40,-54 55,-77 114,-181 111,-278 -1,-65 -23,-130 -8,-198 -12,-12 -200,-656 -216,-712 -37,-124 -28,-97 -64,-120l-238 17c-21,24 -16,-21 -21,60 -7,141 120,544 150,722 49,292 -486,844 -496,818 -2,-3 -9,1 -12,-2 -96,-42 -98,-78 -165,-123 -83,62 -74,85 -191,138 -151,69 -289,41 -333,-111 -61,18 -190,48 -227,88l-70 4 -129 -246c-29,-101 -90,-212 -129,-318 -57,-152 -47,-431 16,-588 30,-77 77,-393 79,-459l-48 -13 -214 -17c-57,-2 -40,3 -62,52 -12,25 -23,62 -35,92 -25,66 -50,118 -67,186l-60 159c-41,60 -99,287 -115,380 -21,125 -23,187 15,303 14,45 27,80 45,129 6,17 15,46 20,59 132,322 260,653 434,959z"/>
   <path class="fil1" d="M2871 5915c35,-41 81,-44 81,-136 -1,-86 -47,-113 -96,-140 -129,-19 -331,-6 -468,-5 -148,0 -328,-25 -329,145 -1,171 180,147 329,146 140,0 357,11 483,-10z"/>
   <path class="fil9" d="M6462 4375l-32 115c9,61 37,147 57,196 24,59 69,116 77,168 3,3 10,-1 12,2 16,40 238,-247 261,-277 -76,-44 -132,-265 -140,-342l-52 56c-31,31 -14,19 -53,42 -41,24 -77,37 -130,40zm1644 -1410l-125 126c-17,57 8,65 41,124 28,50 40,96 75,134 8,70 143,360 182,465 48,129 150,354 131,502 -8,56 -4,98 -48,126 15,153 56,270 82,412 38,210 -10,255 -88,364 -64,21 -136,86 -223,57 -76,-25 -75,-99 -103,-168 -104,1 -396,51 -375,-140l-467 -129 2 7c-3,3 -7,8 -9,10l-15 20c-55,77 -119,226 -171,264l-45 79c78,2 156,76 223,114 64,36 155,71 217,113 24,125 -2,277 -7,407l10 221c-1,3 -2,5 -3,7l1065 0 0 -27c-11,-197 -17,-690 18,-789 77,-220 160,-403 232,-638 20,-154 46,-238 25,-410 -12,-97 -65,-306 -115,-360 -47,-140 -177,-319 -252,-444 -105,-173 -136,-256 -208,-471l-49 24z"/>
   <path class="fil6" d="M7318 4601c-38,98 -85,149 -130,237l467 129c58,-15 87,-23 104,-84 77,-276 -150,-83 -260,-178 -54,-47 -79,-143 -84,-238l-57 80c-16,26 -13,38 -40,54z"/>
   <path class="fil10" d="M4808 2981c114,72 186,59 335,89l10 139 214 17c30,-92 34,-167 12,-270 -94,-52 -88,-133 -215,-121l-8 26c-1,2 -3,9 -3,11l-5 46 -287 2c-60,13 -48,-2 -53,61z"/>
   <path class="fil10" d="M6976 3046c-63,66 -60,118 -33,210l238 -17c-19,-100 65,-82 166,-95 89,-12 154,-25 184,-95 -60,-59 -240,-28 -340,-30l-30 -95c-72,-1 -67,1 -111,48 -26,27 -50,42 -74,74z"/>
   <path class="fil10" d="M7824 2900c58,34 145,109 157,191l125 -126c-134,-119 12,-293 -267,-371l-15 306z"/>
   <path class="fil1" d="M2965 403l-2 -76c-80,-7 -510,-10 -673,-8l-1 80c50,4 603,4 676,4z"/>
   <path class="fil10" d="M6291 3258l106 62c49,20 94,30 145,40 -47,-104 68,-167 -48,-356l-109 -2c-72,81 -89,107 -94,256z"/>
   <path class="fil3" d="M7887 1983c24,-23 193,-152 154,-165 -44,-11 -169,122 -208,157 -30,53 12,51 54,8z"/>
   <polygon class="fil1" points="2078,403 2170,403 2166,317 2085,318 "/>
   <path class="fil3" d="M8042 2268c129,5 109,-21 109,-21 -78,-62 -290,4 -109,21z"/>
   <path class="fil3" d="M7620 1700c-6,-21 -31,-3 -36,69 -15,218 83,31 36,-69z"/>
   <path class="fil11" d="M1879 4020l1844 0c19,0 34,15 34,34l0 0c0,18 -15,33 -34,33l-1844 0c-18,0 -33,-15 -33,-33l0 0c0,-19 15,-34 33,-34z"/>
   <path class="fil11" d="M1881 4715l1844 0c18,0 34,15 34,34l0 0c0,18 -16,33 -34,33l-1844 0c-18,0 -34,-15 -34,-33l0 0c0,-19 16,-34 34,-34z"/>
   <path class="fil11" d="M1884 4214l1326 0c19,0 34,15 34,33l0 0c0,19 -15,34 -34,34l-1326 0c-18,0 -33,-15 -33,-34l0 0c0,-18 15,-33 33,-33z"/>
   <path class="fil11" d="M1886 4909l1326 0c18,0 33,15 33,33l0 0c0,19 -15,34 -33,34l-1326 0c-18,0 -33,-15 -33,-34l0 0c0,-18 15,-33 33,-33z"/>
   <path class="fil11" d="M1264 3932l346 0c24,0 45,20 45,45l0 346c0,24 -21,45 -45,45l-346 0c-25,0 -45,-21 -45,-45l0 -346c0,-25 20,-45 45,-45zm17 63l311 0 0 310 -311 0 0 -310z"/>
   <path class="fil12" d="M1638 4037c-38,35 -110,120 -153,141 -48,-39 -60,-84 -111,-58 -39,42 31,95 111,150 48,-36 90,-81 131,-123 63,-63 118,-116 179,-185l-41 -35c-45,28 -76,74 -116,110z"/>
   <path class="fil11" d="M1270 4601l346 0c24,0 45,20 45,45l0 346c0,24 -21,44 -45,44l-346 0c-25,0 -45,-20 -45,-44l0 -346c0,-25 20,-45 45,-45zm17 62l311 0 0 311 -311 0 0 -311z"/>
   <path class="fil12" d="M1644 4706c-38,35 -110,120 -153,141 -48,-39 -60,-84 -111,-58 -39,42 31,95 111,149 48,-35 90,-80 131,-122 63,-63 118,-116 179,-185l-41 -35c-45,28 -76,74 -116,110z"/>
   <path class="fil11" d="M1884 3313l1844 0c18,0 33,15 33,33l0 0c0,19 -15,34 -33,34l-1844 0c-19,0 -34,-15 -34,-34l0 0c0,-18 15,-33 34,-33z"/>
   <path class="fil11" d="M1889 3506l1326 0c18,0 33,15 33,34l0 0c0,18 -15,33 -33,33l-1326 0c-19,0 -34,-15 -34,-33l0 0c0,-19 15,-34 34,-34z"/>
   <path class="fil11" d="M1252 3241l346 0c25,0 45,20 45,45l0 346c0,24 -20,45 -45,45l-346 0c-25,0 -45,-21 -45,-45l0 -346c0,-25 20,-45 45,-45zm18 62l310 0 0 311 -310 0 0 -311z"/>
   <path class="fil12" d="M1627 3346c-39,35 -111,120 -154,141 -48,-39 -60,-84 -111,-58 -39,42 31,95 111,150 49,-36 90,-81 132,-123 62,-63 117,-116 178,-185l-41 -35c-45,28 -76,74 -115,110z"/>
   <path class="fil13" d="M5478 2326l1992 68c20,1 35,18 35,38l0 0c-1,20 -18,35 -38,35l-1991 -68c-20,-1 -36,-18 -35,-38l0 0c0,-20 17,-35 37,-35z"/>
   <path class="fil13" d="M5476 2536l1432 49c20,0 36,17 35,37l0 0c0,20 -17,36 -37,35l-1432 -49c-20,-1 -36,-18 -35,-37l0 0c1,-20 18,-36 37,-35z"/>
   <path class="fil13" d="M4798 2226l374 12c27,1 48,24 47,50l-13 374c-1,27 -23,48 -50,47l-374 -13c-26,-1 -47,-23 -47,-50l13 -374c1,-26 24,-47 50,-46zm17 68l336 11 -12 336 -335 -12 11 -335z"/>
   <path class="fil13" d="M5199 2353c-43,36 -124,126 -171,146 -51,-43 -62,-93 -117,-66 -44,44 29,103 114,165 53,-36 100,-83 146,-127 70,-66 131,-121 200,-193l-43 -40c-49,29 -85,78 -129,115z"/>
   <path class="fil14" d="M2472 2695c2,0 3,0 5,0 62,1 115,-59 80,-133 -4,57 -29,88 -81,88 -2,0 -3,0 -4,0 -1,0 -2,0 -4,0 -52,0 -77,-31 -81,-88 -35,74 18,134 80,133 2,0 3,0 5,0zm0 -90c1,0 3,0 4,0 46,1 56,-46 45,-74 -8,28 -29,43 -49,38 -20,5 -41,-10 -49,-38 -11,28 -1,75 45,74 1,0 3,0 4,0zm0 -140c5,0 10,-1 14,0 146,6 332,56 409,26 52,-20 137,-84 177,-28 12,17 -36,60 -37,10 -20,-41 -62,19 -31,51 -111,110 -412,-15 -441,-23 -8,-2 -12,6 -6,18 11,19 43,46 51,75 15,58 -31,151 -125,154 -3,0 -7,0 -11,0 -4,0 -7,0 -11,0 -94,-3 -140,-96 -125,-154 8,-29 40,-56 51,-75 6,-12 2,-20 -6,-18 -29,8 -330,133 -441,23 31,-32 -11,-92 -31,-51 -1,50 -49,7 -37,-10 40,-56 125,8 177,28 77,30 263,-20 409,-26 4,-1 9,0 14,0zm0 -173c-8,-1 -17,2 -18,10 -10,79 -1,68 -29,101 -38,47 -77,43 -138,47 -58,3 -103,7 -113,-18 -6,-13 27,-112 116,-130 32,-6 91,9 91,-10 0,-32 -88,-22 -116,-15 -97,25 -179,65 -254,174 142,74 296,1 457,-7 1,0 3,0 4,0 1,0 3,0 4,0 161,8 315,81 458,7 -76,-109 -158,-149 -255,-174 -28,-7 -116,-17 -116,15 0,19 59,4 91,10 89,18 122,117 116,130 -9,25 -55,21 -113,18 -61,-4 -100,0 -138,-47 -28,-33 -19,-22 -29,-101 0,-8 -10,-11 -18,-10zm0 -474c-4,-3 -8,-11 -8,-25 -2,-65 -19,-134 -12,-210 3,-26 11,-41 20,-45 9,4 17,19 20,45 7,76 -10,145 -12,210 0,14 -4,22 -8,25zm0 -674c-97,73 -251,89 -249,277 -1,75 34,117 164,115 39,0 39,133 37,192 -24,-42 -47,-70 -91,-103 -100,-87 -147,-106 -147,-213 0,-81 20,-107 62,-162 -149,25 -365,153 -206,308 70,69 182,13 259,78 44,32 128,128 128,194l2 39 -7 175c-1,10 -14,8 -14,-1 0,-189 -100,-323 -276,-323 -65,0 -103,14 -171,11 -65,1 -141,-51 -143,-105 -72,69 -61,237 71,223 85,-18 94,-100 217,-100 76,0 139,2 199,65 27,28 50,54 65,150 1,22 -8,21 -13,9 -46,-103 -93,-128 -177,-132 -134,-1 -250,197 -348,197 -44,0 -70,-18 -96,-53 2,82 14,158 102,159 54,1 98,-66 127,-114 51,-83 148,-180 254,-158 94,24 148,122 148,267 0,29 -12,80 -47,80 -33,0 -45,-8 -45,-41 0,-60 21,-201 -48,-201 -37,-2 -53,20 -54,49 0,31 62,57 51,8 -4,-15 21,-21 22,2 -1,49 -44,44 -40,149 0,82 65,65 149,65 70,9 45,83 -3,83 -24,1 -32,-13 -48,-16 -14,-1 -27,2 -30,12 -7,40 50,51 96,51 32,2 -13,28 -35,29 -15,0 -15,16 -1,16 80,-2 85,-57 101,-130 1,-19 13,-27 35,-28 22,1 34,9 36,28 15,73 20,128 100,130 14,0 14,-16 -1,-16 -22,-1 -67,-27 -35,-29 46,0 103,-11 96,-51 -3,-10 -16,-13 -30,-12 -16,3 -23,17 -47,16 -49,0 -74,-74 -4,-83 84,0 149,17 149,-65 4,-105 -39,-100 -40,-149 1,-23 26,-17 22,-2 -11,49 51,23 51,-8 -1,-29 -17,-51 -54,-49 -69,0 -48,141 -48,201 0,33 -12,41 -45,41 -35,0 -46,-51 -46,-80 0,-145 54,-243 147,-267 106,-22 203,75 254,158 29,48 73,115 127,114 88,-1 100,-77 102,-159 -26,35 -52,53 -96,53 -98,0 -214,-198 -348,-197 -84,4 -131,29 -177,132 -5,12 -14,13 -13,-9 15,-96 38,-122 65,-150 60,-63 123,-65 200,-65 122,0 131,82 216,100 133,14 143,-154 71,-223 -2,54 -78,106 -143,105 -68,3 -106,-11 -171,-11 -175,0 -276,134 -276,323 0,9 -13,11 -14,1l-7 -175 2 -39c0,-66 84,-162 128,-194 77,-65 189,-9 260,-78 158,-155 -58,-283 -207,-308 42,55 62,81 62,162 0,107 -47,126 -147,213 -44,33 -67,61 -91,103 -2,-59 -2,-192 37,-192 130,2 165,-40 164,-115 2,-188 -152,-204 -249,-277zm-58 118c-35,10 -54,67 -51,126 0,31 27,73 45,86 -12,-34 -31,-116 6,-212zm38 801c0,-18 -18,-21 -19,7 2,84 -36,81 -39,114 0,24 5,41 36,38 28,0 23,-52 23,-76l-1 -83zm-328 -435c-23,37 -95,70 -141,70 -167,0 -161,-182 -31,-268 -4,124 59,198 172,198zm-182 243c-20,80 -53,131 -122,131 -92,-9 -87,-142 -67,-192 46,82 121,88 189,61zm380 289c16,-1 23,16 16,28 -6,13 -23,11 -31,-1 -5,-9 -2,-26 15,-27zm-453 102c-38,0 -85,-61 -90,-98 24,10 53,21 81,16 33,-6 35,-9 52,-33 31,49 24,115 -43,115zm67 82c-51,15 -88,-46 -97,-65 33,20 97,19 109,-17 13,35 20,67 -12,82zm18 64c-22,-4 -35,-13 -39,-29 26,4 54,-4 64,-26 14,24 10,61 -25,55zm243 -69c-23,22 -45,63 -62,90 -12,17 -30,11 -25,1 14,-30 55,-81 87,-91zm-18 -14c-22,22 -49,49 -55,55 -36,43 -53,68 -64,43 -2,-5 18,-35 48,-56 23,-17 42,-34 71,-42zm154 393c-33,18 -119,-2 -132,-44 50,-24 74,-44 112,-73 -2,56 4,74 20,117zm-274 -116c26,-3 84,0 121,-11 60,-20 92,-24 148,-48 -21,41 -83,77 -103,91 -51,44 -155,41 -166,-32zm471 -1340c35,10 54,67 51,126 0,31 -27,73 -45,86 12,-34 31,-116 -6,-212zm-38 801c0,-18 19,-21 19,7 -2,84 36,81 39,114 0,24 -5,41 -36,38 -28,0 -23,-52 -23,-76l1 -83zm328 -435c23,37 95,70 141,70 168,0 161,-182 32,-268 3,124 -60,198 -173,198zm182 243c20,80 53,131 122,131 92,-9 87,-142 67,-192 -46,82 -121,88 -189,61zm-380 289c-16,-1 -23,16 -16,28 6,13 23,11 31,-1 5,-9 2,-26 -15,-27zm453 102c38,0 85,-61 90,-98 -24,10 -53,21 -81,16 -33,-6 -35,-9 -52,-33 -31,49 -24,115 43,115zm-67 82c51,15 88,-46 97,-65 -33,20 -96,19 -109,-17 -13,35 -20,67 12,82zm-17 64c21,-4 34,-13 38,-29 -26,4 -54,-4 -64,-26 -14,24 -10,61 26,55zm-244 -69c23,22 45,63 62,90 12,17 30,11 25,1 -14,-30 -55,-81 -87,-91zm18 -14c22,22 49,49 55,55 36,43 53,68 64,43 2,-5 -18,-35 -48,-56 -23,-17 -42,-34 -71,-42zm-154 393c34,18 119,-2 132,-44 -50,-24 -74,-44 -112,-73 2,56 -4,74 -20,117zm274 -116c-25,-3 -84,0 -120,-11 -60,-20 -93,-24 -149,-48 21,41 83,77 103,91 51,44 155,41 166,-32z"/>
  </g>
 </g>
</svg>
