<?xml version="1.0" encoding="UTF-8"?>
<!DOCTYPE svg PUBLIC "-//W3C//DTD SVG 1.1//EN" "http://www.w3.org/Graphics/SVG/1.1/DTD/svg11.dtd">
<!-- Creator: CorelDRAW X8 -->
<svg xmlns="http://www.w3.org/2000/svg" xml:space="preserve" width="169.333mm" height="169.333mm" version="1.1" style="shape-rendering:geometricPrecision; text-rendering:geometricPrecision; image-rendering:optimizeQuality; fill-rule:evenodd; clip-rule:evenodd"
viewBox="0 0 16933 16933"
 xmlns:xlink="http://www.w3.org/1999/xlink">
 <defs>
  <style type="text/css">
   
    .fil8 {fill:#DCDDDD}
    .fil14 {fill:#005D94}
    .fil3 {fill:#03252B}
    .fil11 {fill:#04282A}
    .fil12 {fill:#572A19}
    .fil13 {fill:#614C2A}
    .fil4 {fill:#B3BCCA}
    .fil10 {fill:#B8846E}
    .fil1 {fill:#D3D6DB}
    .fil7 {fill:#D67870}
    .fil9 {fill:#D7642A}
    .fil0 {fill:#D7D872}
    .fil2 {fill:#E8AA90}
    .fil5 {fill:#F8D8B8}
    .fil6 {fill:#FEFEFE}
   
  </style>
 </defs>
 <g id="Layer_x0020_1">
  <metadata id="CorelCorpID_0Corel-Layer"/>
  <g id="_2300837739008">
   <polygon class="fil0" points="-6841,13190 24892,13190 24892,14945 14539,14945 1406,14945 -6841,14945 "/>
   <path class="fil0" d="M8711 4704c3117,0 5643,2527 5643,5644 0,1896 -935,3574 -2370,4597l-6547 0c-1434,-1023 -2370,-2701 -2370,-4597 0,-3117 2527,-5644 5644,-5644z"/>
  </g>
  <path class="fil1" d="M12587 11908c-201,545 -967,342 -772,-227 195,-569 992,-373 772,227zm2090 -1857l-25 -31c-155,-185 -387,-130 -722,-130 -305,0 -559,-20 -866,-20 -316,0 -1568,16 -1775,-10l-1080 -1c-68,110 -115,43 -197,406 -108,477 -259,965 -367,1451l-491 1924 4646 3 20 -51 197 -778 245 -944c9,-40 87,-386 163,-641l0 0 140 -550 0 0c56,-228 157,-523 112,-628z"/>
  <path class="fil2" d="M11289 9860c207,26 1459,10 1775,10 183,0 347,7 515,13l44 -81c26,-71 87,-149 156,-278 53,-98 92,-185 150,-282l235 -433c12,-27 22,-45 31,-60l-1 0 80 -152 2 -3 2 -3 1 -3c22,-41 45,-86 71,-136l0 1 76 -143 1 -4 37 -68c39,-75 81,-155 121,-237 215,-403 533,-978 541,-983 37,-27 177,-59 229,-81 156,-64 369,-296 390,-510 46,-454 -181,-550 -378,-680 -41,-27 -45,-30 -70,-57 19,-91 246,-531 298,-607 -1,-108 -20,-251 -177,-161 -22,13 -82,108 -124,164l-153 233c-8,11 -15,23 -22,35 -58,90 -118,181 -174,264 -200,11 -291,52 -380,186 -377,567 -48,583 -235,848 -5,7 -10,14 -15,21 -17,21 -37,49 -63,86l3 8 -1360 1904c0,0 -9,24 -24,31l0 0c-45,136 -140,118 -317,139 -155,19 -314,29 -473,51 -246,33 -723,117 -962,89 -33,-54 -74,-90 -126,-96 -63,-8 -149,-10 -224,-17 -130,-10 -304,-91 -438,-76l-541 17c-185,0 -386,6 -553,16l-1 0 0 0c-64,4 -123,8 -175,13 -8,-126 7,-232 25,-346 35,-222 12,-157 107,-250 141,2 318,-97 416,-179 89,-75 81,-61 143,-159 50,-81 78,-99 93,-207 60,-120 41,-188 81,-293 67,-173 131,-107 174,-241 -7,5 -15,10 -22,14 3,-11 5,-22 7,-36 13,-74 22,-201 -18,-331 -39,-130 -127,-263 -179,-338 -53,-74 -69,-90 -75,-112 -3,-14 -2,-29 -1,-45 43,-14 -92,-338 -117,-395l-98 -150c-245,16 -393,40 -652,10 -219,-26 -426,-87 -593,51 -144,120 -192,264 -206,425 -10,77 -29,227 -38,339 -9,115 -7,191 -3,242 3,41 8,66 2,99 -115,-44 -142,-164 -394,-139 -153,16 -263,115 -323,225l-5 1c-43,171 -39,322 57,452 79,106 216,167 383,152l173 -54c44,117 47,120 4,239 -40,96 -160,838 -251,1035 -76,4 -188,0 -296,3l-1 -2 -289 13c-385,-12 -1225,417 -1489,579 -455,280 -732,542 -1073,927 -58,135 -162,207 -222,328 38,63 -3,-2 48,54 31,33 29,17 37,50l4 74c-34,28 -58,45 -93,81 -24,23 -17,21 -46,45 -256,214 -697,784 -944,1070 -182,276 -126,292 -138,576 -5,140 -24,252 -26,393 88,54 157,198 392,280 202,69 1762,34 2051,37 -15,58 -28,66 -33,118 -7,84 -5,61 25,99 5,-146 -6,-218 146,-231 334,-28 2421,7 2867,2 -77,-249 -294,-443 -517,-556l974 -5 0 -32c67,-40 378,-1376 419,-1546 60,-250 133,-535 202,-792 120,-453 47,-508 460,-553l1080 1zm-2700 -193c8,-1 16,-2 23,-3 -7,1 -15,2 -23,3z"/>
  <path class="fil3" d="M7385 7023l5 -1c60,-110 170,-209 323,-225 261,-26 281,105 408,144l0 1c76,-440 -97,-840 231,-1111 167,-138 374,-77 593,-51 259,30 407,6 652,-10l98 150c117,-13 228,-125 223,-273 -5,-172 -112,-267 -203,-343 -514,-302 -1425,-261 -1901,55 -222,147 -407,368 -499,669 -87,284 -92,786 70,995z"/>
  <path class="fil4" d="M9128 12750l0 32c13,33 -63,528 -165,553l-124 11c-56,0 -113,-3 -168,-3 -446,5 -2533,-30 -2867,-2 -152,13 -141,85 -146,231l39 86 8100 -3 23 -63 -20 51 -4646 -3 491 -1924c108,-486 259,-974 367,-1451 82,-363 129,-296 197,-406 -413,45 -340,100 -461,553 -68,257 -141,542 -201,792 -41,170 -352,1506 -419,1546z"/>
  <path class="fil5" d="M9015 6922c-26,-133 32,-147 135,-115 24,111 -33,163 -135,115zm-898 18l9 55 121 -21c76,-12 182,-46 267,-53 62,467 808,584 888,-83 71,-20 105,-29 173,0 46,539 481,376 561,336 354,-234 226,-886 -262,-814l-17 22 0 0c-118,35 -96,46 -174,111 -66,35 -96,47 -108,234l-195 25c-9,-257 -234,-350 -454,-342 -136,5 -316,87 -371,214 -25,57 -40,119 -41,193 -98,53 -239,56 -340,99 -5,2 -9,4 -14,6l-43 18zm1752 -538l67 18c15,83 11,74 -42,114l-37 4c0,13 1,26 1,39 0,-13 -1,-25 -1,-39l-103 -46c52,-64 47,-42 115,-90l0 0zm-11 175c0,12 0,23 1,33 -1,-10 -1,-21 -1,-33zm1 53c1,10 1,18 2,26 -1,-8 -1,-16 -2,-26zm2 34c0,5 1,10 1,14 0,-4 -1,-9 -1,-14zm3 37c0,4 1,7 1,10 0,-3 -1,-6 -1,-10zm-172 215c-32,-101 35,-193 114,-114 78,79 -12,149 -114,114z"/>
  <path class="fil6" d="M12587 11908c220,-600 -577,-796 -772,-227 -195,569 571,772 772,227z"/>
  <path class="fil7" d="M1854 13081l1202 -1c79,0 110,-17 130,33l37 -75c2,-141 21,-253 26,-393 3,-75 11,-140 18,-202 8,-79 30,-138 -42,-146l-1442 1 -22 1c-5,154 7,277 21,424 7,67 8,134 15,200 9,79 7,106 57,158z"/>
  <path class="fil8" d="M1783 12298l1442 -1c12,-171 -12,-374 25,-525l-1501 7c37,152 34,349 34,519z"/>
  <path class="fil8" d="M3186 13113c-20,-50 -51,-33 -130,-33l-1202 1c-24,61 10,569 47,654 79,182 356,138 589,138 812,-1 620,-16 696,-760z"/>
  <path class="fil7" d="M1749 11779l1501 -7 42 3c66,7 64,-49 70,-125 19,-253 -88,-193 -199,-199 -89,-229 -27,-152 -109,-174l-932 -4c-250,-5 -196,28 -225,111 -33,93 4,51 -222,78 -21,115 -49,310 74,317z"/>
  <path class="fil9" d="M8671 13343c55,0 112,3 168,3l124 -11c102,-25 178,-520 165,-553l-974 5c223,113 440,307 517,556z"/>
  <path class="fil10" d="M9061 8838c-8,-126 7,-232 25,-346 35,-222 12,-157 107,-250 -345,25 -394,46 -673,-88 -197,-94 -337,-214 -418,-393 -90,248 327,618 586,767 101,59 230,90 332,144 16,120 -25,118 41,166z"/>
  <path class="fil11" d="M8674 6506c71,-48 142,-92 252,-96 167,-6 181,75 272,-13 20,-190 -154,-189 -328,-150 -120,28 -281,89 -260,238 28,20 18,20 64,21z"/>
  <path class="fil11" d="M9832 6297l-30 -5 -1 0c-13,-3 -26,-5 -39,-7l0 0c-76,-12 -156,-18 -221,18 -26,91 5,133 38,182l104 8 0 0c16,-2 162,41 174,45 12,3 52,-6 52,-6 0,0 43,-53 39,-54 -5,0 -3,-85 -3,-85l-113 -96z"/>
  <path class="fil12" d="M7825 7627c3,78 -1,43 63,97 21,18 24,23 45,41 42,35 23,22 69,47 43,-119 40,-122 -4,-239l-173 54z"/>
  <path class="fil13" d="M8986 6945c146,69 227,-5 194,-164 -148,-45 -231,-25 -194,164z"/>
  <path class="fil13" d="M9693 6922c151,71 235,-6 200,-170 -153,-47 -238,-26 -200,170z"/>
  <path class="fil14" d="M7165 8861c-385,-12 -1225,417 -1489,579 -455,280 -732,542 -1073,927 -58,135 -162,207 -222,328 38,63 -3,-2 48,54 31,33 29,17 37,50 119,56 210,145 324,217 103,65 888,590 897,654 15,110 -537,550 -564,672 48,27 1687,303 1873,324 192,22 372,3 565,5 199,1 305,37 465,73 116,26 887,-19 1102,6 67,-40 378,-1376 419,-1546 60,-250 133,-535 202,-792 120,-453 47,-508 460,-553l1080 1c-34,-228 -46,-943 -296,-975 -63,-8 -149,-10 -224,-17 -130,-10 -304,-91 -438,-76l-1095 33c-7,321 17,496 -203,678 -161,133 -410,179 -672,174 -544,-11 -855,-292 -907,-829l-289 13z"/>
 </g>
</svg>
