<?xml version="1.0" encoding="utf-8"?>
<!-- Generator: Adobe Illustrator 22.1.0, SVG Export Plug-In . SVG Version: 6.00 Build 0)  -->
<svg version="1.1" id="Layer_1" xmlns="http://www.w3.org/2000/svg" xmlns:xlink="http://www.w3.org/1999/xlink" x="0px" y="0px"
	 viewBox="0 0 1080 1080" style="enable-background:new 0 0 1080 1080;" xml:space="preserve">
<style type="text/css">
	.st0{fill:#D7D872;}
	.st1{fill:#D3D6DB;}
	.st2{fill:#E8AB91;}
	.st3{fill:#11262B;}
	.st4{fill:#B3BCCA;}
	.st5{fill:#F7D7B8;}
	.st6{fill:#FFFFFF;}
	.st7{fill:#D67870;}
	.st8{fill:#DCDDDD;}
	.st9{fill:#D7652B;}
	.st10{fill:#B8846E;}
	.st11{fill:#10292B;}
	.st12{fill:#572B1B;}
	.st13{fill:#624D2B;}
	.st14{fill:#015E95;}
</style>
<g>
	<path class="st0" d="M432.7,153.3c236,0,427.3,191.4,427.3,427.4c0,143.6-70.8,270.6-179.5,348.2H184.7
		C76.1,851.3,5.2,724.2,5.2,580.7C5.2,344.6,196.6,153.3,432.7,153.3z"/>
	<path class="st1" d="M836.6,698.8c-15.2,41.3-73.1,25.9-58.4-17.2C792.9,638.6,853.3,653.4,836.6,698.8z M994.9,558.1l-1.9-2.3
		c-11.8-14.1-29.3-9.9-54.6-9.8c-23.1,0-42.4-1.5-65.7-1.5c-23.9-0.1-118.7,1.3-134.4-0.8l-81.8-0.1c-5.1,8.3-8.8,3.2-15,30.8
		c-8.1,36-19.6,73.1-27.8,109.8l-37.2,145.7l351.9,0.2l1.5-3.8l14.9-58.9l18.6-71.5c0.6-3,6.5-29.2,12.2-48.6l0,0l10.6-41.6l0,0
		C990.6,588.5,998.3,566.1,994.9,558.1z"/>
	<path class="st2" d="M738.3,543.7c15.7,2,110.5,0.7,134.4,0.8c13.9,0,26.4,0.5,39,1l3.3-6.1c1.9-5.4,6.5-11.3,11.8-21
		c4-7.5,7-14.1,11.3-21.4l17.8-32.8c0.9-2,1.7-3.3,2.4-4.5h-0.1l6.1-11.5l0.1-0.3l0.1-0.2l0.1-0.3c1.6-3.1,3.4-6.5,5.4-10.2l0,0
		l5.6-10.8l0.1-0.3l2.8-5.1c3-5.7,6.2-11.8,9.2-18c16.3-30.5,40.4-74,41-74.5c2.8-2,13.4-4.5,17.3-6.1c11.8-4.9,28-22.4,29.6-38.6
		c3.4-34.4-13.8-41.6-28.7-51.5c-3.1-2-3.4-2.3-5.3-4.3c1.5-6.9,18.6-40.2,22.5-45.9c-0.1-8.2-1.5-19.1-13.4-12.2
		c-1.7,1-6.2,8.2-9.5,12.4l-11.6,17.7c-0.6,0.9-1.1,1.7-1.7,2.6c-4.4,6.9-8.9,13.7-13.2,20c-15.2,0.8-22.1,4-28.8,14.1
		c-28.5,42.9-3.6,44.1-17.8,64.2c-0.3,0.6-0.8,1.1-1.1,1.6c-1.3,1.6-2.8,3.7-4.8,6.5l0.2,0.6L860,453.7c0,0-0.7,1.8-1.8,2.4l0,0
		c-3.4,10.2-10.6,8.9-24,10.5c-11.8,1.5-23.8,2.2-35.8,3.8c-18.6,2.6-54.7,8.9-72.8,6.8c-2.6-4.1-5.7-6.8-9.6-7.3
		c-4.7-0.6-11.3-0.8-17-1.3c-9.9-0.8-23-7-33.1-5.8l-41,1.3c-14,0-29.2,0.5-41.9,1.3l0,0l0,0c-4.9,0.3-9.4,0.6-13.3,1
		c-0.6-9.6,0.6-17.6,1.9-26.2c2.6-16.8,0.9-11.9,8.1-18.9c10.7,0.1,24.1-7.3,31.5-13.5c6.8-5.7,6.1-4.7,10.9-12.1
		c3.8-6.1,5.8-7.4,7-15.7c4.6-9.1,3.1-14.2,6.1-22.2c5.1-13.1,10-8.1,13.2-18.2c-0.6,0.4-1.2,0.8-1.7,1c0.2-0.8,0.4-1.7,0.6-2.7
		c1-5.6,1.7-15.2-1.3-25.1c-3-9.8-9.7-19.9-13.6-25.6c-4-5.6-5.2-6.8-5.6-8.5c-0.2-1-0.2-2.2-0.1-3.4c3.3-1-6.9-25.6-8.8-29.9
		l-7.4-11.3c-18.6,1.2-29.7,3-49.3,0.7c-16.6-1.9-32.3-6.5-45,4c-10.9,9-14.5,19.9-15.6,32.1c-0.8,5.8-2.2,17.2-2.9,25.7
		c-0.7,8.7-0.6,14.5-0.3,18.3c0.3,3.1,0.6,5,0.2,7.5c-8.8-3.3-10.8-12.5-29.9-10.5c-11.6,1.2-20,8.7-24.4,17l-0.4,0.1
		c-3.3,13-3,24.4,4.3,34.3c5.9,8,16.4,12.6,29,11.5l13.1-4.1c3.3,8.9,3.5,9,0.3,18.2c-3.1,7.2-12.1,63.4-18.9,78.4
		c-5.8,0.2-14.3,0-22.5,0.2l-0.1-0.1l-21.9,1c-29.2-1-92.8,31.5-112.8,43.8c-34.4,21.2-55.5,41.1-81.3,70.2
		c-4.3,10.2-12.2,15.7-16.8,24.8c2.9,4.8-0.2-0.1,3.6,4.2c2.3,2.5,2.2,1.3,2.9,3.8l0.3,5.6c-2.6,2.1-4.4,3.3-7.1,6.1
		c-1.7,1.7-1.3,1.6-3.4,3.4c-19.4,16.2-52.8,59.4-71.5,81.1c-13.8,20.9-9.5,22.1-10.4,43.6c-0.4,10.6-1.9,19.1-1.9,29.8
		c6.7,4.1,11.8,15,29.7,21.2c15.2,5.3,133.4,2.6,155.3,2.9c-1.2,4.5-2.2,5-2.5,8.9c-0.6,6.4-0.5,4.7,1.8,7.6
		c0.4-11.1-0.4-16.6,11.1-17.5c25.3-2.2,183.4,0.6,217.1,0.1c-5.8-18.9-22.3-33.5-39.1-42l73.7-0.4v-2.4
		c5.1-3.1,28.7-104.2,31.7-117.1c4.6-18.9,10.2-40.4,15.3-59.9c9.1-34.3,3.6-38.5,34.9-41.9L738.3,543.7z M533.9,529
		c0.6,0,1.2-0.1,1.8-0.2C535.1,528.9,534.5,529,533.9,529z"/>
	<path class="st3" d="M442.7,328.8l0.4-0.1c4.5-8.3,12.8-15.8,24.4-17c19.8-2,21.2,7.9,30.8,10.9h0.1c5.7-33.3-7.4-63.5,17.5-84.1
		c12.7-10.5,28.3-5.8,45-4c19.6,2.3,30.8,0.5,49.3-0.7l7.4,11.3c8.8-1,17.3-9.5,16.9-20.6c-0.4-13.1-8.6-20.3-15.4-26
		c-38.9-22.8-107.9-19.8-144,4.1c-16.8,11.1-30.8,27.9-37.7,50.7C430.8,275,430.5,313,442.7,328.8z"/>
	<path class="st4" d="M574.6,762.6v2.4c1,2.4-4.7,40-12.5,41.9l-9.4,0.8c-4.2,0-8.5-0.2-12.7-0.2c-33.8,0.4-191.8-2.3-217.1-0.1
		c-11.5,1-10.6,6.4-11.1,17.5l3,6.5l613.4-0.3l1.8-4.7l-1.5,3.8l-351.9-0.2l37.2-145.7c8.2-36.7,19.6-73.8,27.8-109.8
		c6.2-27.6,9.8-22.5,15-30.8c-31.2,3.4-25.7,7.6-34.9,41.9c-5.1,19.5-10.7,41-15.3,59.9C603.3,658.3,579.7,759.5,574.6,762.6z"/>
	<path class="st5" d="M566.2,321.2c-2-10,2.4-11.1,10.2-8.7C578.1,320.9,573.9,324.9,566.2,321.2z M498.2,322.6l0.7,4.2l9.1-1.5
		c5.7-1,13.8-3.5,20.2-4c4.7,35.4,61.2,44.2,67.3-6.3c5.3-1.6,7.9-2.3,13.1,0c3.5,40.8,36.4,28.5,42.5,25.4
		c26.7-17.7,17-67.1-19.8-61.6l-1.3,1.6l0,0c-8.9,2.6-7.2,3.5-13.2,8.4c-5,2.6-7.3,3.5-8.2,17.7l-14.8,1.8
		c-0.7-19.4-17.7-26.4-34.4-25.9c-10.4,0.4-23.9,6.6-28.1,16.2c-1.9,4.3-3,9-3.1,14.6c-7.4,4-18,4.3-25.7,7.6
		c-0.3,0.1-0.7,0.3-1,0.4L498.2,322.6z M630.8,281.9l5.1,1.3c1.1,6.3,0.8,5.6-3.1,8.7l-2.9,0.2c0,1.1,0.1,2.1,0.1,3
		c0-0.9-0.1-1.9-0.1-3l-7.8-3.5C626,283.9,625.7,285.5,630.8,281.9L630.8,281.9z M630,295.1c0,0.9,0,1.7,0.1,2.6
		C630,296.8,630,296,630,295.1z M630.1,299.1c0,0.7,0,1.4,0.1,1.9C630.1,300.5,630.1,299.8,630.1,299.1z M630.2,301.7
		c0.1,0.3,0.1,0.7,0.1,1C630.2,302.4,630.2,302,630.2,301.7z M630.4,304.6c0.1,0.2,0.1,0.5,0.1,0.7
		C630.5,305,630.5,304.8,630.4,304.6z M617.4,320.8c-2.4-7.6,2.6-14.6,8.6-8.6C632,318.1,625.2,323.5,617.4,320.8z"/>
	<path class="st6" d="M836.6,698.8c16.8-45.4-43.6-60.3-58.4-17.2C763.4,724.7,821.4,740.1,836.6,698.8z"/>
	<path class="st7" d="M23.9,787.6l91-0.1c6,0,8.3-1.3,9.8,2.5l2.9-5.7c0.1-10.6,1.5-19.1,1.9-29.8c0.3-5.6,0.8-10.6,1.3-15.2
		c0.7-6,2.3-10.5-3.1-11.1l-109.2,0.1l-1.7,0.1c-0.4,11.6,0.5,21,1.6,32.1c0.5,5,0.6,10.2,1.1,15.1C20.2,781.6,20,783.7,23.9,787.6z
		"/>
	<path class="st8" d="M18.5,728.3l109.2-0.1c0.9-12.9-0.9-28.3,1.9-39.7L15.9,689C18.7,700.6,18.5,715.5,18.5,728.3z"/>
	<path class="st8" d="M124.7,790.1c-1.5-3.8-3.8-2.5-9.8-2.5l-91,0.1c-1.8,4.6,0.7,43.1,3.5,49.5c6,13.8,27,10.4,44.7,10.4
		C133.5,847.5,119,846.4,124.7,790.1z"/>
	<path class="st7" d="M15.9,689l113.6-0.6l3.2,0.3c4.9,0.6,4.9-3.7,5.3-9.5c1.4-19.1-6.7-14.5-15.1-15c-6.7-17.3-2-11.5-8.2-13.2
		l-70.6-0.3c-18.9-0.3-14.8,2.2-17,8.4c-2.5,7,0.3,3.8-16.8,5.9C8.8,673.8,6.5,688.5,15.9,689z"/>
	<path class="st9" d="M540.1,807.5c4.2,0,8.5,0.2,12.7,0.2l9.4-0.8c7.7-1.9,13.5-39.5,12.5-41.9l-73.7,0.4
		C517.8,773.9,534.3,788.6,540.1,807.5z"/>
	<path class="st10" d="M569.6,466.3c-0.6-9.6,0.6-17.6,1.9-26.2c2.6-16.8,0.9-11.9,8.1-18.9c-26.1,1.9-29.8,3.5-50.9-6.6
		c-15-7.2-25.5-16.2-31.7-29.9c-6.8,18.9,24.8,46.8,44.4,58.2c7.7,4.4,17.4,6.8,25.1,10.9C567.7,462.9,564.6,462.7,569.6,466.3z"/>
	<path class="st11" d="M540.3,289.7c5.4-3.7,10.7-7,19.1-7.3c12.7-0.4,13.7,5.7,20.5-1c1.5-14.3-11.6-14.3-24.8-11.3
		c-9.1,2.1-21.3,6.7-19.7,18C537.6,289.7,536.9,289.7,540.3,289.7z"/>
	<path class="st11" d="M628,273.9l-2.2-0.4h-0.1c-1-0.2-1.9-0.3-2.9-0.5h-0.1c-5.8-0.9-11.8-1.4-16.7,1.3c-1.9,6.9,0.3,10,2.9,13.8
		l7.9,0.6l0,0c1.2-0.2,12.2,3.1,13.2,3.3c0.9,0.3,3.9-0.4,3.9-0.4s3.3-4,2.9-4c-0.3,0-0.1-6.5-0.1-6.5L628,273.9z"/>
	<path class="st12" d="M476,374.6c0.2,5.9-0.1,3.3,4.7,7.4c1.6,1.3,1.8,1.7,3.5,3.1c3.1,2.6,1.7,1.7,5.1,3.6
		c3.3-9.1,3.1-9.3-0.3-18.2L476,374.6z"/>
	<path class="st13" d="M563.9,323c11.1,5.2,17.2-0.4,14.7-12.4C567.4,307.1,561.1,308.7,563.9,323z"/>
	<path class="st13" d="M617.5,321.2c11.4,5.4,17.7-0.4,15.1-12.8C621.1,304.8,614.6,306.4,617.5,321.2z"/>
	<path class="st14" d="M426.1,468.1c-29.2-1-92.8,31.5-112.8,43.8c-34.4,21.2-55.5,41.1-81.3,70.2c-4.3,10.2-12.2,15.7-16.8,24.8
		c2.9,4.8-0.2-0.1,3.6,4.2c2.3,2.5,2.2,1.3,2.9,3.8c9,4.2,15.9,10.9,24.5,16.4c7.8,4.9,67.3,44.6,67.9,49.5
		c1.2,8.4-40.6,41.7-42.7,50.9c3.6,2.1,127.8,23,141.9,24.6c14.5,1.7,28.2,0.2,42.8,0.3c15,0.1,23,2.9,35.1,5.5
		c8.8,2,67.2-1.4,83.4,0.5c5.1-3.1,28.7-104.2,31.7-117.1c4.6-18.9,10.2-40.4,15.3-59.9c9.1-34.3,3.6-38.5,34.9-41.9l81.8,0.1
		c-2.6-17.3-3.4-71.4-22.4-73.8c-4.7-0.6-11.3-0.8-17-1.3c-9.9-0.8-23-7-33.1-5.8l-82.9,2.5c-0.6,24.3,1.3,37.5-15.4,51.3
		c-12.2,10.1-31.1,13.6-50.9,13.2c-41.2-0.8-64.7-22.1-68.7-62.7L426.1,468.1z"/>
</g>
</svg>
