<?xml version="1.0" encoding="UTF-8"?>
<!DOCTYPE svg PUBLIC "-//W3C//DTD SVG 1.1//EN" "http://www.w3.org/Graphics/SVG/1.1/DTD/svg11.dtd">
<!-- Creator: CorelDRAW X8 -->
<svg xmlns="http://www.w3.org/2000/svg" xml:space="preserve" width="169.333mm" height="169.333mm" version="1.1" style="shape-rendering:geometricPrecision; text-rendering:geometricPrecision; image-rendering:optimizeQuality; fill-rule:evenodd; clip-rule:evenodd"
viewBox="0 0 16933 16933"
 xmlns:xlink="http://www.w3.org/1999/xlink">
 <defs>
  <style type="text/css">
   
    .fil2 {fill:#FEFEFE}
    .fil21 {fill:#3FA38C}
    .fil9 {fill:#483779}
    .fil11 {fill:#531F1C}
    .fil1 {fill:#6EC5B2}
    .fil23 {fill:#997334}
    .fil8 {fill:#ADBA47}
    .fil22 {fill:#ADBA48}
    .fil5 {fill:#B69858}
    .fil20 {fill:#B7C3C7}
    .fil0 {fill:#BECD4D}
    .fil12 {fill:#C8D5DA}
    .fil7 {fill:#CEDF53}
    .fil4 {fill:#E1E2E6}
    .fil10 {fill:#F5C687}
    .fil15 {fill:#F69B50}
    .fil3 {fill:#F6B691}
    .fil18 {fill:#F86D57}
    .fil13 {fill:#F9A751}
    .fil19 {fill:#F9E8E8}
    .fil16 {fill:#FBFBE8}
    .fil6 {fill:url(#id2)}
    .fil17 {fill:url(#id3)}
    .fil14 {fill:url(#id4)}
   
  </style>
    <mask id="id0">
  <linearGradient id="id1" gradientUnits="userSpaceOnUse" x1="9073.34" y1="6485.31" x2="8753.91" y2="11757.7">
   <stop offset="0" style="stop-opacity:1; stop-color:white"/>
   <stop offset="0.6" style="stop-opacity:1.50196; stop-color:white"/>
   <stop offset="1" style="stop-opacity:0; stop-color:white"/>
  </linearGradient>
     <rect style="fill:url(#id1)" x="6623" y="8705" width="4295" height="2952"/>
    </mask>
  <linearGradient id="id2" gradientUnits="userSpaceOnUse" x1="12625.7" y1="11775.5" x2="16501.8" y2="11775.5">
   <stop offset="0" style="stop-opacity:1; stop-color:#CEDF53"/>
   <stop offset="1" style="stop-opacity:1; stop-color:#BAC94C"/>
  </linearGradient>
  <linearGradient id="id3" gradientUnits="userSpaceOnUse" x1="11743.3" y1="12530" x2="13261.7" y2="8217.9">
   <stop offset="0" style="stop-opacity:1; stop-color:#3C63B3"/>
   <stop offset="1" style="stop-opacity:1; stop-color:#6E9AE0"/>
  </linearGradient>
  <linearGradient id="id4" gradientUnits="userSpaceOnUse" x1="3395.26" y1="11599.3" x2="7355.81" y2="9764.85">
   <stop offset="0" style="stop-opacity:1; stop-color:#FEB556"/>
   <stop offset="1" style="stop-opacity:1; stop-color:#FDC865"/>
  </linearGradient>
 </defs>
 <g id="Layer_x0020_1">
  <metadata id="CorelCorpID_0Corel-Layer"/>
  <g id="_2300532267232">
   <path class="fil0" d="M11293 5926c112,60 250,146 396,145 -22,-62 -64,-87 -100,-168 -32,-71 -54,-147 -52,-248 3,-107 13,-132 95,-183 571,-356 949,-814 720,-1524 -110,-341 -436,-578 -729,-764 -245,-115 -367,-182 -672,-231 -549,-89 -1082,-59 -1581,192 -246,124 -532,363 -554,371 -49,-65 -82,-184 -221,-357 -579,-718 -1804,-840 -2648,-512 -362,140 -757,449 -901,814 -248,630 53,1190 585,1514 69,42 98,70 178,103 94,38 116,40 121,155 4,97 -20,158 -51,225 -39,86 -66,79 -101,174l171 -33c68,-32 179,-83 242,-132 309,-247 -1,-199 492,-154 329,30 642,-15 947,-93 587,-149 769,-435 904,-498 50,47 103,170 177,273 448,617 1211,781 1958,750 155,-6 302,-53 423,-43 41,57 33,75 88,127 27,27 90,70 113,97z"/>
   <path class="fil1" d="M10918 13512c-1,-109 47,-281 61,-372 13,-73 18,-109 31,-190 14,-90 35,-60 34,-197l-3432 2c273,-400 611,-944 869,-1495 29,-63 57,-126 85,-189 22,44 38,94 52,138l35 126c42,62 15,428 1,535 -51,76 -15,111 -94,146 -3,8 -119,92 -124,106 11,1 2501,38 2646,11 4,-1 11,-2 16,-5l-1 -42 -32 -281c-353,-21 -479,21 -681,-225 -150,-182 -200,-584 -94,-720 -29,-81 3,-119 9,-210l36 -211 28 -151 66 -262 27 -190c71,-66 258,-1134 1003,-1592 -16,-271 397,161 494,97 -190,-497 -54,-606 -424,-605 -326,-72 -255,-254 -39,-202 51,12 68,29 111,47 357,147 299,-5 659,311 53,-58 92,-223 93,-303 -134,-126 -220,-172 -289,-387 -68,-215 -27,-426 -12,-640l-824 191c-771,211 -1330,632 -2048,935 -493,208 -1246,192 -1774,132 -269,-31 -1506,-226 -1679,-312l42 309c-145,-37 -282,-69 -408,-94 -622,-122 -976,-71 -1253,62 -135,65 -252,150 -358,250 -23,-38 -39,-73 -74,-111l4 107c-429,174 -1074,1008 -1500,1676 -120,181 -281,429 -402,668 -138,272 -302,695 -362,1000l-17 80c41,92 -112,251 -21,245 28,-6 138,61 241,197 100,16 372,-134 465,-85 79,-12 -41,-107 -6,-186 17,-38 13,-88 15,-130 -16,-62 -35,-122 -53,-182 30,-2 15,0 46,-4l39 96c100,-1 122,-80 241,-116 308,-95 520,173 608,430 134,388 47,846 16,1266 18,11 -31,63 38,8 47,-79 95,-146 147,-205 47,369 115,521 299,607 247,116 701,116 1319,116 618,0 1400,0 1813,0 25,0 48,0 70,0l0 0 4242 0zm-3483 -5178c40,14 79,27 118,41 -1,-147 24,-167 -66,-217 -60,38 -35,-23 -53,78 -1,8 1,83 1,97l0 1zm300 103c37,13 74,26 110,39 -32,-26 -68,-37 -110,-39zm570 226c171,84 312,178 416,296l1103 1c0,-381 -360,-633 -743,-707l-6 -482 -107 9c-22,118 42,387 -25,461 -16,17 -7,10 -44,23 0,0 -45,7 -52,8 -198,39 -420,195 -542,391zm7204 2774c66,-32 127,-67 205,-65 100,-81 562,-116 670,192 30,-31 44,-125 76,-185 779,-2253 -589,-4643 -2958,-4745l0 -1c-15,-1 -30,-2 -43,-3 13,167 -8,278 -99,447 -35,66 -86,146 -136,207 -53,66 -121,126 -152,175 -82,137 -163,-13 -134,311 5,51 16,143 26,199 15,79 19,91 98,117 193,53 379,138 537,217 81,40 159,83 234,130 75,47 159,136 228,138 364,725 569,371 662,1596l29 340c-99,103 -56,46 -45,166 5,64 22,198 29,262 60,-49 167,-220 216,-293 134,-199 321,-386 492,-554 42,-42 35,47 44,12l62 -64c29,514 -138,973 -156,1328 34,-13 70,87 115,73z"/>
   <path class="fil2" style="mask:url(#id0)" d="M8212 8959l-1589 2692c0,0 4300,-147 4295,0 -5,147 -1094,-2691 -1094,-2691l-631 -255 -981 254z"/>
   <path class="fil3" d="M12052 6562c-15,214 -56,425 12,640 69,215 155,261 289,387 -1,80 -40,245 -93,303 -360,-316 -302,-164 -659,-311 -43,-18 -60,-35 -111,-47 -216,-52 -287,130 39,202l1 64c-2,20 -38,257 -45,308l0 0c-18,39 -11,25 -24,48 -9,43 -5,42 -2,88 49,6 114,55 161,85 5,97 -14,132 -52,198 -45,76 -78,93 -48,177 119,68 173,106 319,148l121 11c119,-390 56,-306 280,-722 45,5 320,208 643,52 60,-28 44,-13 90,-52 88,-74 -41,-41 89,-55 -79,-26 -83,-38 -98,-117 -10,-56 -21,-148 -26,-199 -29,-324 52,-174 134,-311l-41 -11c20,-66 42,-106 66,-169 40,-103 12,-97 94,-150 106,-69 172,-179 127,-340l-112 -19c-61,67 -65,177 -309,243l18 -442c-481,-91 -465,21 -855,-301 25,111 63,49 39,151 -10,43 -33,94 -47,141z"/>
   <path class="fil4" d="M5588 9783c18,23 9,4 23,42l26 203c162,-77 116,-300 363,-284 122,133 183,380 171,604 -104,103 -145,61 -229,127l-204 175c-5,147 33,364 76,483l525 -24 3 105c28,-24 19,-67 29,-127 179,-33 423,-146 535,-291 47,-62 30,-26 79,-94 -78,-7 -27,-87 -30,-182 -11,-345 -92,-104 -114,-239 -9,-51 -4,-116 -10,-173l-30 -592c0,-8 -1,-18 -1,-29 -4,-68 -11,-197 -16,-289 -4,-48 -5,-125 -11,-252 -86,-7 -211,61 -316,86 -56,26 -131,54 -177,72 -11,4 -21,8 -29,10 -217,94 -612,200 -696,210 -16,130 11,358 33,459z"/>
   <polygon class="fil5" points="6445,12326 11171,12326 11171,12799 6445,12799 "/>
   <path class="fil3" d="M4326 8357c105,60 105,12 152,93l150 329c29,62 32,116 87,171l-9 -92c218,1 283,-55 454,-73l-30 877c-12,53 -7,31 -19,52 -4,-3 -10,-14 -11,-10l-23 -22c-4,-4 -8,-9 -12,-12l-51 -53c38,110 53,173 149,206 13,-250 3,-1505 49,-1615 137,-27 251,18 380,34 -149,-173 -575,168 -569,-457 303,-83 442,-211 549,-478 131,-326 7,-425 -165,-779l-92 59c-417,369 -511,2 -599,400 -14,62 -18,94 -53,136 -36,43 9,-4 -35,29l-31 -63c-5,-16 -9,-36 -17,-60 -62,-166 -210,-149 -276,-65 -16,21 -157,320 197,327 4,185 -4,391 15,573l77 522 -267 -29z"/>
   <path class="fil6" d="M14120 12323c28,105 153,355 214,564 52,176 156,395 175,582l-49 29c-5,3 -20,11 -27,14 314,0 1017,62 1152,-368 196,-623 210,-330 594,-790 36,-43 66,-74 101,-120l81 -119c394,-689 -85,-1167 -865,-787 -45,14 -68,23 -102,36 18,-355 185,-814 156,-1328 -157,7 -510,475 -598,606 -46,69 -88,150 -143,200l0 1 -1 0c-6,6 -16,15 -27,23 -6,4 -11,7 -17,10l1 21c4,136 9,472 -39,607l-39 69c-1,93 -48,167 -97,257 -22,41 -49,79 -75,109 -41,48 -52,55 -97,77 -31,57 -109,96 -169,123 -100,45 -165,36 -137,156l8 28zm146 1189c-8,-3 -17,-5 -30,-5 -31,-1 -47,1 -57,5l87 0zm-275 0l4 -68c0,-5 -2,-7 -3,-10 -21,39 -19,56 -32,78l31 0zm-115 0c-12,-26 14,-50 -45,-79 -20,41 -20,63 -25,79l70 0zm-165 0c-10,-17 -10,-37 -20,-85 -19,30 -11,4 -12,55 0,0 2,15 5,30l27 0zm-405 0l-32 -55 -28 55 60 0zm-625 0c-11,-54 -33,-48 -46,-52 -5,25 -7,40 -9,52l55 0z"/>
   <path class="fil7" d="M1953 11010c40,174 97,322 140,486 -38,789 -1292,-802 -1867,-737 14,846 1781,2630 2771,2753l540 0c-92,-435 360,-224 412,-585 36,-254 -86,-282 -196,-402 -279,22 -255,-9 -450,144 -106,84 -193,186 -275,325 -69,55 -20,3 -38,-8 31,-420 118,-878 -16,-1266 -88,-257 -300,-525 -608,-430 -119,36 -141,115 -241,116l-27 -125c162,-41 581,-300 675,-431 83,-118 89,-244 -14,-345 -558,-545 -593,995 -737,514 -36,-120 -197,-698 -159,-772 43,-82 821,-285 392,-648 -278,-236 -388,321 -467,400 -12,-25 -77,-382 -88,-452 -38,-244 21,-215 96,-418 116,-310 175,-693 -287,-626 -372,53 -173,515 -48,724 114,189 97,119 161,384 35,147 89,304 87,473 -102,-56 -565,-583 -709,-202 -163,431 484,385 770,402 23,208 111,380 126,595 -58,-19 -89,-38 -126,-70 -11,-11 -22,-20 -34,-30 -25,-22 -53,-47 -73,-66 -6,-6 -12,-11 -17,-16 -59,-66 -223,-139 -314,-152 -109,-14 -169,0 -257,66 -72,53 -97,145 -45,221 11,16 23,31 40,48 17,16 38,33 70,52 33,19 77,40 124,58 45,17 92,31 133,39 1,0 4,0 7,1 12,2 34,5 64,7 29,2 66,3 86,3 7,0 12,1 16,1 135,-6 226,-16 383,-31z"/>
   <path class="fil8" d="M2267 11059c159,-89 347,-217 397,-287 42,-60 58,-116 1,-171 -25,-24 -99,-92 -140,-79 -66,21 -135,187 -158,245 -33,88 -60,177 -91,265 -3,9 -6,18 -9,27zm-356 -1001c62,-31 124,-61 183,-97 42,-25 144,-91 155,-143 8,-38 -57,-97 -80,-117 -8,-6 -32,-26 -43,-26 -30,8 -83,107 -96,133 -33,66 -73,180 -119,250zm-301 -846c5,-9 10,-18 15,-28 18,-33 33,-66 46,-101 9,-24 17,-48 25,-72 24,-76 79,-275 26,-347 -35,-47 -146,-36 -193,-29 -30,4 -70,14 -86,42 -36,60 3,195 25,255 28,78 66,155 108,226 11,18 22,36 34,54zm-45 931c-17,-14 -33,-29 -48,-42 -50,-43 -101,-86 -154,-125 -36,-26 -158,-110 -205,-96 -14,4 -29,39 -33,50 -11,28 -27,82 -8,111 48,74 269,95 448,102zm107 758l0 0c-7,-7 -15,-14 -23,-21 -26,-23 -53,-46 -78,-70 -6,-5 -11,-10 -16,-15l-5 -4 -4 -5c-38,-42 -175,-101 -232,-108 -73,-10 -100,-4 -159,40 -12,9 -25,23 -15,38 7,10 14,19 23,27 13,13 29,24 45,33 32,19 68,36 103,49 35,13 71,24 106,32 3,0 5,0 7,1 18,2 35,4 53,6 26,1 53,2 79,2 5,1 10,1 15,1 34,-2 67,-4 101,-6z"/>
   <path class="fil9" d="M13548 13512l136 0 27 0 95 0 70 0 84 0 31 0 188 0 87 0 124 0c6,0 71,0 71,0l56 0c-19,-188 -131,-449 -183,-625 -61,-209 -186,-459 -214,-564l-8 -28 -40 -34c-69,5 -393,159 -507,192 -367,-189 -1343,-38 -2068,128 -47,-16 -107,-41 -152,-71 -140,-114 -103,-100 -195,-236l5 61c-6,156 -66,244 -89,409 -13,68 -32,127 -48,192 -16,65 -25,144 -39,204 -14,91 -62,263 -61,372l1015 0 138 0 136 0 165 0 254 0 55 0 565 0 60 0 242 0z"/>
   <polygon class="fil10" points="7746,12103 7461,12103 6383,12103 6383,12345 11197,12345 11197,12103 11101,12103 11097,12086 11097,12103 8970,12103 8588,12103 8506,12103 7820,12103 "/>
   <path class="fil11" d="M12060 6270c390,322 374,210 855,301l-18 442c244,-66 248,-176 309,-243l112 19c45,161 -21,271 -127,340 -82,53 -54,47 -94,150 -24,63 -46,103 -66,169l41 11c31,-49 99,-109 152,-175 50,-61 101,-141 136,-207 116,-214 118,-334 83,-596 -76,-204 -301,-434 -507,-517 -292,-118 -427,105 -932,80 0,125 6,135 56,226z"/>
   <path class="fil12" d="M8212 8959l1612 1c0,-375 -350,-625 -725,-703l0 0 0 -527c-21,8 -41,16 -60,22 -40,14 -77,23 -113,30l0 474c-5,1 -12,3 -27,8 0,0 -45,7 -52,8 -291,57 -634,367 -635,687z"/>
   <path class="fil3" d="M6942 9385c4,-2 8,-4 12,-7l158 201c91,66 135,-91 252,4l-2 113c34,-57 19,-128 51,-197 95,-522 476,-323 560,-496 57,-117 -16,-336 -60,-433 -75,-162 -182,-143 -357,-115 -15,-221 36,-239 -69,-297 -60,38 -35,-23 -53,78 -1,8 1,83 1,97 1,71 1,132 -6,202l-83 20c-177,47 7,196 -147,417 -50,71 -222,220 -278,296 20,3 12,107 17,112 5,5 3,3 4,5z"/>
   <g>
    <path class="fil13" d="M7781 12088c2,1 3,2 5,3 -2,-1 -3,-2 -5,-3zm287 -1083c47,94 -15,136 -97,197 -55,41 -39,123 -137,23 13,-167 12,-236 173,-275l-29 -70 -118 44c-157,116 -276,582 -308,780 -29,173 69,399 268,399 133,36 472,35 594,22 557,-57 280,-634 204,-916 -23,-68 -49,-150 -95,-206 -31,-37 -39,-40 -76,-66 -65,-46 -43,-7 -73,-59 -34,33 -40,32 -72,62 -25,24 -52,55 -71,72 -77,66 -98,65 -163,-7zm-282 1086c3,1 6,3 9,4 -3,-1 -6,-3 -9,-4zm28 10c2,1 4,2 6,2 -2,0 -4,-1 -6,-2zm-1 0c-2,0 -4,-1 -6,-2l6 2zm-6 -2c-2,0 -4,-1 -6,-2l6 2zm-6 -2c-2,0 -4,-1 -6,-2l6 2z"/>
   </g>
   <path class="fil13" d="M4019 11717c-14,67 -36,57 -16,113 -16,187 -201,569 -126,652 5,4 13,1 16,8 3,6 12,5 16,6 1,0 68,14 274,-54 284,-93 571,-213 805,-384 211,-154 623,-661 645,-965 -120,38 -66,25 -186,199 -221,323 -503,812 -985,685 -166,-44 -303,-187 -382,-295l-61 35z"/>
   <path class="fil3" d="M5605 10137c-2,5 -4,9 -7,14 -21,42 -45,57 -75,121 -47,98 -210,278 -1,388 20,11 38,18 54,22 1,-1 3,0 4,0 9,2 20,4 35,5 5,1 11,1 17,1l9 0c10,0 20,-1 31,-4 21,-7 43,-20 72,-42 24,-19 53,-43 83,-69l2 -1 1 -1 2 -2 1 -1 2 -2 2 -1 1 -1 2 -2 1 -1 2 -1 2 -2 1 -1 2 -1 1 -2 93 -79c84,-66 125,-24 229,-127 12,-224 -49,-471 -171,-604 -188,-12 -206,115 -276,209 0,1 0,2 0,3 -2,12 -7,13 -27,40 -20,27 -55,82 -78,118 -5,9 -10,16 -14,23z"/>
   <path class="fil14" d="M7007 10673c104,-171 160,-231 229,-439 28,-87 61,-163 85,-253 34,-133 38,-263 71,-398 -117,-94 -161,-32 -252,-98 -75,-94 -89,-116 -174,-198 -9,-8 -25,-16 -45,-19 -10,14 -17,26 -18,34l-108 79 36 727c13,118 15,612 132,624l44 -59zm-42 -1379c-3,2 -6,3 -9,5 3,-2 6,-3 9,-5zm-53 22c-3,1 -5,2 -8,4 3,-2 5,-3 8,-4zm-30 17c-2,1 -4,2 -6,4 2,-2 4,-3 6,-4zm-1250 1355c-6,0 -12,0 -17,-1 -15,-1 -26,-3 -35,-5 -1,0 -3,-1 -4,0 -16,-4 -33,-11 -54,-22 -209,-110 -46,-290 1,-388 30,-64 54,-79 75,-121 3,-5 5,-10 7,-14 4,-7 9,-14 14,-23 23,-36 58,-91 78,-118 20,-27 25,-28 27,-40 0,-1 0,-2 0,-3 -22,30 -48,57 -87,75l-26 -203c-14,-38 -5,-19 -23,-42 -22,-101 -49,-329 -33,-459 108,-13 729,-184 827,-285 -26,-80 -203,-314 -266,-423 -168,-284 -246,-258 -280,-311 8,-25 -6,5 10,-43 2,-6 3,-11 4,-18l-3 0 0 1 -37 -1 -110 -45 -9 42 -35 -1c66,64 32,95 -16,237 -21,63 -50,147 -67,212l-270 899c-40,146 -60,334 -152,429 -147,-119 -816,-1007 -1003,-1182 -328,-306 -227,-514 -552,-223 -36,32 -61,56 -89,90 -14,17 -29,40 -43,57 -90,93 -104,294 -105,420 -2,227 94,908 168,1123 58,168 373,1135 490,1243l2 172 61 -35c79,108 216,251 382,295 482,127 764,-362 985,-685 120,-174 66,-161 186,-199 -22,304 -434,811 -645,965 -234,171 -521,291 -805,384 -206,68 -273,54 -274,54 -4,-1 -13,0 -16,-6 -3,-7 -11,-4 -16,-8 -75,-83 138,-534 154,-721 -82,33 -62,70 -140,307l-71 193c-3,5 -7,12 -10,16 -36,54 -56,186 -57,248 110,120 232,148 196,402 -52,361 -504,150 -412,585l3139 0c0,-55 -12,-125 -27,-204 -9,-22 -14,-48 -19,-76 -27,-136 -70,-345 -107,-518l-1 0 -20 -100 -1 -5c-35,-161 -56,-254 -73,-331 -93,-331 -135,-633 -86,-1064l-3 -105 -525 24c-43,-119 -81,-336 -76,-483l89 -77c-30,26 -59,50 -83,69 -29,22 -51,35 -72,42 -11,3 -21,4 -31,4l-9 0 0 0zm16 0c2,0 4,0 6,0m14 2c1,1 2,1 3,1 -1,0 -2,0 -3,-1zm17 9c0,1 1,2 1,2 0,0 -1,-1 -1,-2zm9 14c1,1 1,2 2,3l-2 -3zm0 0l0 -1 -1 -2 -1 -1 -1 -2 -1 -1 -1 -2 0 0 0 0c-1,-1 -2,-2 -2,-2l-1 -1m-837 -738c6,49 3,42 35,68 22,81 227,444 219,498 -37,70 -222,220 -294,262 -62,-64 -117,-354 -139,-446 -84,-360 -73,-203 -51,-509 196,69 -157,-80 59,39l63 19c61,13 5,-15 57,23l51 46z"/>
   <path class="fil7" d="M8622 10272c45,235 -219,577 -367,597 1,-211 33,-296 0,-529 -17,-116 11,-137 138,-145 122,-7 175,21 229,77zm-1093 -430c-51,110 4,221 45,323 85,220 384,599 404,715l29 70c23,80 28,-14 61,55 65,72 86,73 163,7 19,-17 46,-48 71,-72 32,-30 38,-29 72,-62 84,-69 169,-174 237,-291 233,-398 -44,-476 -389,-408 -31,-49 -53,-103 -86,-157 -11,-18 -44,-70 -56,-83 -108,-119 -454,-309 -551,-97z"/>
   <path class="fil15" d="M4884 10031c-32,-26 -29,-19 -35,-68l-51 -46c-52,-38 4,-10 -57,-23l-63 -19c-216,-119 137,30 -59,-39 -22,306 -33,149 51,509 22,92 77,382 139,446 72,-42 257,-192 294,-262 8,-54 -197,-417 -219,-498z"/>
   <path class="fil8" d="M8393 10195c-127,8 -155,29 -138,145 33,233 1,318 0,529 148,-20 412,-362 367,-597 -54,-56 -107,-84 -229,-77z"/>
   <path class="fil16" d="M8074 11209c26,-95 43,-226 -67,-259 -413,100 -166,656 67,259z"/>
   <path class="fil17" d="M14765 10897l-13 -390 -29 -340c-25,-337 -60,-680 -176,-958 -137,-330 -417,-590 -714,-776 -75,-47 -153,-90 -234,-130 -158,-79 -344,-164 -537,-217 -130,14 -1,-19 -89,55 -46,39 -30,24 -90,52 -323,156 -598,-47 -643,-52 -224,416 -161,332 -280,722l-121 -11c-146,-42 -200,-80 -319,-148 -30,-84 3,-101 48,-177 38,-66 57,-101 52,-198 -47,-30 -112,-79 -161,-85 -703,433 -910,1301 -1096,2044l-28 151 -36 211c-22,319 -166,625 85,930 202,246 328,204 681,225l32 281 53 188 47 71c24,59 -11,30 30,70l118 95c45,30 105,55 152,71 540,175 1504,38 2068,-128 114,-33 438,-187 507,-192l40 34c-28,-120 37,-111 137,-156 83,-37 206,-130 266,-200 26,-30 53,-68 75,-109 170,-311 184,-585 175,-933zm-3089 -143c6,51 87,181 138,242 98,120 112,110 247,173 -2,129 -51,182 -65,306l-39 101c-82,6 -83,-14 -130,37 -247,16 -228,75 -386,-90 3,-99 59,-296 84,-421 14,-68 31,-120 44,-199 19,-121 -3,-154 107,-149z"/>
   <path class="fil3" d="M11441 11523c158,165 139,106 386,90 47,-51 48,-31 130,-37l39 -101c14,-124 63,-177 65,-306 -135,-63 -149,-53 -247,-173 -51,-61 -132,-191 -138,-242 -110,-5 -88,28 -107,149 -13,79 -30,131 -44,199 -25,125 -81,322 -84,421z"/>
   <path class="fil18" d="M4675 8960c53,117 345,710 355,792l61 62c5,4 10,10 14,14l27 26c2,-4 8,9 13,13 14,-26 8,1 22,-62l36 -1041c-202,21 -279,89 -538,87l10 109z"/>
   <path class="fil19" d="M5014 9617c-16,-129 -295,-645 -386,-838l-150 -329c-47,-81 -47,-33 -152,-93l-126 -23c-144,16 -366,48 -495,126 -113,67 -286,234 -290,388 15,-13 40,-70 49,-89 14,-17 29,-40 43,-57 28,-34 53,-58 89,-90 325,-291 224,-83 552,223 187,175 856,1063 1003,1182 92,-95 112,-283 152,-429l270 -899c17,-65 46,-149 67,-212 48,-142 82,-173 16,-237l-216 -124c-129,-16 -87,8 -224,36 -46,109 -40,1421 -53,1671 -96,-33 -111,-96 -149,-206z"/>
   <path class="fil11" d="M3676 7924c75,80 62,147 217,259 111,80 295,149 433,174l267 29 -77 -522c-19,-182 -11,-388 -15,-573 -354,-7 -213,-306 -197,-327 66,-84 214,-101 276,65 8,24 12,44 17,60l31 63c44,-33 -1,14 35,-29 35,-42 39,-74 53,-136 88,-398 182,-31 599,-400l92 -59c172,354 296,453 165,779 -107,267 -246,395 -549,478 -6,625 420,284 569,457l64 -2 191 5c-5,-150 -51,-211 -68,-349l-52 -388c-61,-349 36,-761 -119,-1060 -129,-249 -413,-462 -799,-392 -349,50 -662,482 -811,722 -93,148 -177,326 -237,509 -105,320 -77,303 -85,637z"/>
   <ellipse class="fil20" transform="matrix(0.704624 -0.285113 0.285113 0.704624 9114.08 8509.13)" rx="214" ry="278"/>
   <g id="_2300660099824">
    <path class="fil21" d="M10156 5013l663 -62 34 358 -744 71 -34 -359 81 -8zm100 -249l413 -38 16 165 -409 38 -80 7 -16 -165 76 -7zm145 -326l46 -8 23 241 -47 4 -57 5 -22 -240 57 -2zm538 -646c0,21 0,74 -9,88 4,23 2,59 -6,79 -12,20 -20,18 -47,20l-55 4 4 -13c3,-14 42,-176 43,-177 -3,-21 5,-50 7,-73l9 -80c16,-3 36,-8 47,2 1,0 18,-10 18,32l-11 118zm-1170 -48l22 77c23,82 61,158 95,236l7 14 -55 5c-27,3 -34,7 -50,-10l-24 -80 -22 -82c-8,-21 -14,-53 -21,-76 -4,-12 -10,-30 -12,-42 -6,-41 28,-41 60,-42zm1119 -207l0 -20c82,-13 146,29 172,90 22,52 3,174 -2,236 -7,85 -1,153 -50,209 -46,53 -150,52 -234,58l21 -50c198,-15 199,-19 213,-207 5,-59 13,-122 14,-180 2,-62 -42,-110 -96,-109l-39 3c-4,-13 -5,-20 1,-30zm-1136 136l-39 5c-53,9 -89,64 -75,125 13,57 32,116 48,173 15,56 27,129 63,155 45,33 120,15 185,10l29 45c-88,11 -180,29 -240,-15 -58,-42 -65,-112 -88,-195 -16,-59 -57,-176 -45,-231 14,-67 67,-117 153,-121 2,21 10,29 9,49zm1057 -271c18,224 -12,445 -81,627 -23,60 -59,132 -98,181 -8,10 -11,18 -20,27 -68,77 -154,142 -287,127 -320,-56 -502,-575 -525,-870 55,-11 753,-72 884,-84l120 -10c1,0 2,1 3,1 1,0 3,1 4,1zm-1083 105l5 45 -21 2c-33,5 -50,11 -78,24 -7,4 -11,6 -18,11 -62,40 -97,106 -101,180 7,65 20,99 34,161l20 75 22 82c13,35 15,54 35,84 119,178 351,57 398,88 37,41 80,83 128,113 14,8 28,17 41,24 67,30 77,9 83,74 2,27 25,200 15,218l-70 6 -81 8c-21,6 -27,11 -33,30l18 210 -46 6c-12,1 -28,1 -40,3 -19,3 -21,9 -31,11 -15,43 8,187 13,245 6,60 10,201 33,242 9,0 14,6 32,5 14,0 30,-2 44,-4l80 -7 80 -8 79 -7 81 -8 79 -7 81 -8 78 -7 81 -8 79 -7c14,-1 31,-2 45,-4 17,-3 21,-9 30,-11 16,-48 -7,-182 -13,-244 -5,-59 -9,-202 -32,-243 -11,0 -13,-5 -32,-5 -13,0 -28,2 -40,4l-47 3 -20 -206c-9,-22 -16,-25 -39,-27l-80 7 -68 6c-9,-2 -3,3 -9,-6 -4,-47 -9,-94 -13,-142 -2,-23 -4,-45 -6,-68 -4,-39 -14,-42 19,-54l49 -34c73,-80 104,-168 197,-176 56,-5 138,-11 187,-25 14,-7 25,-11 38,-18 44,-26 72,-59 93,-107 14,-34 12,-54 19,-89l6 -84 6 -78c2,-64 9,-99 3,-166 -34,-135 -131,-170 -256,-173 -4,-13 -5,-32 -1,-45 -2,-15 -1,-37 -6,-50 -5,-17 -15,-18 -26,-27l-1107 104c-10,10 -19,13 -21,31 -2,13 2,37 4,51z"/>
    <path class="fil22" d="M10762 3636c-15,173 -46,327 -124,473 -9,17 -25,51 -48,56 -29,7 -52,-22 -38,-53 16,-38 38,-61 67,-136 38,-98 60,-219 69,-326 2,-32 -1,-65 30,-71 38,-7 46,24 44,57zm-42 -179c43,-14 60,52 24,67 -23,9 -43,-2 -49,-20 -8,-26 5,-40 25,-47zm-397 907c133,15 219,-50 287,-127 9,-9 12,-17 20,-27 39,-49 75,-121 98,-181 69,-182 99,-403 81,-627l-719 67c28,228 65,494 143,710 11,30 25,71 39,98l51 87z"/>
    <path class="fil22" d="M10733 5148c-6,-63 67,-68 73,-7l7 76c6,67 -66,75 -73,7l-7 -76zm12 -156c47,-19 69,53 25,67 -46,14 -67,-50 -25,-67zm-636 388l744 -71 -34 -358 -663 62c-7,24 19,256 25,316 2,14 4,30 0,44l-72 7z"/>
    <path class="fil0" d="M10323 4364l-51 -87c-14,-27 -28,-68 -39,-98 -78,-216 -115,-482 -143,-710l719 -67c-1,0 -3,-1 -4,-1 -1,0 -2,-1 -3,-1l-120 10c-131,12 -829,73 -884,84 23,295 205,814 525,870z"/>
    <path class="fil22" d="M10598 4766c51,-26 68,79 32,96 -27,12 -48,-3 -53,-29 -7,-37 -5,-54 21,-67zm-322 163l409 -38 -16 -165 -413 38c2,35 6,140 20,165z"/>
    <path class="fil0" d="M10762 3636c2,-33 -6,-64 -44,-57 -31,6 -28,39 -30,71 -9,107 -31,228 -69,326 -29,75 -51,98 -67,136 -14,31 9,60 38,53 23,-5 39,-39 48,-56 78,-146 109,-300 124,-473z"/>
    <path class="fil0" d="M10888 3537l-1 27c16,-2 27,-5 39,0 54,-1 98,47 96,109 -1,58 -9,121 -14,180 -14,188 -15,192 -213,207l-21 50c84,-6 188,-5 234,-58 49,-56 43,-124 50,-209 5,-62 24,-184 2,-236 -26,-61 -90,-103 -172,-90l0 20z"/>
    <path class="fil0" d="M9713 3678c12,-9 21,-7 38,-8l-6 -27 -2 -19c-86,4 -139,54 -153,121 -12,55 29,172 45,231 23,83 30,153 88,195 60,44 152,26 240,15l-29 -45c-65,5 -140,23 -185,-10 -36,-26 -48,-99 -63,-155 -16,-57 -35,-116 -48,-173 -14,-61 22,-116 75,-125z"/>
    <polygon class="fil0" points="10423,4675 10401,4438 10344,4440 10366,4680 "/>
    <path class="fil0" d="M10276 4929c-14,-25 -18,-130 -20,-165l-76 7 16 165 80 -7z"/>
    <path class="fil0" d="M10733 5148l7 76c7,68 79,60 73,-7l-7 -76c-6,-61 -79,-56 -73,7z"/>
    <polygon class="fil22" points="10401,4438 10423,4675 10470,4671 10447,4430 "/>
    <path class="fil0" d="M10598 4766c-26,13 -28,30 -21,67 5,26 26,41 53,29 36,-17 19,-122 -32,-96z"/>
    <path class="fil0" d="M10745 4992c-42,17 -21,81 25,67 44,-14 22,-86 -25,-67z"/>
    <path class="fil23" d="M10926 3564c-12,-5 -23,-2 -39,0l1 -27c-6,10 -5,17 -1,30l39 -3z"/>
    <path class="fil0" d="M10181 5329c-6,-60 -32,-292 -25,-316l-81 8 34 359 72 -7c4,-14 2,-30 0,-44z"/>
   </g>
   <g>
    <path class="fil21" d="M6659 4344c4,23 0,89 -1,115 -2,39 -3,76 -4,116 -25,2 -159,-43 -199,-52 -34,-7 -65,-20 -99,-27 -47,-11 -141,-42 -196,-55l-193 -54c-88,-23 -91,-111 -89,-186 1,-14 6,-44 12,-55 3,-7 7,-12 13,-20 40,-57 621,175 756,218zm103 -516c-6,-27 8,-62 -2,-87l4 -76c0,-24 -4,-56 7,-73 31,0 64,-13 83,-16 193,-33 397,-80 590,-118 21,-4 49,-11 70,-15 27,-5 123,-28 140,-27 -12,65 -4,175 -12,202 -210,79 -646,156 -880,210zm620 -17c10,-2 16,-6 26,-9l158 -52c47,-14 71,-34 103,-4 14,12 19,27 24,47 4,2 3,59 3,69 0,11 0,25 0,36 -1,10 -5,18 -7,26 -2,34 -20,67 -45,82 -3,2 -592,167 -606,170 -14,3 -18,7 -29,9 -15,3 -18,2 -31,7 -16,5 -41,15 -58,14 -5,-13 -5,-6 -5,-25l-3 -89c0,-40 -3,-85 0,-124 39,-25 374,-126 470,-157zm-587 514c36,12 589,-121 629,-130 39,-8 131,-17 156,-35 8,-5 33,-1 13,14 -17,37 -15,87 -14,128 0,17 7,49 0,62 -20,14 -699,211 -879,214l7 -229 64 -17c8,-1 23,1 24,-7zm72 -349c5,10 11,205 8,225 -16,4 -93,-24 -118,-25 -10,1 -50,-8 -59,-12l-205 -50c-14,-2 -16,-5 -27,-8l-118 -29c-10,-2 -49,-14 -56,-13 -23,0 -125,-31 -152,-36 -11,-2 -133,-30 -147,-39 -2,-29 5,-43 5,-68 0,-10 -21,-131 -20,-137 30,-2 883,181 889,192zm-267 -426c5,7 7,6 17,9l45 16c28,6 37,8 60,20 4,28 -1,87 -2,118 -1,36 -3,39 -4,56 -1,18 1,41 -2,58 -51,6 -600,-166 -701,-191 -15,-4 -22,-6 -28,-14 -11,-5 -2,2 -11,-9 -17,-18 -31,-61 -31,-82l2 2c-4,-5 -2,-1 -4,-8l-2 -22c0,-20 -1,-69 3,-84 5,-22 24,-60 52,-62 32,-3 96,26 137,37l32 10c15,9 2,-1 8,9l54 16c10,3 20,6 28,9l53 17c5,1 10,3 15,4l65 22c8,3 18,6 28,9 5,2 9,3 14,5 27,12 10,3 28,9l65 21c9,4 19,7 27,10 17,5 37,9 52,15zm65 791c0,2 0,5 1,10 -1,-5 -1,-8 -1,-10l0 0zm-15 242c-1,0 -2,0 -3,0l3 0zm119 -12l0 0 -1 0 0 0 0 0 0 0 0 0 0 0 -1 1 0 0 0 0 -1 0 0 0 0 0 0 0 -1 0 0 0 0 0 0 0 -1 0 0 0 0 0 0 0 -1 0 0 0 -1 0 7 -1zm-849 -1248c-57,100 -57,241 14,333 8,10 12,7 15,21 -5,5 6,4 -8,4 -149,4 21,160 22,167 8,63 11,53 1,124 -15,10 -43,21 -56,20 -19,-2 -54,21 -72,26l-4 5c-2,6 -2,4 -4,8 -5,7 -1,-3 -5,8 31,12 48,10 50,19 -1,18 1,8 -8,14 -69,32 -65,334 64,379 4,2 7,2 10,4 7,2 4,1 5,2 194,62 471,127 628,203 2,1 5,3 6,4 12,0 32,8 38,12 156,15 1121,-243 1137,-265 -27,-35 -132,-47 -140,-64 -18,-37 2,-136 23,-172 10,-18 33,-39 57,-42 8,-3 17,-8 23,-17 4,-15 7,-14 0,-30 -20,-5 -28,-10 -48,-14 0,-14 15,-25 27,-28 6,-4 4,-3 11,-6l14 -24c15,-24 15,-32 23,-55 3,-8 6,-23 7,-28 3,-32 8,-53 8,-86 0,-15 -1,-31 -2,-43 -3,-16 -6,-26 -8,-41 -4,-16 -20,-44 -29,-55 -8,-4 -4,3 -6,-7 3,-11 5,-11 20,-10 22,-5 39,-10 63,-12l10 -6c6,-8 3,-3 7,-11 -9,-14 -8,-10 -24,-18 -74,-39 -114,-23 -119,-61 -9,-63 -1,-131 40,-180 24,-28 80,-16 70,-66 -1,-3 -620,-198 -642,-196 -204,6 -1128,104 -1218,184z"/>
   </g>
  </g>
 </g>
</svg>
