<?xml version="1.0" encoding="utf-8"?>
<!-- Generator: Adobe Illustrator 22.1.0, SVG Export Plug-In . SVG Version: 6.00 Build 0)  -->
<svg version="1.1" id="Layer_1" xmlns="http://www.w3.org/2000/svg" xmlns:xlink="http://www.w3.org/1999/xlink" x="0px" y="0px"
	 viewBox="0 0 480 480" style="enable-background:new 0 0 480 480;" xml:space="preserve">
<style type="text/css">
	.st0{fill:#19898D;}
	.st1{fill:#103959;}
	.st2{fill:#0D3A5B;}
	.st3{fill:#FEFEFE;}
	.st4{fill:#D9EEE9;}
	.st5{fill:#61C1C5;}
	.st6{fill:#B0D9C9;}
	.st7{fill:#FFFFFF;}
	.st8{fill:#232B54;}
	.st9{fill:#1A8B8F;}
	.st10{fill:#C2E4EE;}
	.st11{fill:#FCD247;}
	.st12{fill:#FDFDFD;}
	.st13{fill:#FAB745;}
	.st14{fill:#0B3B5F;}
	.st15{fill:#63C2C6;}
	.st16{fill:#FDFDF9;}
	.st17{fill:#01656C;}
	.st18{fill:#FBFBFA;}
	.st19{fill:#F6B691;}
	.st20{fill:#FDFDF5;}
	.st21{fill:#F9FEFE;}
	.st22{fill:#F6A510;}
	.st23{fill:#10385C;}
	.st24{fill:#F3FDFB;}
	.st25{fill:#90CFD1;}
	.st26{fill:#1D2C54;}
	.st27{fill:#CBE5EB;}
	.st28{fill:#212D56;}
	.st29{fill:#133559;}
	.st30{fill:#D1E9ED;}
	.st31{fill:#61BFC2;}
	.st32{fill:#F7A687;}
	.st33{fill:#F59D87;}
	.st34{fill:#EFB752;}
	.st35{fill:#F6B178;}
	.st36{fill:#EDB191;}
	.st37{fill:#F8D646;}
	.st38{fill:#66C2BC;}
	.st39{fill:#232C55;}
	.st40{fill:#C9DBDB;}
	.st41{fill:#ECF5F3;}
	.st42{fill:#FBF3D1;}
	.st43{fill:#16898C;}
	.st44{fill:#FED900;}
</style>
<g id="Layer_x0020_1">
	<g id="_2300539712848">
		<path class="st0" d="M408.1,190.7l-0.1,7.2l5.8-0.4c2.4-0.8,3.6-0.3,6.3-0.4c3.9,0.1,7.5-0.2,10.9,0.8c3-2.9,4.3-5.3,5.7-9.3
			C432,188.6,410.6,190.1,408.1,190.7z"/>
		<path class="st0" d="M406.1,145v1.6c0.1,0.1,0.3,0.1,0.3,0.4c0.1,0.2,0.2,0.3,0.3,0.4c1,2.1,0.7,2.4,0.5,3.6
			c0.1,0.1,0.3,0.1,0.3,0.3c0,0.3,0.2,0.3,0.2,0.5c0.2,2.2,0.5-2-0.1,1.2c1.4,2.1,0.5,30,0.6,35.2c6.4-0.9,24-3.1,30.2-1.9
			c1.2-1.1,1.5-2.2,2.4-3.7c0.4-0.6,0.7-1.3,1.1-2c8-13.7,12.6-29.8,12.2-45.8l-0.4-5.8c-0.3-1.1-0.1-0.9-0.6-1.5
			c-3.3,0.7-3.7,0.8-14.7,2.2c-27.9,3.5-19.6,0.3-28.3,11.6c-1.2,1.5-2.3,2.7-2.9,4.6C407,144,407.4,145.8,406.1,145z"/>
		<path class="st1" d="M408.1,235.5v36.1c2.1-0.3,4.4,1.5,6.4,2.6c2,1,3.5,2.3,5.4,2.2c4.1-0.8,16.5-12.6,19.2-15.6
			c4.9-5.6,10.1-12.6,13.7-20.5c1.9-4.9,3.5-8.6,5.2-13.9l3.5-16l-0.6,0.7c-0.1,0.1-0.2,0.2-0.3,0.3c-1.6,1.6,0.3-0.1-0.6,0.5
			c-0.1,0.1-1.8,0.8-1.8,0.8C450.5,215.8,410.1,235.4,408.1,235.5z"/>
		<polygon class="st2" points="408,197.9 408.1,224.6 417.7,197.4 413.8,197.5 		"/>
		<path class="st1" d="M407.8,283.6c2.4-0.2,7.3-3.4,9.4-5.4l-1.3-0.8c0,0-0.1-0.1-0.1-0.1c-2.3-1.7-4.9-2.8-7.8-3.3
			c0,1.6,0,3.2,0,4.8c0,0.2,0,2.1,0,2.1C408.5,283.1,406,282.6,407.8,283.6z"/>
		<rect x="256.3" y="317.1" class="st3" width="139.5" height="24.2"/>
		<path class="st0" d="M389.9,115.4c-2.7,3.4-7.6,5.4-9.8,9c3,0.9,12.4,4.2,14.1,7.3c1.3,0.7,0.3-0.1,1.5,0.9c0.4,0.3,0.7,0.7,1.1,1
			c0.9,0.9,1.6,1.3,1.8,2.5c3,2,4.6,6.5,6,9.8c0.5-3.5,26.4-39.4,31-46.5c0.5-0.7,0.7-1.2,1-1.6c1.2-1.8,1.9-2.2,1.7-2.2
			c-0.3-0.1-1.4,0.1-1.7,0.1c-13.2,1.5-25.1,5.7-36.2,12.7C397.5,110.2,393,113.8,389.9,115.4z"/>
		<path class="st4" d="M271.6,123.2h102.5c18.7,0,33.9,15.3,33.9,33.9V322c0,5.1-4.1,9.2-9.2,9.2H271.6V123.2z"/>
		<path class="st5" d="M184,376.4l114-0.1c5.8,8.3-1,6.7-4.6,6.6c-17.9,0-109,0.6-111.7-0.4C180.9,380.7,183,377.9,184,376.4z
			 M328.9,376.3c1.4,0.6,1.6,1.2,2.6,2.6c0.3,0.4,0.9,1.5,1,1.8c0,0,2.3,3.3-7.8,2.1C319.9,376.5,320.5,376.3,328.9,376.3z
			 M317.2,376.4c1.6,1.6,2.9,3.5,2.7,6.2c-2.1,0.7-5.4,0.5-8,0.3C306.9,376.4,310.1,375.7,317.2,376.4z M256,369
			c-3.3,0.4-7.3,0.2-10.8,0.2c-8.3,0.1-6.2,0.1-6.5-1.5c-0.1-0.5,0.1-2.5,0.3-3c1.2-2,8-0.9,10.5-0.9
			C256.2,363.7,255.9,362.5,256,369z M215,363.8l16.6,0l-0.5,5c-2.3,0.7-14.6,0.7-16.6,0.1c-0.4-0.7-0.3,0-0.4-1.2
			C214,366.2,214.7,365.4,215,363.8z M263.7,364l16.5-0.2c2.2,7,2,5.3-10.2,5.4C264.4,369.2,263.6,370.2,263.7,364z M289.1,364
			l16.5-0.2c2.6,6.6,4.7,5.2-9.6,5.4C291.2,369.2,289.4,369.2,289.1,364z M363.2,363.8c4.1,0,8.2-0.1,12.3,0c4.1,0.1,7.1,2.6,7.9,5
			c-2.7,0.7-14.8,1.3-17.3-0.7C364.9,367.1,363.2,365.9,363.2,363.8z M313.4,363.9l16.1-0.2c1.1,1.9,3.1,3.3,2.8,5.2
			c-2,0.3-15.3,0.9-16.9-0.5C314.7,367.9,313.3,365.4,313.4,363.9z M358.6,368.8c-3,0.7-9,0.3-12.3,0.4c-2.9,0-4.1,0.7-6.7-2.9
			c-1-1.5-1.1-2.1,0.7-2.5c0.1,0,1.5-0.1,1.6-0.1h9.7c3.2,0,2.8,0.1,4.7,1.8C357.3,366.4,358.6,367.2,358.6,368.8z M188,368.9
			c-0.7-1.6,0.6-3.2,2.1-5l16.1-0.1c-0.3,5.5-1.5,5.4-6.5,5.4C196.4,369.2,190.7,369.6,188,368.9z M163.3,369
			c-0.4-1.8,1.1-3.6,2.6-4.9c3.5-1.2,11.6-0.5,15.9-0.3c0,1.7-0.5,3.1-1.8,4.4C178.4,370,165.8,369.3,163.3,369z M136.6,368.8
			c1.2-3.6,3.8-5,7.4-5c4,0,8.4-0.1,12.3,0.1c-0.2,5-4.6,5.3-7.5,5.3C144.7,369.2,140.6,369.4,136.6,368.8z M217.5,357.8
			c-0.2-1.5,0.5-3,1-4.1l14.7,0.1c0.3,1.6,0,3-0.4,4.2L217.5,357.8z M285.1,353.7h14.1c1.7,1.1,2.3,2.2,2,4.3c-3.3,0.1-6.7,0-10,0.1
			C286.7,358.1,285.4,358.7,285.1,353.7z M330.1,353.7c4.5,0,17.7-1.6,17,4.2c-2.9,0.6-7.2,0.2-10.3,0.2
			C332.8,358.1,330.8,357.8,330.1,353.7z M321.5,353.9c1.1,1,2.4,2.2,2.2,3.9c-2.6,0.6-7.3,0.3-10.2,0.3c-4,0-6.1,0.2-6.5-4.4
			L321.5,353.9z M352.1,353.9c2.7-0.3,18.2-2.1,17.3,4c-2.9,0.5-7.7,0.2-10.9,0.2C356.1,358.1,352.7,358,352.1,353.9z M148.1,357.8
			c-0.1-1.5,0.8-2.4,1.8-3.2c2.4-1.8,12.3-1.2,15.3-0.7c-0.2,1.4-1.3,3.1-2.2,3.6C161.4,358.6,149.9,358.2,148.1,357.8z M71.2,365.6
			c-1,1.7-20.8,17.3-24.2,20c-2.4,1.9-6.6,4.5-7.8,7c3.4-1.5,43.7-0.6,50.8-0.6h261.6c12.6,0,100.3-1.1,104.8,0.5
			c-1-1.9-1.2-1.5-3.4-3.3l-37.5-30.2c-2.6-2.1-4.3-3.4-6.8-5.4c-2.9-2.3-6.3-4.4-6.3-6.5c-3,2-3.9,1.8-8,1.4l0.3,3.2l0.8,11.9
			l-0.7,0.2c1,1.5,0.3-0.1,0.7,1.7c1.5,0.5,1.6,0.9,2.3,2.2c-1.4,2.4-1,1.2-2.7,2.1c-4.3,2.3,1.6,2.2-9.2,2.4
			c0.9-1.6-0.3-0.3,0.9-1.2c0.4-0.3,0.4-0.3,1.1-0.6c2.8-1.2,2.9-0.8,5.1-4.3c-1.2-1.3-0.6-0.8-1.4-2.3c-1.2-2.9-2.9-5.1-4.3-7.6
			c-1.2-2.2-2.5-5.1-3.9-7.5l-116.1-0.1c-0.6,1.3,0.4,0.2-0.9,1.2c1.7,0.3,2.2,0.8,4,1.4c2.3,0.8,2.1,0.2,3.1,2.2l-5.8-0.2
			c2.7,1.1,6,0.2,9.4,0.3l0.6,4.1c-3.4,0.4-6.9,0.1-10.3,0.2c-1.1,0-6,0.8-5.4-2.5c0.4-1.9-1.1-1.6,1.7-1.8
			c-0.5-1.8-0.7-2.5,0.4-3.8v-1.3l-0.8,0.1h-15.4l-1-0.1l-0.3,1.9c1.2,0.4,5.9,2,6.8,2.9c-0.7,0.5,0.1,0.4-1.3,0.7l-4.1-0.3
			c1.5,1.1,6.7,0.4,6.7,0.4c0.1-0.1,0.3,0,0.5,0.1L255,358l-14.9-0.1c-0.5-1.8-0.3-2.8,0.1-4.3l3.3,0.1c-0.3-2.3-0.5-2,0.6-3.4
			l0.1-1.8l-0.6,0.1l-41.9,0l-0.4-0.9c-0.8,1.7-0.4,0.8-1.2,1.5c2.7,2.6,5.3,2.3,8.1,3.7l0,1.6l1.6-0.8c0.8,1.8,0.1,2.3-0.8,4.3
			l-15-0.1c-0.2-2,0.2-2.3,1.4-3.5l-6.9-0.2c-0.5,1.8-1.2,2.6-2.1,3.8l-14.5-0.2c-0.3-1.9,0.8-2.6,1.9-3.9c3-0.8,12.1-1,14.7,0.4
			c-0.9-1.9-1.1-1.6-1.9-3.3c-1.6,0.7-0.9,1.4-2.7,1.7l0.7-3c-0.5-2.2,1.2-0.9-2.2-1.3l-9.6,0.1c-4.1,0-34.9-0.7-37.2,0.6l-0.7,5.2
			c2.4-1.1,5.8-0.6,8.6-0.6c-0.8,4.8-5,4.4-9.4,4.3c-0.3,1.8-0.7,3.5-1.1,5.2c-0.6,2.6-0.2,3.2-2.1,3.9l-0.2,2.7
			c3,0.4-2.4,0.8,1.6,0.7c1.5,0,0.3-0.7,2.3,0.9c0.1-0.7-1.1-2.7,3.8-1.6c2.2,0.5,2,1,2.3,3.4c-3.1,0.2-10.6,0.5-13.2-0.3
			c-0.5-1.6-1-2.1,0.8-3l-0.6-0.5l-11.8-0.1c1.7,1.3,2.1,0.5,2.4,3.7c-1.8,0.2-13.8,1.5-13.7-1.6c0.1-1.8,0.7-1.4,1.1-1.6l0-2.7
			c-0.7-0.9-0.9,0.5-0.3-2.2c0.4-2,4.6-12.8,4.8-15.8c-4.4-2.7-11.2,2.6-15.3-3.6l0,1.9c-2.6,1.2-9.3,7.1-12,9.3
			C80.8,358.3,73.5,364.8,71.2,365.6z"/>
		<path class="st1" d="M146.8,195.3l-0.2,2.1c0.4,0.3,2.5,1.4,3.3,1.8l3.1,1.9c0.1-0.1,0.2,0.2,0.3,0.3l-1.9,0.9
			c-2.7,0.6-5,0.2-6.7-1.6c-2.6-2.7-2.6-0.3-4-2.4c-1.3-2,0.8-2.3,2.2-4.4l0.5-0.9c1.3-0.8,1.8-0.2,3.6,0.4L146.8,195.3z M178.7,327
			L178.7,327c1.8,0,3.5,0,4.9,0h33.3v-14.2h-25.2c-0.2-1.5-0.3-2.8-0.4-3.5c0.7-6.5-1.7-13-3.2-18.5c-1-3.6-0.9-6.1,0.3-9.7
			c1.1-3.1,2.6-4.5,3.3-8.1l1-6.8c-2.8,0.3-3.6,0.5-7.2,0.5c-0.3-3.3-0.1-1.6,1.6-3.9l3.5-10.3c1-6.5-1.8-13.2,1.2-18.3
			c3.3-5.6,7.3-1.9,11.8-1.2c-0.5,2.2-0.3,2.2,0.5,4l0.3,1.4c1.4-0.5,0.5,1.1,1.8-2l15.1-37.3l2-0.3c-0.1-1.7-0.2-0.8,0.7-1.9
			l0.8-0.9l1.7-6.2l-59.3,0.1c-2.7,3.1-1.4,1.7-1.2,4.9l-0.2,0.6l0.3,1c0.1,0.2,0.2,0.8,0.3,1c1.3,4.4,5.7,3.3,7.8,5.4
			c-1.9,0.8-6.5,1-8.3,0c-0.4-0.2-0.8-0.9-1.3-1.3c-0.7-0.7-0.5-0.4-1.3-0.9c-3.7-2-2.8-1.3-2-4.8c0.6-2.6-0.1-2.6-0.9-3.8
			c-1-1.7,0.6,0-1-1.9l-9.4-0.1c0-1.8,1.3-4.3,2-5.7l3.1-7.7l2.6-6.4c0.8-2,1.9-3.5,2.5-6.2c1,1.1,0.3-1,0.8,1.6
			c0.4,2-0.1,1.1-0.4,1.4l0.5-1.7c-0.5-4,0.6-4.1,2-7.7c1-2.6,2.2-4.3,2.4-7l-0.2-1l-1.6-1.8l-14.1-2.3c-2.5-1.1,0.4,0.2-1.2-1
			l-3.4-1.3c-1.9-0.3-16.4-0.9-17.8-0.2c-0.3,3.2-0.4,4.1,0.4,6.9c2,1.8,1.2,2.9,4.7,4.4c1.8,0.8,4.9,1.4,6.9,1.9
			c8.5,2,9.9,0.3,10.7,3.3c0.7,2.4-0.3,3.4-0.5,3.7l-1.8,5.3l-1.5,5.4l-1.9,10.7c-0.5,6.3-0.5,5.3-2.7,5.4
			c-6.8,0.3-16.3-0.6-23.8,0.1l-0.2,68.2c2.1-0.4,2.4-1.7,4.9-1.7l1.8,2.6c-1.5,0.7-2,1.3-1.6,2.4c0.7,2.1,5.2,7.5,2.9,9.8
			c-0.5,0.8-0.1,0.5-1,1.4l-0.1,3.1l4.5-0.5l0.9-1.6c0.4-2.5,0.6-4.2,0.7-6.9c0-0.9,0.1-3.1,0-3.8c-0.3-2.5,0.5-2.5-1.6-2
			c-1.4,0.5-1.6,0.9-2.6,0.3c-0.2-0.1-0.7-0.8-0.7-0.9c-0.6-2.6-0.2-0.4,0.2-1.1c0.4-0.8,3.1-2.1,3.6-2.3l1.8-2.8l2.6-0.2l10.3-6.7
			l1-0.4c1.4,1.6,3,3.4,2.9,6.9l-1.2,0.6l-2.9,1.1c-1.2,0.4-0.8,0.3-1.5,0.7c-1,9,6.7,21.5-2.6,25.6c-3,2.5-7.2,2.9-10.6,4.8
			l1.3,21.6h-17.3l0.2,2.6c1.5,0.9,0.9,0.7,1.8,2.6l2.5,4.3c0.1,0.1,0.2,0.2,0.2,0.3c0.1,0.1,0.2,0.2,0.2,0.3
			c3.3,5.2,2.3,4.1,6.7,9.2c0.9,1.1,1,1.1,1.6,2.2l1,2c1,1.7,0.4,18-0.4,20.2c0,4.1-1.1,11.8-0.2,15.1l0.1,0.1l3.6,0
			c1.8-0.7,1.5-1.3,2.1-3.9c0.4-1.7,0.8-3.4,1.1-5.2l0.9-3.7l0.7-5.2c1-3.6,2-12.7,1.6-16.4v-5.2C140.7,326.2,164.1,327,178.7,327
			L178.7,327z"/>
		<path class="st0" d="M39.2,392.6c-0.4,7.7,5.2,14.2,13.2,14.4c9.2,0.3,18.9,0,28.1,0h335.2c9,0,19.3,0.5,28.1,0
			c7.6-0.4,12.5-7.2,12.6-14.5c-4.4-1.6-92.2-0.5-104.8-0.5H90C82.9,392,42.5,391.1,39.2,392.6z"/>
		<path class="st1" d="M230.6,200.5c-0.4,2.5,0.6,1.7-0.3,4.4c-0.5,1.4-1.1,2.9-1.6,4.2c-1,2.7-2.6,5.8-3,8.2
			c1.8,3.5,0.4,2.9-1.4,6.5c-1,2.1-1.8,4.6-2.7,6.9c-1.6,3.8-3.5,10.2-5.4,13.5c-1.7,3.2-8.1,8.6-8.8,11.4c-0.5,2-0.1,2.1-1,4.3
			c-1.6,3.6-1.6,8.9-1.3,12.9c1,6.2,1.8,10.9,1.6,17.6c-0.1,3.1,0.2,15.3-1.2,17.1c-0.3,3.1-1.4,17.8-0.5,19.4l41.6-0.3l1.4-8.7
			c0.1-4.7,0.8-4,1.1-10.1l1-18.2c0.2-1.1,0.1-0.5,0.4-1.1c0.7-1.1-0.1-0.2,0.9-0.9c-3.3-5-10.3-14.8-7.4-22.5
			c1.4-3.7,3.4-6.6,5.8-9.6c2.4-3,4.1-6.7,9.6-5.8l0-4.2c-0.7-0.8-2.2-8.5-0.7-12.1c2.1-0.5,9-0.1,10.7,0.7c-1,3.1-0.5-0.8-1.6,4.4
			l-0.1,3.1h1l1.1,0.1l2.3-0.3l-0.1-51.2l-36.9,0C233.5,191.7,231,198.5,230.6,200.5z"/>
		<path class="st5" d="M30,216.8c0.9,18.5,6.3,32.4,14.2,45.7c1.1,1.9,5,8.4,6.2,9.2c2.5,1.7,38.6-0.4,43.7,1.5l-0.1-32.8
			c-1.3-0.3-2-1.6-3.1-2.9l-8.4-10.6c-2.2-2.7-3.6-4.5-5.7-7.1c-1.6-2-4.3-5-5.5-7.2l-41.4-1.9L30,216.8z"/>
		<path class="st6" d="M238.2,172.7c9.4,4.8,25.1,2.3,33.2-2.2c19.9-11.2,26.8-34.6,16.9-54.5c-3.7-7.5-14.6-19-21.1-19.3
			c-1.1,0.8-14.3,35.7-15.2,38l-11,28.6c-0.7,1.9-1.1,2.8-1.8,4.6c-0.3,0.8-0.8,1.9-0.9,2.3C237.6,172.5,237.5,170.5,238.2,172.7z"
			/>
		<path class="st0" d="M127.1,151.2c-6,0-12,0-18,0c-4.7,0-12.3-1.5-14.4,3c-1.1,2.4-0.6,29.6-0.4,34.4l-0.1,49l0,2.7l0.1,32.8
			l-0.2,1.4l0.1,9.6l0,39.6l0,2.4c0,4-0.7,16.4,0.6,19.2c4.1,6.2,10.9,0.9,15.3,3.6c1.5-2.3,2.7-7.9,3.7-10.7
			c1.2-3.6,3.4-8.1,1.7-11.9l0,6.3c-13.3,0.9-11.2-6.5-11.2-17.6V173.9c-0.1-13.5,5.6-11.3,17.5-11.3l24.9-0.1
			c2.5,0.2,1.9-0.5,2.6,0.9c0.2-0.3,1.2-1.3,0.5-3.7c-0.9-2.9-2.2-1.3-10.7-3.3c-2-0.5-5-1.1-6.9-1.9c-3.5-1.5-2.7-2.6-4.7-4.4
			C127.5,151.3,128,150.9,127.1,151.2z"/>
		<path class="st5" d="M238.2,172.7c-0.7-2.2-0.6-0.3,0.1-2.6c0.1-0.5,0.6-1.5,0.9-2.3c0.7-1.8,1.1-2.7,1.8-4.6l11-28.6
			c0.9-2.2,14.1-37.2,15.2-38c-8-6.5-41.6-5.3-53,23.4C204.8,143.8,220.1,166.9,238.2,172.7z"/>
		<path class="st7" d="M115.4,326.5l-2-15.6l-0.2-2.6c0-5.8,0-11.6,0-17.4c0-2.8-0.3-6.1,0.7-8.5c0.9-2.5,2.1-2.9,3.6-4.9l0.1-2
			l-0.1-1.9c-3.9-1.1-5.7-3.4-6-7.7s1.8-7.3,6-7.5l0.2-68.2l0.2-21.5l29.6-0.1l1.8-5.3c-0.7-1.4-0.1-0.7-2.6-0.9l-24.9,0.1
			c-11.9,0-17.6-2.2-17.5,11.3v141.4c0,11-2.2,18.5,11.2,17.6L115.4,326.5z"/>
		<path class="st5" d="M315.4,298.3c1.2,7.3,1.4,13.8-2,19.9c-3.8,6.7-7.9,7.3-12.4,10.1c4.3,0.6,64.4,0.4,75.1,0.2
			c2,0,3-0.2,4.1,0.6c1-1.4,2.5-5.6,3.4-7.5c1-2.2,2.3-4.9,3.6-7.1l1.4,0.1c-8.6-3.3-18.7-6.5-27.8-9.6c-9.5-3.1-18.3-6.4-28-9.6
			l-17.9,0L315.4,298.3z"/>
		<path class="st0" d="M267.3,348.8l116.1,0.1c-2.2-5.2-5.2-8.7-4.5-15.7l-110.8-0.2C267.9,337.4,268.6,345,267.3,348.8z"/>
		<path class="st5" d="M75.6,214.2c1.9,2.4,3.9,4.8,6.1,7.7l12.5,15.7l0.1-49c-2-0.6-4.8-2.4-7-3.6c-12.4-6.6-30.4-13.2-44.3-12
			C44.6,177.3,70.4,207.7,75.6,214.2z"/>
		<path class="st8" d="M258.9,313.9c0.4,0.7,1.5,10.7,1.5,12.2c-2.9,0.5-2.6,0.7-5.6,0.1L258.9,313.9z M254.7,286.7
			c1.2,1.8,3.4,3.2,4.2,5.2c-4.8,1.2-6.2,0.1-7.4-4.3l-0.3,0c-1,0.7-0.3-0.1-0.9,0.9c-0.4,0.6-0.2,0-0.4,1.1l-1,18.2
			c-0.3,6.1-1,5.4-1.1,10.1l-1.4,8.7l-0.5,6.2c-0.7,3.1-2.5,12.5-2.3,15.9l0.6-0.1l2.7-0.1l1,0.1c1.9-3.4,3.3-13,5.2-15.8l1.6-6
			l5.3-0.1l0.6,1.8c1,2.8,0.8,6.4,1.2,9.9c0.3,2.6,0.8,8.1,1.5,10.2l0.8-0.1l3.2,0.2c1.2-3.7,0.5-11.4,0.8-15.8l0.1-6.2
			c0.9-8.8,0.5-19.1,0.5-28.4c0-2.7,0.6-12.2-0.2-12.6c-0.8-0.3-12-0.5-13-0.3C255.1,286.2,255.1,286.2,254.7,286.7z"/>
		<path class="st9" d="M259.1,249.8c-5.5-0.9-7.2,2.7-9.6,5.8c-2.4,3-4.3,5.9-5.8,9.6c-2.9,7.7,4.1,17.5,7.4,22.5l0.3,0
			c1.2-1,1.3-0.9,3.1-0.9c0.4-0.5,0.4-0.5,0.9-1.3c0.9-0.9-0.2-0.5,2.3-0.6l11.4,0.3l-0.2-13.7c1.2,1,1.9,1.5,2.6,2.8
			c2.4,0.9,7.5,5.9,10.1,2c1.9-2.9,0.5-10,0-13.7c-0.4-1.1-0.6-2.4-0.9-3.7c0-0.1-0.5-2.1-0.5-2.1c-1.2-2.7,0.2-1-1.6-1.7l-3.8,0.1
			c0.6,3.3,1.2,7.2,0.7,10.6c-2-1-3.4-4.1-3.7-6.7c-1.1-0.6-1-0.5-2-2.6c-0.4-0.9-0.7-1.7-1.1-2.6c-1.5-3.2-2.5-3.1-3.3-4.3h-0.7
			C264.7,253.1,260.9,251.9,259.1,249.8z"/>
		<path class="st1" d="M408,228.4l0,5.1l39.6-18.2c2.3-1.1,4.2-1.9,6.5-3c2.5-1.1,4.1-2.4,6.9-2.6c-3.8-4.5-21.6-12.8-30-11.8
			c-3.3-1-7-0.7-10.9-0.8c-0.9,3.6-1.8,4.8-2.9,7.8c-1,3-2,5.2-3.1,8.2C413.2,215.8,409.6,227.4,408,228.4z"/>
		<path class="st10" d="M77.1,161.7h17c0.1-3.9,0.3-6.8,0.6-7.5c2.1-4.5,9.7-3,14.4-3c6,0,12,0,18,0c0.9-0.3,0.4,0.1,0.4-1.1
			c-0.8-2.9-0.7-3.7-0.4-6.9l0.7-6.9c-6.7-4.6-7.5-7-2.5-14.6c2.2-3.3,5.4-6.2,8.2-8.8c1.2-1.2,1.6-1.9,2.8-3.3l1.8-4.9
			c-1.8-4.5,1.4-6-1.1-6.2c-2.2,0.9-18.2,4-24.7,19.6c-1.5,3.6-1.4,7.2-4.2,9.6c-3.9,3.4-7.5,1-12.1,0.5c-5.9-0.7-10.3,0.2-14.8,2.7
			c-2.3,1.2-4.5,3.2-6,5.2C69.5,143.6,71.9,154.8,77.1,161.7z M139.8,111.9c1,0.4,0.1-1.1,1.1,1.6c0.3,0.9,0.5,1.5,0.7,2.4
			c0.6,2.3-4,3.9-4.1,6.2c1.6,1.9,2,8.7,2.4,11.6l7.2,4c1,0.1,0.9-0.2,0.9,0.6c1.7,0.1,1.9,0,2.6,1.2c3.9,0,8.4-0.5,7.9,4.9
			c-4-0.5-3.3,0.4-6.4-1.4c-0.7,0.6-0.3,0-0.7,1.2c4.1,0.8,10.1,2.7,13.8,2.6c-0.8,1.5-0.1,2.2,0.1,3l0.2,1c3.6,1,42.3,0.9,43.7-0.1
			c-1.3-5.8-2.8-9.5-2.8-16.6c0.1-6.8,1.5-10.5,3.1-16.1c2.4-6.6,6.7-12.5,11.7-17c0.8-0.7,1.6-1.6,2.5-2.3c1.2-1,2.2-1.3,2.6-2.2
			c1.9-0.7,2-1,3.8-2l3.8-2.3c1.8,0.1,25-10.5,46,5.8l3.5,3.6c1.2-1-0.5-3.1-1.9-5.1c-11.7-16.3-41.8-20.6-60.4-19
			c-20.8,1.7-48.2,13.1-56.4,34.1c-1.6,4.1-4.8,4.2-7.1,0.8c-1-1.5-1.9-2.8-2.9-4c-2.4-3.1-4.8-4.9-7.4-7c-1,0.9-0.3,1.5-0.7,4.2
			c-0.2,1.5-0.9,3-1.4,4.3l-3.6-0.1C140.5,111.7,141.1,110.8,139.8,111.9z"/>
		<path class="st11" d="M162.9,173.9l52.6,0.1c0.8,12.8,0.3,10.6-4.7,10.5c-14.3-0.3-33.2,0.7-46.2-0.1l0.9,5.6l1.7,0.1l59.3-0.1
			l5.4-14c-1.6-1.3-3.8-2.4-5.5-3.5c-1.8-1.2-3.3-2.6-5-3.6l-59.3,0L162.9,173.9z"/>
		<path class="st0" d="M135.4,349.1c1.8-0.9,19.6-0.8,30.1-0.7v0.2h18.8c0,0.2-0.1,0.5,0.1,1.1l0.3-1.1h31.2v-15.9h-50.3l-28.5-0.1
			C137.5,336.5,136.5,345.6,135.4,349.1z"/>
		<path class="st12" d="M184,376.4c-1,1.5-3.1,4.3-2.4,6.1c2.7,1,93.9,0.4,111.7,0.4c3.6,0,10.4,1.7,4.6-6.6L184,376.4z"/>
		<path class="st5" d="M297.2,159c-1.2-14.5,20.1-15.5,21.2-2.1C319.5,171.3,298.3,172.5,297.2,159z M289.4,162.7
			c0.2,0.3,0,1.6,0,6.3c0,6.6,0.3,14.7-0.5,20.9h0.5c0.6-8.3,2.5-14.5,9.6-18.4c7.3-4.1,15.3-2.7,20.9,2.3c5.6,5,3.7,6.7,6.5,12.7
			l-0.2-46.6l-19.9-0.1l0,0h-8.6c-0.2,2.6-0.7,5.2-1.7,8.4c-1.2,3.9-4,10-6.5,13V162.7z"/>
		<path class="st5" d="M36.9,181.2c-0.5,1.2-0.8,1.9-1.2,3c-2.7,7.4-4.9,16.1-5.2,24.1l38.4,1.8l-20.1-25.7
			c-2.3-2.7-6.1-8.9-8.8-10.2c-0.3,0.8-0.4,1.4-0.9,2.3C38,178.3,37.8,179.2,36.9,181.2z"/>
		<path class="st13" d="M332.6,294.6l0.1,0.9c9.7,3.2,18.5,6.5,28,9.6c9.2,3.1,19.2,6.2,27.8,9.6l14.8,5.1l4.4,1.6
			c3.8,0.7,8.4,2.7,12.7,4.2h0.1c1.2,0.4,2.3,0.9,3.4,1.2l2.4,0.8l1.7-5.3l-0.1-2c-2.4-0.4-3-0.7-4.9-1.5l-15.7-5
			c1,1.8,1.2,0.6,1.2,2.6c0,0.5-0.9,2.2-1.3,2.6c-2,1.7-3.4,0-4.5-1.2l-0.5-6.1l-58.5-20c-4-1.4-7-1.7-7.8-3.3
			c-0.9,1.4-1.9,4.1-2.2,6.5L332.6,294.6z"/>
		<path class="st0" d="M201.2,347.8l0.4,0.9l41.9,0c-0.2-3.4,1.6-12.8,2.3-15.9l-42.4,0.2L201.2,347.8z"/>
		<path class="st0" d="M453.2,125.8c-0.9-8.5-4.3-17.1-8-24.4l-4.4-6.7c0.2,3.5-20.4,28.9-22.7,35.1c5.5-0.1,19.7-2.2,26.3-3.1
			C449.1,126,450.4,126.1,453.2,125.8z"/>
		<path class="st14" d="M289.4,190h36.7l0.1-3.4c-2.8-6.1-0.9-7.7-6.5-12.7c-5.6-5-13.6-6.4-20.9-2.3
			C291.9,175.5,290,181.6,289.4,190z"/>
		<polygon class="st6" points="316.2,249.9 290,249.9 290,273 315.9,273.2 		"/>
		<path class="st14" d="M380.1,329.2l-1.1,3.2l-0.1,0.7c-0.7,7,2.3,10.5,4.5,15.7c1.4,2.4,2.7,5.2,3.9,7.5c1.4,2.5,3,4.7,4.3,7.6
			l3.2-0.1l0.7-0.2l-0.8-11.9c-0.9-1.6-0.8-4.3-1-6.4c-0.3-2.1-1.2-4.1-0.3-5.5c-1.6-1.8-1.6-3.9-0.1-6.7l9.6-10.7
			c0.4-0.3,2.6-1.8,1.4-0.3l-1-2.2l-14.8-5.1l-1.4-0.1c-1.3,2.3-2.6,4.9-3.6,7.1C382.7,323.6,381.1,327.7,380.1,329.2z"/>
		<polygon class="st15" points="327.9,273.1 331,273.2 349,273.2 353.9,273.1 354,257 354,254.4 354,250.4 327.9,250.1 		"/>
		<path class="st0" d="M117.5,277.5c-1.5,2-2.7,2.4-3.6,4.9c-1,2.4-0.7,5.7-0.7,8.5c0,5.8,0,11.6,0,17.4h17.3l-1.3-21.6
			c3.3-1.9,7.6-2.3,10.6-4.8c-2.3-1.1-3.9-5-5.8-7l-3.5,0.6c-1-0.8-0.9,1.2-0.8-1.5l-0.9,1.6l-4.5,0.5l0.1-3.1l-0.7,2.8
			C122.8,276.2,118.8,277.2,117.5,277.5z"/>
		<path class="st11" d="M335.7,288.3c0.8,1.6,3.9,1.8,7.8,3.3l58.5,20l0.5,6.1c-0.2-4.8,0.3-10.2-0.7-14.6l-16.2-5.6l-3.5-0.8
			c-1.8-1-1.7-1-4-1.7c-1.9-0.6-2.8-0.3-4.3-1.6c-2.7-0.6-6.8-2.3-9.9-3.3c-3-1-6-1.9-9.5-3.2c-4-1.4-17.3-7-19.5-4.7l2.9-0.4
			C336.8,284.1,336.1,285.9,335.7,288.3z"/>
		<path class="st16" d="M164.6,184.4c13,0.8,31.9-0.2,46.2,0.1c5,0.1,5.6,2.3,4.7-10.5l-52.6-0.1L164.6,184.4z"/>
		<path class="st0" d="M165.3,150.8c-0.2,2.7-1.4,4.5-2.4,7c-1.4,3.5-2.5,3.6-2,7.7h0.5l-0.3-3.1l54.9,0.2c-2-2.6-1.6-1.4-3.9-5.5
			c-1.1-2-2-4.8-3.1-6.4C207.6,151.7,168.9,151.8,165.3,150.8z"/>
		<path class="st0" d="M366,271.3l0.3,1.8c4.4,0.3,16.5,0.8,19.4-0.4c-1-3.7-1.6,0-3.8-3.1c-0.9-1.2-1-3.4-0.9-5.2l-3-0.9
			c0.5-5.2,1.2,0.4,3.5-5.8c1.3,0,2.3,0.1,3.4,0c7.5-0.9,2.2,0.8,7.2,2.1l0-9.8l-26.2,0L366,271.3z"/>
		<g>
			<path class="st1" d="M382.1,124.1c2.4-3.1,7.1-6.8,9.3-9.5c-1.2-1.2-7.1-12.4-16.5-22.7c-6.7-7.2-13.1-12.6-20.3-17.7
				c-1.3-1-2.2-1.8-3.9-2.1c0.6,7.2-0.1,17.7-0.3,25.3c-0.1,4.1-0.6,20.1-0.4,25.8L382.1,124.1z"/>
			<path class="st1" d="M317,122.5c-0.5,2.3,0.8,0.8,7,0.8c2.7,0,5.3,0,7.9,0c4.3,0,11.7,0.4,15.5-0.1l1.3-50.4
				c-0.9-0.7,0.5-0.3-1.6-0.3c-0.3,0.9-6.9,6.2-9.8,9.4C321.5,99.7,317.7,120.4,317,122.5z"/>
			<path class="st1" d="M29.2,305.7c3.4,13.3,9,25,16,34.8c5.2,7.3,11.5,13.7,18.7,19.4c1.6,1.3,6.3,4.4,7.3,5.7
				c2.3-0.8,9.6-7.3,11.6-8.9c2.7-2.2,9.4-8.1,12-9.3l0-1.9c-1.3-2.8-0.6-15.3-0.6-19.2c-9.2-2.6-38.2-14.5-49.2-18.3
				c-5.4-1.9-11-4.5-16.4-6L29.2,305.7z"/>
			<path class="st1" d="M47.9,287.9c-2,0.8-4,1.6-5.6,2.4c-3.5,1.7-6.4,3.5-9.4,6c-1.5,1.2-3,1.9-3.6,3.6c10.1,3.7,20.1,7.6,30,11.1
				c5.5,2,27,10.5,30.3,11.2c-0.8-3.4-15.8-35-17.6-38.9C63.5,284,56,284.7,47.9,287.9z"/>
			<path class="st1" d="M94.1,323.8l0-39.6c-6.1-0.8-13.7-1.5-19.8-1.1L91,319.5C91.8,321.4,92.1,323.4,94.1,323.8z"/>
		</g>
		<path class="st17" d="M127.1,143.2c1.4-0.6,15.9-0.1,17.8,0.2l3.4,1.3c1.6,1.2-1.2-0.1,1.2,1c-0.6-0.7-0.3-0.4-0.7-1.5
			c0.4-1.3,0.1-0.4,0.6-1.3c0.6-1.3,0.3-0.9,1-1.9l0.2-1.4c-0.7-1.2-0.9-1.1-2.6-1.2c0-0.8,0.2-0.5-0.9-0.6l-2-4.4
			c-0.8-6.4-1.8-11.3-3.5-17.5c-0.3-0.9-0.4-1.5-0.7-2.4c-1-2.6-0.1-1.1-1.1-1.6c-1.2-1.6-1.6-2.1-3.6-2.2c-1.2,1.4-1.5,2.1-2.8,3.3
			c-2.7,2.6-6,5.5-8.2,8.8c-5,7.5-4.3,9.9,2.5,14.6L127.1,143.2z"/>
		<path class="st5" d="M407.6,305.5c2.1,0.1,22.3,6.8,23.4,7.9c1.1,0.2,2.4,0.8,2.9,0.9c2.4,0.9,1.9,1.4,2.3-0.9
			c0.5-6.7,0.9-8.9,0.2-17.9l-26.9,0.1L407.6,305.5z"/>
		<path class="st0" d="M388.8,268.2c0.9,1.6,1.5,1.8,1.9,3.7c-1.6,1-2.9,2-4.1,2.7l-1.2,6.6l0.1,12.2l0.1,2.2l0,2l16.2,5.6
			c0.2-2.1,0.2-7.6-0.7-9.3c-0.7-1.2-4.1-4.6-4.8-5.2c1.5-2.6,4.6-3.6,7.2-5.2c-0.2-2.5-3-5.9-4.3-7.2c-2.8-2.9-3.8-2.4-7.2-4.4
			l0-7.7l-0.6,1.5c-0.5,1.3,0.1,0.2-0.5,1.1C390.5,267.4,389.9,267.8,388.8,268.2z"/>
		<path class="st11" d="M117.6,190.3c7.5-0.7,17,0.3,23.8-0.1c2.2-0.1,2.2,0.9,2.7-5.4l-16.2-0.6l-0.3-10.1H146l1.5-5.4l-29.6,0.1
			L117.6,190.3z"/>
		<path class="st8" d="M115.4,326.5c1.7,3.9-0.4,8.3-1.7,11.9c-0.9,2.7-2.2,8.4-3.7,10.7c-0.3,3-4.5,13.7-4.8,15.8
			c-0.5,2.7-0.4,1.3,0.3,2.2l3.5-0.1c1.7-0.1,1.9-1.6,2.8-3.4c0.9-1.8,1.6-3.1,2.6-4.9c1.7-3.3,3.1-6.5,4.7-10
			c1.4-2.7,2.4-5.2,3.6-8.2c0.5-1.1,2.6-7.6,3-8.3l0.8-2.4c-0.7-1.1-0.7-1.1-1.6-2.2c-4.5-5.1-3.4-4-6.7-9.2
			c-0.1-0.1-0.2-0.2-0.2-0.3c-0.1-0.1-0.1-0.2-0.2-0.3l-2.5-4.3c-0.9-1.9-0.2-1.7-1.8-2.6L115.4,326.5z"/>
		<path class="st18" d="M379,332.4l1.1-3.2c-18.1,0.9-38.2,0.1-56.6,0.1l-40.8-2c-4.6,0.3-9.2,0.1-13.8,0.1v4.8L379,332.4z"/>
		<path class="st11" d="M238.8,178.7c-1,2.7-4,9-4.1,11.6l36.9,0l-0.1-12.7l0-1.3C258.5,181.3,253.2,181.5,238.8,178.7z"/>
		<path class="st18" d="M161.5,165.5l0.6,3.4l59.3,0c-1.2-1.9-4.6-4.2-5.3-6.3l-54.9-0.2L161.5,165.5z"/>
		<path class="st14" d="M297.2,159c1,13.4,22.3,12.2,21.2-2.1C317.3,143.5,296.1,144.5,297.2,159z"/>
		<path class="st8" d="M393.4,339.8c4.7,3.3,6.6,2.3,11.7,3.2l1,0.2l20.6,2.7l0.3-4c-3.1-2.1-9-4.1-13-5.2c-4.1-1.1-12-1.8-8.2-7.8
			l2-7.5l-4.4-1.6l1,2.2c1.2-1.5-1.1,0-1.4,0.3l-9.6,10.7C391.8,335.9,391.8,338,393.4,339.8z"/>
		<path class="st5" d="M60.6,284.5l11.4-1.2l2.3-0.1c6.1-0.4,13.7,0.3,19.8,1.1l-0.1-9.6c-3.9,0.8-15.7,0-20.4,0
			c-6.7-0.1-14.1-0.5-20.8-0.2C54.2,277.9,58.6,281.3,60.6,284.5z"/>
		<path class="st18" d="M137,332.7l43.9,0.1h0.1h6.2l0,0h22v-5.9h-28.2v0.2c-14.3,0-40-0.9-43.9,0.4V332.7z"/>
		<path class="st18" d="M203.5,333l42.4-0.2l0.5-6.2l-41.6,0.3C203.6,328.2,203.6,330.8,203.5,333z"/>
		<path class="st8" d="M154.9,176.9l2.5,7.6l1.8,5.9c1.6,1.9,0,0.2,1,1.9c0.7,1.2,1.5,1.2,0.9,3.8c-0.8,3.5-1.7,2.8,2,4.8
			c0.9,0.5,0.5,0.2,1.3,0.9c0.5,0.4,0.9,1,1.3,1.3c1.8,1,6.4,0.8,8.3,0c-2-2.1-6.5-1-7.8-5.4c-0.1-0.2-0.2-0.8-0.3-1l-0.3-1
			c-0.2,0.3,0.9,2.1-2.3,0.9c-2-0.7-1-0.5-1.4-1.5c1.6-0.8,2.4-0.5,3.9-0.1c-0.2-3.2-1.5-1.8,1.2-4.9l-1.7-0.1l-0.9-5.6l-1.6-10.5
			l-0.9-5l-0.6-3.4H161l-0.5,1.7c0.3-0.2,0.8,0.7,0.4-1.4c-0.5-2.6,0.2-0.5-0.8-1.6c-0.6,2.7-1.7,4.2-2.5,6.2L154.9,176.9z"/>
		<path class="st19" d="M401.9,303.1c0.9,4.4,0.5,9.8,0.7,14.6c1.2,1.2,2.6,2.9,4.5,1.2c0.4-0.4,1.2-2.1,1.3-2.6
			c0.1-2.1-0.1-0.9-1.2-2.6c-0.1-0.1-0.7-0.3-1.1-1.4c-0.8-2.1-0.3-0.8,0.1-2.1c0.3-1.1,0.5-3.9,1.4-4.6l1.9-9.9l-0.9-5.5
			c-0.7-0.7-1.5-2.4-2.2-3.6c-0.3-0.5-0.8-1.4-1.3-1.9c-1.5-1.7-0.5-0.7-1.5-1.3c-2.6,1.6-5.7,2.7-7.2,5.2c0.8,0.6,4.2,4,4.8,5.2
			C402.1,295.5,402.1,301,401.9,303.1z"/>
		<path class="st1" d="M255.5,285.4c1-0.1,12.2,0,13,0.3c0.8,0.4,0.2,9.9,0.2,12.6c0,9.3,0.3,19.6-0.5,28.4l14.7,0
			c-0.8-1.7-8.8-5-10.1-13.4c-2.3-3-0.8-32.7-1.2-39.2c-0.7-1.3-1.4-1.8-2.6-2.8l0.2,13.7l-11.4-0.3
			C255.3,284.9,256.4,284.5,255.5,285.4z"/>
		<path class="st15" d="M109,366.9l-0.7,2.8l0.7,1.5l1.6-1.7c0.8,2.6-0.3,0.7,1.4,1.6l0.5-1.6l-0.3-1.8c5.7-5,4.7-3.9,13.4-3.9
			l1.5,3.2c-0.9-3.3,0.2-11,0.2-15.1l-0.1-3.4l-8,0.1c-1.6,3.4-3.1,6.6-4.7,10c-1,1.9-1.6,3.1-2.6,4.9
			C110.9,365.3,110.6,366.9,109,366.9z"/>
		<path class="st11" d="M407.2,313.7l15.7,5c1.9,0.8,2.5,1.1,4.9,1.5l0.1,2c0.6-0.9,0.5-1.1,0.9-2.2c0.1-0.1,0.4-1,0.4-1
			c0.4-0.8,0.4-0.7,0.6-0.8l1.1-4.8c-1.1-1.1-21.3-7.8-23.4-7.9c-0.9,0.7-1.2,3.5-1.4,4.6c-0.3,1.3-0.9,0.1-0.1,2.1
			C406.5,313.4,407.1,313.5,407.2,313.7z"/>
		<path class="st19" d="M137.1,258.1c2.3,0.1,2.2,1.4,2.5,3.9c0.9,8.1,1.5,12.5-4.9,12.6c0.2-5.8-0.8-9.8-1.1-15.1l-4.7,1.7
			c2.1-0.4,1.2-0.5,1.6,2c0.1,0.8,0,2.9,0,3.8c-0.1,2.7-0.3,4.4-0.7,6.9c-0.1,2.7-0.2,0.7,0.8,1.5l3.5-0.6c2,1.9,3.6,5.9,5.8,7
			c9.3-4.1,1.6-16.6,2.6-25.6c0.7-0.4,0.3-0.3,1.5-0.7c-2.5-0.3-1.3-0.6-2.5-2.8l-4.4,0c0.2,1.8-0.1,2,1.2,4.3
			C137.5,257.7,139,257,137.1,258.1z"/>
		<path class="st14" d="M432.9,325.4c-0.4,1.8-0.9,2.1-0.9,4.1l2.7,0.9l0,0c2.1,0.7,4.1,1.9,6.4,2c4.1,0.2,4.5-3.1,5.5-6.3
			c3.3-10.3-2.4-7.3-8.7-10.8c-2.3,0.3-1.3-0.6-2.4,1.9c-0.1,0.3-0.6,2.1-0.8,2.8C434.2,321.9,433.6,323.7,432.9,325.4z"/>
		<path class="st0" d="M253.1,332.9c-2,2.8-3.3,12.4-5.2,15.8h15.4c-0.7-2.2-1.2-7.6-1.5-10.2c-0.5-3.4-0.2-7-1.2-9.9l0.3,4.5
			L253.1,332.9z"/>
		<path class="st8" d="M117.4,258.4c-4.2,0.2-6.3,3.2-6,7.5s2.2,6.6,6,7.7l0.1,1.9c0.9-1.4,0.3-1.4,2.5-1.6l0.1-1.4
			c-1.2-1.2-2.6-3.6-2.3-4.8c1-0.5,1.3-0.3,3.1,0.4c-0.4-4.4-3-5.8,1.5-6.2c-0.4-1.1,0.1-1.8,1.6-2.4l-1.8-2.6
			C119.9,256.7,119.5,258,117.4,258.4z"/>
		<path class="st15" d="M224.8,196.2L224,197l-0.3,1.7c2.3,1.2,5.1,2.4,6.9,1.8c0.4-2,2.9-8.8,4.1-10.3c0-2.6,3.1-8.8,4.1-11.6
			l-4.3-1.6c-0.1,1.2-0.1,0.8-0.3,1.6l-1.9,3.9c-2.4,4.6-5.9,14.8-7.8,16.4C224.4,197.2,224.3,197.9,224.8,196.2z"/>
		<path class="st20" d="M129.7,176.6c1,1.1,0.6,0.9,2.6,1l10.1,0c2.1,6.1,1.1,1.4,1,5.8c-1.3-1.4-12.2-0.8-14.1-0.6L129.7,176.6z
			 M144.1,184.8l1.9-10.7h-18.3l0.3,10.1L144.1,184.8z"/>
		<path class="st8" d="M259.1,245.6c0.1-3.1-0.5-5.1,0.3-6.7c0.9,0.3,1.5-0.5,1.4,3.2c0,1.9-0.1,3.7,0,5.6c1.3,0.4,2.7,0.8,3.6,1.6
			h0.7c1.2-0.7-0.7-0.7,1.9-0.4c0.1-3.1-0.6-2.1,0.9-3.2c-0.6-2.4-0.5-2,0.2-4h-1c0,2.9,0.2,0.4-0.7,1.2c-1,0.9-2.4,1.4-3.9,1.3
			l-0.2-7.6l3.7,0.1l1.2,2c1.1-5.2,0.6-1.3,1.6-4.4c-1.6-0.9-8.5-1.2-10.7-0.7C256.9,237.1,258.5,244.9,259.1,245.6z"/>
		<path class="st21" d="M163.3,369c2.6,0.3,15.1,0.9,16.8-0.8c1.3-1.3,1.7-2.7,1.8-4.4c-4.4-0.2-12.4-0.9-15.9,0.3
			C164.4,365.5,162.9,367.2,163.3,369z"/>
		<path class="st21" d="M239,364.7c-0.3,0.5-0.5,2.4-0.3,3c0.4,1.6-1.8,1.5,6.5,1.5c3.5,0,7.5,0.2,10.8-0.2
			c-0.1-6.5,0.2-5.2-6.6-5.2C247,363.8,240.2,362.8,239,364.7z"/>
		<path class="st22" d="M325.8,283.9l-0.6,2.5c1,1.7,2.3,2.9,3.6,4.5c1.1,1.3,2.6,3.4,3.8,3.7l1,0.2c0.3-2.4,1.2-5,2.2-6.5
			c0.4-2.4,1.1-4.2,2.2-6.4l-2.9,0.4C331.9,282.3,329,283.3,325.8,283.9z"/>
		<path class="st21" d="M346.3,369.2c3.3,0,9.4,0.4,12.3-0.4c-0.1-1.6-1.4-2.4-2.2-3.2c-1.9-1.8-1.5-1.8-4.7-1.8H342
			c-0.1,0-1.6,0.1-1.6,0.1c-1.8,0.4-1.8,1-0.7,2.5C342.2,369.8,343.5,369.2,346.3,369.2z"/>
		<path class="st21" d="M375.5,363.8c-4.1-0.1-8.2,0-12.3,0c0,2.1,1.8,3.3,2.9,4.3c2.5,2,14.6,1.4,17.3,0.7
			C382.5,366.4,379.5,363.8,375.5,363.8z"/>
		<path class="st21" d="M215,363.8c-0.3,1.5-1,2.4-0.9,3.9c0.1,1.2-0.1,0.5,0.4,1.2c2.1,0.5,14.3,0.5,16.6-0.1l0.5-5L215,363.8z"/>
		<path class="st21" d="M188,368.9c2.7,0.7,8.4,0.3,11.7,0.3c5,0,6.2,0.1,6.5-5.4l-16.1,0.1C188.6,365.7,187.3,367.2,188,368.9z"/>
		<path class="st21" d="M136.6,368.8c4,0.6,8.1,0.4,12.2,0.4c3,0,7.4-0.3,7.5-5.3c-3.9-0.2-8.4-0.1-12.3-0.1
			C140.4,363.8,137.8,365.2,136.6,368.8z"/>
		<path class="st21" d="M332.3,368.9c0.3-1.8-1.6-3.3-2.8-5.2l-16.1,0.2c-0.1,1.4,1.3,3.9,2,4.5C317,369.9,330.3,369.3,332.3,368.9z
			"/>
		<path class="st21" d="M270.1,369.2c12.2-0.1,12.4,1.7,10.2-5.4l-16.5,0.2C263.6,370.2,264.4,369.2,270.1,369.2z"/>
		<path class="st21" d="M296,369.2c14.3-0.1,12.2,1.2,9.6-5.4l-16.5,0.2C289.4,369.2,291.2,369.2,296,369.2z"/>
		<path class="st0" d="M119.1,348.6l8-0.1l0.1,3.4c0.8-2.2,1.4-18.5,0.4-20.2c-0.2,1,0.1,0.7-0.5,1.3c-1.5-0.2-1,0.4-1.4-0.9
			c-0.5,0.7-2.6,7.2-3,8.3C121.5,343.5,120.4,345.9,119.1,348.6z"/>
		<path class="st0" d="M189.6,346.8l-0.1,1.8c1.5,0,2.9,0,4.3,0c2.2,0,2.6-0.1,3.6,0.7l1.2-1l-2.1-15l-1.6,0L189.6,346.8z"/>
		<path class="st23" d="M133.5,259.5c0.3,5.3,1.3,9.2,1.1,15.1c6.5-0.1,5.8-4.5,4.9-12.6c-0.3-2.5-0.2-3.8-2.5-3.9L133.5,259.5z"/>
		<path class="st8" d="M380.9,264.5c3.3-0.3,3.3-1,5.6-1.5c0.9,0.8,1.6,1.6,2.7,2.5c-0.7,1.8-0.6,0.4-0.4,2.7
			c1.1-0.4,1.6-0.8,2.1-1.6c0.6-0.9,0,0.2,0.5-1.1l0.6-1.5c0.3-2.2,0.6-1.9,0-4.1c-4.9-1.2,0.3-2.9-7.2-2.1c-1.1,0.1-2.1,0-3.4,0
			c-2.4,6.2-3,0.6-3.5,5.8L380.9,264.5z"/>
		<path class="st11" d="M133.7,254.2l-0.5,2.3c-1.6,1-2.2,0.7-3.8,0.7c-0.5,0.2-3.2,1.5-3.6,2.3c-0.4,0.7-0.8-1.5-0.2,1.1
			c0,0.1,0.5,0.8,0.7,0.9c1.1,0.6,1.3,0.1,2.6-0.3l4.7-1.7l3.6-1.4c1.9-1,0.4-0.3,1-1c-1.2-2.2-1-2.5-1.2-4.3l4.4,0
			c1.2,2.2,0,2.5,2.5,2.8l2.9-1.1c-0.7-1.4-0.1-0.4-1.1-1.9c-0.4-0.6-0.5-0.8-0.8-1.3c-0.7-1.3-0.9-2-0.9-3.9L133.7,254.2z"/>
		<path class="st5" d="M405.7,328.8c6.7-0.5,10.7,0,17.7-1.2l2.9-0.4c-5.2-1.2-13.7-5-18.6-5.9L405.7,328.8z"/>
		<path class="st19" d="M373.9,293.4c1.5,1.3,2.4,1,4.3,1.6c2.2,0.7,2.2,0.7,4,1.7l0.4-1.1c1-1.3,1.4-1.4,3-2.3l-0.1-12.2
			c-1.3,0-3.7,4.3-4.8,5.9c-1.3,1.9-3.9,4.6-4.5,6.8L373.9,293.4z"/>
		<path class="st19" d="M138,104.8l-1.8,4.9c2.1,0.1,2.5,0.6,3.6,2.2c1.3-1.1,0.7-0.2,1.5-2.2l3.6,0.1c0.6-1.2,1.3-2.8,1.4-4.3
			c0.3-2.7-0.4-3.3,0.7-4.2c0.5-0.1,0.7-0.1,1-0.3c1-0.6,0.4-0.2,1-0.9c-4.2,1.8-3.4,0.4-6.7,0.3c-3.3-0.1-0.2,2.1-4.6,1.7l0.4,1.3
			C138.5,105.1,138.5,104.5,138,104.8z"/>
		<path class="st22" d="M275.7,240.4l-4,1.1l-2.3,0.3l0.3,4.3c1.6,0.3,0.8-0.2,1.1,0.9c1.4-0.9,0.1,0.8,1.3-0.9
			c1.1,0.4,0.7,0.7,1.5,0.2c2.4-1.3,1.7,0,2.1,0.2c2.8,0.4,3.3,0.9,5.7,1.6l-0.4-3.8c-0.5-1.1-0.5-1.7,0.1-3.1l0.2-3.4L275.7,240.4z
			"/>
		<path class="st18" d="M112.4,369.5l3.2-0.2l11.8,0.1l-0.3-2.2L127,367l-1.5-3.2c-8.7,0-7.7-1-13.4,3.9L112.4,369.5z"/>
		<path class="st12" d="M129.3,182.8c2-0.2,12.9-0.8,14.1,0.6c0-4.5,1,0.3-1-5.8l-10.1,0c-2-0.1-1.6,0-2.6-1L129.3,182.8z"/>
		<path class="st21" d="M148.1,357.8c1.7,0.3,13.2,0.8,14.9-0.3c0.9-0.5,2-2.2,2.2-3.6c-2.9-0.5-12.9-1.1-15.3,0.7
			C148.9,355.4,148.1,356.3,148.1,357.8z"/>
		<path class="st18" d="M369.3,357.9c0.9-6.1-14.6-4.3-17.3-4c0.7,4.1,4.1,4.2,6.4,4.2C361.7,358.1,366.4,358.3,369.3,357.9z"/>
		<path class="st21" d="M347.1,357.9c0.7-5.8-12.4-4.2-17-4.2c0.6,4.1,2.7,4.5,6.7,4.4C339.9,358.1,344.2,358.4,347.1,357.9z"/>
		<path class="st19" d="M380.9,264.5c-0.1,1.8,0.1,4,0.9,5.2c2.2,3,2.7-0.6,3.8,3.1l1,1.8c1.2-0.7,2.5-1.6,4.1-2.7
			c-0.4-1.8-1-2-1.9-3.7c-0.2-2.3-0.3-0.9,0.4-2.7c-1-0.9-1.8-1.7-2.7-2.5C384.2,263.5,384.2,264.3,380.9,264.5z"/>
		<path class="st0" d="M394.7,351.6l-0.3-3.2c4.1,0.4,5,0.6,8-1.4c3.1-2,0.4-3.9,3.7-3.9l-1-0.2c-5.1-0.9-7,0.2-11.7-3.2
			c-1,1.4,0,3.4,0.3,5.5C393.9,347.3,393.8,350.1,394.7,351.6z"/>
		<path class="st21" d="M188.4,354.3l-0.1,0.2c-2.6-1.4-11.7-1.2-14.7-0.4c-1.1,1.3-2.2,2-1.9,3.9l14.5,0.2
			C187.3,356.9,188,356,188.4,354.3z"/>
		<path class="st21" d="M301.2,358c0.3-2.1-0.3-3.2-2-4.3h-14.1c0.3,5,1.6,4.4,6.1,4.4C294.6,358,297.9,358.1,301.2,358z"/>
		<path class="st18" d="M263.7,353.7c-2.8,0.3-1.3-0.1-1.7,1.8c-0.7,3.3,4.3,2.5,5.4,2.5c3.4-0.1,6.9,0.2,10.3-0.2l-0.6-4.1
			c-3.4-0.1-6.7,0.8-9.4-0.3L263.7,353.7z"/>
		<path class="st21" d="M323.7,357.8c0.2-1.7-1.1-2.8-2.2-3.9l-14.5-0.2c0.4,4.6,2.5,4.4,6.5,4.4
			C316.4,358.1,321.1,358.4,323.7,357.8z"/>
		<path class="st24" d="M217.5,357.8l15.3,0.2c0.4-1.1,0.7-2.6,0.4-4.2l-14.7-0.1C217.9,354.8,217.3,356.3,217.5,357.8z"/>
		<path class="st8" d="M136.8,96.7c-0.6,3.9-0.1,4.9,1.2,8.1c0.5-0.2,0.5,0.4,0.1-1.2l-0.4-1.3c4.4,0.4,1.3-1.8,4.6-1.7
			c3.3,0.1,2.5,1.6,6.7-0.3c2-4.3-1.3-3.8-4.4-3.6C140.9,96.9,139.2,95.7,136.8,96.7z"/>
		<path class="st24" d="M198,354c-1.2-0.2-0.4-0.2-1.4-0.1c-0.3,0.1-0.7,0.5-0.8,0.3c-0.1-0.1-0.2,0.1-0.4,0.2
			c-1.1,1.2-1.6,1.6-1.4,3.5l15,0.1c0.8-2,1.6-2.5,0.8-4.3l-1.6,0.8c-4.6-0.4-4.2,0.5-8-1.3c-0.1,0.1-0.3,0.2-0.3,0.3
			c-0.1,0.1-0.3,0.2-0.3,0.3c-0.1,0.1-0.5,0.3-0.6,0.3C197.9,354.4,198.7,354.3,198,354z"/>
		<path class="st18" d="M248,353.8c-1.3,0-4.3,0.8-4.5,0l-3.3-0.1c-0.4,1.5-0.6,2.5-0.1,4.3L255,358l0.2-3.8
			c-0.3-0.1-0.5-0.2-0.5-0.1C254.6,354.2,249.5,354.9,248,353.8z"/>
		<path class="st18" d="M311.9,382.8c2.6,0.3,5.9,0.4,8-0.3c0.2-2.6-1.1-4.6-2.7-6.2C310.1,375.7,306.9,376.4,311.9,382.8z"/>
		<path class="st18" d="M332.4,380.7c-0.1-0.3-0.7-1.3-1-1.8c-0.9-1.4-1.2-2.1-2.6-2.6c-8.3,0-8.9,0.3-4.2,6.5
			C334.7,384,332.4,380.7,332.4,380.7z"/>
		<path class="st19" d="M120.2,272.4c4.5,1.6,2.6-0.2,3.2-2.7l-0.1,2.7l2.1-0.8c2.2-2.3-2.2-7.7-2.9-9.8c-4.5,0.4-1.8,1.8-1.5,6.2
			c-1.7-0.7-2.1-0.9-3.1-0.4C117.6,268.8,119,271.2,120.2,272.4z"/>
		<path class="st25" d="M226.5,190l-1.7,6.2c-0.5,1.7-0.4,1-0.4,2.7c2-1.6,5.4-11.8,7.8-16.4l1.9-3.9c0.3-0.8,0.3-0.4,0.3-1.6
			l-2.7-1L226.5,190z"/>
		<path class="st26" d="M146.8,195.3l-3.3-0.5l-0.1-1.9l-0.5,0.9c-1.4,2.1-3.5,2.4-2.2,4.4c1.3,2.1,1.4-0.2,4,2.4
			c1.7,1.8,4.1,2.2,6.7,1.6l1.9-0.9c-0.1-0.1-0.3-0.4-0.3-0.3l-3.1-1.9c-0.7-0.4-2.9-1.4-3.3-1.8L146.8,195.3z"/>
		<path class="st11" d="M159.2,190.3l-1.8-5.9l-5.6,0.1c-0.7,1.3-2,3.9-2,5.7L159.2,190.3z"/>
		<path class="st27" d="M428,322.2l-1.7,5.2c-0.2,0.5,4.8,1.7,5.8,2.1c0-2,0.5-2.2,0.9-4.1c0.7-1.7,1.2-3.5,1.8-5.4
			c0.2-0.7,0.7-2.5,0.8-2.8c1-2.3,0.2-1.7,2-1.9l-3.7-1.3c-0.6-0.1-1.8-0.6-2.8-0.7l-1.1,4.8c-0.1,0.1-0.1,0-0.6,0.8
			c0,0.1-0.4,0.9-0.4,1C428.5,321.1,428.5,321.3,428,322.2z"/>
		<path class="st28" d="M108.2,369.7l-2.7,0.1c-0.3,0.3-1-0.2-1.1,1.6c-0.1,3.1,11.8,1.8,13.7,1.6c-0.3-3.2-0.7-2.5-2.4-3.7
			l-3.2,0.2l-0.5,1.6c-1.8-0.9-0.6,1-1.4-1.6l-1.6,1.7L108.2,369.7z"/>
		<path class="st1" d="M128,369.9c-1.7,0.9-1.2,1.4-0.8,3c2.7,0.7,10.2,0.4,13.2,0.3c-0.3-2.4-0.1-2.9-2.3-3.4
			c-4.9-1.1-3.7,0.9-3.8,1.6c-2-1.6-0.8-0.9-2.3-0.9c-4,0.1,1.4-0.3-1.6-0.7L128,369.9z"/>
		<path class="st1" d="M265.3,249.3c0.9,1.2,1.9,1.2,3.3,4.3c0.4,0.9,0.7,1.7,1.1,2.6c0.9,2.1,0.8,2,2,2.6l-0.1-6.7l-0.8-5.2
			c-0.4-1.2,0.5-0.7-1.1-0.9l-1.6-0.4c-1.6,1.1-0.8,0.1-0.9,3.2C264.6,248.7,266.5,248.6,265.3,249.3z"/>
		<polygon class="st18" points="253.1,332.9 260.9,333 260.6,328.6 260,326.8 254.7,326.9 		"/>
		<path class="st29" d="M254.9,326.2c3,0.6,2.6,0.4,5.6-0.1c0-1.6-1.1-11.6-1.5-12.2L254.9,326.2z"/>
		<path class="st8" d="M393,366.2c-2.2,3.5-2.3,3.1-5.1,4.3c-0.7,0.3-0.7,0.3-1.1,0.6c-1.2,0.9,0-0.4-0.9,1.2
			c10.8-0.2,4.9-0.1,9.2-2.4c1.8-0.9,1.4,0.3,2.7-2.1c-0.7-1.3-0.8-1.7-2.3-2.2L393,366.2z"/>
		<path class="st30" d="M271.7,258.8c0.3,2.6,1.7,5.7,3.7,6.7c0.5-3.4-0.1-7.3-0.7-10.6l-1.5-1.6l-1.5-1.1L271.7,258.8z"/>
		<path class="st14" d="M197.4,349.2l0.5,4.7c0.7,0.3-0.1,0.4,0.9,0.1c0.1-0.1,0.5-0.3,0.6-0.3c0.1-0.1,0.3-0.2,0.3-0.3
			c0.1,0,0.2-0.2,0.3-0.3c3.8,1.8,3.4,0.9,8,1.3l0-1.6c-2.8-1.4-5.4-1.1-8.1-3.7l-1.4-1.1L197.4,349.2z"/>
		<path class="st18" d="M133.9,358c4.4,0.1,8.6,0.5,9.4-4.3c-2.7,0-6.2-0.5-8.6,0.6L133.9,358z"/>
		<path class="st31" d="M190.7,351.8c2,0.4,3.2,0.7,4.6,1.3l0,1.3c0.1-0.1,0.3-0.4,0.4-0.2c0.1,0.1,0.5-0.3,0.8-0.3
			c1-0.1,0.2-0.1,1.4,0.1l-0.5-4.7c-1-0.8-1.4-0.7-3.6-0.7c-1.4,0-2.8,0-4.3,0l0.1-1.8C188.3,349.4,190,349.6,190.7,351.8z"/>
		<path class="st19" d="M150.6,139.6l-0.2,1.4l-0.3,2.7l1.2,0.6c0.4-1.2-0.1-0.6,0.7-1.2c3.1,1.8,2.4,0.8,6.4,1.4
			C158.9,139,154.5,139.5,150.6,139.6z"/>
		<path class="st19" d="M267.4,241.7l0.1-3.1l-1.2-2l-3.7-0.1l0.2,7.6c1.5,0.1,2.9-0.4,3.9-1.3C267.6,242,267.4,244.5,267.4,241.7z"
			/>
		<path class="st8" d="M429.6,346.5c2.1,4,1.8,5.4,3.1,7.2c0.3-0.4,0.9-0.1,0.8-3.5c0-1.1-0.2-2.1-0.3-3c-0.4-2.6,0.3-3,0.1-5.5
			l-3.5,0.2L429.6,346.5z"/>
		<path class="st32" d="M259.1,245.6l0,4.2c1.8,2.2,5.6,3.3,5.4-0.5c-1-0.9-2.3-1.2-3.6-1.6c-0.1-1.9,0-3.7,0-5.6
			c0-3.7-0.6-2.9-1.4-3.2C258.7,240.5,259.2,242.5,259.1,245.6z"/>
		<path class="st28" d="M184.4,349.8l-0.7,3c1.8-0.3,1.1-1,2.7-1.7c0.8,1.8,1,1.4,1.9,3.3l0.1-0.2l6.9,0.2l0-1.3
			c-1.4-0.6-2.6-0.9-4.6-1.3c-2.8-0.7-3-2-4.1-4.4l-1.6,0.5L184.4,349.8z"/>
		<path class="st8" d="M281.4,237.8l-0.2,3.4c2,0.7,1.3,2.1-0.1,3.1l0.4,3.8l1.2,1c2.6-3.1,1.2-8.6,0.9-12.1
			C281.2,236.8,282.8,236.3,281.4,237.8z"/>
		<path class="st8" d="M263.7,353.7l4-0.3l5.8,0.2c-1-2-0.8-1.4-3.1-2.2c-1.7-0.6-2.2-1.1-4-1.4l-2.3-0.1
			C263.1,351.2,263.2,351.9,263.7,353.7z"/>
		<path class="st28" d="M243.5,353.8c0.2,0.9,3.2,0,4.5,0l4.1,0.3c1.4-0.3,0.6-0.2,1.3-0.7c-0.9-0.9-5.6-2.5-6.8-2.9l-2.5-0.1
			C243,351.7,243.2,351.5,243.5,353.8z"/>
		<path class="st19" d="M251.5,287.6c1.1,4.4,2.6,5.5,7.4,4.3c-0.8-2-3-3.4-4.2-5.2C252.8,286.7,252.7,286.6,251.5,287.6z"/>
		<path class="st33" d="M120.2,272.4l-0.1,1.4c-2.2,0.2-1.6,0.2-2.5,1.6l-0.1,2c1.3-0.3,5.3-1.3,6.2-1.7l0.7-2.8c1-1,0.6-0.6,1-1.4
			l-2.1,0.8l0.1-2.7C122.7,272.2,124.7,274,120.2,272.4z"/>
		<path class="st19" d="M273.2,253.3l1.5,1.6l3.8-0.1c-0.2-2.9-1.6-5-4.1-5.9l-1.8,0.7c0.5,2.4-0.1,0.9,2.4,2.6
			c1.5,1-0.3-1.1,0.5,0.6C273.9,253.8,275.3,253.5,273.2,253.3z"/>
		<polygon class="st18" points="151.9,184.5 157.4,184.5 154.9,176.9 		"/>
		<path class="st34" d="M270.9,247l0.8,5.2l1.5,1.1c2.1,0.2,0.7,0.6,2.3-0.5c-0.8-1.6,1,0.5-0.5-0.6c-2.5-1.8-1.9-0.2-2.4-2.6
			l1.8-0.7l-0.3-2l1.6-0.5c-0.4-0.2,0.3-1.5-2.1-0.2c-0.8,0.4-0.4,0.2-1.5-0.2C271,247.8,272.3,246.1,270.9,247z"/>
		<path class="st20" d="M146.8,254.5l1.2-0.6c0.1-3.5-1.5-5.3-2.9-6.9l-1,0.4c0.1,1.9,0.2,2.6,0.9,3.9c0.3,0.5,0.4,0.7,0.8,1.3
			C146.7,254.1,146.1,253.1,146.8,254.5z"/>
		<polygon class="st19" points="427,341.9 426.7,345.9 428.4,345.5 429.6,346.5 429.7,341.9 		"/>
		<polygon class="st19" points="127.4,369.3 128,369.9 130.5,369.8 130.7,367.1 127.1,367.1 		"/>
		<path class="st35" d="M129.3,257.2c1.6-0.1,2.2,0.2,3.8-0.7l0.5-2.3l-2.6,0.2L129.3,257.2z"/>
		<polygon class="st36" points="105.5,369.8 108.2,369.7 109,366.9 105.5,367.1 		"/>
		<path class="st36" d="M143.4,192.9l0.1,1.9l3.3,0.5l0.2-2C145.2,192.8,144.7,192.2,143.4,192.9z"/>
		<path class="st36" d="M165.7,195.6l0.2-0.6c-1.6-0.4-2.3-0.7-3.9,0.1c0.5,0.9-0.6,0.7,1.4,1.5
			C166.6,197.7,165.5,195.9,165.7,195.6z"/>
		<path class="st37" d="M268.2,245.7l1.6,0.4l-0.3-4.3l-1.1-0.1C267.7,243.6,267.6,243.3,268.2,245.7z"/>
		<path class="st36" d="M393,366.2l2.6-0.7c-0.4-1.7,0.3-0.2-0.7-1.7l-3.2,0.1C392.4,365.4,391.8,364.9,393,366.2z"/>
		<polygon class="st38" points="382.1,296.7 385.7,297.5 385.7,295.5 382.5,295.6 		"/>
		<path class="st39" d="M325.2,286.4l0.6-2.5l-3.1-0.1C323,285.5,324.1,285.9,325.2,286.4z"/>
		<polygon class="st19" points="244,350.4 246.5,350.5 246.9,348.6 244.2,348.6 		"/>
		<path class="st40" d="M382.5,295.6l3.1-0.1l-0.1-2.2C384,294.2,383.5,294.2,382.5,295.6z"/>
		<path class="st36" d="M264.1,349.9l2.3,0.1c1.4-1.1,0.4,0,0.9-1.2l-3.2-0.2V349.9z"/>
		<path class="st41" d="M125.7,332.1c0.4,1.2-0.1,0.7,1.4,0.9c0.5-0.6,0.3-0.3,0.5-1.3l-1-2L125.7,332.1z"/>
		<path class="st42" d="M281.1,244.3c1.3-1,2-2.4,0.1-3.1C280.5,242.6,280.6,243.1,281.1,244.3z"/>
		<path class="st1" d="M165.1,146.9c-3.7,0.1-9.8-1.8-13.8-2.6l-1.2-0.6l0.3-2.7c-0.8,1.1-0.5,0.7-1,1.9c-0.4,0.9-0.1,0-0.6,1.3
			c0.4,1.1,0.1,0.8,0.7,1.5l14.1,2.3l1.6,1.8c-0.7-3.3,0.3-0.1,1-2.4c0.9-5.5,6.6-20.6,5-19.8C169.8,128.6,165.9,143.4,165.1,146.9z
			"/>
		<circle class="st3" cx="239.2" cy="113.8" r="7.1"/>
		<circle class="st3" cx="229.6" cy="121.7" r="3.7"/>
		<path class="st43" d="M340.6,149.4H390c1.1,0,2,0.9,2,2v2.2c0,1.1-0.9,2.1-2,2.1h-49.5c-1.1,0-2-0.9-2-2.1v-2.2
			C338.5,150.3,339.4,149.4,340.6,149.4z"/>
		<path class="st15" d="M392.1,163.3c0-0.2,0-0.3,0-0.5v-0.9c0-1.1-0.9-2-2-2h-49.5c-1.1,0-2,0.9-2,2v2.2c0,1.1,0.9,2,2,2H390
			c1.1,0,2-0.9,2-2V163.3z"/>
		<path class="st15" d="M340.6,170.5H390c1.1,0,2,0.9,2,2.1v2.2c0,1.1-0.9,2-2,2h-49.5c-1.1,0-2-0.9-2-2v-2.2
			C338.5,171.4,339.4,170.5,340.6,170.5z"/>
		<path class="st0" d="M288.6,214h103.4v3.9H288.6V214z M288.6,232.7h103.4v3.9H288.6V232.7z M288.6,223.6h103.4v3.9H288.6V223.6z
			 M288.6,204.6h103.4v3.9H288.6V204.6z"/>
		<path class="st44" d="M195.2,303.7c0.1,0,0.2,0,0.3,0c3.9,0.1,7.2-3.7,5-8.3c-0.3,3.5-1.8,5.4-5.1,5.4c-0.1,0-0.1,0-0.2,0
			s-0.1,0-0.2,0c-3.3,0-4.8-1.9-5.1-5.4c-2.2,4.6,1.1,8.3,5,8.3C195,303.7,195.1,303.7,195.2,303.7z M195.2,298c0.1,0,0.2,0,0.3,0
			c2.9,0.1,3.5-2.9,2.8-4.6c-0.5,1.8-1.8,2.7-3.1,2.4c-1.2,0.3-2.6-0.6-3-2.4c-0.7,1.8-0.1,4.7,2.8,4.6
			C195.1,298,195.1,298,195.2,298z M195.2,289.3c0.3,0,0.6,0,0.9,0c9.1,0.4,20.7,3.5,25.5,1.7c3.3-1.3,8.6-5.3,11.1-1.8
			c0.7,1-2.3,3.7-2.4,0.6c-1.2-2.5-3.8,1.2-1.9,3.3c-6.9,6.8-25.7-1-27.5-1.5c-0.5-0.1-0.8,0.4-0.4,1.1c0.7,1.2,2.7,2.9,3.1,4.7
			c1,3.6-1.9,9.5-7.8,9.6c-0.2,0-0.5,0-0.7,0c-0.2,0-0.5,0-0.7,0c-5.8-0.2-8.8-6-7.8-9.6c0.5-1.8,2.5-3.5,3.1-4.7
			c0.4-0.7,0.1-1.3-0.4-1.1c-1.8,0.5-20.6,8.3-27.5,1.5c1.9-2-0.7-5.8-1.9-3.3c-0.1,3.1-3.1,0.5-2.4-0.6c2.5-3.5,7.8,0.5,11.1,1.8
			c4.8,1.8,16.4-1.3,25.5-1.7C194.6,289.3,194.9,289.3,195.2,289.3z M195.2,278.5c-0.5-0.1-1.1,0.1-1.1,0.6c-0.6,5-0.1,4.3-1.8,6.3
			c-2.4,2.9-4.8,2.7-8.6,2.9c-3.6,0.2-6.5,0.4-7.1-1.1c-0.3-0.8,1.7-7,7.3-8.1c2-0.4,5.7,0.6,5.7-0.6c0-2-5.5-1.4-7.3-1
			c-6.1,1.6-11.2,4-15.9,10.9c8.9,4.6,18.5,0.1,28.6-0.5c0.1,0,0.1,0,0.2,0s0.2,0,0.3,0c10.1,0.5,19.7,5.1,28.6,0.5
			c-4.7-6.9-9.8-9.3-15.9-10.9c-1.7-0.5-7.3-1-7.3,1c0,1.2,3.7,0.2,5.7,0.6c5.6,1.1,7.6,7.3,7.3,8.1c-0.6,1.6-3.5,1.3-7.1,1.1
			c-3.8-0.2-6.2,0-8.6-2.9c-1.7-2.1-1.2-1.4-1.8-6.3C196.3,278.6,195.7,278.4,195.2,278.5z M195.2,248.8c-0.3-0.1-0.5-0.7-0.5-1.5
			c-0.1-4.1-1.2-8.4-0.7-13.1c0.2-1.7,0.7-2.6,1.2-2.8c0.6,0.2,1.1,1.1,1.2,2.8c0.4,4.7-0.7,9.1-0.7,13.1
			C195.7,248.1,195.5,248.6,195.2,248.8z M195.2,206.6c-6.1,4.6-15.7,5.6-15.5,17.3c-0.1,4.7,2.1,7.3,10.2,7.2c2.4,0,2.4,8.3,2.4,12
			c-1.5-2.6-2.9-4.4-5.7-6.5c-6.3-5.5-9.2-6.6-9.2-13.3c0-5.1,1.3-6.7,3.9-10.1c-9.4,1.5-22.9,9.6-13,19.3
			c4.4,4.3,11.5,0.8,16.2,4.8c2.7,2,8,8,8,12.2l0.1,2.4l-0.4,10.9c0,0.7-0.9,0.5-0.9-0.1c0-11.8-6.3-20.2-17.3-20.2
			c-4.1,0-6.4,0.8-10.7,0.7c-4.1,0.1-8.8-3.1-9-6.6c-4.5,4.3-3.8,14.9,4.4,14c5.3-1.1,5.9-6.3,13.6-6.3c4.8,0,8.7,0.1,12.5,4.1
			c1.7,1.7,3.1,3.4,4,9.4c0.1,1.4-0.5,1.3-0.8,0.6c-2.8-6.4-5.8-8-11-8.2c-8.4-0.1-15.6,12.3-21.8,12.3c-2.8,0-4.4-1.1-6-3.3
			c0.1,5.1,0.9,9.9,6.4,9.9c3.4,0.1,6.1-4.1,8-7.1c3.2-5.2,9.2-11.3,15.9-9.9c5.8,1.5,9.2,7.7,9.2,16.7c0,1.8-0.7,5-2.9,5
			c-2.1,0-2.8-0.5-2.8-2.6c0-3.7,1.3-12.6-2.9-12.6c-2.3-0.1-3.3,1.2-3.4,3c0,2,3.9,3.6,3.2,0.6c-0.2-1,1.3-1.3,1.4,0.1
			c-0.1,3.1-2.7,2.7-2.5,9.4c0,5.1,4.1,4,9.3,4.1c4.3,0.5,2.8,5.2-0.2,5.2c-1.5,0.1-2-0.9-3-1c-0.8-0.1-1.6,0.1-1.8,0.7
			c-0.5,2.5,3.1,3.2,6,3.2c2,0.1-0.8,1.7-2.2,1.8c-1,0-0.9,1-0.1,1c5-0.1,5.3-3.5,6.3-8.1c0.1-1.2,0.8-1.7,2.2-1.8
			c1.4,0.1,2.1,0.6,2.2,1.8c1,4.6,1.3,8,6.3,8.1c0.9,0,0.9-1-0.1-1c-1.4,0-4.2-1.7-2.2-1.8c2.9,0,6.4-0.7,6-3.2
			c-0.2-0.6-1-0.8-1.8-0.7c-1,0.1-1.5,1-3,1c-3,0-4.6-4.7-0.2-5.2c5.3,0,9.3,1,9.3-4.1c0.3-6.6-2.4-6.3-2.5-9.4
			c0.1-1.4,1.6-1,1.4-0.1c-0.7,3.1,3.2,1.4,3.2-0.6c-0.1-1.8-1.1-3.1-3.4-3c-4.3,0-2.9,8.8-2.9,12.6c0,2-0.7,2.6-2.8,2.6
			c-2.2,0-2.9-3.2-2.9-5c0-9.1,3.4-15.2,9.2-16.7c6.7-1.4,12.7,4.7,15.9,9.9c1.8,3,4.6,7.1,8,7.1c5.5,0,6.2-4.8,6.3-9.9
			c-1.6,2.2-3.2,3.3-6,3.3c-6.1,0-13.4-12.4-21.8-12.3c-5.2,0.2-8.2,1.8-11,8.2c-0.3,0.8-0.9,0.8-0.8-0.6c0.9-6,2.4-7.6,4-9.4
			c3.8-4,7.7-4.1,12.5-4.1c7.7,0,8.2,5.2,13.6,6.3c8.2,0.9,8.9-9.6,4.4-14c-0.1,3.4-4.9,6.6-9,6.6c-4.3,0.2-6.6-0.7-10.7-0.7
			c-11,0-17.3,8.4-17.3,20.2c0,0.6-0.8,0.7-0.9,0.1l-0.4-10.9l0.1-2.4c0-4.1,5.2-10.1,8-12.2c4.8-4,11.8-0.6,16.2-4.8
			c9.9-9.7-3.6-17.7-13-19.3c2.7,3.4,3.9,5,3.9,10.1c0,6.7-3,7.9-9.2,13.3c-2.7,2.1-4.2,3.9-5.7,6.5c-0.1-3.7-0.1-12,2.4-12
			c8.1,0.1,10.3-2.5,10.2-7.2C210.9,212.2,201.3,211.2,195.2,206.6z M191.6,214c-2.2,0.6-3.3,4.2-3.2,7.9c0,2,1.6,4.6,2.8,5.4
			C190.4,225.1,189.3,220.1,191.6,214z M194,264.1c0-1.2-1.2-1.3-1.2,0.4c0.2,5.3-2.2,5.1-2.4,7.1c0,1.5,0.3,2.6,2.2,2.4
			c1.7,0,1.4-3.3,1.4-4.8L194,264.1z M173.4,236.9c-1.4,2.3-5.9,4.4-8.8,4.4c-10.5,0-10.1-11.4-2-16.7
			C162.5,232.3,166.4,236.9,173.4,236.9z M162.1,252.1c-1.3,5-3.4,8.2-7.7,8.2c-5.7-0.6-5.4-8.8-4.2-12
			C153.1,253.5,157.8,253.8,162.1,252.1z M185.8,270.2c1-0.1,1.4,1,1,1.8c-0.4,0.8-1.5,0.7-1.9-0.1
			C184.6,271.3,184.8,270.2,185.8,270.2z M157.5,276.6c-2.4,0-5.3-3.8-5.6-6.2c1.5,0.7,3.3,1.4,5.1,1.1c2-0.4,2.2-0.6,3.2-2.1
			C162.1,272.4,161.7,276.6,157.5,276.6z M161.7,281.7c-3.1,1-5.4-2.9-6-4.1c2,1.2,6,1.2,6.8-1C163.3,278.8,163.7,280.7,161.7,281.7
			z M162.8,285.7c-1.3-0.2-2.2-0.9-2.4-1.8c1.6,0.3,3.4-0.2,4-1.6C165.2,283.8,165,286.1,162.8,285.7z M178,281.4
			c-1.4,1.4-2.8,3.9-3.9,5.6c-0.7,1-1.8,0.7-1.6,0.1C173.5,285.2,176,282,178,281.4z M176.9,280.5c-1.4,1.4-3.1,3-3.4,3.5
			c-2.2,2.7-3.4,4.2-4,2.7c-0.1-0.3,1.1-2.2,2.9-3.5C173.9,282.1,175.1,281,176.9,280.5z M186.6,305.1c-2.1,1.1-7.5-0.2-8.3-2.8
			c3.1-1.5,4.6-2.7,7-4.6C185.2,301.2,185.6,302.4,186.6,305.1z M169.4,297.8c1.6-0.2,5.2,0,7.5-0.7c3.7-1.2,5.8-1.5,9.3-3
			c-1.3,2.5-5.2,4.8-6.4,5.7C176.6,302.6,170.1,302.4,169.4,297.8z M198.9,214c2.2,0.6,3.3,4.2,3.2,7.9c0,2-1.6,4.6-2.8,5.4
			C200,225.1,201.2,220.1,198.9,214z M196.4,264.1c0-1.2,1.2-1.3,1.2,0.4c-0.2,5.3,2.2,5.1,2.4,7.1c0,1.5-0.3,2.6-2.2,2.4
			c-1.7,0-1.4-3.3-1.4-4.8L196.4,264.1z M217,236.9c1.4,2.3,5.9,4.4,8.8,4.4c10.5,0,10.1-11.4,2-16.7
			C228,232.3,224.1,236.9,217,236.9z M228.4,252.1c1.3,5,3.3,8.2,7.7,8.2c5.7-0.6,5.4-8.8,4.2-12
			C237.3,253.5,232.6,253.8,228.4,252.1z M204.6,270.2c-1-0.1-1.4,1-1,1.8c0.4,0.8,1.5,0.7,2-0.1
			C205.9,271.3,205.7,270.2,204.6,270.2z M232.9,276.6c2.4,0,5.3-3.8,5.6-6.2c-1.5,0.7-3.3,1.4-5.1,1.1c-2-0.4-2.2-0.6-3.2-2.1
			C228.3,272.4,228.8,276.6,232.9,276.6z M228.8,281.7c3.1,1,5.4-2.9,6-4.1c-2.1,1.2-6,1.2-6.9-1
			C227.2,278.8,226.7,280.7,228.8,281.7z M227.7,285.7c1.3-0.2,2.2-0.9,2.4-1.8c-1.6,0.3-3.4-0.2-4-1.6
			C225.2,283.8,225.4,286.1,227.7,285.7z M212.4,281.4c1.4,1.4,2.8,3.9,3.9,5.6c0.7,1,1.8,0.7,1.6,0.1
			C217,285.2,214.4,282,212.4,281.4z M213.6,280.5c1.4,1.4,3.1,3,3.4,3.5c2.3,2.7,3.4,4.2,4,2.7c0.1-0.3-1.1-2.2-2.9-3.5
			C216.6,282.1,215.4,281,213.6,280.5z M203.9,305.1c2.1,1.1,7.5-0.2,8.3-2.8c-3.1-1.5-4.6-2.7-7-4.6
			C205.3,301.2,204.9,302.4,203.9,305.1z M221,297.8c-1.6-0.2-5.2,0-7.5-0.7c-3.7-1.2-5.8-1.5-9.3-3c1.4,2.5,5.2,4.8,6.4,5.7
			C213.9,302.6,220.4,302.4,221,297.8z"/>
		<path class="st11" d="M191.7,273.2c-0.6,3.5-2.2,5-3.3,8.1c-1.3,3.5-1.4,6.1-0.3,9.7c1.5,5.4,3.9,12,3.2,18.5l-0.1-0.5
			c1.2-1.3,0.5-0.9,3.1-1c1.2-0.1,2.5,0,3.8-0.1c2.4-0.1,4.9-0.4,7.2-0.3c1.4-1.9,1.1-14.1,1.2-17.1c0.2-6.7-0.5-11.4-1.6-17.6
			C201.1,272.6,194.6,271.7,191.7,273.2z"/>
		<path class="st8" d="M192.7,266.4c3-0.2,5.7-2.4,6.7-5.3c0.9-2.6,0.6-8.9,0.7-12.1c0.1-2.4,0.1-5,0.5-7.3c0.5-2.9,1.4-3.3,3.4-4.4
			c-0.8-1.8-1-1.8-0.5-4c-4.5-0.7-8.5-4.4-11.8,1.2c-3,5.1-0.2,11.8-1.2,18.3l-3.5,10.3c-1.7,2.3-1.8,0.6-1.6,3.9
			C189.1,266.9,189.9,266.7,192.7,266.4z"/>
		<path class="st19" d="M191.2,309c4.4-2.1,3.8,2,4.7,6.9c1.3,6.5,1.2,0.2,0.3,10.4c-0.4,4.7-1.4,4.5-1.3,7l1.6,0l2.1,15l1.4,1.1
			c0.8-0.7,0.5,0.2,1.2-1.5l2.2-14.8c0.7-8.5,1.1-16.9,1.8-25.5c-2.4-0.1-4.8,0.2-7.2,0.3c-1.3,0.1-2.5,0-3.8,0.1
			C191.7,308.1,192.4,307.6,191.2,309z"/>
		<path class="st5" d="M209.4,241.7c-0.9,1.5-2.7,2.8-4,4.2c-1.4,1.4-2,2.9-4.7,3l-0.5,0.1c-0.1,3.2,0.2,9.5-0.7,12.1
			c-1.1,3-3.7,5.2-6.7,5.3l-1,6.8c2.9-1.5,9.4-0.6,13.3-0.4c-0.3-4-0.3-9.3,1.3-12.9c1-2.2,0.5-2.3,1-4.3c0.7-2.9,7.1-8.2,8.8-11.4
			c-1.4-0.3-1.5-0.5-2.8-1.4c-1.5-1-1.5-0.8-1.8-2.2C210.8,240.9,210.2,241.2,209.4,241.7z"/>
		<path class="st0" d="M223.3,198.9c-0.3,4-5.3,16.6-6.8,21.4c-2.3,7.5-4.9,14.1-7.1,21.3c0.8-0.4,1.4-0.7,2.1-1.1
			c2-3.6,3.9-6.6,6.3-10.9c1.1-2,2.5-4,3.3-5.7c1.3-2.6,0.4-3.8,2.3-6.8l2.2,0.1c0.5-2.4,2-5.5,3-8.2c0.5-1.2,1.1-2.8,1.6-4.2
			c0.9-2.7,0-2,0.3-4.4c-1.9,0.6-4.6-0.6-6.9-1.8l0.3-1.7C223.1,198.2,223.2,197.2,223.3,198.9z"/>
		<path class="st33" d="M191.2,309l0.1,0.5c0.2,1.7,1,9,0.9,10c-1.5,10.5-6.7,12.9-5.6,28c1.2,2.4,1.3,3.7,4.1,4.4
			c-0.7-2.2-2.4-2.4-1.2-5.1l5.4-13.6c0-2.6,0.9-2.3,1.3-7c1-10.2,1-3.9-0.3-10.4C195,311,195.7,306.8,191.2,309z"/>
		<path class="st17" d="M204.4,238.6c0.7,1.7,0.8,4.8,0.3,7.1l-3.6,1l-0.4,2.1c2.7-0.1,3.3-1.5,4.7-3c1.3-1.4,3.1-2.7,4-4.2
			c2.2-7.3,4.8-13.9,7.1-21.3c1.5-4.8,6.5-17.4,6.8-21.4l-2,0.3l-15.1,37.3C204.9,239.8,205.8,238.1,204.4,238.6z"/>
		<path class="st19" d="M211.5,240.6c0.3,1.4,0.3,1.1,1.8,2.2c1.3,0.9,1.4,1.1,2.8,1.4c1.9-3.3,3.8-9.7,5.4-13.5
			c0.9-2.2,1.6-4.8,2.7-6.9c1.8-3.5,3.3-2.9,1.4-6.5l-2.2-0.1c-1.9,3-1,4.2-2.3,6.8c-0.9,1.7-2.2,3.7-3.3,5.7
			C215.4,234,213.5,237,211.5,240.6z"/>
		<path class="st19" d="M200.2,249l0.5-0.1l0.4-2.1l3.6-1c0.4-2.4,0.4-5.4-0.3-7.1l-0.3-1.4c-2,1.1-2.9,1.6-3.4,4.4
			C200.3,244,200.4,246.5,200.2,249z"/>
		<path class="st8" d="M288.3,116c9.9,19.9,3,43.3-16.9,54.5c-8.1,4.6-23.8,7-33.2,2.2c-18.1-5.8-33.4-28.9-24-52.6
			C227.3,87,272.9,85,288.3,116z M233.7,92.2c-4.6,2.8-8.6,5-12.7,8.8c-5,4.5-9.2,10.4-11.7,17c-1.7,5.6-3.1,9.4-3.1,16.1
			c-0.1,7.1,1.5,10.7,2.8,16.6c1.2,1.6,2,4.4,3.1,6.4c2.3,4.1,1.9,2.9,3.9,5.5c0.8,2.1,4.2,4.4,5.3,6.3c1.7,1,3.2,2.4,5,3.6
			c1.6,1.1,3.9,2.2,5.5,3.5l2.7,1l4.3,1.6c14.4,2.8,19.7,2.6,32.7-2.4c3.3-1.6,6.7-3.8,9.3-5.9c1.8-1.5,6.6-5.9,7.3-7.9
			c2.8-2.1,6.3-9.6,7.7-14.2c2.2-7.2,2.1-11.6,1.5-19.2c-1.3-11.2-6.4-19.8-13.9-28c-0.1-0.1-0.4-0.4-0.5-0.5
			c-0.5-0.6-0.4-0.5-0.5-0.8l-2.8-1.9C258.7,81.7,235.6,92.3,233.7,92.2z"/>
	</g>
</g>
</svg>
