<?xml version="1.0" encoding="UTF-8"?>
<!DOCTYPE svg PUBLIC "-//W3C//DTD SVG 1.1//EN" "http://www.w3.org/Graphics/SVG/1.1/DTD/svg11.dtd">
<!-- Creator: CorelDRAW X8 -->
<svg xmlns="http://www.w3.org/2000/svg" xml:space="preserve" width="169.333mm" height="169.333mm" version="1.1" style="shape-rendering:geometricPrecision; text-rendering:geometricPrecision; image-rendering:optimizeQuality; fill-rule:evenodd; clip-rule:evenodd"
viewBox="0 0 16933 16933"
 xmlns:xlink="http://www.w3.org/1999/xlink">
 <defs>
  <style type="text/css">
   
    .fil3 {fill:#FEFEFE}
    .fil44 {fill:#FED900}
    .fil17 {fill:#01656C}
    .fil14 {fill:#0B3B5F}
    .fil2 {fill:#0D3A5B}
    .fil23 {fill:#10385C}
    .fil1 {fill:#103959}
    .fil29 {fill:#133559}
    .fil43 {fill:#16898C}
    .fil0 {fill:#19898D}
    .fil9 {fill:#1A8B8F}
    .fil26 {fill:#1D2C54}
    .fil28 {fill:#212D56}
    .fil8 {fill:#232B54}
    .fil39 {fill:#232C55}
    .fil31 {fill:#61BFC2}
    .fil5 {fill:#61C1C5}
    .fil15 {fill:#63C2C6}
    .fil38 {fill:#66C2BC}
    .fil25 {fill:#90CFD1}
    .fil6 {fill:#B0D9C9}
    .fil10 {fill:#C2E4EE}
    .fil40 {fill:#C9DBDB}
    .fil27 {fill:#CBE5EB}
    .fil30 {fill:#D1E9ED}
    .fil4 {fill:#D9EEE9}
    .fil41 {fill:#ECF5F3}
    .fil36 {fill:#EDB191}
    .fil34 {fill:#EFB752}
    .fil24 {fill:#F3FDFB}
    .fil33 {fill:#F59D87}
    .fil22 {fill:#F6A510}
    .fil35 {fill:#F6B178}
    .fil19 {fill:#F6B691}
    .fil32 {fill:#F7A687}
    .fil37 {fill:#F8D646}
    .fil21 {fill:#F9FEFE}
    .fil13 {fill:#FAB745}
    .fil42 {fill:#FBF3D1}
    .fil18 {fill:#FBFBFA}
    .fil11 {fill:#FCD247}
    .fil20 {fill:#FDFDF5}
    .fil16 {fill:#FDFDF9}
    .fil12 {fill:#FDFDFD}
    .fil7 {fill:white}

  </style>
 </defs>
 <g id="Layer_x0020_1">
  <metadata id="CorelCorpID_0Corel-Layer"/>
  <g id="_2300539712848">
   <path class="fil0" d="M14397 6728l-3 255 205 -15c83,-27 128,-10 221,-14 136,2 266,-6 384,28 107,-103 153,-188 201,-328 -165,-1 -920,53 -1008,74z"/>
   <path class="fil0" d="M14326 5114l0 57c4,5 9,5 10,14 2,8 8,10 10,13 37,74 25,84 16,126 4,4 9,4 10,12 0,9 6,11 6,16 7,77 16,-71 -2,41 49,75 17,1057 20,1240 226,-33 846,-110 1066,-67 41,-40 53,-76 85,-130 13,-22 25,-45 40,-71 281,-482 446,-1053 430,-1614l-14 -204c-9,-40 -5,-32 -20,-52 -116,26 -130,28 -520,76 -983,122 -692,11 -998,408 -42,54 -80,97 -102,163 -6,-63 8,3 -37,-28z"/>
   <path class="fil1" d="M14395 8308l0 1275c73,-11 155,54 225,90 69,36 122,82 190,76 146,-29 581,-443 677,-552 174,-196 355,-445 484,-724 68,-173 125,-303 184,-489l125 -565 -20 25c-2,3 -6,7 -10,11 -58,55 11,-5 -22,18 -2,2 -62,29 -64,29 -272,112 -1696,804 -1769,806z"/>
   <polygon class="fil2" points="14394,6983 14396,7923 14735,6964 14599,6968 "/>
   <path class="fil1" d="M14386 10006c85,-8 258,-121 332,-191l-46 -27c-1,-1 -4,-4 -5,-5 -81,-61 -172,-100 -274,-118 1,57 1,112 0,169 0,6 0,74 0,74 17,79 -71,62 -7,98z"/>
   <rect class="fil3" x="9040" y="11185" width="4922" height="853"/>
   <path class="fil0" d="M13755 4071c-96,119 -268,192 -344,316 106,33 438,148 499,258 46,23 9,-2 53,33 15,11 26,24 40,37 32,32 56,45 64,88 107,69 162,229 212,345 18,-125 931,-1391 1092,-1642 17,-26 25,-42 36,-58 43,-64 66,-79 61,-79 -11,-2 -48,2 -61,3 -465,52 -884,201 -1276,447 -109,69 -266,195 -376,252z"/>
   <path class="fil4" d="M9583 4345l3617 0c658,0 1196,538 1196,1196l0 5817c0,179 -146,325 -325,325l-4488 0 0 -7338z"/>
   <path class="fil5" d="M6490 13280l4023 -4c203,294 -36,235 -164,234 -631,-1 -3846,22 -3942,-14 -26,-65 48,-163 83,-216zm5111 -6c48,20 57,44 90,93 10,15 33,52 35,62 0,1 82,117 -274,75 -166,-221 -145,-230 149,-230zm-411 4c56,55 102,125 94,218 -73,23 -190,18 -281,9 -177,-225 -63,-253 187,-227zm-2159 -262c-117,13 -257,7 -382,7 -293,2 -218,3 -231,-52 -4,-19 2,-89 12,-105 43,-69 283,-32 369,-32 238,-2 230,-47 232,182zm-1446 -181l585 -1 -18 177c-81,24 -514,24 -587,5 -15,-25 -11,0 -13,-44 -2,-52 21,-83 33,-137zm1718 7l583 -8c79,248 72,186 -359,189 -199,2 -229,38 -224,-181zm897 -1l581 -7c92,234 165,185 -339,190 -170,1 -234,-1 -242,-183zm2611 -7c144,0 291,-3 435,-1 143,2 249,93 280,177 -96,24 -523,47 -612,-25 -41,-34 -103,-78 -103,-151zm-1755 5l567 -6c40,67 110,118 98,182 -70,12 -539,33 -595,-17 -25,-21 -73,-108 -70,-159zm1596 172c-105,26 -317,12 -435,13 -101,1 -146,23 -235,-102 -37,-53 -39,-75 25,-88 2,0 53,-2 58,-2l341 0c114,1 100,2 167,65 30,29 77,58 79,114zm-6021 2c-24,-58 21,-113 75,-176l567 -2c-10,194 -52,190 -230,189 -114,-1 -316,15 -412,-11zm-871 6c-13,-65 39,-126 93,-172 124,-42 408,-17 562,-11 -1,60 -16,110 -62,155 -61,61 -503,37 -593,28zm-941 -9c43,-127 133,-177 261,-177 140,-1 296,-4 435,4 -6,177 -161,188 -266,187 -146,-1 -290,6 -430,-14zm2853 -388c-6,-54 16,-106 35,-145l518 4c11,55 0,107 -15,147l-538 -6zm2387 -144l496 0c59,39 81,78 71,152 -117,4 -235,0 -352,2 -160,1 -205,21 -215,-154zm1587 -1c160,-1 623,-58 598,147 -103,20 -254,7 -363,8 -139,2 -213,-11 -235,-155zm-306 8c38,37 86,76 78,137 -91,22 -257,9 -359,10 -142,1 -215,6 -229,-155l510 8zm1080 -1c95,-9 642,-75 609,141 -104,16 -271,6 -383,7 -83,0 -202,-2 -226,-148zm-7194 139c-3,-54 28,-86 65,-113 84,-63 435,-42 538,-25 -7,51 -47,109 -78,128 -58,37 -464,22 -525,10zm-2715 275c-36,60 -735,609 -853,704 -83,67 -233,159 -276,247 119,-53 1542,-21 1793,-21l9229 0c445,0 3540,-39 3696,18 -36,-67 -41,-53 -120,-117l-1324 -1067c-93,-73 -153,-121 -239,-190 -101,-82 -221,-155 -223,-229 -106,70 -136,63 -281,49l11 113 28 420 -23 8c35,52 11,-2 25,59 54,18 58,33 82,79 -49,84 -34,42 -97,75 -153,81 56,79 -326,86 33,-56 -10,-10 33,-42 14,-10 13,-9 38,-20 98,-43 103,-28 180,-152 -41,-45 -22,-27 -49,-81 -44,-103 -101,-181 -150,-268 -43,-79 -88,-179 -139,-263l-4095 -2c-20,45 15,6 -33,44 61,10 79,29 140,50 82,28 74,8 111,78l-204 -7c96,40 211,7 332,12l21 145c-120,14 -244,4 -365,6 -38,0 -212,28 -189,-89 14,-68 -39,-56 59,-65 -17,-63 -23,-89 15,-134l0 -47 -29 3 -545 0 -35 -3 -12 67c43,14 208,70 241,103 -24,18 2,13 -46,25l-144 -11c52,39 235,14 236,13 2,-4 9,0 19,2l-8 134 -525 -2c-19,-63 -12,-99 2,-151l117 3c-10,-80 -17,-72 20,-119l4 -62 -20 3 -1479 -1 -15 -33c-27,61 -14,27 -43,53 97,93 188,82 286,131l1 56 58 -29c28,65 2,81 -27,152l-530 -2c-8,-69 8,-81 48,-125l-245 -7c-16,62 -41,92 -75,135l-512 -6c-9,-66 28,-92 67,-137 105,-28 427,-34 518,14 -30,-66 -39,-55 -67,-117 -57,25 -32,48 -97,60l23 -106c-18,-76 41,-33 -76,-45l-338 2c-145,0 -1230,-24 -1312,20l-26 182c85,-40 205,-21 302,-22 -28,170 -177,156 -332,153 -11,63 -25,122 -39,182 -21,93 -8,113 -73,138l-8 95c106,14 -83,27 58,25 54,-1 9,-26 81,30 2,-25 -39,-95 133,-57 77,18 72,36 82,119 -108,6 -373,16 -467,-9 -17,-57 -34,-73 27,-105l-20 -19 -417 -2c61,45 74,18 86,132 -65,7 -486,52 -482,-56 2,-64 26,-48 38,-58l1 -96c-25,-31 -30,18 -11,-77 14,-72 161,-452 171,-557 -154,-96 -394,93 -540,-126l1 68c-90,42 -327,252 -423,328 -69,55 -328,284 -409,313z"/>
   <path class="fil1" d="M5180 6891l-6 75c14,11 89,49 115,62l110 66c2,-4 8,7 11,11l-67 30c-94,22 -177,7 -238,-55 -91,-94 -93,-11 -140,-86 -46,-72 27,-82 78,-156l16 -32c45,-27 63,-6 127,13l-6 72zm1124 4646l1 0c63,1 122,1 173,0l1175 0 0 -500 -890 0c-6,-53 -12,-100 -15,-122 25,-229 -59,-459 -113,-651 -36,-126 -33,-216 12,-341 39,-108 93,-160 115,-284l37 -241c-100,9 -128,19 -255,17 -10,-116 -5,-55 55,-137l124 -362c35,-229 -62,-466 43,-647 115,-198 257,-68 415,-42 -17,78 -10,77 19,141l12 50c49,-17 16,40 64,-72l532 -1316 69 -12c-2,-60 -8,-27 25,-67l28 -30 59 -217 -2092 2c-96,110 -50,61 -44,173l-7 21 9 37c2,6 7,29 9,35 46,155 202,115 274,189 -67,29 -229,37 -293,0 -13,-8 -29,-30 -46,-45 -26,-23 -16,-15 -45,-31 -132,-72 -100,-46 -72,-171 21,-92 -5,-90 -31,-134 -34,-59 22,0 -34,-66l-332 -5c1,-63 46,-153 72,-200l109 -270 92 -227c28,-72 66,-122 87,-219 36,40 10,-35 29,58 15,72 -4,40 -13,48l17 -61c-17,-142 20,-146 70,-270 37,-90 78,-152 85,-247l-6 -35 -55 -65 -498 -81c-88,-40 13,7 -44,-35l-120 -45c-67,-10 -578,-30 -628,-8 -12,113 -15,143 14,245 70,63 42,103 167,156 64,28 172,51 242,67 301,69 348,11 379,115 25,84 -11,119 -18,129l-65 187 -52 189 -66 378c-16,222 -16,188 -94,191 -239,12 -575,-21 -839,3l-7 2405c74,-14 86,-60 172,-61l62 92c-54,23 -71,46 -57,86 26,75 182,266 104,346 -17,28 -3,16 -37,50l-3 109 157 -18 31 -56c15,-89 22,-149 26,-243 1,-31 4,-108 1,-135 -11,-89 19,-87 -55,-72 -48,16 -55,32 -93,11 -6,-3 -23,-29 -24,-32 -22,-92 -6,-15 7,-39 14,-27 111,-75 128,-81l64 -99 90 -8 363 -238 37 -14c51,57 106,120 104,244l-41 20 -103 38c-43,14 -29,10 -54,24 -35,316 236,760 -91,903 -106,87 -255,101 -373,169l46 762 -611 0 7 92c54,31 30,24 62,90l89 151c3,3 6,8 8,11 2,4 6,8 8,12 116,184 80,143 237,324 33,38 34,38 58,76l37 71c37,59 15,636 -13,713 1,143 -39,416 -6,532l4 4 126 -1c65,-25 52,-45 73,-138 14,-60 28,-119 39,-182l30 -131 26 -182c36,-126 71,-448 56,-580l0 -185c129,-44 955,-18 1470,-15l0 0z"/>
   <path class="fil0" d="M1382 13849c-14,270 185,500 466,509 324,11 665,1 991,1l11826 0c317,0 681,17 991,-1 267,-15 442,-254 444,-512 -156,-57 -3251,-18 -3696,-18l-9229 0c-251,0 -1674,-32 -1793,21z"/>
   <path class="fil1" d="M8135 7074c-13,87 20,60 -12,156 -17,49 -39,104 -57,148 -36,94 -90,204 -107,289 64,125 14,104 -51,228 -37,73 -64,164 -95,242 -55,135 -123,359 -189,477 -61,114 -286,302 -312,403 -19,72 -2,75 -37,153 -57,126 -56,314 -45,454 37,218 62,384 55,620 -3,109 6,539 -43,605 -9,110 -51,627 -18,683l1467 -9 48 -307c5,-166 28,-142 40,-356l36 -641c8,-38 2,-18 15,-39 23,-38 -2,-8 32,-33 -118,-176 -365,-523 -262,-794 50,-129 119,-232 203,-338 84,-107 145,-236 338,-203l1 -147c-23,-27 -78,-301 -26,-427 75,-17 319,-5 376,25 -34,108 -16,-29 -55,154l-4 108 34 0 38 3 81 -10 -3 -1807 -1302 1c-43,51 -133,290 -146,362z"/>
   <path class="fil5" d="M1060 7647c32,651 224,1143 501,1612 38,66 177,295 220,323 88,59 1363,-13 1543,53l-2 -1158c-47,-12 -72,-58 -108,-103l-297 -375c-78,-96 -127,-159 -200,-249 -57,-70 -150,-178 -194,-255l-1459 -66 -4 218z"/>
   <path class="fil6" d="M8402 6093c331,169 886,82 1172,-79 701,-395 944,-1220 595,-1922 -131,-263 -516,-670 -743,-681 -40,27 -504,1261 -536,1340l-389 1009c-25,67 -40,99 -65,161 -11,28 -28,66 -32,82 -23,81 -25,11 -2,90z"/>
   <path class="fil0" d="M4483 5335c-212,-1 -424,-1 -635,-1 -165,0 -434,-52 -508,105 -38,84 -20,1045 -14,1215l-3 1729 -1 94 2 1158 -7 51 3 340 -1 1398 1 86c1,140 -24,579 22,679 146,219 386,30 540,126 54,-81 97,-279 130,-376 44,-128 120,-285 59,-421l1 224c-470,32 -394,-231 -394,-620l0 -4989c-2,-478 197,-400 618,-400l880 -2c88,7 66,-18 90,33 7,-10 43,-45 18,-129 -31,-104 -78,-46 -379,-115 -70,-16 -178,-39 -242,-67 -125,-53 -97,-93 -167,-156 1,41 19,26 -13,38z"/>
   <path class="fil5" d="M8402 6093c-23,-79 -21,-9 2,-90 4,-16 21,-54 32,-82 25,-62 40,-94 65,-161l389 -1009c32,-79 496,-1313 536,-1340 -283,-231 -1469,-186 -1870,825 -332,838 209,1653 846,1857z"/>
   <path class="fil7" d="M4071 11518l-71 -551 -7 -92c0,-204 0,-409 0,-613 0,-99 -11,-214 23,-300 33,-89 75,-104 128,-173l5 -72 -5 -67c-137,-38 -201,-121 -213,-270 -12,-149 63,-256 212,-263l7 -2405 6 -757 1045 -4 65 -187c-24,-51 -2,-26 -90,-33l-880 2c-421,0 -620,-78 -618,400l0 4989c0,389 -76,652 394,620l-1 -224z"/>
   <path class="fil5" d="M11125 10524c41,258 50,488 -72,703 -134,237 -279,259 -439,357 153,20 2271,14 2651,7 71,-1 107,-8 145,21 34,-51 89,-196 119,-263 36,-78 80,-172 127,-252l49 4c-302,-117 -658,-229 -981,-337 -335,-111 -646,-225 -987,-339l-633 -1 21 100z"/>
   <path class="fil0" d="M9431 12304l4095 2c-76,-183 -183,-307 -158,-555l-3910 -6c-9,158 17,427 -27,559z"/>
   <path class="fil5" d="M2666 7558c68,85 136,170 215,270l442 555 3 -1729c-70,-21 -169,-86 -246,-127 -436,-233 -1074,-466 -1564,-425 59,151 968,1226 1150,1456z"/>
   <path class="fil8" d="M9135 11072c14,23 53,376 53,432 -104,18 -91,26 -197,5l144 -437zm-151 -958c44,62 121,113 149,183 -170,44 -220,3 -260,-151l-11 1c-34,25 -9,-5 -32,33 -13,21 -7,1 -15,39l-36 641c-12,214 -35,190 -40,356l-48 307 -17 218c-23,110 -88,440 -81,561l20 -3 96 -2 35 3c66,-121 115,-458 184,-557l57 -211 187 -3 20 62c37,100 27,227 43,348 12,93 29,284 54,361l29 -3 113 7c44,-132 18,-401 27,-559l4 -219c30,-309 19,-673 19,-1002 0,-96 21,-431 -8,-444 -27,-12 -423,-17 -459,-12 -15,27 -16,29 -30,46z"/>
   <path class="fil9" d="M9141 8812c-193,-33 -254,96 -338,203 -84,106 -153,209 -203,338 -103,271 144,618 262,794l11 -1c43,-34 45,-33 111,-32 14,-17 15,-19 30,-46 32,-32 -6,-18 82,-22l402 9 -7 -484c41,36 67,52 90,98 84,30 264,209 356,70 67,-103 19,-354 -1,-485 -14,-40 -22,-83 -33,-131 -1,-5 -18,-73 -19,-74 -41,-96 6,-35 -58,-59l-135 2c22,118 42,254 24,374 -70,-34 -120,-144 -129,-236 -40,-20 -36,-19 -69,-92 -14,-30 -25,-59 -40,-90 -52,-112 -88,-109 -118,-153l-26 0c4,134 -130,93 -192,17z"/>
   <path class="fil1" d="M14394 8058l1 180 1397 -643c81,-40 147,-67 230,-105 88,-40 144,-85 242,-91 -133,-158 -761,-452 -1060,-417 -118,-34 -248,-26 -384,-28 -33,127 -63,168 -101,276 -36,106 -72,184 -109,288 -34,96 -162,504 -216,540z"/>
   <path class="fil10" d="M2720 5705l599 0c3,-137 10,-241 21,-266 74,-157 343,-105 508,-105 211,0 423,0 635,1 32,-12 14,3 13,-38 -29,-102 -26,-132 -14,-245l24 -244c-238,-164 -266,-248 -88,-514 76,-115 192,-220 288,-310 44,-42 55,-67 98,-115l63 -173c-63,-157 50,-211 -40,-218 -76,30 -642,141 -873,690 -54,126 -49,253 -147,337 -139,120 -263,37 -426,19 -208,-26 -363,8 -522,96 -80,44 -160,112 -213,183 -195,263 -108,657 74,902zm2212 -1758c36,15 2,-38 39,55 12,32 16,53 25,85 22,81 -141,137 -144,220 58,66 72,307 85,410l253 141c36,4 30,-7 30,22 60,5 66,0 91,43 139,-1 296,-18 277,172 -142,-19 -118,15 -227,-48 -26,21 -11,1 -24,43 143,28 358,95 487,91 -29,54 -3,76 3,105l6 35c127,34 1491,30 1540,-4 -46,-206 -100,-334 -98,-585 2,-239 52,-371 111,-569 86,-234 235,-441 411,-600 27,-25 58,-55 89,-80 43,-34 76,-46 91,-78 67,-25 71,-34 135,-71l134 -81c65,2 881,-370 1621,204l122 128c41,-37 -16,-109 -68,-181 -414,-574 -1473,-727 -2131,-671 -734,61 -1700,461 -1990,1204 -56,146 -168,147 -251,27 -37,-53 -68,-98 -102,-142 -85,-109 -168,-173 -262,-247 -36,31 -12,54 -23,148 -6,53 -31,107 -51,151l-127 -3c-26,68 -6,37 -52,76z"/>
   <path class="fil11" d="M5747 6134l1855 2c29,453 9,375 -167,372 -505,-9 -1170,25 -1630,-3l31 199 61 2 2092 -2 189 -494c-57,-47 -135,-84 -193,-124 -64,-43 -117,-92 -176,-128l-2093 1 31 175z"/>
   <path class="fil0" d="M4778 12317c62,-33 692,-28 1061,-23l0 7 662 0c-1,6 -2,18 3,39l12 -39 1100 0 0 -562 -1775 0 -1007 -2c15,132 -20,454 -56,580z"/>
   <path class="fil12" d="M6490 13280c-35,53 -109,151 -83,216 96,36 3311,13 3942,14 128,1 367,60 164,-234l-4023 4z"/>
   <path class="fil5" d="M10485 5610c-41,-512 710,-547 747,-74 39,506 -710,548 -747,74zm-276 131c6,11 1,57 0,224 -1,232 10,518 -19,736l19 0c21,-294 87,-511 337,-650 257,-144 539,-94 736,82 198,178 130,235 228,449l-6 -1644 -703 -2 0 0 -303 0c-8,92 -26,184 -60,296 -42,137 -140,353 -229,458l0 51z"/>
   <path class="fil5" d="M1303 6392c-18,41 -29,67 -44,106 -95,262 -172,569 -183,849l1355 62 -709 -907c-82,-95 -215,-313 -311,-359 -10,28 -13,48 -32,81 -37,67 -45,98 -76,168z"/>
   <path class="fil13" d="M11733 10393l4 32c341,114 652,228 987,339 323,108 679,220 981,337l522 179 156 56c133,25 296,97 447,148l2 0c42,15 81,32 120,41l84 28 61 -187 -5 -72c-83,-15 -105,-26 -172,-53l-555 -176c37,63 44,20 41,93 -1,17 -30,77 -45,90 -70,61 -119,-1 -160,-42l-17 -214 -2064 -707c-140,-50 -248,-59 -276,-115 -32,51 -66,143 -76,229l-35 -6z"/>
   <path class="fil0" d="M7099 12268l15 33 1479 1c-7,-121 58,-451 81,-561l-1496 6 -79 521z"/>
   <path class="fil0" d="M15989 4438c-31,-299 -150,-603 -283,-861l-154 -236c6,122 -718,1021 -801,1238 195,-2 694,-77 927,-110 165,-23 212,-22 311,-31z"/>
   <path class="fil14" d="M10209 6701l1296 0 5 -119c-98,-214 -30,-271 -228,-449 -197,-176 -479,-226 -736,-82 -250,139 -316,356 -337,650z"/>
   <polygon class="fil6" points="11153,8816 10230,8815 10231,9629 11145,9636 "/>
   <path class="fil14" d="M13410 11612l-39 113 -3 26c-25,248 82,372 158,555 51,84 96,184 139,263 49,87 106,165 150,268l114 -4 23 -8 -28 -420c-32,-56 -27,-152 -37,-225 -10,-73 -44,-146 -10,-194 -55,-63 -57,-136 -3,-238l339 -378c13,-10 93,-64 51,-11l-37 -79 -522 -179 -49 -4c-47,80 -91,174 -127,252 -30,67 -85,212 -119,263z"/>
   <polygon class="fil15" points="11569,9634 11676,9636 12312,9636 12484,9635 12489,9067 12488,8973 12488,8832 11569,8824 "/>
   <path class="fil0" d="M4144 9789c-53,69 -95,84 -128,173 -34,86 -23,201 -23,300 0,204 0,409 0,613l611 0 -46 -762c118,-68 267,-82 373,-169 -80,-38 -137,-178 -206,-246l-125 21c-35,-28 -32,43 -28,-54l-31 56 -157 18 3 -109 -25 100c-30,13 -172,48 -218,59z"/>
   <path class="fil11" d="M11844 10170c28,56 136,65 276,115l2064 707 17 214c-7,-171 9,-359 -24,-515l-572 -196 -124 -28c-62,-34 -61,-36 -140,-60 -66,-20 -98,-9 -151,-56 -97,-22 -241,-80 -349,-117 -107,-37 -212,-67 -336,-112 -140,-50 -609,-246 -688,-165l104 -14c-38,80 -63,142 -77,227z"/>
   <path class="fil16" d="M5805 6505c460,28 1125,-6 1630,3 176,3 196,81 167,-372l-1855 -2 58 371z"/>
   <path class="fil0" d="M5833 5321c-7,95 -48,157 -85,247 -50,124 -87,128 -70,270l18 0 -12 -108 1937 7c-71,-93 -56,-50 -137,-195 -39,-70 -69,-169 -111,-225 -49,34 -1413,38 -1540,4z"/>
   <path class="fil0" d="M12910 9571l9 64c155,10 582,29 685,-13 -36,-130 -57,-1 -133,-108 -31,-42 -35,-120 -33,-182l-105 -33c19,-185 42,13 125,-205 47,0 80,5 120,0 265,-31 79,29 253,73l1 -344 -923 1 1 747z"/>
   <g>
    <path class="fil1" d="M13479 4378c86,-108 250,-241 327,-336 -41,-43 -251,-439 -583,-800 -235,-255 -462,-445 -716,-625 -45,-34 -79,-63 -138,-73 20,254 -5,625 -12,891 -4,145 -20,710 -15,910l1137 33z"/>
    <path class="fil1" d="M11184 4321c-18,80 29,28 246,27 94,-1 187,0 280,0 151,0 412,15 547,-4l47 -1779c-32,-26 18,-12 -56,-12 -9,31 -244,219 -345,333 -562,631 -696,1361 -719,1435z"/>
    <path class="fil1" d="M1029 10785c120,468 316,882 564,1228 185,258 407,485 661,684 58,45 224,154 257,201 81,-29 340,-258 409,-313 96,-76 333,-286 423,-328l-1 -68c-46,-100 -21,-539 -22,-679 -326,-93 -1347,-512 -1736,-645 -190,-66 -387,-160 -580,-213l25 133z"/>
    <path class="fil1" d="M1689 10157c-72,27 -142,58 -196,85 -125,61 -225,123 -333,210 -53,43 -105,66 -127,128 356,131 710,269 1057,391 194,69 951,372 1070,396 -29,-120 -558,-1235 -620,-1374 -301,24 -563,52 -851,164z"/>
    <path class="fil1" d="M3319 11424l1 -1398c-215,-29 -482,-53 -698,-38l589 1284c28,66 37,135 108,152z"/>
   </g>
   <path class="fil17" d="M4482 5052c50,-22 561,-2 628,8l120 45c57,42 -44,-5 44,35 -22,-25 -11,-13 -26,-53 15,-45 5,-15 20,-46 21,-45 10,-30 37,-68l6 -50c-25,-43 -31,-38 -91,-43 0,-29 6,-18 -30,-22l-70 -154c-29,-227 -64,-400 -124,-617 -9,-32 -13,-53 -25,-85 -37,-93 -3,-40 -39,-55 -41,-56 -55,-73 -128,-78 -43,48 -54,73 -98,115 -96,90 -212,195 -288,310 -178,266 -150,350 88,514l-24 244z"/>
   <path class="fil5" d="M14379 10776c73,2 787,239 826,277 39,6 86,29 104,32 84,30 68,49 80,-30 17,-238 31,-315 6,-630l-950 2 -66 349z"/>
   <path class="fil0" d="M13717 9461c30,57 52,64 66,129 -56,36 -101,71 -143,94l-41 234 2 429 5 78 -1 70 572 196c8,-74 8,-268 -24,-327 -24,-43 -144,-164 -171,-185 54,-91 162,-127 255,-185 -7,-87 -107,-207 -152,-254 -98,-101 -135,-83 -253,-155l-1 -272 -22 53c-19,46 3,7 -18,40 -16,26 -35,42 -74,55z"/>
   <path class="fil11" d="M4150 6712c264,-24 600,9 839,-3 78,-3 78,31 94,-191l-571 -20 -10 -358 647 0 52 -189 -1045 4 -6 757z"/>
   <path class="fil8" d="M4071 11518c61,136 -15,293 -59,421 -33,97 -76,295 -130,376 -10,105 -157,485 -171,557 -19,95 -14,46 11,77l122 -5c59,-2 67,-57 99,-119 33,-64 56,-108 90,-174 59,-118 109,-231 167,-352 48,-96 86,-183 127,-289 16,-40 90,-269 106,-293l29 -86c-24,-38 -25,-38 -58,-76 -157,-181 -121,-140 -237,-324 -2,-4 -6,-8 -8,-12 -2,-3 -5,-8 -8,-11l-89 -151c-32,-66 -8,-59 -62,-90l71 551z"/>
   <path class="fil18" d="M13371 11725l39 -113c-640,30 -1347,5 -1996,5l-1438 -69c-161,9 -324,3 -486,3l0 169 3881 5z"/>
   <path class="fil11" d="M8424 6303c-34,97 -142,319 -143,409l1302 -1 -3 -447 -1 -45c-460,175 -648,183 -1155,84z"/>
   <path class="fil18" d="M5696 5838l20 121 2093 -1c-41,-67 -161,-148 -188,-221l-1937 -7 12 108z"/>
   <path class="fil14" d="M10485 5610c37,474 786,432 747,-74 -37,-473 -788,-438 -747,74z"/>
   <path class="fil8" d="M13877 11986c166,118 233,81 414,112l35 8 726 97 10 -142c-109,-74 -319,-145 -460,-185 -143,-40 -422,-62 -291,-276l72 -264 -156 -56 37 79c42,-53 -38,1 -51,11l-339 378c-54,102 -52,175 3,238z"/>
   <path class="fil5" d="M2138 10037l402 -44 82 -5c216,-15 483,9 698,38l-3 -340c-139,29 -553,1 -721,-1 -238,-3 -497,-18 -733,-8 50,126 206,247 275,360z"/>
   <path class="fil18" d="M4834 11737l1548 3 3 0 217 0 0 0 776 0 0 -209 -996 0 0 7c-505,-1 -1412,-32 -1548,14l0 185z"/>
   <path class="fil18" d="M7178 11747l1496 -6 17 -218 -1467 9c-42,45 -40,138 -46,215z"/>
   <path class="fil8" d="M5466 6239l88 268 63 207c56,66 0,7 34,66 26,44 52,42 31,134 -28,125 -60,99 72,171 30,16 19,8 45,31 17,15 33,37 46,45 64,37 226,29 293,0 -72,-74 -228,-34 -274,-189 -2,-6 -7,-29 -9,-35l-9 -37c-6,11 32,74 -81,33 -70,-26 -34,-19 -50,-52 56,-28 83,-17 138,-2 -6,-112 -52,-63 44,-173l-61 -2 -31 -199 -58 -371 -31 -175 -20 -121 -18 0 -17 61c9,-8 28,24 13,-48 -19,-93 7,-18 -29,-58 -21,97 -59,147 -87,219l-92 227z"/>
   <path class="fil19" d="M14177 10691c33,156 17,344 24,515 41,41 90,103 160,42 15,-13 44,-73 45,-90 3,-73 -4,-30 -41,-93 -5,-5 -24,-9 -40,-51 -29,-73 -9,-29 3,-75 10,-39 19,-139 51,-163l66 -349 -32 -194c-24,-24 -53,-86 -77,-127 -11,-18 -29,-49 -45,-67 -53,-60 -16,-23 -54,-45 -93,58 -201,94 -255,185 27,21 147,142 171,185 32,59 32,253 24,327z"/>
   <path class="fil1" d="M9014 10068c36,-5 432,0 459,12 29,13 8,348 8,444 0,329 11,693 -19,1002l518 -1c-27,-61 -309,-176 -357,-473 -81,-107 -28,-1152 -42,-1383 -23,-46 -49,-62 -90,-98l7 484 -402 -9c-88,4 -50,-10 -82,22z"/>
   <path class="fil15" d="M3844 12944l-26 98 23 54 57 -59c28,91 -12,24 50,56l18 -58 -11 -63c202,-175 166,-138 472,-138l53 113c-33,-116 7,-389 6,-532l-3 -119 -283 3c-58,121 -108,234 -167,352 -34,66 -57,110 -90,174 -32,62 -40,117 -99,119z"/>
   <path class="fil11" d="M14365 11065l555 176c67,27 89,38 172,53l5 72c20,-33 19,-40 33,-78 2,-4 14,-34 15,-37 15,-29 15,-24 20,-29l40 -169c-39,-38 -753,-275 -826,-277 -32,24 -41,124 -51,163 -12,46 -32,2 -3,75 16,42 35,46 40,51z"/>
   <path class="fil19" d="M4836 9104c80,2 77,48 87,136 32,287 54,441 -174,445 7,-205 -28,-344 -39,-531l-166 61c74,-15 44,-17 55,72 3,27 0,104 -1,135 -4,94 -11,154 -26,243 -4,97 -7,26 28,54l125 -21c69,68 126,208 206,246 327,-143 56,-587 91,-903 25,-14 11,-10 54,-24 -89,-12 -47,-20 -89,-99l-156 -1c6,63 -2,71 41,150 -23,25 31,0 -36,37z"/>
   <path class="fil14" d="M15273 11479c-15,65 -31,73 -32,144l96 32 0 0c74,25 145,67 226,71 143,6 158,-111 194,-221 116,-362 -86,-256 -307,-382 -80,12 -47,-20 -83,68 -4,11 -21,74 -29,99 -22,66 -41,129 -65,189z"/>
   <path class="fil0" d="M8928 11743c-69,99 -118,436 -184,557l545 0c-25,-77 -42,-268 -54,-361 -16,-121 -6,-248 -43,-348l12 157 -276 -5z"/>
   <path class="fil8" d="M4143 9117c-149,7 -224,114 -212,263 12,149 76,232 213,270l5 67c30,-51 9,-51 88,-58l3 -50c-42,-42 -90,-127 -80,-171 35,-16 47,-9 108,15 -13,-155 -107,-205 52,-219 -14,-40 3,-63 57,-86l-62 -92c-86,1 -98,47 -172,61z"/>
   <path class="fil15" d="M7930 6921l-28 30 -12 60c81,43 179,84 245,63 13,-72 103,-311 146,-362 1,-90 109,-312 143,-409l-151 -57c-2,43 -3,29 -12,57l-68 137c-84,162 -207,522 -276,577 0,-61 -4,-36 13,-96z"/>
   <path class="fil20" d="M4577 6229c36,38 20,32 91,37l357 -1c74,216 38,48 37,205 -45,-50 -429,-29 -499,-22l14 -219zm506 289l66 -378 -647 0 10 358 571 20z"/>
   <path class="fil8" d="M9142 8665c2,-111 -17,-181 12,-236 31,9 52,-19 51,113 -1,67 -3,130 0,196 46,14 94,27 128,57l26 0c44,-26 -25,-23 68,-15 4,-109 -22,-75 33,-113 -21,-84 -18,-72 7,-142l-34 0c-1,101 6,13 -26,43 -35,32 -84,48 -136,45l-6 -267 131 2 41 69c39,-183 21,-46 55,-154 -57,-30 -301,-42 -376,-25 -52,126 3,400 26,427z"/>
   <path class="fil21" d="M5760 13019c90,9 532,33 593,-28 46,-45 61,-95 62,-155 -154,-6 -438,-31 -562,11 -54,46 -106,107 -93,172z"/>
   <path class="fil21" d="M8430 12866c-10,16 -16,86 -12,105 13,55 -62,54 231,52 125,0 265,6 382,-7 -2,-229 6,-184 -232,-182 -86,0 -326,-37 -369,32z"/>
   <path class="fil22" d="M11495 10016l-22 89c34,61 80,104 127,159 40,46 92,119 133,129l35 6c10,-86 44,-178 76,-229 14,-85 39,-147 77,-227l-104 14c-109,0 -212,37 -322,59z"/>
   <path class="fil21" d="M12217 13024c118,-1 330,13 435,-13 -2,-56 -49,-85 -79,-114 -67,-63 -53,-64 -167,-65l-341 0c-5,0 -56,2 -58,2 -64,13 -62,35 -25,88 89,125 134,103 235,102z"/>
   <path class="fil21" d="M13246 12833c-144,-2 -291,1 -435,1 0,73 62,117 103,151 89,72 516,49 612,25 -31,-84 -137,-175 -280,-177z"/>
   <path class="fil21" d="M7585 12835c-12,54 -35,85 -33,137 2,44 -2,19 13,44 73,19 506,19 587,-5l18 -177 -585 1z"/>
   <path class="fil21" d="M6631 13013c96,26 298,10 412,11 178,1 220,5 230,-189l-567 2c-54,63 -99,118 -75,176z"/>
   <path class="fil21" d="M4819 13010c140,20 284,13 430,14 105,1 260,-10 266,-187 -139,-8 -295,-5 -435,-4 -128,0 -218,50 -261,177z"/>
   <path class="fil21" d="M11721 13015c12,-64 -58,-115 -98,-182l-567 6c-3,51 45,138 70,159 56,50 525,29 595,17z"/>
   <path class="fil21" d="M9527 13023c431,-3 438,59 359,-189l-583 8c-5,219 25,183 224,181z"/>
   <path class="fil21" d="M10442 13024c504,-5 431,44 339,-190l-581 7c8,182 72,184 242,183z"/>
   <path class="fil0" d="M4200 12299l283 -3 3 119c28,-77 50,-654 13,-713 -6,36 2,23 -16,45 -53,-7 -37,14 -50,-30 -16,24 -90,253 -106,293 -41,106 -79,193 -127,289z"/>
   <path class="fil0" d="M6687 12233l-2 64c53,0 103,-1 153,-1 79,-1 93,-5 127,24l41 -37 -75 -530 -55 1 -189 479z"/>
   <path class="fil23" d="M4710 9154c11,187 46,326 39,531 228,-4 206,-158 174,-445 -10,-88 -7,-134 -87,-136l-126 50z"/>
   <path class="fil8" d="M13438 9332c117,-9 116,-35 199,-54 30,28 57,55 94,88 -23,65 -21,15 -14,95 39,-13 58,-29 74,-55 21,-33 -1,6 18,-40l22 -53c9,-76 22,-67 0,-146 -174,-44 12,-104 -253,-73 -40,5 -73,0 -120,0 -83,218 -106,20 -125,205l105 33z"/>
   <path class="fil11" d="M4716 8967l-19 81c-56,34 -78,24 -135,26 -17,6 -114,54 -128,81 -13,24 -29,-53 -7,39 1,3 18,29 24,32 38,21 45,5 93,-11l166 -61 126 -50c67,-37 13,-12 36,-37 -43,-79 -35,-87 -41,-150l156 1c42,79 0,87 89,99l103 -38c-24,-51 -5,-15 -39,-67 -14,-22 -18,-27 -28,-46 -26,-47 -31,-69 -33,-137l-363 238z"/>
   <path class="fil5" d="M14311 11600c237,-17 378,-1 626,-42l101 -15c-182,-43 -484,-176 -655,-207l-72 264z"/>
   <path class="fil19" d="M13190 10351c53,47 85,36 151,56 79,24 78,26 140,60l14 -40c34,-47 51,-50 106,-80l-2 -429c-47,0 -129,150 -170,208 -47,67 -138,163 -160,241l-79 -16z"/>
   <path class="fil19" d="M4867 3696l-63 173c73,5 87,22 128,78 46,-39 26,-8 52,-76l127 3c20,-44 45,-98 51,-151 11,-94 -13,-117 23,-148 19,-5 25,-4 35,-10 34,-21 14,-7 36,-30 -149,65 -120,14 -238,10 -115,-3 -6,75 -161,61l15 47c14,56 14,35 -5,43z"/>
   <path class="fil22" d="M9726 8480l-140 38 -81 10 10 152c57,9 27,-8 40,33 51,-32 5,27 47,-33 40,15 26,23 53,8 86,-46 60,-1 74,7 100,15 115,30 200,56l-13 -134c-17,-40 -19,-59 2,-109l8 -120 -200 92z"/>
   <path class="fil18" d="M3966 13035l113 -8 417 2 -12 -78 -4 -4 -53 -113c-306,0 -270,-37 -472,138l11 63z"/>
   <path class="fil12" d="M4563 6448c70,-7 454,-28 499,22 1,-157 37,11 -37,-205l-357 1c-71,-5 -55,1 -91,-37l-14 219z"/>
   <path class="fil21" d="M5226 12623c61,12 467,27 525,-10 31,-19 71,-77 78,-128 -103,-17 -454,-38 -538,25 -37,27 -68,59 -65,113z"/>
   <path class="fil18" d="M13029 12625c33,-216 -514,-150 -609,-141 24,146 143,148 226,148 112,-1 279,9 383,-7z"/>
   <path class="fil21" d="M12244 12624c25,-205 -438,-148 -598,-147 22,144 96,157 235,155 109,-1 260,12 363,-8z"/>
   <path class="fil19" d="M13438 9332c-2,62 2,140 33,182 76,107 97,-22 133,108l36 62c42,-23 87,-58 143,-94 -14,-65 -36,-72 -66,-129 -7,-80 -9,-30 14,-95 -37,-33 -64,-60 -94,-88 -83,19 -82,45 -199,54z"/>
   <path class="fil0" d="M13924 12405l-11 -113c145,14 175,21 281,-49 109,-71 14,-138 132,-137l-35 -8c-181,-31 -248,6 -414,-112 -34,48 0,121 10,194 10,73 5,169 37,225z"/>
   <path class="fil21" d="M6647 12497l-2 6c-91,-48 -413,-42 -518,-14 -39,45 -76,71 -67,137l512 6c34,-43 59,-73 75,-135z"/>
   <path class="fil21" d="M10626 12630c10,-74 -12,-113 -71,-152l-496 0c10,175 55,155 215,154 117,-2 235,2 352,-2z"/>
   <path class="fil18" d="M9303 12478c-98,9 -45,-3 -59,65 -23,117 151,89 189,89 121,-2 245,8 365,-6l-21 -145c-121,-5 -236,28 -332,-12l-142 9z"/>
   <path class="fil21" d="M11418 12622c8,-61 -40,-100 -78,-137l-510 -8c14,161 87,156 229,155 102,-1 268,12 359,-10z"/>
   <path class="fil24" d="M7672 12622l538 6c15,-40 26,-92 15,-147l-518 -4c-19,39 -41,91 -35,145z"/>
   <path class="fil8" d="M4825 3410c-20,137 -3,174 42,286 19,-8 19,13 5,-43l-15 -47c155,14 46,-64 161,-61 118,4 89,55 238,-10 70,-151 -47,-135 -156,-127 -129,9 -190,-31 -275,2z"/>
   <path class="fil24" d="M6984 12487c-42,-6 -14,-7 -50,-2 -11,2 -26,16 -29,11 -2,-5 -8,5 -13,8 -40,44 -56,56 -48,125l530 2c29,-71 55,-87 27,-152l-58 29c-161,-14 -149,17 -282,-46 -4,3 -9,8 -12,9 -3,2 -9,7 -12,9 -4,2 -18,9 -22,11 -34,11 -6,6 -31,-4z"/>
   <path class="fil18" d="M8748 12481c-46,0 -152,29 -159,-1l-117 -3c-14,52 -21,88 -2,151l525 2 8 -134c-10,-2 -17,-6 -19,-2 -1,1 -184,26 -236,-13z"/>
   <path class="fil18" d="M11003 13505c91,9 208,14 281,-9 8,-93 -38,-163 -94,-218 -250,-26 -364,2 -187,227z"/>
   <path class="fil18" d="M11726 13429c-2,-10 -25,-47 -35,-62 -33,-49 -42,-73 -90,-93 -294,0 -315,9 -149,230 356,42 274,-74 274,-75z"/>
   <path class="fil19" d="M4240 9609c160,58 90,-6 112,-94l-2 94 74 -29c78,-80 -78,-271 -104,-346 -159,14 -65,64 -52,219 -61,-24 -73,-31 -108,-15 -10,44 38,129 80,171z"/>
   <path class="fil25" d="M7989 6704l-59 217c-17,60 -13,35 -13,96 69,-55 192,-415 276,-577l68 -137c9,-28 10,-14 12,-57l-95 -36 -189 494z"/>
   <path class="fil26" d="M5180 6891l-118 -18 -3 -67 -16 32c-51,74 -124,84 -78,156 47,75 49,-8 140,86 61,62 144,77 238,55l67 -30c-3,-4 -9,-15 -11,-11l-110 -66c-26,-13 -101,-51 -115,-62l6 -75z"/>
   <path class="fil11" d="M5617 6714l-63 -207 -197 2c-26,47 -71,137 -72,200l332 5z"/>
   <path class="fil27" d="M15097 11366l-60 184c-6,17 169,61 204,73 1,-71 17,-79 32,-144 24,-60 43,-123 65,-189 8,-25 25,-88 29,-99 34,-82 7,-59 69,-66l-132 -46c-21,-5 -64,-20 -99,-26l-40 169c-5,5 -5,0 -20,29 -1,3 -13,33 -15,37 -14,38 -13,45 -33,78z"/>
   <path class="fil28" d="M3818 13042l-97 3c-12,10 -36,-6 -38,58 -4,108 417,63 482,56 -12,-114 -25,-87 -86,-132l-113 8 -18 58c-62,-32 -22,35 -50,-56l-57 59 -23 -54z"/>
   <path class="fil1" d="M4516 13048c-61,32 -44,48 -27,105 94,25 359,15 467,9 -10,-83 -5,-101 -82,-119 -172,-38 -131,32 -133,57 -72,-56 -27,-31 -81,-30 -141,2 48,-11 -58,-25l-86 3z"/>
   <path class="fil1" d="M9359 8795c30,44 66,41 118,153 15,31 26,60 40,90 33,73 29,72 69,92l-2 -235 -29 -182c-13,-41 17,-24 -40,-33l-55 -13c-55,38 -29,4 -33,113 -93,-8 -24,-11 -68,15z"/>
   <polygon class="fil18" points="8928,11743 9204,11748 9192,11591 9172,11529 8985,11532 "/>
   <path class="fil29" d="M8991 11509c106,21 93,13 197,-5 0,-56 -39,-409 -53,-432l-144 437z"/>
   <path class="fil8" d="M13864 12918c-77,124 -82,109 -180,152 -25,11 -24,10 -38,20 -43,32 0,-14 -33,42 382,-7 173,-5 326,-86 63,-33 48,9 97,-75 -24,-46 -28,-61 -82,-79l-90 26z"/>
   <path class="fil30" d="M9586 9130c9,92 59,202 129,236 18,-120 -2,-256 -24,-374l-54 -57 -53 -40 2 235z"/>
   <path class="fil14" d="M6965 12320l19 167c25,10 -3,15 31,4 4,-2 18,-9 22,-11 3,-2 9,-7 12,-9 3,-1 8,-6 12,-9 133,63 121,32 282,46l-1 -56c-98,-49 -189,-38 -286,-131l-50 -38 -41 37z"/>
   <path class="fil18" d="M4722 12630c155,3 304,17 332,-153 -97,1 -217,-18 -302,22l-30 131z"/>
   <path class="fil31" d="M6728 12412c70,13 113,23 163,45l1 47c5,-3 11,-13 13,-8 3,5 18,-9 29,-11 36,-5 8,-4 50,2l-19 -167c-34,-29 -48,-25 -127,-24 -50,0 -100,1 -153,1l2 -64c-44,94 15,101 41,179z"/>
   <path class="fil19" d="M5311 4923l-6 50 -12 95 44 22c13,-42 -2,-22 24,-43 109,63 85,29 227,48 19,-190 -138,-173 -277,-172z"/>
   <path class="fil19" d="M9433 8525l4 -108 -41 -69 -131 -2 6 267c52,3 101,-13 136,-45 32,-30 25,58 26,-43z"/>
   <path class="fil8" d="M15154 12224c75,140 62,189 109,255 9,-14 32,-2 28,-125 -1,-39 -7,-75 -12,-105 -14,-93 11,-107 3,-194l-124 6 -4 163z"/>
   <path class="fil32" d="M9142 8665l-1 147c62,76 196,117 192,-17 -34,-30 -82,-43 -128,-57 -3,-66 -1,-129 0,-196 1,-132 -20,-104 -51,-113 -29,55 -10,125 -12,236z"/>
   <path class="fil28" d="M6504 12340l-23 106c65,-12 40,-35 97,-60 28,62 37,51 67,117l2 -6 245 7 -1 -47c-50,-22 -93,-32 -163,-45 -100,-25 -105,-69 -146,-155l-58 17 -20 66z"/>
   <path class="fil8" d="M9926 8388l-8 120c69,26 45,74 -2,109l13 134 42 37c93,-111 44,-302 31,-426 -83,-7 -26,-26 -76,26z"/>
   <path class="fil8" d="M9303 12478l142 -9 204 7c-37,-70 -29,-50 -111,-78 -61,-21 -79,-40 -140,-50l-80 -4c-38,45 -32,71 -15,134z"/>
   <path class="fil28" d="M8589 12480c7,30 113,1 159,1l144 11c48,-12 22,-7 46,-25 -33,-33 -198,-89 -241,-103l-88 -3c-37,47 -30,39 -20,119z"/>
   <path class="fil19" d="M8873 10146c40,154 90,195 260,151 -28,-70 -105,-121 -149,-183 -66,-1 -68,-2 -111,32z"/>
   <path class="fil33" d="M4240 9609l-3 50c-79,7 -58,7 -88,58l-5 72c46,-11 188,-46 218,-59l25 -100c34,-34 20,-22 37,-50l-74 29 2 -94c-22,88 48,152 -112,94z"/>
   <path class="fil19" d="M9637 8935l54 57 135 -2c-7,-104 -57,-177 -146,-209l-63 24c16,86 -4,30 84,92 53,37 -11,-38 16,20 -54,38 -5,25 -80,18z"/>
   <polygon class="fil18" points="5357,6509 5554,6507 5466,6239 "/>
   <path class="fil34" d="M9555 8713l29 182 53 40c75,7 26,20 80,-18 -27,-58 37,17 -16,-20 -88,-62 -68,-6 -84,-92l63 -24 -9 -69 58 -17c-14,-8 12,-53 -74,-7 -27,15 -13,7 -53,-8 -42,60 4,1 -47,33z"/>
   <path class="fil20" d="M5179 8979l41 -20c2,-124 -53,-187 -104,-244l-37 14c2,68 7,90 33,137 10,19 14,24 28,46 34,52 15,16 39,67z"/>
   <polygon class="fil19" points="15062,12061 15052,12203 15113,12190 15154,12224 15158,12061 "/>
   <polygon class="fil19" points="4496,13029 4516,13048 4602,13045 4610,12950 4484,12951 "/>
   <path class="fil35" d="M4562 9074c57,-2 79,8 135,-26l19 -81 -90 8 -64 99z"/>
   <polygon class="fil36" points="3721,13045 3818,13042 3844,12944 3722,12949 "/>
   <path class="fil36" d="M5059 6806l3 67 118 18 6 -72c-64,-19 -82,-40 -127,-13z"/>
   <path class="fil36" d="M5846 6900l7 -21c-55,-15 -82,-26 -138,2 16,33 -20,26 50,52 113,41 75,-22 81,-33z"/>
   <path class="fil37" d="M9460 8667l55 13 -10 -152 -38 -3c-25,70 -28,58 -7,142z"/>
   <path class="fil36" d="M13864 12918l90 -26c-14,-61 10,-7 -25,-59l-114 4c27,54 8,36 49,81z"/>
   <polygon class="fil38" points="13481,10467 13605,10495 13606,10425 13495,10427 "/>
   <path class="fil39" d="M11473 10105l22 -89 -108 -4c9,60 45,72 86,93z"/>
   <polygon class="fil19" points="8609,12361 8697,12364 8709,12297 8613,12299 "/>
   <path class="fil40" d="M13495 10427l111 -2 -5 -78c-55,30 -72,33 -106,80z"/>
   <path class="fil36" d="M9318 12344l80 4c48,-38 13,1 33,-44l-113 -7 0 47z"/>
   <path class="fil41" d="M4433 11717c13,44 -3,23 50,30 18,-22 10,-9 16,-45l-37 -71 -29 86z"/>
   <path class="fil42" d="M9916 8617c47,-35 71,-83 2,-109 -21,50 -19,69 -2,109z"/>
   <path class="fil1" d="M5824 5181c-129,4 -344,-63 -487,-91l-44 -22 12 -95c-27,38 -16,23 -37,68 -15,31 -5,1 -20,46 15,40 4,28 26,53l498 81 55 65c-24,-116 9,-2 34,-83 32,-194 233,-726 177,-698 -47,33 -187,552 -214,676z"/>
   <circle class="fil3" cx="8440" cy="4013" r="250"/>
   <circle class="fil3" cx="8101" cy="4293" r="132"/>
   <path class="fil43" d="M12014 5270l1745 0c40,0 72,32 72,72l0 76c0,40 -32,73 -72,73l-1745 0c-40,0 -72,-33 -72,-73l0 -76c0,-40 32,-72 72,-72z"/>
   <path class="fil15" d="M13831 5759c1,-6 1,-12 0,-18l0 -31c0,-39 -32,-72 -72,-72l-1745 0c-40,0 -72,33 -72,72l0 77c0,39 32,72 72,72l1745 0c40,0 72,-33 72,-72l0 -28z"/>
   <path class="fil15" d="M12014 6014l1745 0c40,0 72,33 72,73l0 76c0,40 -32,72 -72,72l-1745 0c-40,0 -72,-32 -72,-72l0 -76c0,-40 32,-73 72,-73z"/>
   <path class="fil0" d="M10180 7549l3646 0 0 137 -3646 0 0 -137zm0 661l3646 0 0 137 -3646 0 0 -137zm0 -322l3646 0 0 136 -3646 0 0 -136zm0 -670l3646 0 0 137 -3646 0 0 -137z"/>
   <path class="fil44" d="M6887 10712c4,0 7,0 11,0 138,2 253,-131 177,-292 -9,124 -64,192 -180,192 -3,0 -5,0 -8,0 -3,0 -5,0 -8,0 -116,0 -171,-68 -180,-192 -76,161 39,294 177,292 4,0 7,0 11,0zm0 -199c3,0 6,0 9,0 102,3 124,-101 99,-163 -17,62 -64,94 -108,84 -44,10 -91,-22 -107,-84 -26,62 -4,166 98,163 3,0 6,0 9,0zm0 -309c11,0 22,0 32,0 322,14 732,124 901,59 116,-45 303,-186 391,-62 26,37 -80,131 -83,20 -43,-88 -135,44 -68,115 -244,241 -908,-34 -971,-52 -18,-5 -28,14 -14,40 23,41 94,101 111,165 35,128 -68,334 -274,340 -8,0 -17,0 -25,-1 -8,1 -16,1 -25,1 -206,-6 -309,-212 -274,-340 17,-64 88,-124 111,-165 15,-26 5,-45 -14,-40 -63,18 -727,293 -971,52 67,-71 -25,-203 -68,-115 -3,111 -109,17 -83,-20 88,-124 275,17 392,62 169,65 578,-45 900,-59 10,0 21,0 32,0zm0 -381c-18,-3 -39,5 -40,22 -21,175 -2,150 -63,223 -85,104 -170,95 -305,103 -127,7 -229,15 -250,-40 -12,-29 60,-246 257,-286 70,-14 200,21 200,-21 0,-71 -195,-50 -256,-34 -214,55 -395,142 -561,384 315,164 653,3 1010,-16 2,1 5,1 8,1 3,0 6,0 9,-1 356,19 694,180 1009,16 -166,-242 -347,-329 -561,-384 -61,-16 -256,-37 -256,34 0,42 130,7 200,21 197,40 269,257 257,286 -21,55 -123,47 -250,40 -135,-8 -219,1 -305,-103 -61,-73 -42,-48 -63,-223 -1,-17 -22,-25 -40,-22zm0 -1047c-9,-5 -18,-24 -18,-54 -3,-143 -41,-296 -26,-463 6,-59 24,-92 44,-99 20,7 38,40 44,99 15,167 -23,320 -26,463 0,30 -9,49 -18,54zm0 -1486c-214,161 -554,196 -548,612 -4,165 73,257 360,254 86,-1 86,293 83,423 -54,-92 -104,-155 -201,-228 -221,-193 -326,-234 -326,-470 0,-179 45,-236 139,-357 -331,54 -807,338 -457,680 155,151 404,29 573,171 97,71 281,283 281,429l5 86 -15 385c-1,23 -30,18 -30,-2 0,-416 -222,-711 -610,-711 -144,0 -226,29 -377,23 -143,2 -311,-111 -316,-232 -159,153 -135,524 156,493 188,-39 209,-221 479,-221 169,-1 307,3 441,143 59,61 109,119 141,330 4,49 -16,47 -28,20 -100,-227 -204,-282 -389,-290 -297,-2 -552,434 -768,434 -98,0 -155,-39 -212,-116 5,181 30,349 225,350 119,2 216,-145 281,-250 112,-184 326,-398 560,-350 206,54 325,270 325,590 0,63 -26,176 -103,176 -73,0 -100,-18 -100,-90 0,-132 46,-444 -104,-444 -82,-4 -118,44 -121,107 1,69 138,128 113,20 -8,-34 46,-47 49,3 -2,109 -97,96 -88,330 0,179 143,142 329,143 153,18 99,182 -8,183 -53,2 -71,-30 -106,-35 -29,-4 -58,4 -65,25 -16,89 111,114 211,114 72,3 -28,61 -77,62 -34,1 -32,36 -2,37 176,-5 187,-125 222,-287 3,-42 29,-60 78,-62 49,2 75,20 78,62 35,162 47,282 222,287 31,-1 32,-36 -2,-37 -49,-1 -149,-59 -77,-62 101,0 227,-25 211,-114 -7,-21 -36,-29 -65,-25 -35,5 -52,37 -106,35 -107,-1 -161,-165 -8,-183 186,-1 329,36 329,-143 10,-234 -86,-221 -88,-330 3,-50 57,-37 49,-3 -24,108 113,49 113,-20 -3,-63 -39,-111 -121,-107 -150,0 -104,312 -104,444 0,72 -26,90 -100,90 -77,0 -103,-113 -103,-176 0,-320 120,-536 325,-590 235,-48 449,166 561,350 64,105 161,252 281,250 194,-1 219,-169 224,-350 -57,77 -114,116 -212,116 -216,0 -471,-436 -768,-434 -185,8 -289,63 -389,290 -11,27 -31,29 -28,-20 32,-211 83,-269 141,-330 134,-140 272,-144 441,-143 270,0 291,182 479,221 291,31 315,-340 156,-493 -5,121 -173,234 -316,232 -151,6 -233,-23 -377,-23 -387,0 -609,295 -609,711 -1,20 -29,25 -31,2l-15 -385 5 -86c0,-146 184,-358 281,-429 170,-142 418,-20 573,-171 350,-342 -126,-626 -457,-680 94,121 139,178 139,357 0,236 -105,277 -326,470 -97,73 -147,136 -201,228 -3,-130 -2,-424 83,-423 287,3 364,-89 360,-254 6,-416 -333,-451 -548,-612zm-128 261c-78,21 -118,147 -112,277 0,70 58,161 100,190 -29,-76 -70,-255 12,-467zm85 1767c0,-41 -42,-47 -44,15 6,186 -79,179 -84,251 0,53 10,91 79,84 60,0 50,-115 50,-168l-1 -182zm-726 -960c-49,81 -208,154 -309,154 -371,0 -356,-401 -70,-590 -8,273 131,436 379,436zm-399 535c-45,178 -119,290 -271,290 -202,-20 -191,-312 -148,-424 101,182 267,194 419,134zm836 639c37,-4 51,35 37,62 -13,27 -52,24 -68,-2 -13,-20 -5,-59 31,-60zm-998 224c-84,0 -187,-133 -199,-217 52,23 116,48 180,38 72,-15 76,-22 114,-74 68,108 52,253 -95,253zm146 182c-110,34 -192,-103 -212,-143 72,44 212,42 241,-37 28,76 44,146 -29,180zm40 141c-47,-8 -76,-30 -85,-65 58,9 119,-8 141,-56 30,52 22,135 -56,121zm537 -151c-50,48 -98,139 -137,197 -26,37 -65,24 -55,2 32,-66 122,-178 192,-199zm-40 -32c-49,49 -108,107 -120,122 -79,94 -119,149 -141,94 -4,-11 39,-76 104,-124 51,-37 94,-74 157,-92zm341 868c-75,39 -264,-6 -292,-98 110,-54 164,-96 247,-161 -3,122 10,162 45,259zm-604 -257c55,-7 183,1 265,-25 132,-42 205,-53 328,-105 -47,89 -183,170 -227,200 -114,98 -344,90 -366,-70zm1038 -2956c78,21 118,147 112,277 0,70 -58,161 -99,190 28,-76 70,-255 -13,-467zm-85 1767c0,-41 42,-47 44,15 -6,186 79,179 84,251 0,53 -10,91 -79,84 -60,0 -50,-115 -50,-168l1 -182zm726 -960c50,81 208,154 309,154 371,0 356,-401 70,-590 8,273 -130,436 -379,436zm400 535c45,178 118,290 270,290 202,-20 191,-312 148,-424 -101,182 -267,194 -418,134zm-837 639c-37,-4 -51,35 -37,62 14,27 52,24 69,-2 12,-20 4,-59 -32,-60zm998 224c84,0 187,-133 199,-217 -52,23 -116,48 -180,38 -72,-15 -76,-22 -114,-74 -68,108 -52,253 95,253zm-146 182c110,34 192,-103 213,-143 -73,44 -213,42 -242,-37 -28,76 -44,146 29,180zm-40 141c47,-8 76,-30 85,-65 -58,9 -119,-8 -141,-56 -30,52 -22,135 56,121zm-537 -151c50,48 98,139 137,197 26,37 65,24 55,2 -32,-66 -122,-178 -192,-199zm40 -32c49,49 108,107 120,122 80,94 119,149 141,94 5,-11 -39,-76 -104,-124 -51,-37 -94,-74 -157,-92zm-341 868c75,39 264,-6 292,-98 -110,-54 -164,-96 -247,-161 3,122 -9,162 -45,259zm604 -257c-55,-7 -183,1 -265,-25 -132,-42 -204,-53 -328,-105 48,89 183,170 227,200 114,98 344,90 366,-70z"/>
   <path class="fil11" d="M6762 9639c-22,124 -76,176 -115,284 -45,125 -48,215 -12,341 54,192 138,422 113,651l-2 -16c43,-47 18,-30 108,-34 44,-3 87,-1 133,-4 85,-5 172,-14 255,-12 49,-66 40,-496 43,-605 7,-236 -18,-402 -55,-620 -135,-6 -364,-39 -468,15z"/>
   <path class="fil8" d="M6799 9398c106,-6 200,-83 238,-188 32,-91 22,-315 26,-427 5,-86 4,-175 17,-259 16,-101 49,-118 120,-156 -29,-64 -36,-63 -19,-141 -158,-26 -300,-156 -415,42 -105,181 -8,418 -43,647l-124 362c-60,82 -65,21 -55,137 127,2 155,-8 255,-17z"/>
   <path class="fil19" d="M6746 10899c156,-75 133,72 167,242 45,229 44,7 10,366 -15,165 -48,157 -47,247l55 -1 75 530 50 38c29,-26 16,8 43,-53l79 -521c23,-299 40,-597 64,-898 -83,-2 -170,7 -255,12 -46,3 -89,1 -133,4 -90,4 -65,-13 -108,34z"/>
   <path class="fil5" d="M7387 8525c-30,53 -94,100 -140,149 -48,51 -72,102 -166,105l-18 4c-4,112 6,336 -26,427 -38,105 -132,182 -238,188l-37 241c104,-54 333,-21 468,-15 -11,-140 -12,-328 45,-454 35,-78 18,-81 37,-153 26,-101 251,-289 312,-403 -51,-12 -54,-18 -99,-50 -52,-37 -52,-29 -64,-77 -23,12 -45,23 -74,38z"/>
   <path class="fil0" d="M7877 7018c-9,141 -187,586 -239,755 -82,263 -172,496 -251,752 29,-15 51,-26 74,-38 72,-128 138,-233 224,-383 39,-69 88,-140 118,-200 45,-92 14,-133 80,-239l76 2c17,-85 71,-195 107,-289 18,-44 40,-99 57,-148 32,-96 -1,-69 12,-156 -66,21 -164,-20 -245,-63l12 -60c-33,40 -27,7 -25,67z"/>
   <path class="fil33" d="M6746 10899l2 16c8,60 37,316 32,354 -54,371 -237,455 -198,988 41,86 46,130 146,155 -26,-78 -85,-85 -41,-179l189 -479c-1,-90 32,-82 47,-247 34,-359 35,-137 -10,-366 -34,-170 -11,-317 -167,-242z"/>
   <path class="fil17" d="M7212 8418c26,61 27,168 12,251l-128 37 -15 73c94,-3 118,-54 166,-105 46,-49 110,-96 140,-149 79,-256 169,-489 251,-752 52,-169 230,-614 239,-755l-69 12 -532 1316c-48,112 -15,55 -64,72z"/>
   <path class="fil19" d="M7461 8487c12,48 12,40 64,77 45,32 48,38 99,50 66,-118 134,-342 189,-477 31,-78 58,-169 95,-242 65,-124 115,-103 51,-228l-76 -2c-66,106 -35,147 -80,239 -30,60 -79,131 -118,200 -86,150 -152,255 -224,383z"/>
   <path class="fil19" d="M7063 8783l18 -4 15 -73 128 -37c15,-83 14,-190 -12,-251l-12 -50c-71,38 -104,55 -120,156 -13,84 -12,173 -17,259z"/>
   <path class="fil8" d="M10169 4092c349,702 106,1527 -595,1922 -286,161 -841,248 -1172,79 -637,-204 -1178,-1019 -846,-1857 463,-1167 2070,-1236 2613,-144zm-1923 -839c-164,99 -304,178 -449,310 -176,159 -325,366 -411,600 -59,198 -109,330 -111,569 -2,251 52,379 98,585 42,56 72,155 111,225 81,145 66,102 137,195 27,73 147,154 188,221 59,36 112,85 176,128 58,40 136,77 193,124l95 36 151 57c507,99 695,91 1155,-84 117,-57 237,-133 329,-209 64,-52 234,-208 259,-278 98,-74 223,-340 271,-500 77,-253 74,-409 54,-678 -47,-396 -225,-698 -492,-986 -4,-4 -14,-15 -16,-18 -18,-22 -13,-17 -19,-27l-98 -66c-740,-574 -1556,-202 -1621,-204z"/>
  </g>
 </g>
</svg>
