<?xml version="1.0" encoding="utf-8"?>
<!-- Generator: Adobe Illustrator 22.1.0, SVG Export Plug-In . SVG Version: 6.00 Build 0)  -->
<svg version="1.0" id="Layer_1" xmlns="http://www.w3.org/2000/svg" xmlns:xlink="http://www.w3.org/1999/xlink" x="0px" y="0px"
	 viewBox="0 0 1080 1080" style="enable-background:new 0 0 1080 1080;" xml:space="preserve">
<style type="text/css">
	.st0{fill:#171C41;}
	.st1{fill:#FDD3BA;}
	.st2{fill:#151826;}
	.st3{fill:#18232B;}
	.st4{fill:#FFFFFF;}
	.st5{fill:#425EA9;}
	.st6{fill:#FDD3B5;}
	.st7{fill:#B6B6B8;}
	.st8{fill:#F19757;}
	.st9{fill:#FFC749;}
	.st10{fill:#3A5F7E;}
	.st11{fill:#85C3C0;}
	.st12{fill:#F16861;}
</style>
<title>logoterbaru</title>
<path class="st0" d="M572.8,702.5c-1.8,7.9-16.5,18.5-30,18c-11.3,8.8-64.6,1.1-82.9-2.7c-10.1-2-16.7-2.5-21.9-9.2
	c-2.7-1.1-0.2,0.5-2.9-1.6s-0.7-0.2-2.5-2.5c-1.2-1.6-2.2-3.3-2.9-5.2c-3.8,5.2-3.4,17.3-3.4,23.4c-0.2,9.5,0.5,18.9,0.9,28.6
	c4.5,16,5,32.2,17.4,41.7c9.9,7.7,28.4,14.4,45,15.1c20.3,0.9,34.2-2.7,51.8-8.3c9.2-2.9,41.7-14.6,48.7-20.3
	c1.8-0.9,3.7-1.7,5.6-2.5c3.8-1.6,7.4-3.2,11.9-5c28.2-10.8,36.3-9.5,36,19.2l-0.2,25c-0.9,5.2,0.9,1.8-2,5.2
	c5.2,10.1,0.5,33.8,2.9,47.8l18.7,0.2l29.7-0.2l17.3,0.9l2.7-1.1c1.6-0.7,1.1,2,2.5-1.3c0.2-0.7,0.9-0.5,1.6-0.9l-11.7-88.5
	c2.5-1.8-3.4-3.6,3.8-0.9c-9.5-19.2-7-20-10.4-47.3c-1.1-8.1-0.9-17.8-3.8-24.6c-3.8-9-9.2-6.1-16-11.3c-18-4.3-36.5,0-54.7,2
	C613.6,697.5,579.8,699.3,572.8,702.5z"/>
<path class="st1" d="M572.8,702.5c7-3.4,40.8-5,51.6-6.1c23-2.7,75,2.3,79.3-23.7s-0.9-27.5-1.6-40.1l-0.9-0.5
	c-0.5,0.5-0.9,0.2-1.1,0.9c0,0.2-11.5,13.1-15.5,14.9c-7.2,3.2-19.8,4.1-29.3,5.2c-7.4,1.6-21,2.7-27.5-0.7
	c-3.4,0.2-20.5-1.3-25-1.6l-32.7-4.9l-2.9-0.7c-7.7-1.1-6.5,0.9-10.6-7.2c-4.5-9.3-8.3-18.9-11.3-28.8l-19.6,5.9l-6.1,1.8l-28.4,9
	c2,12.6,27,67.1,46.4,72.5C545.8,700.5,568.5,698.7,572.8,702.5z"/>
<path class="st2" d="M710.5,870.1l32.2,24.3c4.3-2.5,0.2,0.2,4.5-3.4c2.5-1.8,1.8-2,4.3-3.6l10.4-11.9c2.5-4.1,5.4-7.9,8.6-11.5
	c4.3-4.7,7-8.1,11.5-10.8c2.3-7-3.8-10.6-13.7-20l-38.5-38.5c-6.1-6.1-12.8-15.1-20.3-17.6s-1.6-0.9-3.8,0.9l11.7,88.5
	c-0.7,0.5-1.3,0.2-1.6,0.9c-1.1,3.4-0.9,0.7-2.5,1.3L710.5,870.1z"/>
<path class="st3" d="M503.2,447.3l10.8,0.2c2.5,5.2,3.4,6.3,2.5,12.6c-0.7,4.3-0.5,2-2.7,5.9c-2,3.4-1.8,0.9-2.5,5.6
	c2,5.1,4.7,10,7.9,14.4c3.4,4.5,8.3,7.9,9.9,12.4c11.9,2.7,9.9,9.9,24.8,9.2c5.2-9,7.7-19.6-1.6-27.3c-17.6-9.5-26.1-9.9-21.8-31.1
	c2.3-10.8,0-8.1-0.9-17.6l24.8,10.6c6.3,3.2,7.9,3.8,16,3.2c12.2-7.7-5.2-30.4-15.8-32c-6.1-0.9-5.9,1.6-11.7,2.7
	c-14.2,2.5-15.1-6.5-25.2-1.6c-3.2,1.4-9,1.4-13.3,4.7C494.2,427.5,486.8,442.8,503.2,447.3z"/>
<path class="st2" d="M583.8,783.6l19.2,12.6l38.8,25.5c2.9-3.4,1.3,0,2-5.2l0.2-25c0.2-28.4-7.9-30-36-19.2c-4.3,1.8-7.9,3.2-11.9,5
	c-1.9,0.7-3.8,1.6-5.6,2.5L583.8,783.6z"/>
<path class="st4" d="M628,652.3c6.5,3.4,20,2.5,27.5,0.7c2.5-3.4,5.2-7.7,8.1-11c6.1-7.4,20.3-23.2,23.9-31.8l27.3-0.2
	c-2,5.4-14,20.3-13.3,21.8l0.9,0.5l16-23l-30.4-2.7l-12.8-21.4L628,652.3z"/>
<path class="st5" d="M853.7,918.7c-2.9-5.2-26.8-24.5-31.8-26.3l-25-0.7c-5.4,0-25-3.4-21.4,17.6c6.5,3.8,48.9,12.2,60.8,14.4
	C845.6,925.3,851,929.3,853.7,918.7z"/>
<path class="st5" d="M682.1,936.5c0.5-11.9-15.3-32.2-19.8-41l-17.1,0.5c-3.4,10.1,11.5,42.6,16.7,56.8c2.7,7.7,3.6,14.2,8.8,18
	c8.8-0.5,9-3.4,9.5-11.9C680.7,950.7,681.4,944.9,682.1,936.5z"/>
<path class="st1" d="M478.9,517.3c12.8-1.1,11.7,0.7,20.7-5c16.2,6.3,11,9.5,30.9,4.5l-1.1-18.5c-1.6-4.7-6.5-7.9-9.9-12.4
	c-3.3-4.4-6-9.3-7.9-14.4l-3.2-4.3c-1.1,8.8-7.4,21.2-11.5,28.6C490.4,507.4,482.5,508.8,478.9,517.3z"/>
<path class="st6" d="M662.2,895.5c4.5,8.8,20.3,29.3,19.8,41c1.8-3.2,8.8-57.9,10.8-67.4l-29.5,0.5c0.2,4.7,0.7,9.5,0.7,14.2
	c0.1,2.2,0.1,4.4,0,6.5L662.2,895.5z"/>
<path class="st7" d="M655.5,652.9c9.5-0.9,21.8-2,29.3-5.2c4-1.8,15.5-14.6,15.5-14.9l0.2-0.5c0.2-0.2,0.5-0.2,0.7-0.5l0.9,0.5
	l16-23l-30.4-2.7L655.5,652.9z"/>
<path class="st1" d="M761.8,875.7c3.4,4.5,9.9,7,15.5,10.1c10.8,6.5,7,3.8,19.8,5.9l25,0.7c-0.2-0.5-0.7-1.4-0.9-1.1l-3.6-3.6
	c-7.2-6.5-34-27.7-35.8-34.2c-4.3,2.7-7,6.3-11.5,10.8C767.1,867.7,764.2,871.6,761.8,875.7z"/>
<path class="st1" d="M552.5,480.2c0.7-16.5,5.2-4.1,3.6-18.3c-0.7-7-1.1-12.8-1.6-19.8l-24.8-10.6c0.9,9.5,3.2,6.5,0.9,17.6
	C526.4,470.5,535,470.7,552.5,480.2z"/>
<path class="st8" d="M508.4,466.9l3.2,4.3c0.4-4.7,0.4-2.3,2.5-5.6s2-1.6,2.7-5.9c1.1-6.3,0.2-7.4-2.5-12.6l-10.8-0.2
	C499.4,455.4,504.1,462.1,508.4,466.9z"/>
<g>
	<path class="st9" d="M1.1,900.9l191.5-99.8l5.9-0.5l0.2-208.6h0.2V407.6l0.2-89.4l-0.2-124.1H1.1V900.9z"/>
	<path class="st10" d="M197.5,1000.5c-5.6,5.4-40.1,22.3-59.2,32c-4.3,2-7.9,3.8-10.1,5.2l-47.8,25l-21.8,11.5l-13.7,7.2h521.9
		l0.3-162.6l-6.5,0.9c-65.3,16.2-109,7-156.3-23.9c-8.3-0.7-137.2,69.6-156.3,79.3C235.6,981.1,209.3,997.1,197.5,1000.5z"/>
	<path class="st11" d="M381.8,697.5l0.2-193.7c-6.1-5.9-38.3-21.2-46-25.2c-21.6-11-124.6-66-136.5-70.3l-0.2,385.4
		C212.6,790.1,353,711.3,381.8,697.5z"/>
	<path class="st10" d="M199.8,381v27.3c11.9,4.3,114.9,59.2,136.5,70.3c7.7,3.8,39.9,19.1,46,25.2L382,697.5l0.5-1.6l0.2-192.4
		c8.8,2.3,30,14,38.7,18.7c12.2,6.5,25.7,14.4,38.8,20.7c5.9-3.2,9.2-19.8,18.9-25.7c3.6-8.6,11.5-9.9,18-21.6
		c4.1-7.4,10.4-19.8,11.5-28.6c-4-4.7-9-11.7-5.2-19.6c-10.4-2.9-5.4-13.1-0.9-18.3c1.8-2,13.7-14,15.5-14.9
		c5.6-2.7,8.3-1.1,12.2,0.5V386l-0.7-0.5l-113.5-66h-0.2L198.9,194.1v187L199.8,381z M530.2,498.6c-0.1-0.1-0.2-0.2-0.3-0.2
		c-0.1,0-0.2,0-0.4,0l0.7,11.5V498.6z"/>
	<path class="st11" d="M1.1,1081.2H45l1.3-0.7l12.2-6.3v-0.2l49.1-25.7l20.5-10.6c12.2-6.5,62.2-30.4,69.4-36.9l0.2-197.3
		c-2.9-2.7,4.3-3.4-5-2L1.3,901.2v180L1.1,1081.2z"/>
	<path class="st12" d="M192.8,801.4c9.5-1.3,2-0.7,5,2v197.1c11.5-3.2,37.8-19.2,50.2-25.7c18.9-9.7,147.8-79.7,156.3-79.3
		c-3.2-3.1-6.8-5.8-10.6-8.1c-9.7-9.5-18.5-15.3-25.9-27c-7-7-14.4-19.6-19.8-30.4c-7.7-15.8-8.1-33.3-12.2-38.1
		c1.4-6.1-7.2-27.5-5.9-40.5l97.8-0.2c-0.5-9.5-0.9-18.9-0.9-28.6c0-6.1-0.5-18.2,3.4-23.4l-0.5-25.9c-7-1.8-36,19.8-47.5,22.3
		l-0.5,1.6c-28.8,14-169.2,92.6-182.5,96.2v-0.7l-0.9,0.5l-0.2,7.7L192.8,801.4z"/>
	<path class="st12" d="M751.4,887.7c3.2,6.8,0.9,153.8,1.1,193.5h325.5l-17.6-12.8h-0.2c-47.5-34.7-95.1-70.7-143.3-104.3l-8.1-5.8
		c-6.1-4.7-12.4-9.5-17.8-13.5c-8.3-6.1-29-22.5-37.4-25.9c-2.7,10.6-8.1,6.5-17.3,5.2c-11.9-2-54.1-10.6-60.8-14.4
		c-3.4-21,16.2-17.6,21.4-17.6c-12.8-2-8.8,0.9-19.8-5.8c-5.6-3.4-12.2-5.6-15.5-10.1L751.4,887.7z"/>
	<path class="st9" d="M382.3,695.7c11.5-2.5,40.5-24.1,47.5-22.3l5.6-47.8l2.5-15.1c2.3-11.8,5.2-23.4,8.8-34.9
		c2.9-9.2,12.4-24.8,13.7-33.1c-13.1-6.1-26.8-13.7-39-20.5c-8.8-4.7-30-16.4-38.7-18.7L382.3,695.7z"/>
	<path class="st9" d="M393.5,887.7c3.7,2.4,7.3,5,10.6,7.9c47.3,30.9,90.8,39.9,156.3,23.9c3.8-2.5,0.9-2,7.4-1.3l0.5,163.1h184.3
		c-0.2-39.7,2-186.7-1.1-193.5c-1.5,1.1-3,2.3-4.3,3.6c-4.3,3.4-0.2,0.9-4.5,3.4l-32.2-24.3l-17.6-1.1c-2,9.5-9.2,64.2-10.8,67.3
		c-0.7,8.1-1.4,14.2-1.8,22.5s-0.7,11.5-9.5,11.9c-5.2-3.8-6.1-10.4-8.8-18c-5.2-14.2-20-46.6-16.7-56.8l17.1-0.5l1.8-5.2
		c0.1-2.2,0.1-4.4,0-6.5l-0.7-14.2l-18.7-0.2c-2.7-14,2-37.6-2.9-47.8l-38.7-25.5l-19.2-12.6c-6.1-0.2-32.9,13.5-42.1,16.4
		c-17.6,5.6-31.5,9.2-51.8,8.3c-16.7-0.7-35.1-7.4-45-15.1c-12.4-9.5-12.8-25.7-17.4-41.7h-0.2v-3.4H330v3.4
		c-3.4,30.2,15.8,86.3,37.6,108.8C375.3,872.1,384,878.2,393.5,887.7z"/>
</g>
<path class="st4" d="M429.8,673.4l0.5,25.9c0.7,1.9,1.7,3.6,2.9,5.2c1.6,2-0.7,0.2,2.5,2.5c2.7,2,0.2,0.7,2.9,1.6
	c5.2,6.5,11.7,7,21.9,9.2c21.2,4.3,105.2,18,112.9-15.3c-4.3-3.8-27.3-2-34.7-4.3c-19.6-5.6-44.4-59.9-46.4-72.5l39-12.2
	c2.9-0.9,15.3-4.5,15.8-3.2c2.9,9.4,6.5,18.6,10.8,27.5c3.8,8.1,2.9,6.1,10.6,7.2l-0.9-7.9l-4-23.2c-2.7-15.3-9.2-35.4-14.4-51.1
	c-2.7-8.6-5.4-14.9-8.3-23.4c-2.3-6.3-5.4-11.3-7.4-16.9l-1.8-7c-21.2-1.3-23.4,1.3-41.7-9.7l-2.7,2.5l-4.1,4.1l-7,7.9h0.2
	c-12.6,11.9-23.4,39.4-28.6,55.9c-3.7,11.4-6.6,23.1-8.9,34.9l-2.5,15.1L429.8,673.4z"/>
</svg>
