<svg id="Layer_1" data-name="Layer 1" xmlns="http://www.w3.org/2000/svg" xmlns:xlink="http://www.w3.org/1999/xlink" viewBox="0 0 1080 1080"><defs><style>.cls-bird-color-1{fill:none;}.cls-bird-color-2{fill:#5ba997;}.cls-bird-color-3{clip-path:url(#clip-path);}.cls-bird-color-4{fill:#ffce50;}.cls-bird-color-5{fill:#155363;}.cls-bird-color-6{fill:#07629a;}.cls-bird-color-7{fill:#f16350;}</style><clipPath id="clip-path"><path class="cls-bird-color-1" d="M110.62,302.07l-13.33-4.3L7.53,132.12,573.72,321.68l.07,0,1.21.38.12.05,78.26,26.21-.36,1.74c4.23,2,8.41,4.05,12.49,6.35a163.34,163.34,0,0,1,43.72,35.63c5.67,6.61,10,14,15.14,20.41,1.14.53,2.46,1,3.5,1.45A225.75,225.75,0,0,0,758,423.39c17.56,4.33,34.47,7.52,51.6,13.77A179.36,179.36,0,0,1,870.12,474c17.75,16.37,34.92,38.35,44.9,60.31,7.41,16.28,10.75,32.1,11.42,49.76.2.5.39,1,.58,1.57a294,294,0,0,1,12.08,38.64A202.17,202.17,0,0,0,948.57,563c0-103.4-78-190.52-180.82-201.56l-21.21-2.27L659.32,235l92.61,1.69c177.8,3.28,320.31,148.5,320.31,326.34,0,180.26-146.16,326.42-326.42,326.42-178.09,0-322.89-142.65-326.35-319.89l-191-60L173.25,406.17l-11.33-3.65Z"/></clipPath></defs><title>logo</title><path class="cls-bird-color-2" d="M110.62,302.07l-13.33-4.3L7.53,132.12,573.72,321.68l.07,0,1.21.38.12.05,78.26,26.21-.36,1.74c4.23,2,8.41,4.05,12.49,6.35a163.34,163.34,0,0,1,43.72,35.63c5.67,6.61,10,14,15.14,20.41,1.14.53,2.46,1,3.5,1.45A225.75,225.75,0,0,0,758,423.39c17.56,4.33,34.47,7.52,51.6,13.77A179.36,179.36,0,0,1,870.12,474c17.75,16.37,34.92,38.35,44.9,60.31,7.41,16.28,10.75,32.1,11.42,49.76.2.5.39,1,.58,1.57a294,294,0,0,1,12.08,38.64A202.17,202.17,0,0,0,948.57,563c0-103.4-78-190.52-180.82-201.56l-21.21-2.27L659.32,235l92.61,1.69c177.8,3.28,320.31,148.5,320.31,326.34,0,180.26-146.16,326.42-326.42,326.42-178.09,0-322.89-142.65-326.35-319.89l-191-60L173.25,406.17l-11.33-3.65Z"/><g class="cls-bird-color-3"><path id="_1" data-name="1" class="cls-bird-color-4" d="M154.48,566.75c-1-39.83-1.62-74.13.82-95.6s7.9-30.12,55.94-49.81S349.94,371,385.66,397.69c30.92,23.1,20.8,89.11,56.37,167.05a159.49,159.49,0,0,0,17.37-4.08c3-.87,6-1.83,8.91-2.9a166.24,166.24,0,0,0,51.57-29.59c-.17,3.89-.26,7.81-.26,11.74,0,6.52.24,13,.75,19.4a242.88,242.88,0,0,0,28.81,97.22,322.47,322.47,0,0,0,84,89.83,245.7,245.7,0,0,0,30.29,16.35,241.9,241.9,0,0,0,63.84,18.81q9.3,1.43,18.84,2.11c.41,3.72.91,7.39,1.54,11.06.24,1.4.49,2.78.75,4.18l.19,1a188.68,188.68,0,0,0,7.69,27.39c5.53,2,11,3.82,16.42,5.46,111.11,34.13,194-.67,168.79,15.75S782.85,932.51,649.78,948.86,384,930.26,302.09,879.76s-113-116.52-129.15-172.22S155.47,606.55,154.48,566.75Z"/><path class="cls-bird-color-5" d="M-335.84,869.35l-14.42-19.88,242.79-436.22,14.83,22.85c9.54-74-6.11-359,30.27-424.41C1.73-103.48,295.71,87.53,422.86,46.52A445.67,445.67,0,0,1,524.45,26.18L372.18-93.09l216.06-388.2L626-451.49l-20.48-60.84L710.8-701.48c.89,224.15-11.21,477-75.65,713.1a1575.07,1575.07,0,0,1-102.1,272.91A167.25,167.25,0,0,1,357.59,558.22q-34.84,41.63-73,79.37C155,765.58-163.94,791.36-335.84,869.35Z"/><path class="cls-bird-color-6" d="M2442.15,455h202.34l-70.41,444.82H2371.65l6.54-41.4A181.16,181.16,0,0,1,2337,886.59c-32.75,16.45-68.84,23-105.29,23-47,0-92.84-11-130.19-40.65-37.6-29.88-56.9-71.32-56.9-119.27,0-14.71,1.4-29.76,3.09-44.35,2.37-20.53,5.26-41,8.52-61.42l30.29-189ZM928,576.07c-101.42,2.17-182.94,85.07-182.94,187a186.26,186.26,0,0,0,47.92,125l-.39,1.21c-1.09,3.5-2.15,7-3.21,10.48h15.07a187,187,0,0,0,255.31,0h208.13l32.1-63.26H1339l13.5,63.26h195a199.43,199.43,0,0,0,57.87,8.43c38.69,0,76.59-7.36,109.63-26.08l-2.8,17.65H1914.7L1985.11,455H1782.75l-4.86,30.65A217.78,217.78,0,0,0,1730.14,460a204.1,204.1,0,0,0-73.28-13.48c-46.67,0-89.81,14.27-124,46.5a157.68,157.68,0,0,0-46.45,81.2L1461.09,455h-396.9l-19.54,21.48,3.48-21.48H1007.5q-14.44,19.43-28,39.3h0c-4.59,6.67-71.25-22.1-79.54-15.38-6.42,5.19,19.44,46.37,42.49,72.87Q935,563.86,928,576.07Zm276.15,11.64L1110,682.13l26.88,40Z"/><path class="cls-bird-color-7" d="M1449.45,465.71c-115,56.33-253.57,68.45-367.87,63.19A89.35,89.35,0,0,1,923,490.66c-18.18-23.21-80.5-100.41-91.71-100.41-12.46,0-100.12,3.53-100.38,3.53C666.23,338.4,602.54,276.44,558.12,243L918.71-40.68l252.8,234.2-56.06,44.08a309.45,309.45,0,0,1,84.1,12.47c59.93,17.36,112.58,50.89,158.09,93.06C1395.9,378.56,1428.19,419.36,1449.45,465.71Z"/></g><path class="cls-bird-color-1" d="M110.62,302.07l-13.33-4.3L7.53,132.12,573.72,321.68l.07,0,1.21.38.12.05,78.26,26.21-.36,1.74c4.23,2,8.41,4.05,12.49,6.35a163.34,163.34,0,0,1,43.72,35.63c5.67,6.61,10,14,15.14,20.41,1.14.53,2.46,1,3.5,1.45A225.75,225.75,0,0,0,758,423.39c17.56,4.33,34.47,7.52,51.6,13.77A179.36,179.36,0,0,1,870.12,474c17.75,16.37,34.92,38.35,44.9,60.31,7.41,16.28,10.75,32.1,11.42,49.76.2.5.39,1,.58,1.57a294,294,0,0,1,12.08,38.64A202.17,202.17,0,0,0,948.57,563c0-103.4-78-190.52-180.82-201.56l-21.21-2.27L659.32,235l92.61,1.69c177.8,3.28,320.31,148.5,320.31,326.34,0,180.26-146.16,326.42-326.42,326.42-178.09,0-322.89-142.65-326.35-319.89l-191-60L173.25,406.17l-11.33-3.65Z"/></svg>