<svg id="Layer_1" data-name="Layer 1" xmlns="http://www.w3.org/2000/svg" xmlns:xlink="http://www.w3.org/1999/xlink" viewBox="0 0 1080 1080">
<defs>
<style>
.cls-logo-profil-1{fill:none;}
.cls-logo-profil-2{fill:#fff;}
.cls-logo-profil-3{fill:#5ba997;}
.cls-logo-profil-4{clip-path:url(#clip-path);}
.cls-logo-profil-5{fill:#ffce50;}
.cls-logo-profil-6{fill:#155363;}
.cls-logo-profil-7{fill:#07629a;}
.cls-logo-profil-8{fill:#f16350;}
.cls-logo-profil-9{clip-path:url(#clip-path-2);}
</style>

<clipPath id="clip-path"><path class="cls-logo-profil-1" d="M96.64,219.44l-12.28-4L1.65,62.81,523.47,237.5l.06,0,1.11.37.1,0,72.14,24.15-.34,1.61c3.9,1.8,7.74,3.74,11.51,5.86a150.4,150.4,0,0,1,40.29,32.84c5.23,6.09,9.23,12.92,14,18.8,1.05.51,2.25,1,3.21,1.35a209.35,209.35,0,0,0,27.77,8.72c16.18,4,31.76,6.91,47.55,12.69a165.32,165.32,0,0,1,55.78,33.95C813,393,828.82,413.24,838,433.46c6.83,15,9.9,29.6,10.52,45.86.19.49.37,1,.55,1.45a272.37,272.37,0,0,1,11.13,35.61,186.39,186.39,0,0,0,8.72-56.46c0-95.31-71.92-175.6-166.64-185.77l-19.56-2.1L602.35,157.58l85.34,1.57C851.56,162.17,982.9,296,982.9,459.92c0,166.13-134.7,300.83-300.83,300.83-164.13,0-297.58-131.46-300.78-294.82l-176-55.27-50.9-95.29L143.93,312Z"/></clipPath><clipPath id="clip-path-2"><path class="cls-logo-profil-1" d="M1210.62,1402.07l-13.33-4.3-89.76-165.65,566.19,189.56.07,0,1.21.38.12.05,78.26,26.21-.36,1.74c4.23,2,8.41,4.05,12.49,6.35a163.34,163.34,0,0,1,43.72,35.63c5.67,6.61,10,14,15.14,20.41,1.14.53,2.46,1,3.5,1.45a225.75,225.75,0,0,0,30.12,9.46c17.56,4.33,34.47,7.52,51.6,13.77a179.36,179.36,0,0,1,60.53,36.84c17.75,16.37,34.92,38.35,44.9,60.31,7.41,16.28,10.75,32.1,11.42,49.76.2.5.39,1,.58,1.57a294,294,0,0,1,12.08,38.64,202.17,202.17,0,0,0,9.47-61.28c0-103.4-78-190.52-180.82-201.56l-21.21-2.27L1759.32,1335l92.61,1.69c177.8,3.28,320.31,148.5,320.31,326.34,0,180.26-146.16,326.42-326.42,326.42-178.09,0-322.89-142.65-326.35-319.89l-191-60-55.24-103.38-11.33-3.65Z"/></clipPath></defs><title>logo</title><path class="cls-logo-profil-2" d="M56.07,918.29H93.91c25.64,0,40.9-14.19,40.9-31.59A28,28,0,0,0,127,867.17a28.63,28.63,0,0,0,7.78-19.68c0-17.4-15.26-31.58-40.9-31.58H56.07Zm24.11-60.58V838.49H93.91c10.07,0,16.79,3.82,16.79,9.61s-6.72,9.61-16.79,9.61Zm0,38V876.64H93.91c10.07,0,16.79,3.81,16.79,9.46s-6.72,9.61-16.79,9.61ZM223.62,840V815.91H146.71V918.29h76.91V894.18h-52.8V879.23h28.69V855.12H170.82V840Zm130,78.27L335.31,815.91H314.25L294,866.57l-20.29-50.66H252.61L234.3,918.29h24.11l9.46-58.44,19.83,58.44h12.37l20-58.59,9.47,58.59ZM462.11,815.91l-22.43,65.91L417.1,815.91h-25l35.1,102.38h24.88L487,815.91Zm75.08,103.61c32,0,51.27-23.5,51.27-52.35s-19.22-52.49-51.27-52.49-51.27,23.5-51.27,52.49S505.15,919.52,537.19,919.52Zm0-22.59c-15,0-25-11.9-25-29.76s10.08-29.9,25-29.9,25.18,11.9,25.18,29.9S552.29,896.93,537.19,896.93Zm147.25-81H657l-32.2,40.74V815.91H600.66V918.29h24.11V891.44l10.07-12.67,22,39.52h25.63L649.8,859.7Zm89.41,102.38h25.64l-40.9-102.38H736L695.12,918.29h25.63l7.78-21.21h37.54ZM737.54,873l9.76-26.55L757.07,873Zm100.25,46.55c17.7,0,35.55-11.91,35.55-30.07,0-27.92-47.15-33.56-47.15-44.85,0-4.43,4.74-7.33,11.75-7.33,11.6,0,21.82,12.82,21.82,12.82l16.33-16.34s-17.24-19.07-38-19.07c-17.69.15-35.55,11.91-35.55,30.22,0,27.77,47.16,33.56,47.16,44.7,0,4.43-4.74,7.33-11.76,7.33-11.59,0-21.82-12.82-21.82-12.82L799.8,900.44S817,919.52,837.79,919.52Zm50.51-1.23h24.11V815.91H888.3Zm110.16,1.23c23.35,0,42.12-15.42,42.12-41.21V815.75h-24.11v62.56c0,11.14-7.17,18.62-18,18.62s-18-7.48-18-18.62V815.75h-24.1v62.56C956.36,904.1,975.28,919.52,998.46,919.52Zm55.55-1.23h24.11V815.91H1054Z"/><path class="cls-logo-profil-2" d="M57.34,1004.31H89v-6.85H67.35c3.1-3,20.61-16.64,20.61-27.81,0-7.13-5.91-14.26-15.42-14.26s-15.34,8-16.06,9.5L60.72,970c.8-1.52,4.25-8.14,11-8.14,5.33,0,9.29,3.6,9.29,8.35,0,8.65-21.11,25.66-24,28.25Zm54.55.58c12.75,0,18.36-11.1,18.36-24.72s-5.61-24.78-18.36-24.78-18.31,11.09-18.31,24.78S99.2,1004.89,111.89,1004.89Zm0-6.42c-7.79,0-11.46-7.85-11.46-18.3s3.67-18.3,11.46-18.3,11.53,7.85,11.53,18.3S119.74,998.47,111.89,998.47Zm22.54,5.84h31.71v-6.85H144.45c3.1-3,20.61-16.64,20.61-27.81,0-7.13-5.91-14.26-15.42-14.26s-15.35,8-16.07,9.5l4.25,5.12c.79-1.52,4.25-8.14,11-8.14,5.34,0,9.3,3.6,9.3,8.35,0,8.65-21.11,25.66-24,28.25Zm54.56.58c12.74,0,18.36-11.1,18.36-24.72s-5.62-24.78-18.36-24.78-18.31,11.09-18.31,24.78S176.3,1004.89,189,1004.89Zm0-6.42c-7.79,0-11.46-7.85-11.46-18.3s3.67-18.3,11.46-18.3,11.52,7.85,11.52,18.3S196.84,998.47,189,998.47Zm48.63,16.43h6.13V945.37h-6.13Zm53.17-10c9.44,0,15.64-5.84,15.64-13,0-14.41-25.08-14-25.08-23.49,0-4,3.39-6.48,8.94-6.48,5.76,0,10.88,4.82,12,6l4.69-4.69c-1.52-1.57-8.65-7.84-16.72-7.84-9.44.07-15.64,5.83-15.64,13,0,14.42,25.08,14.06,25.08,23.5,0,4-3.39,6.48-8.86,6.48-6,0-11-4.9-12-6L274.15,997C275.59,998.62,282.72,1004.89,290.79,1004.89Zm28-44.89a3.89,3.89,0,1,0,0-7.78,3.89,3.89,0,0,0,0,7.78Zm-3.45,44.31h6.84v-36H315.3Zm34.07-36.61a14.21,14.21,0,0,0-10.66,5v-4.47h-6.85v36h6.85V983.84c0-5.62,4-9.8,9.22-9.8s9.23,4.18,9.23,9.73v20.54h7V983.56C364.15,974.69,358,967.7,349.37,967.7Zm57.93,16.65a18.54,18.54,0,0,0-37,1.58,18.06,18.06,0,0,0,.94,5.91,19.14,19.14,0,0,0,17.65,12.69c11,0,16.93-8.58,18.23-12l-5.84-1.94c-1.07,3.09-5.9,7.71-12.39,7.71a11.4,11.4,0,0,1-10.73-7.64l29.17-5.26A4.22,4.22,0,0,0,407.3,984.35Zm-30.11.86a12.35,12.35,0,0,0,.07-1.37,11.45,11.45,0,0,1,10.81-10.37,12,12,0,0,1,11.46,7.78Zm53.75-17.51a14.23,14.23,0,0,0-10.67,5v-4.47h-6.84v36h6.84V983.84c0-5.62,4-9.8,9.23-9.8a9.55,9.55,0,0,1,5.4,2.17l2.09-7A12.35,12.35,0,0,0,430.94,967.7Zm36.46.65v4a18.6,18.6,0,1,0,0,28.11v.94h.08c-.15,5.69-4.76,12-11.82,12-6.49,0-11.32-4.54-12.47-7.64l-5.48,2.74c1.3,3.46,6.92,11.17,18,11.17a18.64,18.64,0,0,0,18.58-18.3v-33Zm-12,30.2c-6.7,0-11.75-5.19-11.75-12.18s5.05-12.11,11.75-12.11a11.74,11.74,0,0,1,11.74,12.11C467.18,993.36,462.07,998.55,455.44,998.55ZM487.36,960a3.89,3.89,0,0,0,0-7.78,3.89,3.89,0,0,0,0,7.78Zm-3.46,44.31h6.84v-36H483.9Zm88.55,0L562.08,956H556l-11.67,34-11.67-34h-6.05l-10.38,48.35H523l7.71-35.74,11.52,35.74h4l11.53-35.74,7.78,35.74Zm40.06-20a18.54,18.54,0,0,0-37,1.58,18.06,18.06,0,0,0,.94,5.91,19.14,19.14,0,0,0,17.65,12.69c11,0,16.93-8.58,18.23-12l-5.84-1.94c-1.08,3.09-5.9,7.71-12.39,7.71a11.4,11.4,0,0,1-10.73-7.64l29.17-5.26A4.22,4.22,0,0,0,612.51,984.35Zm-30.11.86a12.35,12.35,0,0,0,.07-1.37,11.45,11.45,0,0,1,10.81-10.37,12,12,0,0,1,11.46,7.78Zm79.19-17.51c-6,0-10.67,2.74-13.19,6.78a14.15,14.15,0,0,0-22.92-1.73v-4.47h-6.84v36h6.84V983.84c0-5.62,4-9.8,9.23-9.8s9.29,4.18,9.29,9.73v20.54h6.92V983.84c0-5.62,4-9.8,9.23-9.8s9.22,4.18,9.22,9.73v20.54h7V983.56C676.35,974.69,670.16,967.7,661.59,967.7Zm42.36,0a18.56,18.56,0,0,0-12.18,4.54V950.63h-6.84v53.68h6.84v-4A18.59,18.59,0,1,0,704,967.7Zm-.21,30.7c-6.63,0-11.75-5.19-11.75-12.11s5.12-12.1,11.75-12.1,11.74,5.19,11.74,12.1S710.44,998.4,703.74,998.4Zm54.32-30.12v4a18.6,18.6,0,1,0,0,28.11v4h6.85v-36ZM746,998.4c-6.63,0-11.74-5.19-11.74-12.11s5.11-12.1,11.74-12.1,11.75,5.19,11.75,12.1S752.73,998.4,746,998.4Zm45-30.7a14.23,14.23,0,0,0-10.67,5v-4.47h-6.84v36h6.84V983.84c0-5.62,4-9.8,9.23-9.8s9.22,4.18,9.22,9.73v20.54h7V983.56C805.84,974.69,799.64,967.7,791.07,967.7Zm51.95.65v4a18.6,18.6,0,1,0,0,28.11v.94h.07c-.14,5.69-4.76,12-11.82,12-6.48,0-11.31-4.54-12.47-7.64l-5.47,2.74c1.29,3.46,6.92,11.17,17.94,11.17a18.65,18.65,0,0,0,18.59-18.3v-33Zm-12,30.2c-6.71,0-11.75-5.19-11.75-12.18s5-12.11,11.75-12.11a11.74,11.74,0,0,1,11.74,12.11C842.8,993.36,837.68,998.55,831.06,998.55Zm52.66-30.27v20.46c0,5.55-4,9.81-9.21,9.81s-9.23-4.18-9.23-9.73V968.28h-7V989c0,8.87,6.2,15.86,14.85,15.86a13.93,13.93,0,0,0,10.58-5v4.47h6.85v-36Zm33.15-.58a14.21,14.21,0,0,0-10.66,5v-4.47h-6.85v36h6.85V983.84c0-5.62,4-9.8,9.22-9.8s9.23,4.18,9.23,9.73v20.54h7V983.56C931.65,974.69,925.45,967.7,916.87,967.7Zm78.33,36.61h7.2L982.51,956H976l-19.89,48.35h7.21l5.4-13.55h21Zm-23.78-20.39,7.85-19.75,7.86,19.75Zm49.06,21c9.37,0,13.91-4.54,13.91-10.52,0-11.75-22.4-10.6-22.4-16.15,0-2.88,3-4.46,7.34-4.46,6.05,0,10.45,4.39,10.45,4.39l4.54-4a20.56,20.56,0,0,0-14.92-6.42c-9.29,0-13.83,4.54-13.83,10.52,0,11.75,22.41,10.6,22.41,16.15,0,2.88-3,4.46-7.35,4.46-6.06,0-10.44-4.39-10.44-4.39l-4.54,4A20.37,20.37,0,0,0,1020.48,1004.89Zm49.15-36.61v4a18.6,18.6,0,1,0,0,28.11v4h6.85v-36Zm-12,30.12c-6.63,0-11.75-5.19-11.75-12.11s5.12-12.1,11.75-12.1,11.74,5.19,11.74,12.1S1064.3,998.4,1057.6,998.4Z"/><path class="cls-logo-profil-3" d="M96.64,219.44l-12.28-4L1.65,62.81,523.47,237.5l.06,0,1.11.37.1,0,72.14,24.15-.34,1.61c3.9,1.8,7.74,3.74,11.51,5.86a150.4,150.4,0,0,1,40.29,32.84c5.23,6.09,9.23,12.92,14,18.8,1.05.51,2.25,1,3.21,1.35a209.35,209.35,0,0,0,27.77,8.72c16.18,4,31.76,6.91,47.55,12.69a165.32,165.32,0,0,1,55.78,33.95C813,393,828.82,413.24,838,433.46c6.83,15,9.9,29.6,10.52,45.86.19.49.37,1,.55,1.45a272.37,272.37,0,0,1,11.13,35.61,186.39,186.39,0,0,0,8.72-56.46c0-95.31-71.92-175.6-166.64-185.77l-19.56-2.1L602.35,157.58l85.34,1.57C851.56,162.17,982.9,296,982.9,459.92c0,166.13-134.7,300.83-300.83,300.83-164.13,0-297.58-131.46-300.78-294.82l-176-55.27-50.9-95.29L143.93,312Z"/><g class="cls-logo-profil-4"><path id="_1" data-name="1" class="cls-logo-profil-5" d="M137.08,463.36c-.89-36.7-1.49-68.31.74-88.11s7.29-27.77,51.57-45.89S317.2,283,350.14,307.56c28.5,21.28,19.15,82.12,51.94,154a154.05,154.05,0,0,0,16-3.77c2.77-.81,5.52-1.7,8.22-2.66a153.83,153.83,0,0,0,47.53-27.28c-.17,3.58-.25,7.19-.25,10.81q0,9,.7,17.88a223.75,223.75,0,0,0,26.55,89.59,297,297,0,0,0,77.43,82.8A223.86,223.86,0,0,0,665,661.32q8.58,1.27,17.36,1.93c.37,3.42.85,6.82,1.42,10.19.22,1.29.46,2.57.7,3.85l.18.9a172.26,172.26,0,0,0,7.08,25.24q7.65,2.73,15.13,5c102.39,31.45,178.83-.63,155.56,14.51s-146.25,77.5-268.89,92.57-245-17.15-320.44-63.7S169,644.45,154.08,593.14,138,500.06,137.08,463.36Z"/><path class="cls-logo-profil-6" d="M-314.82,742.26l-13.29-18.33,223.77-402,13.66,21c8.78-68.2-5.64-330.88,27.9-391.14,59.08-106.14,330,69.9,447.2,32.11a410.57,410.57,0,0,1,93.63-18.75L337.71-144.76,536.84-502.54l34.78,27.45-18.85-56.05,97-174.34c.82,206.58-10.32,439.64-69.73,657.23A1449.67,1449.67,0,0,1,486,203.27,154.14,154.14,0,0,1,324.26,455.51Q292.15,493.88,257,528.66C137.53,646.62-156.39,670.37-314.82,742.26Z"/><path class="cls-logo-profil-7" d="M2245.47,360.33H2432l-64.89,410H2180.48l6.05-38.14a167.06,167.06,0,0,1-38,26c-30.2,15.15-63.44,21.21-97,21.21-43.27,0-85.59-10.13-120-37.46-34.67-27.53-52.45-65.74-52.45-109.94a358,358,0,0,1,2.85-40.86c2.19-18.93,4.85-37.8,7.86-56.61l27.91-174.16ZM850,472A172.38,172.38,0,0,0,725.52,759.52l-.35,1.11q-1.5,4.85-3,9.66h13.89a172.35,172.35,0,0,0,235.3,0h191.84l29.58-58.3h36l12.46,58.3H1421a183.3,183.3,0,0,0,53.34,7.78c35.67,0,70.61-6.78,101-24l-2.58,16.26h186.59l64.89-410h-186.5l-4.48,28.26a201.6,201.6,0,0,0-44-23.62,187.94,187.94,0,0,0-67.52-12.41c-43,0-82.8,13.16-114.31,42.85a145.21,145.21,0,0,0-42.79,74.84l-23.35-109.92H975.5l-18,19.8,3.21-19.8H923.26q-13.35,17.93-25.86,36.24h0c-4.22,6.14-65.65-20.37-73.3-14.18-5.91,4.78,17.93,42.72,39.16,67.14Q856.49,460.71,850,472Zm254.51,10.74-86.78,87,24.78,36.84Z"/><path class="cls-logo-profil-8" d="M1330.55,370.26c-105.94,51.91-233.68,63.08-339,58.23a82.34,82.34,0,0,1-146.17-35.25c-16.78-21.38-74.21-92.53-84.52-92.53-11.49,0-92.3,3.24-92.52,3.25-59.59-51-118.28-108.15-159.22-139L841.41-96.46l233,215.84L1022.73,160a285,285,0,0,1,77.52,11.49c55.22,16,103.75,46.9,145.7,85.77C1281.21,289.94,1311,327.53,1330.55,370.26Z"/></g><path class="cls-logo-profil-1" d="M96.64,219.44l-12.28-4L1.65,62.81,523.47,237.5l.06,0,1.11.37.1,0,72.14,24.15-.34,1.61c3.9,1.8,7.74,3.74,11.51,5.86a150.4,150.4,0,0,1,40.29,32.84c5.23,6.09,9.23,12.92,14,18.8,1.05.51,2.25,1,3.21,1.35a209.35,209.35,0,0,0,27.77,8.72c16.18,4,31.76,6.91,47.55,12.69a165.32,165.32,0,0,1,55.78,33.95C813,393,828.82,413.24,838,433.46c6.83,15,9.9,29.6,10.52,45.86.19.49.37,1,.55,1.45a272.37,272.37,0,0,1,11.13,35.61,186.39,186.39,0,0,0,8.72-56.46c0-95.31-71.92-175.6-166.64-185.77l-19.56-2.1L602.35,157.58l85.34,1.57C851.56,162.17,982.9,296,982.9,459.92c0,166.13-134.7,300.83-300.83,300.83-164.13,0-297.58-131.46-300.78-294.82l-176-55.27-50.9-95.29L143.93,312Z"/><path class="cls-logo-profil-2" d="M657.06,397.65a178,178,0,0,1,2,22,141.1,141.1,0,0,1-13.81,67.59c-.71,1.58-1.41,3.18-2.13,4.76-.94,2-2,3.55-4.34,4.31-3.41,1.16-6.34-.54-8.16-3.29-1-1.57-2-3.25-2.94-4.86q-6-10.14-11.82-20.34c-1.93-3.37-5.17-7.74-3-11.52.35-1.7.55-3.73.78-5.32,1.42-10.31,2.79-21.74,2.64-32.14-.14-9.44-2.1-16.33-4.76-25.2-2.93-9.81-5.92-19.52-11.62-28.16-5.93-9-14.9-17-23.72-23.08A133.2,133.2,0,0,0,550.84,329c-8.51-3.53-17.16-6.6-25.89-9.56-8.46-2.86-17-5.63-25.45-8.37L109.73,184.94,78.55,127.41l475.53,159.2,0,.07c12.27,4.19,24.71,8.69,36,15a113.65,113.65,0,0,1,30.33,24.69,144.61,144.61,0,0,1,9,11.91,88.66,88.66,0,0,0,6.42,8.64c4.4,4.9,10,7.39,16,9.8A247.52,247.52,0,0,0,684.49,367c14.72,3.62,29.38,6.26,43.7,11.49A128.7,128.7,0,0,1,771.66,405c12.71,11.7,25.68,28,32.81,43.71,5,11,6.94,21.25,7.28,33.21A32.62,32.62,0,0,0,812,486a48.52,48.52,0,0,0,2.59,7.71c5,13.41,9.77,27.38,11.65,41.64s.81,31.15-5.76,44.3c-4.6,9.19-11.27,15.62-19.56,21.41-2.91,2-5.93,3.94-9.66,2.53-4.29-1.63-5-5.84-5.76-9.73-1.93-9.57-4.53-18.31-9.74-26.71-6.62-10.64-17.6-20.69-28.43-27a67.21,67.21,0,0,0-33.24-9.27,68.46,68.46,0,0,0-31.26,7c-9.57,4.79-17.48,11.88-24.15,20.19a88.93,88.93,0,0,0-15.81,29.26,66.9,66.9,0,0,0-1.62,32.11,73.47,73.47,0,0,0,14.86,32.8c8.66,10.63,20.57,18.45,33.16,23.65a140.2,140.2,0,0,0,19.08,6.2C820.77,668.93,905.78,573.3,905.78,459.92c0-114.14-86.13-210.23-199.56-222.4l-2.94-.32-29.1-41.45L687,196c143.8,2.65,259,120.08,259,263.93,0,145.8-118.2,264-264,264s-264-118.19-264-264c0-6.94.27-13.89.82-20.8L230.68,380l-31.17-58.36,288.26,95.6,43.58,57.17-72.83-22.87q-.16,4.17-.16,8.36a223.83,223.83,0,0,0,164.7,215.82c-.27-.36-.53-.72-.79-1.09a124.75,124.75,0,0,1-15.55-29.18,105.87,105.87,0,0,1-6.78-35.41,116.6,116.6,0,0,1,6.94-40.54,108.11,108.11,0,0,1,21.17-34.76C637.53,524,649.26,513.9,661.87,507s26-10.41,40.21-11.68a125.91,125.91,0,0,1,41.19,2.82,94.48,94.48,0,0,1,32,14.89c3.47,2.47,6.71,5.08,9.86,7.82,0-.1-.07-.19-.11-.28a69.36,69.36,0,0,0-8.77-15.15,27.92,27.92,0,0,1-2.48-3.65c-1.48-2.82-1.75-6.36-2.1-9.48-1.24-10.87-2.68-22.21-6.59-32.47a57.66,57.66,0,0,0-20.66-26.61c-11.3-8.21-26-13.75-39.07-18.56-16-5.9-32.11-11.31-48.17-17ZM142.79,228.77l286.6,91.75,36.9,56.75-296.5-95.64Z"/><g class="cls-logo-profil-9"><path class="cls-logo-profil-6" d="M764.16,1969.35l-14.42-19.88,242.79-436.22,14.83,22.85c9.54-74-6.11-359,30.27-424.41,64.1-115.17,358.08,75.84,485.23,34.83a445.67,445.67,0,0,1,101.59-20.34l-152.27-119.27,216.06-388.2,37.75,29.8-20.48-60.84L1810.8,398.52c.89,224.15-11.21,477-75.65,713.1a1575.07,1575.07,0,0,1-102.1,272.91,167.25,167.25,0,0,1-175.46,273.69q-34.85,41.63-73,79.37C1255,1865.58,936.06,1891.36,764.16,1969.35Z"/></g></svg>