<svg id="Layer_1" data-name="Layer 1" xmlns="http://www.w3.org/2000/svg" viewBox="0 0 1080 1080"><defs><style>.cls-1{fill:#5ba997;}.cls-2{fill:#ffcf50;}.cls-3{fill:#1a5463;}.cls-4{fill:#09639c;}.cls-5{fill:#f16450;}</style></defs><title>logo3</title><path class="cls-1" d="M524.42,537.9a165.39,165.39,0,0,1-84.94,43.26l0,.06a165.45,165.45,0,0,0,17.18-4.05c3-.87,5.92-1.82,8.82-2.85a164.93,164.93,0,0,0,51-29.29c-.18,3.84-.26,7.72-.26,11.61q0,9.66.75,19.19A240.09,240.09,0,0,0,545.51,672a318.8,318.8,0,0,0,83.12,88.89,240.39,240.39,0,0,0,93.11,34.77q9.21,1.35,18.64,2.07c.39,3.67.91,7.32,1.52,10.94.24,1.38.5,2.76.75,4.13l.2,1a184.62,184.62,0,0,0,7.6,27.09l.12,0a185,185,0,0,1-11.19-59.43c-2.22-101.47,77.68-185.64,178.87-189a123.34,123.34,0,0,0-10.8-41.45c-9.85-21.7-26.83-43.43-44.39-59.7a177.44,177.44,0,0,0-59.87-36.45c-17-6.2-33.68-9.33-51.05-13.62a225.4,225.4,0,0,1-29.81-9.36c-1-.38-2.32-.9-3.44-1.45-5.12-6.31-9.42-13.64-15-20.18A161.7,161.7,0,0,0,660.61,375c-4.05-2.27-8.17-4.35-12.36-6.29l.37-1.72-77.44-25.93h-.11l-1.19-.4h-.07l-16.75-5.6A165.52,165.52,0,0,1,524.42,537.9Z"/><path class="cls-2" d="M750.45,840.86a184.62,184.62,0,0,1-7.6-27.09l-.2-1c-.25-1.37-.51-2.75-.75-4.13-.61-3.62-1.13-7.27-1.52-10.94q-9.43-.71-18.64-2.07a240.39,240.39,0,0,1-93.11-34.77A318.8,318.8,0,0,1,545.51,672,240.09,240.09,0,0,1,517,575.83q-.75-9.54-.75-19.19c0-3.89.08-7.77.26-11.61a164.93,164.93,0,0,1-51,29.29c-2.9,1-5.85,2-8.82,2.85a165.45,165.45,0,0,1-17.18,4.05l0-.06a165,165,0,0,1-29,2.63l6.75,2.12c3.43,175.36,146.69,316.48,322.88,316.48a326.43,326.43,0,0,0,45-3.14,185.06,185.06,0,0,1-34.54-58.35Z"/><path class="cls-3" d="M524.42,537.9a165.52,165.52,0,0,0,28.64-202.81L9.65,153.17,98.44,317l13.18,4.3,50.76,99.36,11.23,3.62,13.69,25.62,40.95,76.67,182.19,57.21a165.32,165.32,0,0,0,114-45.89Z"/><path class="cls-4" d="M1062.19,556.73a88.31,88.31,0,0,1-123.25-3.34,200.87,200.87,0,0,1-7.66,86.68,291.83,291.83,0,0,0-11.94-38.23c-.2-.48-.39-1-.59-1.56q-.15-3.94-.5-7.78c-101.19,3.33-181.09,87.5-178.87,189a185.06,185.06,0,0,0,45.73,117.78A320.73,320.73,0,0,0,898.8,860.72c98-55.44,164.2-160.62,164.2-281.26Q1063,568,1062.19,556.73Z"/><path class="cls-5" d="M1062.19,556.73a321.54,321.54,0,0,0-14.59-76c-41.1-128.06-160-221.55-301.5-224.16l-91.61-1.69,86.27,122.88,21,2.26A200.51,200.51,0,0,1,938.94,553.39a88.31,88.31,0,0,0,123.25,3.34Z"/></svg>