<?xml version="1.0" encoding="utf-8"?>
<!-- Generator: Adobe Illustrator 22.1.0, SVG Export Plug-In . SVG Version: 6.00 Build 0)  -->
<svg version="1.1" id="Layer_1" xmlns="http://www.w3.org/2000/svg" xmlns:xlink="http://www.w3.org/1999/xlink" x="0px" y="0px"
	 viewBox="0 0 480 480" style="enable-background:new 0 0 480 480;" xml:space="preserve">
<style type="text/css">
	.st0{fill:#FEFEFE;}
	.st1{fill:#5BA997;}
	.st2{clip-path:url(#SVGID_2_);}
	.st3{fill:#FFCD50;}
	.st4{fill:#0F5263;}
	.st5{fill:#086199;}
	.st6{fill:#F9624D;}
	.st7{fill:none;}
</style>
<g id="Layer_x0020_1">
	<path class="st0" d="M232,298.2h7.5v-1.6h-5.2c0.7-0.7,4.9-4,4.9-6.6c0-1.7-1.4-3.4-3.7-3.4c-2.3,0-3.7,1.9-3.8,2.3l1,1.2
		c0.2-0.4,1-1.9,2.6-1.9c1.2,0,2.2,0.9,2.2,2c0,2.1-5,6.1-5.7,6.7L232,298.2z M244.9,298.3c3,0,4.4-2.6,4.4-5.9
		c0-3.2-1.3-5.9-4.4-5.9c-3,0-4.3,2.7-4.3,5.9C240.6,295.7,241.9,298.3,244.9,298.3z M244.9,296.8c-1.8,0-2.7-1.9-2.7-4.4
		c0-2.5,0.9-4.3,2.7-4.3c1.9,0,2.7,1.9,2.7,4.3C247.7,294.9,246.8,296.8,244.9,296.8z M250.3,298.2h7.6v-1.6h-5.2
		c0.7-0.7,4.9-4,4.9-6.6c0-1.7-1.4-3.4-3.7-3.4c-2.3,0-3.7,1.9-3.8,2.3l1,1.2c0.2-0.4,1-1.9,2.6-1.9c1.3,0,2.2,0.9,2.2,2
		c0,2.1-5,6.1-5.7,6.7L250.3,298.2z M263.3,298.3c3,0,4.4-2.6,4.4-5.9c0-3.2-1.4-5.9-4.4-5.9c-3,0-4.3,2.7-4.3,5.9
		C258.9,295.7,260.3,298.3,263.3,298.3z M263.3,296.8c-1.8,0-2.7-1.9-2.7-4.4c0-2.5,0.9-4.3,2.7-4.3c1.9,0,2.7,1.9,2.7,4.3
		C266,294.9,265.2,296.8,263.3,296.8z M274.9,300.7h1.4v-16.6h-1.4V300.7z M287.5,298.3c2.2,0,3.7-1.4,3.7-3.1c0-3.4-6-3.3-6-5.6
		c0-1,0.8-1.5,2.1-1.5c1.4,0,2.6,1.1,2.9,1.4l1.1-1.1c-0.4-0.4-2-1.9-4-1.9c-2.2,0-3.7,1.4-3.7,3.1c0,3.4,6,3.3,6,5.6
		c0,1-0.8,1.5-2.1,1.5c-1.4,0-2.6-1.2-2.9-1.4l-1.1,1.1C283.9,296.8,285.6,298.3,287.5,298.3z M294.2,287.6c0.5,0,0.9-0.4,0.9-0.9
		c0-0.5-0.4-0.9-0.9-0.9c-0.5,0-0.9,0.4-0.9,0.9C293.2,287.2,293.7,287.6,294.2,287.6z M293.4,298.2h1.6v-8.6h-1.6V298.2z
		 M301.5,289.5c-1,0-1.9,0.5-2.6,1.2v-1h-1.6v8.6h1.6v-4.9c0-1.3,1-2.3,2.2-2.3s2.2,1,2.2,2.3v4.9h1.7v-4.9
		C305,291.1,303.5,289.5,301.5,289.5z M315.2,293.4c-0.2-2.3-2.1-4.1-4.4-4.1c-2.4,0-4.4,2-4.4,4.5c0,0.5,0.1,1,0.2,1.4
		c0.6,1.8,2.4,3,4.2,3c2.6,0,4-2,4.3-2.9l-1.4-0.5c-0.3,0.7-1.4,1.8-2.9,1.8c-1.2,0-2.2-0.8-2.6-1.8l6.9-1.2
		C315.3,293.6,315.2,293.5,315.2,293.4z M308.1,293.6c0-0.2,0-0.3,0-0.3c0.1-1.3,1.2-2.4,2.6-2.5c1.2,0,2.3,0.7,2.7,1.9L308.1,293.6
		z M320.9,289.5c-1,0-1.9,0.5-2.6,1.2v-1h-1.6v8.6h1.6v-4.9c0-1.3,0.9-2.3,2.2-2.3c0.4,0,0.9,0.2,1.3,0.5l0.5-1.7
		C321.9,289.6,321.4,289.5,320.9,289.5z M329.6,289.6v1c-0.8-0.7-1.8-1.1-2.9-1.1c-2.4,0-4.4,2-4.4,4.4c0,2.5,2,4.5,4.4,4.5
		c1.1,0,2.1-0.4,2.9-1.1v0.2l0,0c0,1.4-1.1,2.9-2.8,2.9c-1.5,0-2.7-1.1-3-1.8l-1.3,0.7c0.3,0.8,1.6,2.7,4.3,2.7
		c2.2,0,4.4-1.8,4.4-4.4v-7.9H329.6z M326.7,296.8c-1.6,0-2.8-1.2-2.8-2.9c0-1.6,1.2-2.9,2.8-2.9c1.6,0,2.8,1.2,2.8,2.9
		C329.5,295.5,328.3,296.8,326.7,296.8z M334.3,287.6c0.5,0,0.9-0.4,0.9-0.9c0-0.5-0.4-0.9-0.9-0.9c-0.5,0-0.9,0.4-0.9,0.9
		C333.4,287.2,333.8,287.6,334.3,287.6z M333.5,298.2h1.6v-8.6h-1.6V298.2z M354.5,298.2l-2.5-11.5h-1.4l-2.8,8.1l-2.8-8.1h-1.4
		l-2.5,11.5h1.6l1.8-8.5l2.7,8.5h1l2.7-8.5l1.8,8.5H354.5z M364.1,293.4c-0.2-2.3-2.1-4.1-4.4-4.1c-2.5,0-4.4,2-4.4,4.5
		c0,0.5,0.1,1,0.2,1.4c0.6,1.8,2.4,3,4.2,3c2.6,0,4-2,4.3-2.9l-1.4-0.5c-0.3,0.7-1.4,1.8-2.9,1.8c-1.2,0-2.2-0.8-2.6-1.8l6.9-1.2
		C364.1,293.6,364.1,293.5,364.1,293.4z M356.9,293.6c0-0.2,0-0.3,0-0.3c0.1-1.3,1.2-2.4,2.6-2.5c1.2,0,2.3,0.7,2.7,1.9L356.9,293.6
		z M375.8,289.5c-1.4,0-2.6,0.7-3.1,1.6c-0.6-1-1.7-1.6-2.9-1.6c-1,0-1.9,0.5-2.5,1.2v-1h-1.6v8.6h1.6v-4.9c0-1.3,0.9-2.3,2.2-2.3
		c1.2,0,2.2,1,2.2,2.3v4.9h1.6v-4.9c0-1.3,0.9-2.3,2.2-2.3c1.2,0,2.2,1,2.2,2.3v4.9h1.7v-4.9C379.3,291.1,377.8,289.5,375.8,289.5z
		 M385.8,289.5c-1.1,0-2.1,0.4-2.9,1.1v-5.2h-1.6v12.8h1.6v-0.9c0.8,0.7,1.8,1.1,2.9,1.1c2.5,0,4.4-2,4.4-4.4
		C390.3,291.4,388.3,289.5,385.8,289.5z M385.8,296.7c-1.6,0-2.8-1.2-2.8-2.9c0-1.6,1.2-2.9,2.8-2.9s2.8,1.2,2.8,2.9
		C388.6,295.5,387.4,296.7,385.8,296.7z M398.7,289.6v0.9c-0.8-0.7-1.8-1.1-2.9-1.1c-2.4,0-4.4,2-4.4,4.4c0,2.4,2,4.4,4.4,4.4
		c1.1,0,2.1-0.4,2.9-1.1v0.9h1.6v-8.6H398.7z M395.9,296.7c-1.6,0-2.8-1.2-2.8-2.9c0-1.6,1.2-2.9,2.8-2.9s2.8,1.2,2.8,2.9
		C398.6,295.5,397.5,296.7,395.9,296.7z M406.6,289.5c-1,0-1.9,0.5-2.6,1.2v-1h-1.6v8.6h1.6v-4.9c0-1.3,0.9-2.3,2.2-2.3
		c1.2,0,2.2,1,2.2,2.3v4.9h1.7v-4.9C410.1,291.1,408.6,289.5,406.6,289.5z M418.9,289.6v1c-0.8-0.7-1.8-1.1-2.9-1.1
		c-2.5,0-4.4,2-4.4,4.4c0,2.5,2,4.5,4.4,4.5c1.1,0,2.1-0.4,2.9-1.1v0.2l0,0c0,1.4-1.1,2.9-2.8,2.9c-1.5,0-2.7-1.1-2.9-1.8l-1.3,0.7
		c0.3,0.8,1.6,2.7,4.3,2.7c2.2,0,4.4-1.8,4.4-4.4v-7.9H418.9z M416.1,296.8c-1.6,0-2.8-1.2-2.8-2.9c0-1.6,1.2-2.9,2.8-2.9
		c1.6,0,2.8,1.2,2.8,2.9C418.9,295.5,417.7,296.8,416.1,296.8z M428.6,289.6v4.8c0,1.3-1,2.4-2.2,2.4c-1.2,0-2.2-1-2.2-2.3v-4.9
		h-1.7v4.9c0,2.1,1.5,3.8,3.5,3.8c1,0,1.9-0.5,2.5-1.2v1h1.6v-8.6H428.6z M436.5,289.5c-1,0-1.9,0.5-2.6,1.2v-1h-1.6v8.6h1.6v-4.9
		c0-1.3,1-2.3,2.2-2.3c1.2,0,2.2,1,2.2,2.3v4.9h1.7v-4.9C440,291.1,438.6,289.5,436.5,289.5z M455.1,298.2h1.7l-4.7-11.5h-1.6
		l-4.7,11.5h1.7l1.3-3.2h5L455.1,298.2z M449.5,293.3l1.9-4.7l1.9,4.7H449.5z M461.2,298.3c2.2,0,3.3-1.1,3.3-2.5
		c0-2.8-5.3-2.5-5.3-3.9c0-0.7,0.7-1,1.8-1c1.4,0,2.5,1,2.5,1l1.1-1c0,0-1.3-1.5-3.5-1.5s-3.3,1.1-3.3,2.5c0,2.8,5.4,2.5,5.4,3.9
		c0,0.7-0.7,1-1.8,1c-1.4,0-2.5-1-2.5-1l-1.1,0.9C457.6,296.7,458.9,298.3,461.2,298.3z M472.9,289.6v0.9c-0.8-0.7-1.8-1.1-2.9-1.1
		c-2.5,0-4.4,2-4.4,4.4c0,2.4,2,4.4,4.4,4.4c1.1,0,2.1-0.4,2.9-1.1v0.9h1.6v-8.6H472.9z M470,296.7c-1.6,0-2.8-1.2-2.8-2.9
		c0-1.6,1.2-2.9,2.8-2.9s2.8,1.2,2.8,2.9C472.8,295.5,471.6,296.7,470,296.7z"/>
	<path class="st0" d="M233.6,227H248c9.8,0,15.6-5.4,15.6-12.1c0-2.8-1-5.4-3-7.5c1.9-2.1,3-4.7,3-7.5c0-6.7-5.8-12.1-15.6-12.1
		h-14.5V227z M242.8,203.8v-7.3h5.2c3.9,0,6.4,1.4,6.4,3.7c0,2.2-2.6,3.7-6.4,3.7H242.8z M242.8,218.4v-7.3h5.2
		c3.9,0,6.4,1.5,6.4,3.6c0,2.2-2.6,3.7-6.4,3.7H242.8z M297.7,197.1v-9.2h-29.4V227h29.4v-9.2h-20.2v-5.7h11v-9.2h-11v-5.8H297.7z
		 M347.4,227l-7-39.2h-8.1l-7.8,19.4l-7.7-19.4h-8.1l-7,39.2h9.2l3.6-22.4l7.6,22.4h4.7l7.7-22.4l3.6,22.4H347.4z"/>
	<path class="st0" d="M256.7,238.7l-7.6,22.4l-7.7-22.4h-8.5l11.9,34.8h8.4l11.9-34.8H256.7z M282.2,273.9c10.9,0,17.4-8,17.4-17.8
		c0-9.9-6.5-17.9-17.4-17.9c-10.9,0-17.4,8-17.4,17.9C264.8,265.9,271.3,273.9,282.2,273.9z M282.2,266.2c-5.1,0-8.5-4.1-8.5-10.1
		c0-6.1,3.4-10.2,8.5-10.2c5.1,0,8.6,4.1,8.6,10.2C290.8,262.2,287.3,266.2,282.2,266.2z M332.3,238.7h-9.4L312,252.5v-13.9h-8.2
		v34.8h8.2v-9.1l3.4-4.3l7.5,13.4h8.7l-11.1-19.9L332.3,238.7z M362.7,273.5h8.7l-13.9-34.8h-7.7l-13.9,34.8h8.7l2.7-7.2H360
		L362.7,273.5z M350.3,258.1l3.3-9l3.3,9H350.3z M384.4,273.9c6,0,12.1-4.1,12.1-10.2c0-9.5-16-11.4-16-15.3c0-1.5,1.6-2.5,4-2.5
		c4,0,7.4,4.4,7.4,4.4l5.6-5.6c0,0-5.9-6.5-12.9-6.5c-6,0.1-12.1,4.1-12.1,10.3c0,9.4,16,11.4,16,15.2c0,1.5-1.6,2.5-4,2.5
		c-3.9,0-7.4-4.4-7.4-4.4l-5.6,5.6C371.5,267.4,377.4,273.9,384.4,273.9z M401.6,273.5h8.2v-34.8h-8.2V273.5z M439.1,273.9
		c8,0,14.3-5.2,14.3-14v-21.3h-8.2v21.3c0,3.8-2.5,6.3-6.2,6.3c-3.7,0-6.1-2.6-6.1-6.3v-21.3h-8.2v21.3
		C424.8,268.6,431.2,273.9,439.1,273.9z M458,273.5h8.2v-34.8H458V273.5z"/>
	<path class="st1" d="M26.1,189.6l-2.6-0.9L6,156.6l110,36.8l0,0l0.2,0.1h0l15.2,5.1l-0.1,0.3c0.8,0.4,1.6,0.8,2.4,1.2
		c3.2,1.8,6.1,4.2,8.5,6.9c1.1,1.3,2,2.7,2.9,3.9c0.2,0.1,0.5,0.2,0.7,0.3c1.9,0.8,3.9,1.4,5.8,1.8c3.4,0.9,6.7,1.5,10,2.7
		c4.4,1.6,8.3,4,11.8,7.1c3.4,3.2,6.8,7.5,8.7,11.7c1.4,3.2,2.1,6.2,2.2,9.7c0,0.1,0.1,0.2,0.1,0.3c0.9,2.5,1.8,5,2.4,7.5
		c1.2-3.8,1.8-7.8,1.8-11.9c0-20.1-15.1-37-35.1-39.1l-4.1-0.5l-17-24.1l18,0.3c34.5,0.6,62.2,28.8,62.2,63.4
		c0,35-28.4,63.4-63.4,63.4c-34.6,0-62.7-27.7-63.4-62.1l-37.1-11.7l-10.7-20.1l-2.2-0.7L26.1,189.6z"/>
	<g>
		<defs>
			<path id="SVGID_1_" d="M26.1,189.6l-2.6-0.9L6,156.6l110,36.8l0,0l0.2,0.1h0l15.2,5.1l-0.1,0.3c0.8,0.4,1.6,0.8,2.4,1.2
				c3.2,1.8,6.1,4.2,8.5,6.9c1.1,1.3,2,2.7,2.9,3.9c0.2,0.1,0.5,0.2,0.7,0.3c1.9,0.8,3.9,1.4,5.8,1.8c3.4,0.9,6.7,1.5,10,2.7
				c4.4,1.6,8.3,4,11.8,7.1c3.4,3.2,6.8,7.5,8.7,11.7c1.4,3.2,2.1,6.2,2.2,9.7c0,0.1,0.1,0.2,0.1,0.3c0.9,2.5,1.8,5,2.4,7.5
				c1.2-3.8,1.8-7.8,1.8-11.9c0-20.1-15.1-37-35.1-39.1l-4.1-0.5l-17-24.1l18,0.3c34.5,0.6,62.2,28.8,62.2,63.4
				c0,35-28.4,63.4-63.4,63.4c-34.6,0-62.7-27.7-63.4-62.1l-37.1-11.7l-10.7-20.1l-2.2-0.7L26.1,189.6z"/>
		</defs>
		<clipPath id="SVGID_2_">
			<use xlink:href="#SVGID_1_"  style="overflow:visible;"/>
		</clipPath>
		<g class="st2">
			<g id="_2440567821424">
				<path id="_x31_" class="st3" d="M34.6,241c-0.2-7.7-0.3-14.4,0.2-18.6c0.5-4.2,1.5-5.8,10.9-9.7c9.4-3.8,27-9.8,33.9-4.6
					c6,4.5,4,17.3,10.9,32.5c1.1-0.2,2.3-0.5,3.4-0.8c0.6-0.2,1.2-0.4,1.7-0.6c2.2-0.8,4.4-1.8,6.3-3.1c1.3-0.8,2.5-1.7,3.7-2.7
					c-0.1,0.8-0.1,1.5-0.1,2.3c0,1.3,0,2.5,0.1,3.8c0.5,6.8,2.5,13.2,5.6,18.9c4.3,6.8,9.8,12.8,16.3,17.5c1.9,1.2,3.9,2.2,5.9,3.2
					c3.9,1.8,8.1,3,12.4,3.7c1.2,0.2,2.4,0.3,3.7,0.4c0.1,0.7,0.2,1.4,0.3,2.2c0,0.3,0.1,0.5,0.1,0.8l0,0.2c0.4,1.8,0.9,3.6,1.5,5.3
					c1.1,0.4,2.1,0.7,3.2,1c21.6,6.6,37.7-0.1,32.8,3.1c-4.9,3.2-30.8,16.3-56.7,19.5c-25.9,3.2-51.6-3.6-67.6-13.4
					s-21.9-22.6-25.1-33.4C35,257.5,34.8,248.7,34.6,241z"/>
				<path class="st4" d="M-60.7,299.8l-2.8-3.9l47.2-84.7l2.9,4.4c1.8-14.4-1.2-69.7,5.9-82.4c12.5-22.4,69.6,14.7,94.3,6.7
					c6.6-2.1,13.2-3.4,19.7-3.9l-29.6-23.2l42-75.4l7.3,5.8l-4-11.8l20.5-36.7c0.2,43.5-2.2,92.7-14.7,138.5
					c-5,18.4-11.7,36.2-19.8,53c5.6,5.8,9,13.7,9,22.5c0,17.9-14.5,32.5-32.5,32.5c-3.7,0-7.3-0.6-10.6-1.8
					c-4.5,5.4-9.2,10.5-14.2,15.4C34.7,279.6-27.3,284.6-60.7,299.8z"/>
				<path class="st5" d="M479,219.3h39.3l-13.7,86.4h-39.3l1.3-8.1c-2.4,2.2-5,4-8,5.5c-6.4,3.2-13.4,4.5-20.5,4.5
					c-9.1,0-18-2.1-25.3-7.9c-7.3-5.8-11.1-13.9-11.1-23.2c0-2.8,0.3-5.8,0.6-8.6c0.5-4,1-8,1.6-11.9l5.9-36.7H479z M184.8,242.8
					c-19.7,0.4-35.5,16.5-35.5,36.3c0,9.4,3.5,17.9,9.3,24.3l-0.1,0.2c-0.2,0.7-0.4,1.4-0.6,2h2.9c6.5,6.1,15.2,9.8,24.8,9.8
					c9.6,0,18.3-3.7,24.8-9.8h40.5l6.2-12.3h7.6l2.6,12.3h37.9c3.6,1.1,7.4,1.6,11.3,1.6c7.5,0,14.9-1.4,21.3-5.1l-0.5,3.4h39.3
					l13.7-86.4h-39.3l-0.9,6c-2.9-2-6-3.7-9.3-5c-4.6-1.8-9.4-2.6-14.2-2.6c-9.1,0-17.5,2.8-24.1,9c-4.7,4.5-7.7,9.8-9,15.8
					l-4.9-23.2h-77.1l-3.8,4.2l0.7-4.2h-7.9c-1.9,2.5-3.7,5-5.4,7.6l0,0c-0.9,1.3-13.8-4.3-15.4-3c-1.2,1,3.8,9,8.2,14.1
					C186.7,239.6,185.8,241.2,184.8,242.8z M238.5,245.1l-18.3,18.4l5.2,7.8L238.5,245.1z"/>
				<path class="st6" d="M286.1,221.4c-22.3,10.9-49.3,13.3-71.5,12.3c-3.2,4.1-8.1,6.8-13.7,6.8c-8.5,0-15.6-6.1-17.1-14.2
					c-3.5-4.5-15.6-19.5-17.8-19.5c-2.4,0-19.5,0.7-19.5,0.7c-12.6-10.7-24.9-22.8-33.6-29.3l70-55.1l49.1,45.5l-10.9,8.6
					c5.5,0,10.9,0.9,16.4,2.4c11.6,3.4,21.9,9.9,30.7,18.1C275.7,204.4,282,212.4,286.1,221.4z"/>
			</g>
		</g>
	</g>
	<path class="st7" d="M26.1,189.6l-2.6-0.9L6,156.6l110,36.8l0,0l0.2,0.1h0l15.2,5.1l-0.1,0.3c0.8,0.4,1.6,0.8,2.4,1.2
		c3.2,1.8,6.1,4.2,8.5,6.9c1.1,1.3,2,2.7,2.9,3.9c0.2,0.1,0.5,0.2,0.7,0.3c1.9,0.8,3.9,1.4,5.8,1.8c3.4,0.9,6.7,1.5,10,2.7
		c4.4,1.6,8.3,4,11.8,7.1c3.4,3.2,6.8,7.5,8.7,11.7c1.4,3.2,2.1,6.2,2.2,9.7c0,0.1,0.1,0.2,0.1,0.3c0.9,2.5,1.8,5,2.4,7.5
		c1.2-3.8,1.8-7.8,1.8-11.9c0-20.1-15.1-37-35.1-39.1l-4.1-0.5l-17-24.1l18,0.3c34.5,0.6,62.2,28.8,62.2,63.4
		c0,35-28.4,63.4-63.4,63.4c-34.6,0-62.7-27.7-63.4-62.1l-37.1-11.7l-10.7-20.1l-2.2-0.7L26.1,189.6z"/>
	<path class="st0" d="M144.2,227.1c0.2,1.5,0.4,3.1,0.4,4.6c0.1,2.7-0.2,5.6-0.8,8.3c-0.5,2.1-1.2,4-2.1,6c-0.1,0.3-0.3,0.7-0.5,1
		c-0.2,0.4-0.4,0.8-0.9,0.9c-0.7,0.3-1.3-0.1-1.7-0.7c-0.2-0.3-0.4-0.7-0.6-1c-0.9-1.4-1.7-2.9-2.5-4.3c-0.4-0.7-1.1-1.6-0.7-2.4
		c0.1-0.4,0.1-0.8,0.2-1.1c0.3-2.2,0.6-4.6,0.6-6.8c0-2-0.5-3.4-1-5.3c-0.6-2.1-1.2-4.1-2.4-5.9c-1.2-1.9-3.1-3.6-5-4.9
		c-1.7-1.2-3.4-2-5.3-2.8c-1.8-0.8-3.6-1.4-5.4-2c-1.8-0.6-3.6-1.2-5.4-1.8l-82.1-26.6l-6.6-12.1l100.2,33.6v0
		c2.6,0.9,5.2,1.8,7.6,3.1c2.4,1.3,4.6,3.1,6.4,5.2c0.7,0.8,1.3,1.6,1.9,2.5c0.4,0.6,0.9,1.3,1.4,1.8c0.9,1,2.1,1.6,3.4,2.1
		c2.2,0.9,4.6,1.6,6.9,2.2c3.1,0.8,6.2,1.3,9.2,2.4c3.4,1.2,6.5,3.1,9.2,5.6c2.7,2.5,5.4,5.9,6.9,9.2c1,2.3,1.5,4.5,1.5,7
		c0,0.3,0,0.6,0.1,0.9c0.1,0.5,0.4,1.2,0.5,1.6c1.1,2.8,2.1,5.8,2.5,8.8c0.4,3,0.2,6.6-1.2,9.3c-1,2-2.4,3.3-4.1,4.5
		c-0.6,0.4-1.2,0.8-2,0.5c-0.9-0.3-1-1.2-1.2-2c-0.4-2-1-3.9-2-5.6c-1.4-2.2-3.7-4.3-6-5.7c-2.2-1.3-4.5-1.9-7-2
		c-2.3,0-4.6,0.5-6.6,1.5c-2,1-3.7,2.5-5.1,4.3c-1.4,1.8-2.7,3.9-3.3,6.2c-0.7,2.2-0.8,4.5-0.3,6.8c0.5,2.5,1.5,4.9,3.1,6.9
		c1.8,2.2,4.3,3.9,7,5c1.3,0.5,2.7,1,4,1.3c23.7-2.8,41.6-22.9,41.6-46.8c0-24.1-18.1-44.3-42-46.9l-0.6-0.1l-6.2-8.7l2.7,0
		c30.3,0.6,54.6,25.3,54.6,55.6c0,30.7-24.9,55.6-55.6,55.6S93.8,271,93.8,240.3c0-1.5,0.1-2.9,0.2-4.4l-39.7-12.4l-6.5-12.3
		l60.7,20.2l9.2,12l-15.3-4.8c0,0.6-0.1,1.2-0.1,1.8c0,21.4,14.4,40,34.7,45.5c-0.1-0.1-0.1-0.1-0.2-0.2c-1.4-2-2.4-3.9-3.3-6.2
		c-0.9-2.4-1.4-4.9-1.4-7.5c0-2.9,0.5-5.9,1.5-8.6c1-2.7,2.5-5.1,4.5-7.3c2-2.3,4.5-4.4,7.1-5.9c2.6-1.4,5.5-2.2,8.5-2.5
		c2.8-0.3,5.9-0.1,8.7,0.6c2.5,0.6,4.7,1.7,6.7,3.1c0.7,0.5,1.4,1.1,2.1,1.6c0,0,0,0,0-0.1c-0.4-1.1-1.2-2.3-1.8-3.2
		c-0.2-0.3-0.4-0.5-0.5-0.8c-0.3-0.6-0.4-1.3-0.5-2c-0.3-2.3-0.6-4.7-1.4-6.9c-0.9-2.3-2.4-4.1-4.4-5.6c-2.4-1.7-5.5-2.9-8.2-3.9
		C151,229.5,147.6,228.3,144.2,227.1C144.2,227.1,144.2,227.1,144.2,227.1z M35.8,191.5l60.4,19.3l7.8,12l-62.5-20.2L35.8,191.5z"/>
</g>
</svg>
