<svg id="Layer_1" data-name="Layer 1" xmlns="http://www.w3.org/2000/svg" xmlns:xlink="http://www.w3.org/1999/xlink" viewBox="0 0 1080 1080"><defs><style>.cls-wing-1{fill:none;}.cls-wing-2{clip-path:url(#clip-path);}.cls-wing-3{fill:#07629a;}.cls-wing-4{fill:#f16350;}.cls-wing-5{fill:#fff;}.cls-wing-6{clip-path:url(#clip-path-2);}.cls-wing-7{fill:#155363;}</style><clipPath id="clip-path"><path class="cls-wing-1" d="M-1003.36,219.44l-12.28-4-82.71-152.66L-576.53,237.5l.06,0,1.11.37.1,0,72.14,24.15-.34,1.61c3.9,1.8,7.74,3.74,11.51,5.86a150.4,150.4,0,0,1,40.29,32.84c5.23,6.09,9.23,12.92,14,18.8,1.05.51,2.25,1,3.21,1.35a209.35,209.35,0,0,0,27.77,8.72c16.18,4,31.76,6.91,47.55,12.69a165.32,165.32,0,0,1,55.78,33.95C-287,393-271.18,413.24-262,433.46c6.83,15,9.9,29.6,10.52,45.86.19.49.37,1,.55,1.45a272.37,272.37,0,0,1,11.13,35.61,186.39,186.39,0,0,0,8.72-56.46c0-95.31-71.92-175.6-166.64-185.77l-19.56-2.1-80.38-114.47,85.34,1.57c163.87,3,295.21,136.86,295.21,300.77,0,166.13-134.7,300.83-300.83,300.83-164.13,0-297.58-131.46-300.78-294.82l-176-55.27-50.9-95.29L-956.07,312Z"/></clipPath><clipPath id="clip-path-2"><path class="cls-wing-1" d="M110.62,1402.07l-13.33-4.3L7.53,1232.12l566.19,189.56.07,0,1.21.38.12.05,78.26,26.21-.36,1.74c4.23,2,8.41,4.05,12.49,6.35a163.34,163.34,0,0,1,43.72,35.63c5.67,6.61,10,14,15.14,20.41,1.14.53,2.46,1,3.5,1.45a225.75,225.75,0,0,0,30.12,9.46c17.56,4.33,34.47,7.52,51.6,13.77A179.36,179.36,0,0,1,870.12,1574c17.75,16.37,34.92,38.35,44.9,60.31,7.41,16.28,10.75,32.1,11.42,49.76.2.5.39,1,.58,1.57a294,294,0,0,1,12.08,38.64,202.17,202.17,0,0,0,9.47-61.28c0-103.4-78-190.52-180.82-201.56l-21.21-2.27L659.32,1335l92.61,1.69c177.8,3.28,320.31,148.5,320.31,326.34,0,180.26-146.16,326.42-326.42,326.42-178.09,0-322.89-142.65-326.35-319.89l-191-60-55.24-103.38-11.33-3.65Z"/></clipPath></defs><title>logo</title><g class="cls-wing-2"><path class="cls-wing-3" d="M1145.47,360.33H1332l-64.89,410H1080.48l6-38.14a167.06,167.06,0,0,1-38,26c-30.2,15.15-63.44,21.21-97,21.21-43.27,0-85.59-10.13-120-37.46-34.67-27.53-52.45-65.74-52.45-109.94a358,358,0,0,1,2.85-40.86c2.19-18.93,4.85-37.8,7.86-56.61l27.91-174.16ZM-250,472A172.39,172.39,0,0,0-418.65,644.3a171.71,171.71,0,0,0,44.17,115.22l-.35,1.11q-1.5,4.85-3,9.66h13.89a171.78,171.78,0,0,0,117.65,46.4,171.76,171.76,0,0,0,117.65-46.4H63.23L92.81,712h36l12.46,58.3H321a183.3,183.3,0,0,0,53.34,7.78c35.67,0,70.61-6.78,101-24l-2.58,16.26H659.35l64.89-410H537.74l-4.48,28.26a201.6,201.6,0,0,0-44-23.62,187.94,187.94,0,0,0-67.52-12.41c-43,0-82.8,13.16-114.31,42.85a145.21,145.21,0,0,0-42.79,74.84L241.28,360.33H-124.5l-18,19.8,3.21-19.8h-37.43q-13.35,17.93-25.86,36.24h0c-4.22,6.14-65.65-20.37-73.3-14.18-5.91,4.78,17.93,42.72,39.16,67.14Q-243.51,460.71-250,472ZM4.47,482.7l-86.78,87,24.78,36.84Z"/><path class="cls-wing-4" d="M230.55,370.26c-105.94,51.91-233.68,63.08-339,58.23a82.17,82.17,0,0,1-65.2,32.07,82.36,82.36,0,0,1-81-67.32c-16.78-21.38-74.21-92.53-84.52-92.53-11.49,0-92.3,3.24-92.52,3.25-59.59-51-118.28-108.15-159.22-139L-258.59-96.46l233,215.84L-77.27,160A285,285,0,0,1,.25,171.5c55.22,16,103.75,46.9,145.7,85.77C181.21,289.94,211,327.53,230.55,370.26Z"/></g><path class="cls-wing-5" d="M769.05,509.23,80.43,286.4,7.53,151.86,683.16,378ZM592.22,814.46l-229-71.9L290.36,606.1,964.42,829.67l101.93,133.67L592.22,814.46ZM157.72,388.88,827.93,603.44l86.27,132.7L220.87,512.47Z"/><g class="cls-wing-6"><path class="cls-wing-7" d="M-335.84,1969.35l-14.42-19.88,242.79-436.22,14.83,22.85c9.54-74-6.11-359,30.27-424.41,64.1-115.17,358.08,75.84,485.23,34.83a445.67,445.67,0,0,1,101.59-20.34L372.18,1006.91l216.06-388.2L626,648.51l-20.48-60.84L710.8,398.52c.89,224.15-11.21,477-75.65,713.1a1575.07,1575.07,0,0,1-102.1,272.91,167.25,167.25,0,0,1-175.46,273.69q-34.84,41.63-73,79.37C155,1865.58-163.94,1891.36-335.84,1969.35Z"/><path class="cls-wing-4" d="M1449.45,1565.71c-115,56.33-253.57,68.45-367.87,63.19A89.35,89.35,0,0,1,923,1590.66c-18.18-23.21-80.5-100.41-91.71-100.41-12.46,0-100.12,3.53-100.38,3.53C666.23,1438.4,602.54,1376.44,558.12,1343l360.59-283.69,252.8,234.2-56.06,44.08a309.45,309.45,0,0,1,84.1,12.47c59.93,17.36,112.58,50.89,158.09,93.06C1395.9,1478.56,1428.19,1519.36,1449.45,1565.71Z"/></g></svg>