<?xml version="1.0" encoding="UTF-8"?>
<!DOCTYPE svg PUBLIC "-//W3C//DTD SVG 1.1//EN" "http://www.w3.org/Graphics/SVG/1.1/DTD/svg11.dtd">
<!-- Creator: CorelDRAW X8 -->
<svg xmlns="http://www.w3.org/2000/svg" xml:space="preserve" width="169.333mm" height="169.333mm" version="1.1" style="shape-rendering:geometricPrecision; text-rendering:geometricPrecision; image-rendering:optimizeQuality; fill-rule:evenodd; clip-rule:evenodd"
viewBox="0 0 16933 16933"
 xmlns:xlink="http://www.w3.org/1999/xlink">
 <defs>
  <style type="text/css">
    #Layer_x0020_1 > .fil0 {fill:#A1A1A1}
  </style>
 </defs>
 <g id="Layer_x0020_1">
  <metadata id="CorelCorpID_0Corel-Layer"/>
  <path class="fil0" d="M8475 -25c4676,0 8467,3790 8467,8466 0,4676 -3791,8467 -8467,8467 -4676,0 -8467,-3791 -8467,-8467 0,-4676 3791,-8466 8467,-8466zm-5408 13835c161,-17 318,-84 443,-195 216,-193 319,-561 355,-838 45,-341 -2,-680 -68,-1014 -14,-48 -43,-146 -51,-195 -16,-102 2,-88 58,-160 79,-102 125,-226 127,-393 -8,-171 -58,-324 -140,-431 -95,-124 -180,-146 -318,-238l6 -424 10 -2225 191 -56 194 -76c506,-155 1021,-343 1522,-516 224,-87 488,-192 716,-256 222,-80 525,-206 747,-262l126 -47c19,-8 72,-24 92,-30 59,-20 103,-31 161,-57l360 -110c32,-114 117,-269 218,-332 20,187 35,144 86,285 195,229 420,318 835,316 368,-16 483,-70 746,-205 24,-37 57,-99 100,-142l2 -291c67,77 114,153 144,262 60,86 73,252 33,379 -77,150 -126,200 -279,275 -196,112 -515,142 -782,145 -213,0 -545,-34 -703,-120 -198,-47 -142,-120 -358,-117 -88,87 -290,126 -413,155l-745 258 -347 124 -736 253 -396 137 -105 35 -187 66 -453 156c-37,19 -97,42 -158,63 -88,29 -128,12 -124,90 102,7 207,80 305,128l146 82 248 117c615,291 3803,1966 4148,1963l262 -58c102,-45 159,-81 252,-135 49,-28 61,-39 119,-63 1043,-705 2269,-1305 3354,-1951l261 -154 151 -84c83,-92 482,-286 638,-383 51,-32 36,-30 92,-58 89,-43 131,-76 219,-128 162,-95 235,-121 389,-253 92,-78 77,-72 142,-172 47,-111 95,-237 102,-380 -5,-159 -29,-231 -81,-362l-68 -113c-112,-91 -138,-133 -291,-232l-57 -32 -342 -175c-1243,-410 -3574,-1791 -4709,-2346 -172,-84 -319,-147 -495,-223l-402 21c-462,429 -4127,2374 -4993,2902 -97,56 -185,112 -279,167 -32,19 -66,36 -98,56 -292,170 -401,423 -393,754 61,230 170,517 425,592l-4 100 -1 734 1 9 -1 388 -1 369 -2 348 -1 835 -244 130c-6,54 7,16 -46,76 -29,32 -50,57 -76,71 -48,128 -91,229 -100,389 5,182 37,237 105,381 44,46 118,115 165,161l-44 195c-64,275 -252,489 -429,706 -83,101 -124,136 -168,273l-1 5c-833,-1221 -1320,-2698 -1320,-4288 0,-4209 3412,-7621 7621,-7621 4209,0 7621,3412 7621,7621 0,4209 -3412,7621 -7621,7621 -2114,0 -4027,-861 -5408,-2252zm8679 -4519c-163,123 -365,186 -531,311 0,1 -56,33 -64,37 -37,21 -84,48 -135,73 -396,252 -816,482 -1222,725 -19,11 -62,32 -97,52 -88,50 -111,79 -208,108 -31,39 -25,30 -80,37 -27,36 1,18 -55,58 -2,0 -71,39 -80,43 -62,36 -99,58 -163,89 -198,90 -246,75 -484,67 -84,-15 -185,-35 -250,-99l-311 -141c-192,-84 -395,-191 -580,-293 -7,-4 -37,-20 -48,-27 -131,-93 -610,-310 -801,-399 -546,-217 -1136,-650 -1650,-805 61,317 11,1145 18,1524 15,286 -51,201 127,377 1745,1606 3986,2102 6200,823 335,-244 651,-500 899,-836 113,-154 78,-219 74,-446 -3,-183 6,-363 5,-545l-1 -918c-20,-186 12,-79 -53,-128 -62,72 -391,236 -510,313z"/>
 </g>
</svg>
