<?xml version="1.0" encoding="UTF-8"?>
<!DOCTYPE svg PUBLIC "-//W3C//DTD SVG 1.1//EN" "http://www.w3.org/Graphics/SVG/1.1/DTD/svg11.dtd">
<!-- Creator: CorelDRAW X8 -->
<svg xmlns="http://www.w3.org/2000/svg" xml:space="preserve" width="169.333mm" height="169.333mm" version="1.1" style="shape-rendering:geometricPrecision; text-rendering:geometricPrecision; image-rendering:optimizeQuality; fill-rule:evenodd; clip-rule:evenodd"
viewBox="0 0 16933 16933"
 xmlns:xlink="http://www.w3.org/1999/xlink">
 <defs>
  <style type="text/css">
    #Layer_x0020_1 > .fil0 {fill:#A1A1A1}
  </style>
 </defs>
 <g id="Layer_x0020_1">
  <metadata id="CorelCorpID_0Corel-Layer"/>
  <path class="fil0" d="M8450 42c4680,0 8475,3795 8475,8476 0,4680 -3795,8475 -8475,8475 -4681,0 -8475,-3795 -8475,-8475 0,-4681 3794,-8476 8475,-8476zm166 6095c-158,-222 -68,-739 -72,-1035 -2,-178 -48,-410 121,-420 157,-8 122,214 122,372l1 834c-6,242 3,222 -172,249zm-3502 4219c492,-214 2018,-938 2246,-1223 146,-355 20,-754 -374,-840 -232,-51 -368,40 -563,98l-84 25 -819 326 -2 -695 3 -96 -13 -1796 -539 191c-119,70 -408,141 -524,249 -65,61 -251,344 -285,421 -228,264 -605,927 -748,1057l-410 594c-75,188 -42,185 -199,289 -108,72 -288,223 -387,268 24,356 979,1579 1205,1892 552,-102 953,-579 1493,-760zm-2851 2625c237,-46 1313,-789 1363,-919 53,-140 39,-156 -17,-285 -45,-103 -209,-294 -285,-417 -92,-117 -156,-224 -235,-333 -274,-382 -526,-762 -811,-1149 -156,-212 -199,-309 -398,-529 -313,-17 -659,215 -952,444 -70,-415 -107,-841 -107,-1275 0,-4214 3416,-7629 7629,-7629 4213,0 7628,3415 7628,7629 0,4213 -3415,7628 -7628,7628 -2546,0 -4801,-1248 -6187,-3165zm10320 20l659 0c3,-5 7,-11 12,-18l-21 -8967 -787 -12 -44 -305 978 -22c208,243 168,186 166,694l1 2636 -3 1000 2 1196 -2 1005 2 1192 -2 1010 -35 742 0 150 -926 0 0 -301zm-5800 -5125c-31,81 -45,74 83,56 277,-40 178,-366 724,-604 437,-302 1194,-82 1523,306 1107,1308 -838,2784 -1556,1985 -546,45 -131,161 -14,271 780,209 1226,77 1680,-373 1218,-1207 -407,-3231 -1888,-2279 -97,62 -581,550 -552,638zm4146 -3093l1 179 -21 2562c80,62 31,3 107,109 149,206 235,614 234,887 -1,274 -107,739 -314,941l-9 2554c24,512 560,-178 563,-199l8 -3784 -2 -2294c-1,-133 5,-266 5,-397 -1,-303 -253,-483 -572,-558zm-2702 5397c-546,25 -719,-140 -1173,-367 -367,128 -731,424 -963,511l-1 1042 3 566c574,281 510,206 805,822l645 1 1693 6c245,-497 261,-638 834,-824l5 -610 -1 -1049 -3 -1140 2 -1061 0 -1117 4 -1719 -10 -180c-702,-236 -523,-412 -835,-819l-2275 6 -109 74c-138,500 -330,530 -738,719l-23 159 2 661 0 1116 12 1133 182 -10c172,-20 298,-224 378,-361 553,-1492 3272,-1120 3160,872 -49,873 -729,1531 -1594,1569zm2671 -6346l62 180 683 2 70 7 -3 8959 -799 18 -22 303 120 -2c197,-3 392,0 588,-1 249,-1 286,-32 458,-143 -41,-538 -16,-1248 -9,-1805 3,-249 -54,-1699 67,-1752 103,-169 209,-282 292,-415 149,-492 220,-557 94,-1142 -58,-133 -225,-421 -256,-532 -297,-108 -197,-427 -195,-748 2,-326 1,-651 -3,-976 -8,-631 38,-1336 -13,-1953l-82 -79c-231,-125 -741,-65 -1024,-58l-28 137zm-3378 858l62 53 15 1315c-64,76 30,52 -107,71 -209,29 -44,-3 -129,-37l-15 -302c2,-213 3,-427 0,-641 -3,-240 -77,-460 174,-459zm-161 6246l34 -100c228,45 203,13 212,263 10,273 35,1102 -111,1219 -231,-79 -150,-361 -149,-627 1,-251 -6,-506 14,-755zm-592 -6895l66 3 2618 -2 39 0 793 1 -4 8000 8 350 0 580 -4398 -7 -58 2 1 -1659 1 -886c-171,40 -224,62 -315,194 0,456 -90,2306 72,2590 165,151 537,90 789,88l1142 1 1235 0 1090 0c318,0 499,27 733,-78l36 -714 2 -1203 0 -980c0,-362 -78,-660 141,-929 349,-427 401,-1088 108,-1609 -263,-466 -246,-186 -249,-875l-1 -986 2 -1162c-34,-1223 244,-1066 -1269,-1066l-2685 0c-430,1 -898,-77 -1134,138l1 1911 302 -109 -1 -896 4 -688 931 -9zm1397 6805c58,298 45,1143 9,1456l-213 -48c-11,-269 -3,-538 -4,-807 -4,-590 -64,-582 208,-601zm611 46c3,277 129,1602 -162,1402l-67 -700c0,-240 -29,-492 32,-739l197 37zm3659 -5062l-1 1166 6 536c8,8 19,19 24,24 118,142 170,283 222,467 103,331 132,966 -106,1179 -83,266 -143,171 -146,485 -1,188 6,377 3,567l-4 1176 5 793c183,-84 320,-86 570,-282l1 -2831 -1 -1005 3 -1197 0 -977 -3 -886c-246,-187 -373,-271 -575,-296l2 1081zm-141 3164c-125,176 -91,190 -242,342 -17,-270 -4,-546 -4,-818l0 -730c25,-159 21,-79 35,-109 109,123 148,216 221,380 104,437 85,518 -10,935zm-1673 -1218l181 315c44,127 71,289 68,428 -4,286 -111,557 -253,689l4 -1432zm-2492 -1641c-259,-23 -172,-92 -172,-741 -1,-649 -79,-674 172,-705l40 80c106,331 -32,-231 24,88 42,239 27,1144 -64,1278z"/>
 </g>
</svg>
