<?xml version="1.0" encoding="utf-8"?>
<!-- Generator: Adobe Illustrator 22.1.0, SVG Export Plug-In . SVG Version: 6.00 Build 0)  -->
<svg version="1.1" id="Layer_1" xmlns="http://www.w3.org/2000/svg" xmlns:xlink="http://www.w3.org/1999/xlink" x="0px" y="0px"
	 viewBox="0 0 1080 1080" style="enable-background:new 0 0 1080 1080;" xml:space="preserve">
<style type="text/css">
	.st0{fill:#3B607E;}
</style>
<path class="st0" d="M719.1,835.9c-17.2-1.2-6.4,0.6-17.5-6.1c-2-1.2-22.1-22.4-25.9-26.2c-18.3-19.2-31.7-31.7-50.6-50.3
	c-26.2-25.9-69-81.8-105.9-88.7c-15.4,13.1-3.5,2.6-16.3,15.4c15.7,67.5,154.2,127.4,144.6,188c-41.3,6.1-116.4-85.5-158.9-129.8
	c-46.8-48.9-52.7-26.2-58.5-17.5c-14,52.7,140.2,119.9,133,180.7c-43.6,9-80.6-48.9-105-73.6c-36.1-36.1-161.8-156.2-182.4-188
	c-14.3-22.1-19.8-41.3-34.3-58.2c-21.5-25.6-24.2-18.3-39.3-47.4c17.2-29.7,142-162.1,181.6-170.5c26.8,52.7,12.2,94.9,90.5,104.2
	c52.1,6.4,41-4.9,72.7,27.1l142.9,143.4c52.7,52.7,86.7,68.4,75.4,111.1c-62.3,6.1-118.1-149.8-184.8-125.4
	c-16.9,58.2,164.4,146.4,158.6,207.5C729.6,836.5,735.4,837.1,719.1,835.9z M600.1,375.3c68.1,0,94-30.3,128.9-61.4l171.7,171.4
	c-25.3,33.5-40.4,39.9-66,89.9c-17.2,33.5-48.6,64.3-75.9,77.4L656,554.2c14.8-17.7,10.5-9,29.7-19.8c26.8-15.1,12.2-9.3,23.6-16.9
	c-39.6-71-57.6,33.5-147.5-62.8c-54.7-58.8-132.7,3.5-117.8-77.7L600.1,375.3z M57.2,437.3c71.6-70.4,146.4-155.1,220.8-219.7
	c28.8,28.8,65.5,55.3,86.4,92.8L144.2,523.7L57.2,437.3z M738.6,256.6c20.7-33.5,38.7-43.9,59.9-68.4
	c44.2,16.9,84.1,71.9,117.8,105.6c34.9,34.9,85,72.7,108.8,116.4l-61.4,66.3C933.9,462,759.3,284.8,738.6,256.6z M4.8,433.2
	c10.5,39.6,64.6,79.1,92.2,107.9c70.7,73,64-13.1,113.8,71.3c66,112.9,89,121.3,185.9,217.9C452,885.6,512,975.6,577.4,942.1
	c61.7-31.7-29.7-1.2,71.3-29.7c57.9-16.3,5.8-26.2,63.7-28.5c80.3-2.9,68.4-48.3,71.6-71.6c3.8-27.4,2.3-18,14.3-37.8
	c26.8-43.1,20.9-43.6,2-88.7c21.8-29.1,44.5-42.8,66-78.9c93.1-156.8,40.2-18.6,144.3-124.8c94.3-96,110.9-39.6-125.4-275
	c-85-85-65.5-93.4-154.8-5.5c-75.1,73.9-22.4,55.3-48.3,94.6c-34.3,51.5-259,41.6-270.6,39.6c-5.5-34.3,20.1-18.3-8.7-58.2
	c-6.1-8.7-28.5-28.2-38.4-37.8c-48.3-44.2-78.6-72.2-104.2-66.9C231.5,178.6,6.3,419.8,4.8,433.2z"/>
</svg>
