<?xml version="1.0" encoding="utf-8"?>
<!-- Generator: Adobe Illustrator 22.1.0, SVG Export Plug-In . SVG Version: 6.00 Build 0)  -->
<svg version="1.1" id="Layer_1" xmlns="http://www.w3.org/2000/svg" xmlns:xlink="http://www.w3.org/1999/xlink" x="0px" y="0px"
	 viewBox="0 0 1080 1080" style="enable-background:new 0 0 1080 1080;" xml:space="preserve">
<style type="text/css">
	.st0{fill:#3B607E;}
</style>
<path class="st0" d="M536.6,182.4c132.7,0,240.2,107.5,240.2,240.2c0,82.9-42.4,156.2-106.7,199.3l-23.8-65.1
	c39-31.6,64-79.9,64-134.2c0-95.9-77.7-173.6-173.6-173.6c-95.6,0-173.3,77.7-173.3,173.6c0,58,28.6,109.7,72.9,141.3l-29.7,60.2
	C340.3,581.4,296.8,507,296.8,422.6C296.8,289.9,404.3,182.4,536.6,182.4z"/>
<path class="st0" d="M478.6,344.5c-64.3,49.1-34.2,110.4,8.6,159.5c-61.7,156.2-120.8,313.1-182.9,469.2c-2.2,5.6-6.3,16-9.3,21.6
	c-8.9,16.4-1.1,5.2-10.8,15.2l1.9,16.4c-7.1,12.3-3,17.8,7.4,33.5l43.5-1.1c25.3-46.9,32-91.5,59.5-135c50.9-5.2,254.3-8.6,290.4,3
	c0.4,31.6,23.1,75.1,35.7,105.2c19.7,46.5,75.1,42.4,66.2-15.6c-40.2-60.2-178.8-431.7-197.8-500.1l-5.6-12.3
	C699.9,390.3,571.9,283.2,478.6,344.5z M578.3,437.1c-52.4,89.6-133.1-43.1-56.9-64c13-3.3,28.6-1.9,38.7,3.7
	C580.5,387.3,593.1,418.2,578.3,437.1z M483.5,691.8l50.9-125.3L595,705.9c-21.6,0-43.1,0-64.7,0.4c-2.6,0-30.1,0-30.5-0.4
	C482,701.9,481.2,716.4,483.5,691.8z M469.7,760.6l146.5,0.4L655.6,871c-30.9-10-206.7-9.7-237.6,0c3-20.8,13.4-43.5,20.5-62.5
	C446.6,788.5,450.7,764.3,469.7,760.6z"/>
<path class="st0" d="M766,666.5c-17.5,16.4-44.2,33.5-65.4,51.7l19,47.2c31.6-1.9,86.3-51.7,107.1-75.1
	c69.2-77.7,108.9-179.6,104.1-283.7c-1.9-46.9-10.4-83.7-26-124.6C859.4,161.2,750.1,66,625.1,38.1c-30.5-6.7-57.3-9.7-88.5-9.7
	c-60.2-0.4-104.1,11.2-155.4,31.6C279.7,108.4,245.9,143,193.4,228.2c-92.2,167.7-57.3,357.3,77.3,486.7
	c18.2,20.5,59.5,46.5,85.1,52.1l16-52.4c-121.6-86.3-196-189.3-164.3-356.6c24.5-131.3,135.7-242.8,270.3-265.5
	C643,61.9,807.7,163.1,857.5,323.7c14.1,45.7,19,100.8,10,152.1C853.1,560.9,820.7,606.3,766,666.5z"/>
</svg>
