<?xml version="1.0" encoding="utf-8"?>
<!-- Generator: Adobe Illustrator 22.1.0, SVG Export Plug-In . SVG Version: 6.00 Build 0)  -->
<svg version="1.1" id="Layer_1" xmlns="http://www.w3.org/2000/svg" xmlns:xlink="http://www.w3.org/1999/xlink" x="0px" y="0px"
	 viewBox="0 0 1080 1080" style="enable-background:new 0 0 1080 1080;" xml:space="preserve">
<style type="text/css">
	.st0{fill:#3B607E;}
</style>
<path class="st0" d="M70.3,462.8c88.8,102,60.3,232.1,202.5,302.7c0.4,66.7,0.7,99.8,74.5,100.6c72.4,0.7,83.1-20.3,83.4-90.9h224.6
	c0.4,70.6,11.1,91.6,83.4,90.9c73.8-0.7,74.5-33.9,74.5-100.6c73.5-36.4,78.8-52.4,116.6-132.3c26-55.3,48.9-127.3,85.9-170.1
	l-0.4,516.3c-12.1,73.8-144.8,48.1-211.4,48.1H290.3c-63.5,0-202.2,24.6-218.2-41C59.2,933.5,68.5,544.8,70.3,462.8z M705.3,695.3
	h58.8l0.4,121.6h-60.6L705.3,695.3z M322.7,695.3h59.2v121.6h-60.3L322.7,695.3z M265,709.6c-31.4-33.9-31-27.1-53.5-74.9
	c-27.1-57.1-119.1-233.2-123-262.8H997c-4.3,38.9-59.9,132.3-80.2,174c-42.1,87.4-38.2,102-95.6,163.7c-30.3-42.4-10-64.5-90.6-63.5
	c-65.6,1.1-68.5,17.8-78.1,77.7l-219.3-1.1c-9.3-58.8-12.1-75.6-77.7-76.7C275,645,295.3,667.1,265,709.6z M379.1,294.9
	c0-67.4,15.7-80.9,82.4-80.9h163.3c85.2,0,82.4,28.5,82.4,109.5h-328V294.9z M282.1,323.4c0-201.8,81.3-206.5,269.2-206.5
	c75.2,0,149.8-4.3,199.3,36c44.2,36,69.9,121.6,45.3,170.4l-40.6-0.4c0-165.1-61.3-157.6-212.2-157.6S330.9,157.9,330.9,323
	L282.1,323.4z M1056.9,326.9l-200-3.6c-17.1-75.2,0.4-116.2-45.3-174.7C714.6,24.6,334.1,29.9,258.9,174
	c-31.4,60.6-15.3,86.6-29.6,149.4c-34.2,0-68.1,0.4-102.3,0c-14.6,0-35.3-1.4-49.2-0.7l-43.1,11.1C7.5,347.6,18.2,892.8,21.1,964.1
	c4.6,121.6,93.8,112,204,112h644.3c114.5,0,192.2,5.7,195.8-120.2C1068.3,847.5,1076.2,398.6,1056.9,326.9z"/>
</svg>
