<?xml version="1.0" encoding="utf-8"?>
<!-- Generator: Adobe Illustrator 22.1.0, SVG Export Plug-In . SVG Version: 6.00 Build 0)  -->
<svg version="1.1" id="Layer_1" xmlns="http://www.w3.org/2000/svg" xmlns:xlink="http://www.w3.org/1999/xlink" x="0px" y="0px"
	 viewBox="0 0 480 480" style="enable-background:new 0 0 480 480;" xml:space="preserve">
<style type="text/css">
	.st0{fill:#A1A1A1;}
</style>
<path class="st0" d="M240.9,1.2c-132,0-239,107-239,239s107,239,239,239s239-107,239-239C480,108.2,373,1.2,240.9,1.2z M240.9,456.3
	c-119.1,0-215.6-96.5-215.6-215.6c0-117.2,93.6-212.6,210.1-215.6c1.8,0,3.7-0.1,5.6-0.1s3.7,0,5.6,0.1
	c116.5,2.9,210.1,98.3,210.1,215.6C456.6,359.8,360,456.3,240.9,456.3z"/>
<path class="st0" d="M408.6,203.9c-0.7-17.3-3.2-35-9.7-51.2c-12.6-31.4-40-52.9-73.6-57.6c-33.7-4.7-67.3,8.9-91.1,32.5
	c-15.4-16.8-37.8-26.5-61.1-20.7c-23.2,5.8-40.7,29.4-36.4,53c-17.9,4.9-33.2,18.6-39.1,37.3c-5.7,18.2-1.1,37.2,10.1,51.2
	c-17.7,19.5-23.9,47.7-12.3,72.3s40.1,36.9,65.3,28.6c0.2,12.2,5.3,24.2,14.8,32.4c15.8,13.5,38.1,14.4,54.7,3.1
	c2.1,0.7,4.5,0.7,6.6,0.1c1.5,0.3,3.1,0.3,4.6-0.2c32.4-11.2,62.8-27.3,90-48.2c26.7-20.5,54.1-46,67.9-77.3
	C406.9,241.6,409.4,222.9,408.6,203.9z M188.5,366.6c-10.3-9.5-10.1-23.9-1.8-34.6c3.3-4.3,0.7-11.2-3.6-13.7
	c-5.2-3-10.4-0.7-13.7,3.6c-1.4,1.8-2.6,3.7-3.7,5.7c-2.2-0.6-4.6-0.4-7.1,1c-17.7,9.5-38.9-0.7-46.3-18.3
	c-7.3-17.3-1.5-35.5,10.4-48.7c4.5,2.7,9.5,4.8,14.8,6.1c12.5,3.1,17.8-16.1,5.3-19.3c-20.4-5.1-32.5-25.7-26.1-45.9
	c6.6-21.1,30-29.4,49.6-21.2c5,2.1,11-2.3,12.3-7c1.6-5.8-2-10.2-7-12.3c-4.8-2-9.8-3.3-14.8-3.8c-3.3-15.2,7.5-29.2,23-32.4
	c17.1-3.6,33.3,6.1,43.2,19.5c0.2,73.1,0.3,146.1,0.5,219.2c-0.4,0.3-0.9,0.7-1.3,1.1C213,374.6,198.1,375.5,188.5,366.6z
	 M382.8,246.8c-5.2,13.8-14.2,26.1-23.9,37.1c-10.3,11.6-21.7,22.4-33.8,32.2c-24.4,19.8-52.2,35.6-81.6,46.6l-0.4-215.1
	c0.1-0.2,0.3-0.5,0.4-0.8c17.7-19.6,42.5-33.2,69.4-32.8c27.6,0.4,53,15.4,65.1,40.3c6.5,13.3,9.2,28.4,10.3,43.1
	C389.5,214.2,388.8,230.9,382.8,246.8z"/>
<path class="st0" d="M190.5,239c-2.1-18.1-14.9-34.1-33.4-37.5c-5.3-1-10.8,1.5-12.3,7c-1.3,4.8,1.6,11.3,7,12.3
	c9.1,1.7,17.7,8.6,18.8,18.3c0.6,5.4,4.1,10,10,10C185.5,249,191.1,244.4,190.5,239z"/>
<path class="st0" d="M175.3,280.4c-7.4,11.3-22.1,15.2-34.2,9.1c-11.4-5.8-21.5,11.4-10.1,17.2c22.1,11.2,47.9,4.5,61.5-16.2
	C199.6,279.7,182.3,269.7,175.3,280.4z"/>
<path class="st0" d="M199.8,148c-4.2-3.3-10-4.1-14.1,0c-3.4,3.4-4.3,10.8,0,14.1s6.4,7.7,5.5,12.1c-1.1,5.3,1.5,10.8,7,12.3
	c4.9,1.4,11.2-1.7,12.3-7C212.8,168.1,209.4,155.5,199.8,148z"/>
<path class="st0" d="M351.2,144.1c-11.3-6.2-21.4,11.1-10.1,17.2c17.2,9.4,18.4,34,13.2,50.6c-3.8,12.3,15.4,17.6,19.3,5.3
	C381.4,192.2,376.3,157.8,351.2,144.1z"/>
<path class="st0" d="M323,129c-12.8,0-12.9,20,0,20C335.8,149,335.9,129,323,129z"/>
</svg>
