<svg width="58" height="32" viewBox="0 0 58 32" fill="none" xmlns="http://www.w3.org/2000/svg">
<path fill-rule="evenodd" clip-rule="evenodd" d="M41.8209 25.5229L45.8515 20.3619L54.1061 20.3321C53.9128 21.0609 49.369 26.6012 48.7518 27.3448C47.9338 28.319 46.7439 30.3269 44.6245 28.9139C44.0667 28.5347 42.1853 26.1624 41.8209 25.5229ZM16.5886 20.9122C15.8375 20.5775 13.7478 17.655 13.0339 16.7254C12.0077 15.4091 10.7063 13.8921 9.56849 12.3899L2.79377 3.80063L11.1674 3.84525C12.8778 5.88287 14.3725 7.77176 16.0086 9.854C16.7968 10.8505 17.5702 11.8173 18.4254 12.8584C19.0576 13.6243 20.2102 14.9481 20.6639 15.7661C20.2548 16.5543 19.236 17.6773 18.6262 18.4507C18.0016 19.239 17.2653 20.2206 16.5886 20.9122ZM46.8852 0.558287C46.4093 2.05304 48.5436 3.91962 50.1796 6.00929C50.8117 6.80501 53.9053 10.4341 54.1061 11.2149L45.8515 11.1777C44.2601 8.96161 42.2671 6.70833 40.4823 4.44761C39.1065 2.70002 36.8086 -1.30829 32.9937 0.959862C31.9005 1.60684 30.9486 3.07185 30.086 4.1204L22.0099 14.2044C21.229 13.6467 20.6341 12.6725 20.0392 11.8916C19.3773 11.0215 18.7006 10.2704 18.0834 9.49704C11.4871 1.22758 13.3686 2.00842 8.34889 2.00842C0.332268 2.00842 -1.8169 1.14578 1.52212 5.27307L7.85808 13.2302C9.26359 15.0075 10.7435 16.7031 12.1118 18.5176C12.7662 19.3802 15.6442 23.5075 16.5886 23.4406C17.4289 23.3886 26.8139 11.148 27.4386 10.3597C29.2605 8.06179 30.9635 5.91262 32.7334 3.7337C33.6332 2.61822 35.009 1.38375 36.7343 2.78182C37.1953 3.15365 39.0024 5.46642 39.285 6.01673C38.7124 7.11734 31.0304 16.4279 29.5357 18.3168L22.1437 27.5977C20.5597 29.5163 20.0169 29.6873 20.4779 30.959C21.824 31.3754 22.0545 30.669 22.6643 29.8732L25.7505 26.0211C26.3305 25.3221 26.6875 24.742 27.2973 24.1099C29.729 26.4227 32.7483 32.1042 34.1389 30.9367C35.4701 29.8212 29.3126 24.4892 28.6507 22.4887C29.1936 21.6335 32.2649 17.707 32.8375 17.3872C35.128 19.9231 42.1927 30.074 44.5204 30.9292C46.5803 31.6803 48.4246 30.6838 49.3095 29.6353L54.8646 22.6152C55.6157 21.6856 57.698 19.8116 56.8205 18.8894C56.0099 18.0491 53.0055 18.5102 51.6967 18.5102C49.897 18.5102 48.0602 18.473 46.2605 18.5027C44.9294 18.525 44.8401 18.5845 44.2452 19.3654L40.7798 23.9017C39.7981 23.4778 37.939 20.8155 37.2177 19.8413C36.1988 18.4879 34.8528 17.0898 34.0199 15.7661C34.5925 14.8514 40.0287 7.99486 40.6459 7.63047C41.4788 8.75339 42.3043 9.62347 43.1372 10.6795C44.1337 11.9511 44.2378 13.0145 46.2605 13.0517C48.0602 13.074 55.9578 13.5128 56.8353 12.6725C57.5344 11.9139 56.932 11.4082 56.3445 10.7018L48.7295 1.17552C48.1569 0.402119 48.0304 0.223642 46.8852 0.558287Z" fill="#A1A1A1"/>
</svg>
