<?xml version="1.0" encoding="UTF-8"?>
<!DOCTYPE svg PUBLIC "-//W3C//DTD SVG 1.1//EN" "http://www.w3.org/Graphics/SVG/1.1/DTD/svg11.dtd">
<!-- Creator: CorelDRAW X8 -->
<svg xmlns="http://www.w3.org/2000/svg" xml:space="preserve" width="169.333mm" height="169.333mm" version="1.1" style="shape-rendering:geometricPrecision; text-rendering:geometricPrecision; image-rendering:optimizeQuality; fill-rule:evenodd; clip-rule:evenodd"
viewBox="0 0 16933 16933"
 xmlns:xlink="http://www.w3.org/1999/xlink">
 <defs>
  <style type="text/css">
    #Layer_x0020_1 > .fil0 {fill:#A1A1A1}
  </style>
 </defs>
 <g id="Layer_x0020_1">
  <metadata id="CorelCorpID_0Corel-Layer"/>
  <path class="fil0" d="M9849 12805l0 -612 0 -99 153 0 654 -1 -2 807 -651 -2 -153 0 -1 -93zm-1391 -12762c4658,0 8433,3775 8433,8432 0,4658 -3775,8433 -8433,8433 -4657,0 -8433,-3775 -8433,-8433 0,-4657 3776,-8432 8433,-8432zm0 842c4192,0 7591,3398 7591,7590 0,562 -62,1108 -177,1635l-297 3 -620 0 -619 0 -619 0 -619 0 -619 0 -402 0 -31 0 1 209 0 630 -1 614 1 624 -1 614 1 623 0 150c203,137 338,328 523,500 95,88 359,312 478,444 -985,749 -2160,1264 -3440,1458l-747 -2398 2597 -2 -1 -158 0 -613 0 -623 0 -615 0 -623 0 -615 0 -622 0 -616 0 -622 0 -615 0 -623 0 -615 1 -611 372 88 207 17 0 -117 -1 -627 -5 -226 -190 -41 -578 -124c-229,-32 -462,-89 -693,-133 -122,-22 -544,-92 -638,-155 -147,21 -376,-39 -516,-86l-586 -123 -2 -342 0 -391 4 -538c307,79 396,85 738,70 130,-16 249,-43 378,-26 118,-80 612,-85 727,1 183,-19 233,45 403,52l-1 -405 1 -618 2 -313 -426 -94 -654 11c-149,30 -299,58 -448,42 -92,71 -351,38 -479,16 -278,-48 -223,-70 -269,-304l-16 -18c-214,-56 -369,-80 -554,26 -104,543 44,2188 -33,2821l-675 140 -629 137 -1225 266 -618 130 -196 41 -1 885 186 -29 443 -84 1 657 0 622 0 615 0 623 0 615 0 622 0 616 0 622 0 616 0 622 0 616 0 622 -1 153 2566 3 -742 2399c-1300,-198 -2491,-725 -3486,-1493 145,-146 349,-297 501,-430 129,-113 445,-421 573,-475l-1 -157 0 -623 0 -614 0 -624 0 -613 0 -626 0 -212 -464 0 -619 0 -618 0 -620 0 -618 0 -620 0 -293 -3c-116,-527 -177,-1074 -177,-1635 0,-4192 3398,-7590 7590,-7590zm403 12696l-98 -2 -619 0 -92 2 2 -154 0 -618 1 -612 -2 -104 86 0 625 0 95 1 0 85 0 624 0 623 2 155zm-2602 -776c4,-124 -33,-619 38,-711l769 -2 -2 808 -774 -2c-39,-48 -20,62 -31,-93zm3590 -2473l0 -157 153 0 626 0c66,128 70,679 0,805l-777 -2 -2 -646zm-1795 3l0 -159 95 -1 602 -1 108 1 0 157 0 611c-93,70 -592,34 -716,37l-91 2 2 -647zm-1133 -160l142 0 1 158 0 645 -802 2 -2 -803 661 -2zm2928 -1703l1 -215 152 -1 653 0c2,205 43,654 -22,805l-627 0 -158 0 1 -589zm-1795 6l-1 -223 83 1 616 1 107 -1 0 216 0 590 -106 -1 -605 0 -94 0 0 -583zm-1752 -222l609 0 152 1 1 218 0 586 -142 0 -661 -1c0,-126 -40,-710 41,-804zm3547 -1640l0 -278 154 -1 629 1c68,151 26,599 23,805l-664 0 -142 -2 0 -525zm-1795 1l1 -279 96 0 604 -1 103 1 1 31 0 243 0 531 -89 -1 -636 0 -80 1 0 -526zm-1772 -279l632 0 150 -1 0 276 0 529 -159 1 -648 1c-1,-227 -59,-630 25,-806z"/>
 </g>
</svg>
