<?xml version="1.0" encoding="utf-8"?>
<!-- Generator: Adobe Illustrator 22.1.0, SVG Export Plug-In . SVG Version: 6.00 Build 0)  -->
<svg version="1.1" id="Layer_1" xmlns="http://www.w3.org/2000/svg" xmlns:xlink="http://www.w3.org/1999/xlink" x="0px" y="0px"
	 viewBox="0 0 1080 1080" style="enable-background:new 0 0 1080 1080;" xml:space="preserve">
<style type="text/css">
	.st0{fill:#3B607E;}
</style>
<path class="st0" d="M462.8,1012.1c5.6-13.3,11.5-23.1,4.9-40.2c-6.6-18.2-16.8-18.5-24.5-26.2c31.8-2.4,55.2,3.5,69.2-22
	c5.9-10.8,6.6-25.2,1.4-36.7c-6.6-14.7-17.1-17.5-23.1-24.1c31.8-1.4,58,1.4,69.2-26.2c12.9-32.8-19.6-57.3-30.4-55.9
	c19.9-2.1,163.5-0.7,196-0.7c36.3,0,63.2,4.9,76.9-23.4c10.8-22.4,1.4-54.5-34.9-59.1c-137.3-3.5-279.2,0-416.9,0
	c-31.1,0-71.3,6.3-88.8-16.1c-25.5-32.1,9.4-157.6-21-187c-21.7-20.6-56.6-11.5-67.1,12.6c-8.4,19.2-3.5,363.4-3.5,415.1
	c0,30.4-6.3,73.7,11.9,92.6c17.8,18.9,59.8,12.6,90.5,12.6c34.6,0,69.2,0,103.8,0c21.3,0,57,3.5,72-4.9L462.8,1012.1z"/>
<path class="st0" d="M642.4,112.6c-34.6,2.1-62.2-5.2-75.5,24.5c-12.2,27.3,10.5,58.7,29.7,57.7c-15.4,1.7-34.2-1.4-48.2,2.1
	c-11.5,2.8-22.7,12.6-27.3,22.7c-13.3,31.1,15.4,58.7,29.7,57.7c-19.6,2.4-155.5,0.7-187.3,0.7c-32.5,0-63.9-5.9-80.7,15.4
	c-17.5,21.7-7.7,53.1,14,63.2c20.6,9.4,320.8,3.8,370.1,3.8c9.4-3.8,5.6-17.1,19.6-21.3c7.3-2.1,29.7-1,39.1-1
	c29.7,0,52.4-7,58.7,22.4c24.5,1.7,41.2,14.7,43,39.5c3.1,39.8-6.3,135.9,6.6,156.2c9.4,14.7,32.1,26.2,55.2,14
	c21.3-11.9,21-31.4,21-61.9V102.8c0-79.3-17.1-72.3-91.2-72.3c-54.2,0-108.7-1-162.8,0C593.8,31.2,600.8,105.3,642.4,112.6z"/>
<path class="st0" d="M619,500.2c-5.2,10.1-7.3,19.6-19.9,22.7c-35.3,9.8-48.9-38.1-20.6-51l11.9-3.5c0.3-0.3,1.4,0,1.7-0.7
	c0.3-0.7,1-0.3,1.7-0.7c-19.2-9.4-31.4-18.9-61.2-15c-65.7,8.7-93,87.4-52.1,134.5C548.4,665.1,659.9,576.7,619,500.2z"/>
<path class="st0" d="M523.3,424.7c65.7-12.9,120.2,34.2,130,88.8c12.2,67.8-35.6,120.9-89.8,130c-66,11.2-118.8-35.3-128.6-89.1
	C423,487.6,469.1,435.5,523.3,424.7z M678.8,551.5c10.5-79-47.9-142.9-115.3-152C483.8,389,420.2,444.9,410,513.4
	c-12.2,80.4,45.8,145.4,114.6,154.8C605.7,679.4,669.3,620.7,678.8,551.5z"/>
</svg>
