<?xml version="1.0" encoding="utf-8"?>
<!-- Generator: Adobe Illustrator 22.1.0, SVG Export Plug-In . SVG Version: 6.00 Build 0)  -->
<svg version="1.1" id="Layer_1" xmlns="http://www.w3.org/2000/svg" xmlns:xlink="http://www.w3.org/1999/xlink" x="0px" y="0px"
	 viewBox="0 0 1080 1080" style="enable-background:new 0 0 1080 1080;" xml:space="preserve">
<style type="text/css">
	.st0{fill:#3B607E;}
</style>
<path class="st0" d="M469.3,731.9c-64,0-64.7-36.3-92.1-82.5c-71.3-119.8-71.6-97.4,3-222.5c26.1-43.9,25.1-77.2,89.1-77.2
	c204.6,0,166.7-12.5,223.1,82.5c71.3,119.8,71.3,97.4-3,222.5C636,744.1,673.3,731.9,469.3,731.9z M429.7,309.8
	c-58.4,17.8-80.5,84.8-110.9,137.6c-48.5,84.8-60.1,81.2-5.6,176.2c24.8,43.6,60.4,125.1,101.7,143.2
	c29.4,13.2,194.1,13.9,228.7,4.3c50.5-13.9,79.9-89.8,106.9-137c48.8-84.8,60.4-81.2,5.9-176.2c-24.8-43.6-60.7-125.1-101.7-143.2
	C627.4,302.5,459.1,300.9,429.7,309.8z"/>
<path class="st0" d="M471.3,221c0.7-50.5,11.6-63.4,63.4-63.4c52.1,0,63,12.9,63.7,64.4L471.3,221z M552.2,109.5
	c-12.2,12.2-31,8.3-38.6-5c-13.9-24.4,2.3-30.4,7.9-35.3C550.2,42.8,572.6,89,552.2,109.5z M467,54l3.3,70.6
	c-21.8,22.4-29,19.1-38,52.5c-27.4,105.6,34.3,92.1,152.2,88.5c34.7-1,74.9-2.6,52.5-88.5c-8.6-33.3-15.8-30-38.3-52.5
	c2.3-37-5.6-68.7-9.9-91.4C513.9,10.8,515.9,12.4,467,54z"/>
<path class="st0" d="M168,777.5c-35.6,30.4-63.7,9.6-48.2-21.5C127.7,740.2,169,722.7,168,777.5z M286.8,758
	c-45.5,21.5-66.7,5.3-86.1-31c-19.8-37-11.6-61.1,24.1-78.6C242.3,664.3,282.5,734.9,286.8,758z M338.3,769.2
	c-4.3-34.7-74.3-153.5-97.4-171.6c-26.4,3-43.6,12.2-62,28.1c-35.3,30.4-18.5,46.5-43.9,70c-8.9,8.6-82.5,26.4-57.1,97.4
	c32,88.1,120.1,16.5,120.1,16.5C238,794.6,275.3,840.9,338.3,769.2z"/>
<path class="st0" d="M224.8,433.2c-35.3-17.5-43.6-41.6-24.1-78.6c19.5-36.3,40.6-52.1,86.1-31C282.5,346.8,242.3,417.4,224.8,433.2
	z M168,304.2c-0.3,53.5-39.9,37.6-48.2,21.5C104.3,295,132,273.8,168,304.2z M240.9,484.7c22.4-18.5,93.4-138.6,97.4-172.3
	c-60.1-68.3-88.1-28.4-135.7-38.6c-25.1-5.3-87.1-70.3-122.4,9.2c-9.9,22.4-10.6,44.6,2.3,64.7c19.8,31,37.6,20.1,56.4,42.6
	C150.5,403.9,159.1,474.5,240.9,484.7z"/>
<path class="st0" d="M901.7,777.5c-1.3-54.8,39.9-37.6,47.9-21.5C965.1,787.1,937.3,807.8,901.7,777.5z M782.5,758
	c4.3-23.1,44.9-93.7,62.4-109.6c35.3,17.5,43.6,41.6,23.8,78.6C849.5,763.3,828.1,779.5,782.5,758z M731.4,769.2
	c60.1,68.3,88.1,28.4,135.3,38.6c24.8,5.3,86.8,71,122.4-9.2c33.3-74.3-44.9-90.8-58.7-107.3c-29-34.7-17.8-84.2-101.7-93.7
	C805.7,615.8,735.4,734.6,731.4,769.2z"/>
<path class="st0" d="M782.5,323.7c45.9-21.5,66.7-5.3,86.1,31c19.8,37,11.6,61.1-23.8,78.6C822.5,412.8,791.8,352.7,782.5,323.7z
	 M901.7,304.2c37.3-31.7,63.4-8.9,47.9,21.5C941.3,342.1,902,357.3,901.7,304.2z M731.4,312.4c4,33.7,74.9,153.8,97.4,172.3
	c80.2-9.9,89.1-79.5,101.7-94.4c12.5-15.2,87.5-29,61.1-101.7c-8.6-23.4-19.8-38.6-49.5-42.2c-44.2-5.3-49.2,18.2-70.3,25.7
	C829.4,287.7,793.8,241.2,731.4,312.4z"/>
<path class="st0" d="M519.2,974.2c29.4-29,55.1,17.8,31.7,40.3C529.1,1035.3,491.1,1001.9,519.2,974.2z M534.7,924
	c-51.8,0-62.7-12.9-63.4-64.4l127.1,1C597.7,911.2,586.8,924,534.7,924z M471,957c-4,61.4,0,105.6,63.7,105.6s68-44.2,64-105.6
	c28.1-28.1,37.3-27.7,41.9-73.9c8.3-81.2-9.2-66.3-163-66.3c-51.2,0-54.1,14.2-48.8,66.3C433.7,929.3,442.9,929,471,957z"/>
<path class="st0" d="M518.5,524.7c28.1-28.1,55.8,12.5,34.3,34.3C531.4,580.4,490.5,552.7,518.5,524.7z M505,484.1
	c-35,18.2-51.5,46.5-29.4,90.8c13.2,26.1,52.8,45.2,93.4,25.1C636,566.3,594.7,437.5,505,484.1z"/>
<path class="st0" d="M447.9,684.7c83.5,18.5,58.1-42.2,10.2-52.5C413.9,622.7,433.7,665.3,447.9,684.7z"/>
<path class="st0" d="M495.7,399.9c-78.2-36.6-92.1,97.4-10.2,34.3C506.3,418.1,507,427,495.7,399.9z"/>
<path class="st0" d="M573.6,399.9c-5.9,14.9-21.5,15.8,20.8,40.9c3.3,2,8.3,7.3,16.5,9.2C661.4,461,640.3,368.9,573.6,399.9z"/>
<path class="st0" d="M573.6,681.8c64,29.7,85.2-51.5,43.9-50.8c-6.9,0.3-26.4,11.6-33.7,16.5C562.7,663.3,563.1,655,573.6,681.8z"/>
<path class="st0" d="M673.6,580.1c19.5-12.5,17.5-9.6,28.4-39.3c-10.9-29.4-9.9-32.3-36.6-38C647.2,522.4,641.6,565.9,673.6,580.1z"
	/>
<path class="st0" d="M367.3,540.8c10.9,29.7,8.9,26.7,28.7,39.3c32-14.2,26.1-57.8,8.3-77.2C377.2,508.5,378.2,511.5,367.3,540.8z"
	/>
</svg>
