<?xml version="1.0" encoding="utf-8"?>
<!-- Generator: Adobe Illustrator 22.1.0, SVG Export Plug-In . SVG Version: 6.00 Build 0)  -->
<svg version="1.1" id="Layer_1" xmlns="http://www.w3.org/2000/svg" xmlns:xlink="http://www.w3.org/1999/xlink" x="0px" y="0px"
	 viewBox="0 0 1080 1080" style="enable-background:new 0 0 1080 1080;" xml:space="preserve">
<style type="text/css">
	.st0{fill:#3B607E;}
</style>
<path class="st0" d="M719.8,186.2l75.7,43c102,65.1,177.4,178.7,198.2,297.7c25,142.1-16,281.3-115.5,385.9
	c-85,89.8-204,143.7-327.5,148.5c-73.8,2.9-147.6-10.9-214.9-41.1c-65.1-28.9-123.2-72.2-169-126.7
	c-78.9-93.3-115.2-212-102.6-333.6c15.7-152.4,118.4-300.2,259.2-362.8c25.7-11.2,16.4-2.2,22.8-29.8c5.1-21.8,51.6-48.1,71.2-57.4
	c3.5-1.6,11.5-5.1,13.2-9c1-2.2,1.3-5.8,1.9-8c1.3-5.8,3.2-11.2,6.1-16.7C454.9,44.7,479.9,29,514.2,22
	C564.9,11.7,618.5,45,631,95.1c0.6,1.6,1.9,8.3,2.6,9.3c1,1,6.7,3.2,8,3.8c6.7,3.2,13.5,6.4,19.9,10.3c15.1,8.7,37.5,21.8,48.8,35.3
	c6.4,8,8,13.8,8.3,23.4C718.5,180.7,718.5,183.3,719.8,186.2z M513.6,53.1c-94.6,23.7-56.5,158.8,35.6,136.3
	C641.6,166.6,607.2,29.3,513.6,53.1z M950.5,731.8C986.4,631.1,970.7,505,921.9,412C886.6,344,800,252.3,725,223.7l9.3,101
	c0,1,0.3,1.9,0.3,2.6c1.6,0.6,3.5,1,5.1,1.6c6.7,2.2,10.3,3.2,16.7,7.1c23.4,14.1,28.5,38.8,23.7,64.2c-2.2,12.2-5.8,25.7-16,33.7
	c-6.7,5.1-16.7,8.7-24.7,12.5c-6.4,19.6-10.3,39.8-18,59c-6.1,15.7-13.2,31.1-21.5,45.6c-3.2,5.5-8.3,12.8-9.9,18.9
	c-3.5,10.6,3.5,38.5,5.8,49.4s4.8,21.2,8.3,31.4c1.6,5.1,3.8,11.9,7.1,17.3c0.3-0.6,0.6-1.6,1-2.6c4.2-9,0.3-6.7,9.3-13.2l0.6-0.6
	l1-0.3c8-2.9,36.9,8,44.9,10.9c26,9,51.6,19.2,77,29.2c22.8,8.7,45.6,17.6,68.3,26.6C925.1,722.5,938.3,728,950.5,731.8z
	 M364.4,267.3c4.5-1.9,9-4.5,12.5-6.4c11.5-6.1,23.1-11.5,35.3-16.4c40.1-16,83.1-21.8,126.4-21.5c38.8,0,76.7,5.1,112.9,19.9
	c10.9,4.5,21.5,9.9,32.1,15.4c4.8,2.6,9.9,5.1,14.8,7.4c-1.9-28.2-4.2-60.3-10.3-86.9c-3.2-12.8-37.5-32.4-54.5-40.7
	c-1,2.2-1.3,4.8-1.9,6.7c-1.9,6.7-3.5,13.5-6.7,19.9c-5.5,11.2-12.5,19.2-21.2,27.9c-18.6,18.6-43.9,28.5-69.9,29.2
	c-52.3,1-95-33.7-104.3-84c-17.3,8-51.3,28.9-54.2,39.8c-3.8,16-5.8,34.3-7.4,50.7C366.6,241.4,365.4,254.5,364.4,267.3z
	 M324.3,448.6c-31.1-5.8-43-31.4-43-62.2c0-33.7,18.6-46.8,46.8-56.1l9.6-106.5c-35.6,14.1-84.4,51.6-110,75.4
	c-114.8,107.1-169,282-115.8,432.7c12.8-3.8,26-9.3,38.5-13.8c22.1-8.3,44.6-17,66.7-25.3c18.3-7.1,104.6-41.7,120.6-40.7l3.5,0.3
	l9.3,15.4c10.9-18.9,17.6-61.3,20.2-77.9c1.9-13.2,3.8-18.3-3.2-29.8C346.4,524.9,334.6,487.7,324.3,448.6z M358.3,347.2
	c39.5,18.9,73.1,28.9,117.1,30.5c2.2-15.1,7.7-26.3,19.6-37.2c12.2-11.5,31.4-19.2,48.1-14.1l3.5,1l1,3.8
	c5.5,26-12.8,20.2-26.9,27.9c-8,4.5-13.2,11.5-14.1,20.2c55.8,1,154-0.6,197.6-32.4c1-9.9-0.6-19.9-1.3-29.5
	c-0.6-11.2,0.3-13.2-8.7-19.2c-91.4-60.3-231.9-59.7-323.3,0.3c-2.9,1.9-5.8,4.5-7.7,7.7C358,314.8,358.3,335,358.3,347.2z
	 M641.9,311.3c9,30.8-21.5,40.1-34,23.4c-4.5-6.1-6.4-14.1-2.6-21.2c6.4-12.2,22.5-11.5,33.4-6.1l2.6,1L641.9,311.3z M451.3,339.8
	c-32.1,9-41.4-22.1-22.8-34c20.2-13.2,37.5,8.3,26.6,30.5l-1,2.9L451.3,339.8z M323.7,416.5l2.6-53.2
	C306,373.2,308.9,407.5,323.7,416.5z M737.5,360.4l1.9,53.2C752.9,405.6,758,370.6,737.5,360.4z M707,380.3l-24.7,10.3
	c1.3,17.3,2.6,34.6,2.2,52c-0.3,23.1-4.5,45.9-9.3,68.3c-3.5,16-8.7,31.1-13.8,46.5c13.5-21.2,27.3-52,32.1-65.1
	C711.2,445.4,709.6,425.8,707,380.3z M652.1,399.2c-19.2,2.2-38.2,6.7-57.4,8.3c-23.7,1.9-47.2,1.6-70.9,1.9
	c-23.4,0-46.5-0.6-69.9-3.2c-18-1.9-36.2-7.7-53.9-9.9c-2.2,52.9,6.4,104.3,24.4,154c5.1,14.1,18,51.3,29.5,59.7
	c38.2,26.9,104.3,27.6,144.7,6.1c15.7-8.3,25.7-42.7,31.8-58.7C649.3,506,654.7,453.4,652.1,399.2z M386.2,530.7
	c-4.2-14.4-8-29.2-10.9-44.3c-6.1-34.3-6.7-65.8-5.8-100.1l-13.5-5.8c-2.6,39.5-4.2,61.3,9.9,102.3
	C370.5,495.7,377.9,514,386.2,530.7z M310.2,690.5c12.2,32.7,54.2,73.1,81.5,90.5c80.2,51.3,200.5,51.6,280-1.6
	c27.9-18.6,68-56.5,80.2-89.8c-4.2-2.6-9.3-4.2-14.4-5.1c-4.5,7.4-7.7,15.1-12.8,22.5c-11.2,16.7-23.7,32.4-39.5,45.2
	c-81.2,64.8-194.7,71.9-283.6,18c-8.7-5.5-16-11.9-24.1-18c-14.8-11.5-29.5-29.8-39.8-45.6c-4.5-6.4-8.3-14.1-12.5-20.9L310.2,690.5
	z M399.7,602.9c-8,36.2-10.3,58.7-31.1,93.3l12.2,16c57.1,68,175.8,81.5,251.5,39.1c18-9.9,51.3-34.6,61.6-54.5
	c-20.5-34.6-24.4-49.7-31.8-90.1l-0.6-1.9c-39.1,38.2-72.8,57.7-132.8,56.8C469.3,660.9,438.2,640.4,399.7,602.9z M122.5,761
	c8,30.5,42,80.8,60,103.3c50.7,63.8,117.1,112,193.7,139.9c72.8,26.3,151.7,33.7,228.4,21.2c108.7-17.3,207.2-73.5,275.2-160.7
	c18-23.1,51.3-73.8,60.3-104.6l-159.4-59c-4.8,7.7-9,15.7-13.5,23.4c-7.1,12.2-14.8,23.1-24.4,33.4c-17.3,18-33.4,33.7-54.5,47.2
	c-112.9,71.2-281.3,57.7-369.5-47.2c-8-9.6-16-19.6-22.8-30.5c-3.8-6.1-7.1-12.5-10.6-18.6c-1.3-2.6-2.6-4.8-3.8-7.1L122.5,761z"/>
</svg>
