<?xml version="1.0" encoding="utf-8"?>
<!-- Generator: Adobe Illustrator 22.1.0, SVG Export Plug-In . SVG Version: 6.00 Build 0)  -->
<svg version="1.1" id="Layer_1" xmlns="http://www.w3.org/2000/svg" xmlns:xlink="http://www.w3.org/1999/xlink" x="0px" y="0px"
	 viewBox="0 0 1080 1080" style="enable-background:new 0 0 1080 1080;" xml:space="preserve">
<style type="text/css">
	.st0{fill:#3B607E;}
</style>
<path class="st0" d="M514.8,723.2c79.3-19.4,172.4-144.7,145.5-191.1l-8.6,19.1c-13.5,34.8-44.9,95.7-90.9,81.9
	c4.9-30.3,31.8-33.7,38.1-61C571.6,576.6,453.5,648.1,514.8,723.2z M20,538.1c0,79.7,53.1,142.9,119.7,158.6
	c25.8,15,269.6,7.5,325.4,6.7c-5.2-13.1-46.7-47.9-59.1-61.7c-19.8-22.4-40.8-42.3-54.6-69.2c-58.3-114.1,43-166.4,44.9-168.7
	c61-15.7,99.1-17.2,133.5,26.9c44.9-14.6,43.8-46.4,107.7-36.6c42.6,6.7,81.2,36.6,93.9,78.9c9.7,31.8,4.5,62.1-8.2,89.8
	c-50.9,111.1-175,177.6-267.8,249.8c-22.4,17.6-80.8,61.3-80.4,97.2c1.1,77,103.2,177.6,193.7,146.2
	c183.6-30.7,122.7-224.4,140.2-349.7c43-1.1,194.5,5.2,221-6.7c74.4-16.1,132.4-79.3,129.8-167.2c-2.6-88.6-61.7-134.6-132-158.6
	l-219.1-2.6c-4.5-52.4-0.4-126.8-1.5-183.6C704,60.9,576.1-22.5,461.7,37.4c-39.6,20.6-58.7,49.4-79.3,92
	c-16.1,76.3-5.2,160.4-9.3,240.5c-39.6,5.6-135.8,0.4-187.4,1.9C96.3,393.8,20.4,420.3,20,538.1z"/>
</svg>
