<?xml version="1.0" encoding="utf-8"?>
<!-- Generator: Adobe Illustrator 22.1.0, SVG Export Plug-In . SVG Version: 6.00 Build 0)  -->
<svg version="1.1" id="Layer_1" xmlns="http://www.w3.org/2000/svg" xmlns:xlink="http://www.w3.org/1999/xlink" x="0px" y="0px"
	 viewBox="0 0 1080 1080" style="enable-background:new 0 0 1080 1080;" xml:space="preserve">
<style type="text/css">
	.st0{fill:#3B607E;}
</style>
<path class="st0" d="M301.8,200.6h447.9l-0.4,717.9H301.4L301.8,200.6z M390.1,80.9h271.5v76.3H389.4L390.1,80.9z M262.5,161
	c-10.6,81.2-9.1,702.8-1.1,796.8c80.1,9.8,441.1,8.3,527.9,0.8c9.4-83.5,8.7-708.4,0-796.8l-84.2-4.5v-43.4h131.8v892H214.2v-892
	H346v43.4L262.5,161z M170.7,140.2l0.4,904.4c50.2,9.8,658.6,9.8,705,0c14.3-77.8,3.8-689.2,4.2-865.2c0-19.6,1.5-44.6,0.8-63.8
	c-1.5-33.6,2.3-31-19.3-44.6c-108-0.8-138.2,12.5-160.9-19.3c-28.7-39.7,9.4,9.4-8.3-14.3L358.4,39c-9.8,12.5-3.4,6.4-11.3,17.4
	c-7.2,9.4-3.8,6-11.3,12.8l-162,5.3L170.7,140.2z"/>
<rect x="355.8" y="279.2" class="st0" width="331.2" height="52.5"/>
<rect x="355.8" y="361.9" class="st0" width="331.2" height="52.5"/>
<rect x="355.8" y="444.2" class="st0" width="331.2" height="52.5"/>
<rect x="355.8" y="526.5" class="st0" width="331.2" height="52.5"/>
<rect x="355.8" y="609.2" class="st0" width="331.2" height="52.5"/>
<rect x="355.8" y="691.6" class="st0" width="331.2" height="52.5"/>
<rect x="355.8" y="774.3" class="st0" width="331.2" height="52.5"/>
</svg>
