<?xml version="1.0" encoding="utf-8"?>
<!-- Generator: Adobe Illustrator 22.1.0, SVG Export Plug-In . SVG Version: 6.00 Build 0)  -->
<svg version="1.1" id="Layer_1" xmlns="http://www.w3.org/2000/svg" xmlns:xlink="http://www.w3.org/1999/xlink" x="0px" y="0px"
	 viewBox="0 0 1080 1080" style="enable-background:new 0 0 1080 1080;" xml:space="preserve">
<style type="text/css">
	.st0{fill:#3B607E;}
</style>
<path class="st0" d="M90,472.7h895.9l-1.3,480.2H92.3L90,472.7z M748.9,361.2h235.6l3,66.9H745.2L748.9,361.2z M380.5,361.2
	c113.5,0,81.3,0,87.3-109.8h142.9c5.7,109.8-26.1,109.8,89,109.8l8.4,66.9H376.4L380.5,361.2z M93.6,361.2h237.6l0.7,66.9H91.6
	L93.6,361.2z M1023,319.4l-363.8-4c-14.1-87.7,11-89.4,52.2-130.5c16.1-16.1,91.4-76.3,70.6-98.1c-9-10-6.4-33.5-57.2,19.4
	c-97.4,100.7-77,101.4-178,100.7c-111.1-0.3-83.3,9.7-143.6-50.5c-25.8-25.4-64.6-82.3-109.8-80.7c-0.3,33.5-9.4,25.8,19.4,55.6
	c85,87.7,121.8,86.7,106.4,184.1c-45.8,3-319.3-4-347.1,4.4c-17.1,5.4-7,0.7-17.1,9.7c-12.7,15.4-15.4,636.5,2,655.6
	c15.1,15.4-6.4,4.4,21.8,11.4c7,2,22.1,2,29.8,2l890.6-2c28.1-6.4,7.4,3.3,22.1-11.4C1039.4,963,1037.1,371.3,1023,319.4z"/>
<path class="st0" d="M189.4,860.9c0-58.9,3-83,63.9-83c50.2,0,106.4-5,149.3,9.7c10.7,22.4,12.4,39.2,12.4,73L189.4,860.9z
	 M327.2,730.1c-60.2,9.4-63.6-15.4-47.5-72.6l44.8,1.3c3.3,10.7,7.4,21.8,6.4,37.5L327.2,730.1z M189.4,566.4l225.6,1v175l-41.5-7.7
	c2.3-56.2,10-137.2-86.7-122.5c-58.6,8.7-59.6,59.2-55.9,120.8l-41.5,7V566.4z M154.2,897.4c27.4,14.7,262.4,13.7,295.8,2
	c24.1-42.2,9.4-193.1,9.4-257c0.3-153.9,8.7-121.1-150.6-121.1c-35.5,0-98.7-3.7-130.5-0.3c-49.2,5.4-33.8,59.6-33.8,106.4
	C144.9,689.6,128.1,854.5,154.2,897.4z"/>
<path class="st0" d="M532.1,645.4c37.5,21.1,307.6,10,368.1,10h-7.7c27.1,0,28.1-0.7,44.5-11.7l-1-22.1
	c-37.5-21.8-298.9-11-358.4-11C542.8,610.6,533.4,610.9,532.1,645.4z"/>
<path class="st0" d="M533.4,734.7c38.8,21.8,297.5,10,359.1,10c24.8,0,28.4-1.7,43.2-11.4c1-43.2-28.1-34.1-73.6-33.8l-246.3,0.3
	C565.2,699.3,532.4,687.2,533.4,734.7z"/>
<path class="st0" d="M531.4,542.6c17.1,36.5,75.3,23.4,122.8,23.4c43.2,0,103.1,4.4,137.9-7c2.3-50.9-7.7-37.8-122.5-37.8
	C631.1,521.2,547.1,504.8,531.4,542.6z"/>
<path class="st0" d="M712.1,834.5c0,67.3-6.4,67.9,35.1,67.6c13.7-25.4,15.4-85-1-111.4C709.4,788.6,712.1,798,712.1,834.5z"/>
<path class="st0" d="M621.1,834.5c0,37.8-4,42.2,9.4,67.6l25.8-1c13.7-27.8,9.4-24.8,9.4-66.6c0-39.8,3-43.8-33.8-43.8
	C620.1,809.7,621.1,805.4,621.1,834.5z"/>
<path class="st0" d="M529.7,834.5c0,28.4-2,44.5,9.7,67.3l25.4,1.7c13.1-25.4,9.7-33.8,9.7-68.9c0-36.1,2.7-45.2-34.1-43.5
	C532.4,804.3,529.7,812,529.7,834.5z"/>
<path class="st0" d="M803.5,834.5c0,35.1-3.3,43.2,9.7,68.6l25.4-0.7c13.4-27.4,14.4-85-1.3-111.4
	C801.8,789.6,803.5,799.7,803.5,834.5z"/>
<path class="st0" d="M905.6,790.6c-3,6.7-5.4,5-8.4,16.7l-2.7,50.2c0,36.8-1.3,45.2,35.1,43.8c13.7-27.1,14.4-83.7-1-110.1
	L905.6,790.6z"/>
</svg>
