<?xml version="1.0" encoding="utf-8"?>
<!-- Generator: Adobe Illustrator 22.1.0, SVG Export Plug-In . SVG Version: 6.00 Build 0)  -->
<svg version="1.1" id="Layer_1" xmlns="http://www.w3.org/2000/svg" xmlns:xlink="http://www.w3.org/1999/xlink" x="0px" y="0px"
	 viewBox="0 0 1080 1080" style="enable-background:new 0 0 1080 1080;" xml:space="preserve">
<style type="text/css">
	.st0{fill:#3B607E;}
</style>
<path class="st0" d="M458.2,456.4c4.4-35.5,0-128.9,35.9-128.9c134.1,0,103-13.6,121.7,137.7l55.5,468.9
	c-44.7,26.3-90.2,74.2-134.9,96.2c-44.7-21.9-90.2-69.8-134.9-96.2L458.2,456.4z M647.8,347.1c-10.8-49.1,0.8-81,13.6-125.3
	c19.2,18.8,41.9,65.1,50.3,91.8L647.8,347.1z M362,313.2c8.8-29.1,28.7-71.4,49.5-91.4c12,41.1,26.3,79.4,12,123.7L362,313.2z
	 M446.7,130.8l179.6,2.4c10.4,39.9-15.6,106.6-23.5,150.5L470.2,282C462.2,239.7,436.7,173.1,446.7,130.8z M688.1,163.5
	C716.8,140,945.9,70.1,981,57.8c20,90.6-40.3,117.3-81.4,156.8c-34.7,33.1-91.8,95.4-127.7,116.9L688.1,163.5z M173.7,214.6
	c-41.5-39.5-101.8-66.2-81.4-156.8l221.5,75.4c32.3,11.2,50.3,13.6,73,31.5l-85.4,166.8C265.1,310,208,247.7,173.7,214.6z
	 M358.5,947.7c20,23.1,148.1,123.7,178,133.7c29.9-10,158.4-110.5,181.2-134.1L654.2,393l76.2-37.1c23.9,23.9,6.4,18.8,33.9,35.9
	c47.5-13.2,126.5-114.1,167.6-152.9c80.6-76.2,110.1-65.1,94.6-229.9L991,0.7C957.1,32.2,787.5,78.1,712,104
	c-42.3,14.4-26.7,13.2-55.1-0.8c-51.1-24.7-73-16.4-137.3-16.8c-200.7-0.8-13.2,63.5-240.3-11.2C101.8,16.6,52.8-30,44,45.4
	c-13.2,115.3,16.4,116.9,97.4,193.2c40.7,38.7,119.7,140.1,167.6,153.2c26.3-16.8,10.4-12.4,34.3-38.3l77.4,36.7L404,545.4
	c-1.6,8-2.4,13.6-4.4,21.6C394.4,579.8,357.7,929.8,358.5,947.7z"/>
<path class="st0" d="M100.6,928.6c-8.8-40.3-10-106.6,0.8-147.7l148.1,2.4l-3.2,147.3L100.6,928.6z M102.6,741
	c-11.6-29.5-8.8-30.7-3.6-65.1l151.3,4l-5.6,62.3L102.6,741z M61.1,641.2c-8.4,43.5-8.8,283.4,0.4,329.2l227.9-4l-3.6-328.8
	L61.1,641.2z"/>
<path class="st0" d="M827.4,781.3l144.1,1.6c10.8,39.1,9.6,105.4,0.8,147.7L823,927.8L827.4,781.3z M825,676.3l149.3,2.4
	c4.8,31.5,7.6,32.7-4,63.5l-145.7-1.6L825,676.3z M787.5,970.1l223.9-3.2c9.2-42.3,8.8-282.2,0.4-329.6l-228.7,4L787.5,970.1z"/>
<path class="st0" d="M104.2,789.3h138.1v133.3H103.8L104.2,789.3z M100.6,928.6l145.7,2l3.2-147.3l-148.1-2.4
	C90.7,822,91.9,888.3,100.6,928.6z"/>
<path class="st0" d="M831,789.3h138.1v133.3H831V789.3z M823,927.8l149.3,2.8c8.8-42.3,10-108.6-0.8-147.7l-144.1-1.6L823,927.8z"/>
<path class="st0" d="M830.6,683.5h138.9v50.3H830.2L830.6,683.5z M824.6,740.6l145.7,1.6c11.6-30.7,8.8-31.9,4-63.5L825,676.3
	L824.6,740.6z"/>
<path class="st0" d="M103.4,683.5h139.3v50.3H103.8L103.4,683.5z M102.6,741l142.1,1.2l5.6-62.3l-151.3-4
	C93.9,710.3,91.1,711.5,102.6,741z"/>
</svg>
