<?xml version="1.0" encoding="utf-8"?>
<!-- Generator: Adobe Illustrator 22.1.0, SVG Export Plug-In . SVG Version: 6.00 Build 0)  -->
<svg version="1.1" id="Layer_1" xmlns="http://www.w3.org/2000/svg" xmlns:xlink="http://www.w3.org/1999/xlink" x="0px" y="0px"
	 viewBox="0 0 1080 1080" style="enable-background:new 0 0 1080 1080;" xml:space="preserve">
<style type="text/css">
	.st0{fill:#3B607E;}
</style>
<path class="st0" d="M110.4,733.1c79.9-27.5-3.7,181,217.1,181h49.8c219.7,0,137.2-204.1,217.8-181.8c20.8,48-21.2,132-49.1,163.9
	c-62.4,72.1-129.4,63.9-226.7,63.9C117.4,960.2,93.7,770.3,110.4,733.1z M147.9,682.9c-129.7-7.4-94.8,134.2-49.8,208.2
	c44.6,74.3,110.8,114.1,229.4,114.9c27.1,4.8,23.8,42,70.6,55.4c27.9,8.2,80.3,4.8,111.1,4.8c57.6,0,175.8,13.4,218.9-12.3
	c87-51.7,10.8-326,50.9-418.2c66.9-11.9,59.8,21.9,59.5,83.3c-0.7,85.5-17.5,227.5,40.9,257.6c33.5,17.5,105.9,17.8,130.1-3.3
	c-4.8-50.2-65.4-27.1-116-36.8c-49.1-134.2,55.8-308.2-78.8-350.9c-110.4,9.3-92.6,81.4-92.6,183.3c0,64.7,19.7,200-13.8,240.9
	c-33.5,21.2-254.6,14.5-308.5,7.1c33.5-26.4,59.5-0.4,139.8-52.4c32.3-21.2,62.1-52.4,81-100.4c81.8-206.3-55-200.7-91.4-157.6
	c-71.4,85.1,27.9,172.1-210.4,162.1c-63.9-2.6-93.7-20.8-111.1-70.6C181.4,724.5,210.7,737.6,147.9,682.9z"/>
<path class="st0" d="M266.9,616.7h173.6c-10.4,72.1-11.5,57.6-88.1,57.6C280.3,674.4,276.2,687,266.9,616.7z M330.8,459.1l44.6-3
	l1.5,114.5l-46.5-1.5L330.8,459.1z M276.9,286.3c78.8,14.5,73.6,16.4,151.3-0.7l-45,125.3l-58.7-1.1L276.9,286.3z M285.1,569.5
	c-46.1-0.7-24.5-19.3-46.5-66.9c-34.2-74-94-113.7-98.9-221.2c-5.9-126,90.7-225.3,212.6-225.6C492.9,55.5,659,204.1,504.8,442
	c-77.7,120.4-31.6,133.1-82.5,124.9c0-79.5-7.1-112.6,19-179.9c30.5-77.7,98.1-182.1-23.4-147.9c-22.7,6.3-38.7,13.4-65.4,13.4
	c-50.9-0.4-79.2-31.2-126.8-15.2c-18.2,38.7,24.9,110.8,41.6,154.3C292.9,457.3,285.1,494.5,285.1,569.5z M230.1,669.9
	c26.4,56.5,50.9,49.8,122.3,49.8c70.3,0,109.3,7.8,126.4-56.5c13.4-51.3,8.5-101.5,33.5-147.2c22.3-41.3,49.1-65.8,69.9-111.9
	C674.7,200.8,541.9-3.3,330.4,11.6C192.5,27.9,83.6,136.5,94.4,290.4c5.6,81.4,39.8,130.8,74.3,182.9
	C218.6,548.4,211.5,569.9,230.1,669.9z"/>
<path class="st0" d="M273.9,770.3c-14.1,52,19.3,40.9,111.5,40.9c40.5,0,55.8-0.4,44.2-36.8C364.3,759.1,343.4,763.2,273.9,770.3z"
	/>
<path class="st0" d="M242.3,166.2c33.1,24.9,41.6-3,79.9-13.4c111.9-30.9,42-70.3-37.2-37.5C256.8,127.2,235.7,136.5,242.3,166.2z"
	/>
</svg>
