<?xml version="1.0" encoding="utf-8"?>
<!-- Generator: Adobe Illustrator 22.1.0, SVG Export Plug-In . SVG Version: 6.00 Build 0)  -->
<svg version="1.1" id="Layer_1" xmlns="http://www.w3.org/2000/svg" xmlns:xlink="http://www.w3.org/1999/xlink" x="0px" y="0px"
	 viewBox="0 0 1080 1080" style="enable-background:new 0 0 1080 1080;" xml:space="preserve">
<style type="text/css">
	.st0{fill:#3B607E;}
</style>
<g>
	<path class="st0" d="M55.9,940.5h592.8l-2.8,69.4h-590V940.5z M359.2,782.9c27,53.6,59.7,68.1,81.9,111.7l-180.3-0.8
		C286.2,863.9,320,802.2,359.2,782.9z M200.7,894.2l-109.3,0.4c6.9-104,177.8-290.3,206.9-304.9c36.7,39.1,28.6,55.6,28.6,122.2
		C326.9,769.5,239.8,820.8,200.7,894.2z M405.5,589.3c71.4,56.9,199.2,216.1,204.9,303.6l-109.3,1.6
		C413.2,753,371.7,788.1,372.5,678.8C372.9,629.6,374.1,614.3,405.5,589.3z M669.7,205h256.9v596.4H633.8
		c-92.3-146.8-64.5-100.4-65.3-312.1c-0.4-104.4-4.8-83.9,39.5-152C660.8,256.2,643.8,227.2,669.7,205z M438.2,547.4
		c10.5-20.6,66.9-79.8,83.5-91.5l0.8,182.7C505.1,626.8,449.1,567.1,438.2,547.4z M349.5,577.6c-20.2-29.4-50.4-62.9-73-91.1
		c-29.8-38.3-54.8-52.4-81.9-99.6c102.8,4.8,97.2-39.9,153.2-42.7c58.9-2.4,55.2,48.4,159.7,42.3c-1.2,2.4-3.2,3.2-3.6,6.9
		L349.5,577.6z M91.4,199.8h519.4c-1.6,31.9-10.5,60.1-24.6,82.3c-15.3,24.6,0.4,8.5-25.8,24.2c-10.9,6.5-26.2,14.5-37.1,20.6
		c-82.3,46.4-90.3-27.4-166.9-29.4c-110.9-2.8-59.7,86.7-202,14.5C117.2,293.3,96.6,276.4,91.4,199.8z M935.4,112.2h80.7l3.2,781.9
		l-362.9-0.8l-2-45.6c63.3,0,274.6,13.7,313.3-12.1c5.6-6.9,12.9-640.8,0.4-661.7C949.1,142.5,927.3,175.6,935.4,112.2z M692.2,84.4
		h194.4l-0.4,74.6H693.4L692.2,84.4z M56.3,84.4h589.6l0.4,69.4h-590V84.4z M15.2,41.7c-9.3,63.3-6.5,82.7-4.4,144.8
		c35.5,31.1,19.8-10.5,35.9,36.3c22.6,65.3,7.7,65.3,75.4,154.4L264,547.4c-22.2,36.7-149.6,152.8-198.8,262.1
		c-11.7,25.8-9.7,32.7-16.5,55.2c-16.9,58.5,0.8,9.3-37.9,43.1l3.2,144c83.9,10.1,588.3,9.3,673,0l5.6-111.7H1016
		c44,0,49.2-0.8,49.2-46.8l0.4-775c0-66.1-22.6-52.8-83.1-52c-90.3,1.2-20.6-27.8-98.4-27.8C701.1,38.5,152.7,30,15.2,41.7z"/>
	<path class="st0" d="M828.5,699c6-49.2-14.1-42.3-110.1-41.5C635.4,658.3,619.7,726.8,828.5,699z"/>
	<path class="st0" d="M710.8,334H785c64.1,0,66.1-46.4,0-46.4h-74.2C646.7,287.7,645.1,334,710.8,334z"/>
	<path class="st0" d="M784.2,507.8l-0.8-25C687.8,432.8,694.3,561.9,784.2,507.8z"/>
	<path class="st0" d="M716.4,417.5c46.8,25,84.7-5.2,62.5-28.6C768,377.2,697.9,366.3,716.4,417.5z"/>
	<path class="st0" d="M714.4,601.4c43.6,24.6,52.4,4,68.6-1.6l-2.4-22.6c-7.7-6-13.3-13.7-36.3-12.1c-21,1.2-18.1,2.4-32.3,15.3
		L714.4,601.4z"/>
	<path class="st0" d="M816,478c-4,26.2-6.9,39.9,27.4,41.5c29.8,1.2,41.9-10.5,32.3-37.9C858.4,471.1,834.6,469.1,816,478z"/>
	<path class="st0" d="M821.3,395.7c-50.8,59.3,118.6,18.5,44.4-12.1C821.7,365.1,821.3,395.7,821.3,395.7z"/>
	<path class="st0" d="M617.2,475.2c-4,28.2-8.5,38.7,21.4,44c36.7,6.5,40.7-10.9,41.9-41.5L617.2,475.2z"/>
	<path class="st0" d="M813.2,588.5c14.1,32.7,52,37.5,67.3,0C866.8,556.6,830.6,550.2,813.2,588.5z"/>
	<path class="st0" d="M680.1,596.6c-6.9-46.4-58.1-47.2-65.7-0.4C637.8,619.5,655.5,618.7,680.1,596.6z"/>
	<path class="st0" d="M616.4,396.5c-6.5,37.5,32.7,37.5,61.7,18.5l2-24.6C644.7,370.7,640.6,378,616.4,396.5z"/>
</g>
</svg>
