<?xml version="1.0" encoding="utf-8"?>
<!-- Generator: Adobe Illustrator 22.1.0, SVG Export Plug-In . SVG Version: 6.00 Build 0)  -->
<svg version="1.1" id="Layer_1" xmlns="http://www.w3.org/2000/svg" xmlns:xlink="http://www.w3.org/1999/xlink" x="0px" y="0px"
	 viewBox="0 0 1080 1080" style="enable-background:new 0 0 1080 1080;" xml:space="preserve">
<style type="text/css">
	.st0{fill:#3B607E;}
</style>
<path class="st0" d="M389.8,841.6c-68.9-80.2-165.6-183.7-218.3-294.4c-30.9-64-98.6-256.3-30.9-325.6c41-41.8,123.8,32,239.4-166.4
	l324.5,0.4c116.7,196.5,184.1,120.5,234.9,161.5C1041,353.7,898,586,833.6,674.5c-80.6,111-125.7,144.2-183.3,213.1l-108,117.4
	L389.8,841.6z M118,172.7c-68.1,73-53.1,228.9-15.8,327.9c38.4,103.1,97.9,176.5,153.6,251.8c54.6,73.4,137.8,152.1,190.1,214.9
	c108.8,130.2,88.1,122.3,146.8,53.1c132.1-154.7,317.3-325.2,390-519.8c42.2-112.9,42.5-292.1-15.4-327.1
	c-27.9-16.6-87,1.9-152.5-46.3c-47.4-34.6-48.9-66.6-82.1-116.3l-380.2,2.3c-33.5,47.4-35.4,79.4-82.4,114.1
	C204.6,175.3,180.9,152.4,118,172.7z"/>
<path class="st0" d="M205.7,299.9c44.8-24.8,90-26.7,141.2-62.9c73-51.9,62.5-92.6,104.6-92.6c249.2,0,179.9-13.9,239,48.9
	c82.8,87.7,120.1,68.5,188.2,106.5c12.8,133.3-63.6,252.2-122.3,330.1L542.3,871L328.5,630C269.7,552.1,193.3,433.2,205.7,299.9z
	 M172.6,261.1c-49.7,146.4,54.6,303.8,117.8,390c32,43.3,84.3,111,119.3,145.7c38,38,90.7,111.4,132.5,131.7
	c41.4-20,95.2-94.1,132.9-131.7c107.3-106.9,297.8-356.5,237.1-535.7c-128-55-125-7.9-234.9-161.1l-270.7,1.5
	C296.5,253.2,301,205.8,172.6,261.1z"/>
<polygon class="st0" points="389.4,411.3 502,411.3 502,298.8 589.7,298.8 589.7,411.3 702.6,411.3 702.6,499 589.7,499 589.7,612 
	502,612 502,499 389.4,499 "/>
</svg>
