<?xml version="1.0" encoding="utf-8"?>
<!-- Generator: Adobe Illustrator 22.1.0, SVG Export Plug-In . SVG Version: 6.00 Build 0)  -->
<svg version="1.1" id="Layer_1" xmlns="http://www.w3.org/2000/svg" xmlns:xlink="http://www.w3.org/1999/xlink" x="0px" y="0px"
	 viewBox="0 0 480 480" style="enable-background:new 0 0 480 480;" xml:space="preserve">
<style type="text/css">
	.st0-019xKhiul70gJBK{fill:#A1A1A1;}
</style>
<path class="st0-019xKhiul70gJBK" d="M240.9,1.2c-132,0-239,107-239,239c0,132,107,239,239,239c132,0,239-107,239-239C480,108.2,373,1.2,240.9,1.2z
	 M235.4,25.2c1.8,0,3.7-0.1,5.6-0.1s3.7,0,5.6,0.1c46.2,1.2,88.8,16.9,123.3,42.7L68.1,369.6c-26.9-36-42.8-80.6-42.8-128.9
	C25.3,123.5,118.9,28.1,235.4,25.2z M240.9,456.3c-49.4,0-94.8-16.6-131.2-44.5l302.3-302.3c27.9,36.3,44.5,81.8,44.5,131.2
	C456.6,359.8,360,456.3,240.9,456.3z"/>
</svg>
