<svg id="Capa_1" data-name="Capa 1" xmlns="http://www.w3.org/2000/svg" viewBox="0 0 296.53 296.53"><defs><style>.cls-1{fill:#fff;}</style></defs><title>line</title><path class="cls-1" d="M163.16,116.33a4.09,4.09,0,0,0-3.5,4.12V138.7l-14.45-19.91a4,4,0,0,0-5.64-.87,4.07,4.07,0,0,0-1.62,3.34V151a4,4,0,0,0,4.5,4,4.11,4.11,0,0,0,3.5-4.12V133.46l14.45,19.9a4,4,0,0,0,5.5,1,4.08,4.08,0,0,0,1.76-3.42V120.3A4,4,0,0,0,163.16,116.33Z"/><path class="cls-1" d="M127.16,116.33a4.09,4.09,0,0,0-3.5,4.11v30.39a4.1,4.1,0,0,0,3.5,4.12,4,4,0,0,0,4.5-4V120.3A4,4,0,0,0,127.16,116.33Z"/><path class="cls-1" d="M148.38.5A147.5,147.5,0,1,0,295.88,148,147.5,147.5,0,0,0,148.38.5Zm70.14,176.84c-10.87,13.54-25.38,24-38.18,33.24-5.85,4.22-13.62,9.69-21.87,14.53l-.46.27c-3.46,2-8.68,5.12-13.27,5.12h0c-4.26,0-7.18-2.68-8-7.35-.71-4.06.2-7.75,1.07-11.31l.33-1.34a2.83,2.83,0,0,0,0-1.82c-.15-.24-.75-.85-3-1.29l-1-.19c-8.13-1.61-15.82-3.13-23.59-6.35a80.77,80.77,0,0,1-31.72-23.24,66.86,66.86,0,0,1-15-36.35C61.61,115.73,77,90.3,103,76.47a96.75,96.75,0,0,1,45.3-11,99.75,99.75,0,0,1,34.47,6,84.25,84.25,0,0,1,32.89,21.65,64.39,64.39,0,0,1,16.54,32.44h.08l0,.33c.06.43.1.8.14,1.13l.2,1.64h0v0l.05.44h0A65.68,65.68,0,0,1,218.52,177.34Z"/><path class="cls-1" d="M116.44,147.07h-10.5V120.39a4,4,0,0,0-4.5-4,4.09,4.09,0,0,0-3.5,4.12v30.53a4,4,0,0,0,4,4h14.62a4,4,0,0,0,3.91-4.89A4.07,4.07,0,0,0,116.44,147.07Z"/><path class="cls-1" d="M197,146.5H181.37v-7.43H193.7a4,4,0,0,0,4-4.5,4.11,4.11,0,0,0-4.13-3.5H181.37v-7.43h15.19a4,4,0,0,0,4-4.5,4.11,4.11,0,0,0-4.12-3.5h-19a4,4,0,0,0-4,4V150.5a4,4,0,0,0,4,4h19.8a4,4,0,0,0,4-4.5A4.09,4.09,0,0,0,197,146.5Z"/></svg>