<svg id="Layer_1" data-name="Layer 1" xmlns="http://www.w3.org/2000/svg" viewBox="0 0 1080 1080"><defs><style>.cls-1{fill:#fff;}</style></defs><title>logoweeber</title><path class="cls-1" d="M540.41,484.78a34.78,34.78,0,0,0-21,6.5A33.94,33.94,0,0,0,507,507.11h59.62v-1q0-8.34-6.51-14.85T540.41,484.78Z"/><path class="cls-1" d="M443,484.78a34.78,34.78,0,0,0-21,6.5,33.94,33.94,0,0,0-12.39,15.83h59.62v-1q0-8.34-6.5-14.85T443,484.78Z"/><path class="cls-1" d="M640.71,488.22A36.13,36.13,0,0,0,613,500.36,38.53,38.53,0,0,0,605.5,513a43.86,43.86,0,0,0-2.57,15,31.2,31.2,0,0,0,2.33,12.51,26.71,26.71,0,0,0,6.26,9.08,25.86,25.86,0,0,0,9.07,5.52,32.79,32.79,0,0,0,11,1.84,35.06,35.06,0,0,0,14.48-3.07A37.28,37.28,0,0,0,658,545.5a40.15,40.15,0,0,0,8-12.27,38.51,38.51,0,0,0,2.94-15.08q0-13.5-7.48-21.72T640.71,488.22Z"/><path class="cls-1" d="M540.9.23C242.66.23.9,242,.9,540.23s241.76,540,540,540,540-241.76,540-540S839.13.23,540.9.23ZM451.84,673a26.3,26.3,0,1,1,26.3-26.3A26.29,26.29,0,0,1,451.84,673Zm58.77,0a26.3,26.3,0,1,1,26.3-26.3A26.29,26.29,0,0,1,510.61,673Zm58.78,0a26.3,26.3,0,1,1,26.29-26.3A26.29,26.29,0,0,1,569.39,673Zm58.77,0a26.3,26.3,0,1,1,26.29-26.3A26.3,26.3,0,0,1,628.16,673ZM855.3,492.14a43.06,43.06,0,0,0-6.26-2.21,33.36,33.36,0,0,0-8.71-1,31.32,31.32,0,0,0-23.43,9.75q-9.43,9.74-12.14,25.52L794.7,582.67H762.56l9.26-52.75H702.25v2.45q.48,13.26,8.71,19.51a30.85,30.85,0,0,0,19.25,6.25q11.79,0,19.88-4.53a39.75,39.75,0,0,0,13.74-13.13l.46.24L757.05,581c-8.29,3.68-18,5.55-29.29,5.55a60.25,60.25,0,0,1-23.67-4.41A52.58,52.58,0,0,1,686.3,570a50.2,50.2,0,0,1-4.09-4.89l-.53.6a65.68,65.68,0,0,1-21.22,15.33,61.81,61.81,0,0,1-25.88,5.52q-13.26,0-22.7-5.27a38.68,38.68,0,0,1-14.35-13.13h-2l-2.45,14.48H562.94l9.28-52.75H502.63v2.45q.48,13.26,8.71,19.51a30.85,30.85,0,0,0,19.25,6.25q11.77,0,19.87-4.53a39.58,39.58,0,0,0,13.74-13.13l.18.09-7.29,40.63q-12.32,5.38-29,5.4a60.25,60.25,0,0,1-23.67-4.41A52.58,52.58,0,0,1,486.68,570a53.14,53.14,0,0,1-11.29-18.15,62.5,62.5,0,0,1-3.92-22H405.24v2.45q.48,13.26,8.71,19.51a30.85,30.85,0,0,0,19.25,6.25q11.79,0,19.88-4.53a39.75,39.75,0,0,0,13.74-13.13l.31.16a59.84,59.84,0,0,0,3,11.25,53.46,53.46,0,0,0,9.1,15.69,75.37,75.37,0,0,1-12.92,10.19q-14.24,8.84-35.58,8.83a60.25,60.25,0,0,1-23.67-4.41A52.58,52.58,0,0,1,389.29,570,53.11,53.11,0,0,1,378,551.88a62.17,62.17,0,0,1-3.9-20.6l-25.27,51.39H314.25l-10.8-75.81H302l-37.53,75.81H230.34L212.68,462.46H247l7.6,75.31h1.72l37.29-75.31H327l11,75.31h1.72l32.38-75.31H408l-4.59,9.33a72.88,72.88,0,0,1,12.91-7.37,71.6,71.6,0,0,1,29.44-5.89q13.25,0,23.18,4.05a48.93,48.93,0,0,1,16.68,10.92,44.8,44.8,0,0,1,3.3,3.74c.77,1,1.5,2,2.19,3l0,0a68.74,68.74,0,0,1,22.57-15.82,71.6,71.6,0,0,1,29.44-5.89q13.25,0,23.18,4.05a49.26,49.26,0,0,1,16,10.24L593.85,407H626l-9.32,52.75-4.91,17.17h2q4.9-6.87,14.23-12.63t23.8-5.77a47,47,0,0,1,35,15.09,48.68,48.68,0,0,1,4.7,5.92,69,69,0,0,1,21.88-15.12,71.6,71.6,0,0,1,29.44-5.89q13.24,0,23.18,4.05a49.2,49.2,0,0,1,15.94,10.2l1.81-10.32h30.18l-3,16.68h2a52.94,52.94,0,0,1,15.21-14.6,39.44,39.44,0,0,1,21.83-6,33.28,33.28,0,0,1,10.43,1.37,24.79,24.79,0,0,1,7,3.54Z"/><path class="cls-1" d="M740,484.78a34.78,34.78,0,0,0-21,6.5,33.94,33.94,0,0,0-12.39,15.83h59.62v-1q0-8.34-6.5-14.85T740,484.78Z"/></svg>