<?xml version="1.0" encoding="UTF-8"?>
<!DOCTYPE svg PUBLIC "-//W3C//DTD SVG 1.1//EN" "http://www.w3.org/Graphics/SVG/1.1/DTD/svg11.dtd">
<!-- Creator: CorelDRAW X8 -->
<svg xmlns="http://www.w3.org/2000/svg" xml:space="preserve" width="91.44mm" height="91.44mm" version="1.1" style="shape-rendering:geometricPrecision; text-rendering:geometricPrecision; image-rendering:optimizeQuality; fill-rule:evenodd; clip-rule:evenodd"
viewBox="0 0 9144 9144"
 xmlns:xlink="http://www.w3.org/1999/xlink">
 <defs>
  <style type="text/css">
  
    .str1 {stroke:#08995A;stroke-width:50}
    .str0 {stroke:#08995A;stroke-width:50}
    .str2 {stroke:#0B2550;stroke-width:17.64}
    .fil5 {fill:none}
    .fil0 {fill:#FFF000}
    .fil12 {fill:#FFE100}
    .fil19 {fill:#FFE100}
    .fil4 {fill:#FDF58C}
    .fil14 {fill:#E7CB00}
    .fil25 {fill:#E7CB00}
    .fil30 {fill:#2F318B}
    .fil9 {fill:#005D94}
    .fil11 {fill:#005D94}
    .fil18 {fill:#0062A2}
    .fil13 {fill:#0B2550}
    .fil10 {fill:#0B2550}
    .fil32 {fill:#3F3D56}
    .fil21 {fill:#444053}
    .fil17 {fill:#4C4981}
    .fil20 {fill:#65617D}
    .fil16 {fill:#AE6E79}
    .fil7 {fill:#CCCFD4}
    .fil8 {fill:#CCCFD4}
    .fil31 {fill:#E3A79F}
    .fil29 {fill:#E7EFFD}
    .fil6 {fill:#F05A59}
    .fil28 {fill:#FBBEBE}
    .fil27 {fill:#E7CB00;fill-opacity:0.101961}
    .fil26 {fill:#E7CB00;fill-opacity:0.101961}
    .fil15 {fill:black;fill-opacity:0.101961}
    .fil1 {fill:url(#id6)}
    .fil2 {fill:url(#id7)}
    .fil3 {fill:url(#id8)}
    .fil24 {fill:url(#id9)}
    .fil23 {fill:url(#id10)}
    .fil22 {fill:url(#id11)}
    
  </style>
    <mask id="id0">
  <linearGradient id="id1" gradientUnits="userSpaceOnUse" x1="5063.61" y1="5484.55" x2="5400.74" y2="2517.8">
   <stop offset="0" style="stop-opacity:1; stop-color:white"/>
   <stop offset="1" style="stop-opacity:0; stop-color:white"/>
  </linearGradient>
     <rect style="fill:url(#id1)" x="1246" y="5224" width="7217" height="1851"/>
    </mask>
    <mask id="id2">
  <linearGradient id="id3" gradientUnits="userSpaceOnUse" x1="5063.61" y1="5484.55" x2="5400.74" y2="2517.8">
   <stop offset="0" style="stop-opacity:1; stop-color:white"/>
   <stop offset="1" style="stop-opacity:0; stop-color:white"/>
  </linearGradient>
     <rect style="fill:url(#id3)" x="1527" y="3238" width="6642" height="2007"/>
    </mask>
    <mask id="id4">
  <linearGradient id="id5" gradientUnits="userSpaceOnUse" x1="5063.61" y1="5484.55" x2="5400.74" y2="2517.8">
   <stop offset="0" style="stop-opacity:1; stop-color:white"/>
   <stop offset="1" style="stop-opacity:0; stop-color:white"/>
  </linearGradient>
     <rect style="fill:url(#id5)" x="1719" y="3252" width="563" height="234"/>
    </mask>
  <linearGradient id="id6" gradientUnits="userSpaceOnUse" x1="4270.16" y1="2987.59" x2="4402.95" y2="7586.22">
   <stop offset="0" style="stop-opacity:1; stop-color:#2C82C9"/>
   <stop offset="1" style="stop-opacity:1; stop-color:#EEE657"/>
  </linearGradient>
  <linearGradient id="id7" gradientUnits="userSpaceOnUse" xlink:href="#id6" x1="4270.16" y1="2987.59" x2="4402.95" y2="7586.22">
  </linearGradient>
  <linearGradient id="id8" gradientUnits="userSpaceOnUse" xlink:href="#id6" x1="4270.16" y1="2987.59" x2="4402.95" y2="7586.22">
  </linearGradient>
  <linearGradient id="id9" gradientUnits="userSpaceOnUse" x1="2662.69" y1="7477.25" x2="2662.69" y2="4154.71">
   <stop offset="0" style="stop-opacity:0.25098; stop-color:gray"/>
   <stop offset="0.541176" style="stop-opacity:0.121569; stop-color:gray"/>
   <stop offset="1" style="stop-opacity:0.101961; stop-color:gray"/>
  </linearGradient>
  <linearGradient id="id10" gradientUnits="userSpaceOnUse" xlink:href="#id9" x1="2662.71" y1="7477.3" x2="2662.71" y2="4154.7">
  </linearGradient>
  <linearGradient id="id11" gradientUnits="userSpaceOnUse" xlink:href="#id9" x1="2662.72" y1="7477.29" x2="2662.72" y2="4154.7">
  </linearGradient>
 </defs>
 <g id="Layer_x0020_1">
  <metadata id="CorelCorpID_0Corel-Layer"/>
  <g id="_2807932969760">
   <circle class="fil0" cx="2407" cy="2614" r="411"/>
   <path class="fil1" style="mask:url(#id0)" d="M1892 5245l5424 -21c-26,90 -24,180 24,264 170,300 801,348 1039,625 142,165 100,396 -98,538 -156,112 -381,165 -600,200 -394,64 -797,88 -1199,112 -1086,65 -2175,129 -3262,108 -490,-9 -994,-39 -1426,-190 -213,-75 -411,-185 -498,-337 -87,-153 -50,-331 38,-488 89,-156 225,-299 341,-447 89,-114 166,-238 217,-364z"/>
   <path class="fil2" style="mask:url(#id2)" d="M1892 5245l5424 -21c24,-87 75,-173 135,-252 261,-344 708,-653 719,-1037 7,-263 -223,-518 -567,-630 -361,-118 -855,-84 -1111,141 -262,231 -735,334 -1144,337 -145,1 -288,-9 -429,-26 -310,-37 -611,-112 -903,-192 -425,-116 -846,-247 -1300,-300 -140,-17 -291,-24 -434,-13l-563 235c-109,121 -150,273 -174,416 -24,146 -36,300 49,433 60,92 162,168 234,256 160,196 154,429 64,653z"/>
   <path class="fil3" style="mask:url(#id4)" d="M1719 3487l563 -235c-154,13 -300,48 -419,117 -58,34 -106,74 -144,118z"/>
   <g>
    <path class="fil4" d="M6622 6775c-39,-128 -13,-278 -40,-423 -26,-146 -105,-286 -63,-405 41,-119 203,-216 305,-236 103,-20 145,37 207,86 62,49 144,88 165,7 22,-81 -18,-282 -66,-453 -12,-44 -26,-86 -38,-126 -34,-114 -60,-210 -37,-280 32,-95 153,-143 234,-119 81,25 123,122 161,198 37,77 70,133 116,65 46,-68 106,-259 192,-475 87,-215 200,-455 290,-554 91,-99 158,-57 172,106 13,162 -26,445 -33,658 -6,213 22,355 100,434 79,80 210,97 247,160 37,63 -20,172 -123,267 -103,94 -253,175 -354,239 -102,63 -156,111 -111,155 44,43 188,83 268,161 80,77 97,194 35,258 -62,64 -203,76 -339,104 -136,28 -266,72 -391,144 -42,24 -83,51 -123,79l-756 0c-7,-16 -13,-33 -18,-50z"/>
    <path class="fil5 str0" d="M6948 6825c256,-315 497,-620 651,-863 184,-290 242,-491 280,-665 5,-26 10,-51 15,-75"/>
    <path class="fil5 str0" d="M7894 5222c28,-143 42,-270 57,-398"/>
    <path class="fil5 str1" d="M7211 6496c168,-64 337,-128 455,-164 119,-36 188,-43 257,-50"/>
    <path class="fil5 str1" d="M7069 6675c-1,-146 -2,-292 -39,-415 -36,-122 -109,-221 -182,-320"/>
    <path class="fil5 str1" d="M7747 5695c181,-64 363,-127 544,-190"/>
    <path class="fil5 str0" d="M7644 5890c-39,-158 -77,-315 -128,-434 -41,-95 -89,-166 -140,-232"/>
    <path class="fil5 str0" d="M7376 5224c-13,-17 -26,-34 -40,-52"/>
   </g>
   <g>
    <path class="fil6" d="M6230 6978c133,-59 282,-103 447,-132 290,-50 626,-56 768,-211 143,-155 92,-460 -94,-656 -186,-196 -506,-283 -850,-250 -344,33 -710,186 -896,476 -150,235 -182,559 -182,818 269,-13 538,-29 807,-45z"/>
    <path class="fil5 str2" d="M5649 7011c15,-58 31,-113 50,-161 69,-180 168,-285 281,-378 114,-93 241,-174 401,-231 161,-58 354,-91 549,-78 195,13 390,72 586,131"/>
    <path class="fil5 str2" d="M5676 6914c36,-159 72,-318 89,-427 18,-110 18,-171 5,-231 -13,-60 -39,-119 -64,-178"/>
    <path class="fil5 str2" d="M5980 6472c98,-6 195,-12 315,2 119,15 262,50 384,108 122,58 223,138 324,217"/>
    <path class="fil5 str2" d="M6381 6241c139,-87 279,-174 374,-254 96,-81 148,-154 201,-227"/>
   </g>
   <g>
    <polygon class="fil7" points="3995,4631 4264,4703 4272,4789 3388,4876 3370,4692 3809,4649 "/>
    <polygon class="fil7" points="3995,4631 4264,4703 4254,4605 "/>
    <polygon class="fil8" points="2375,4197 3428,4479 3402,4503 2804,4561 2725,4513 2572,4418 2399,4435 "/>
    <polygon class="fil8" points="2375,4197 3428,4479 3470,4440 3601,4317 3774,4300 3748,4034 3057,4102 2373,4169 "/>
    <polygon class="fil9" points="2747,3059 3087,2918 3398,3352 3877,4021 3057,4102 2299,4176 2238,4182 2578,3432 "/>
    <polygon class="fil9" points="2747,3059 3087,2918 2918,2682 "/>
    <polygon class="fil10" points="2916,5241 3400,5239 3272,5359 3433,5343 3452,5533 3305,5701 3467,5685 3485,5872 3443,5918 2982,5918 2964,5735 3130,5718 2949,5582 2931,5392 3097,5376 2918,5265 2918,5260 "/>
    <polygon class="fil10" points="2916,5241 3400,5239 3432,5209 3420,5210 3400,5005 3239,5020 3395,4875 3388,4876 3370,4692 3178,4711 3064,4722 2867,4741 2885,4925 2885,4927 3064,5038 2897,5054 "/>
    <polygon class="fil9" points="3428,4479 3995,4631 3809,4649 3178,4711 "/>
    <polygon class="fil9" points="3428,4479 3995,4631 4440,4587 4101,4378 3948,4283 3601,4317 3470,4440 "/>
    <polygon class="fil9" points="2882,4925 3064,5038 2455,5097 1847,5157 2003,5012 "/>
    <polygon class="fil9" points="2910,5260 3097,5376 2488,5435 1880,5495 2041,5346 "/>
    <polygon class="fil9" points="2949,5582 3130,5718 2522,5778 1914,5838 2064,5669 "/>
    <polygon class="fil7" points="2931,5392 2949,5582 2064,5669 2046,5479 2488,5435 "/>
    <polygon class="fil7" points="2964,5735 2982,5918 2089,5918 2079,5821 2522,5778 "/>
    <polygon class="fil8" points="2023,5245 2916,5241 2918,5260 2033,5346 "/>
    <polygon class="fil8" points="2023,5245 2916,5241 2897,5054 2455,5097 2013,5141 "/>
    <polygon class="fil9" points="4272,4788 4455,4901 3847,4961 3239,5020 3395,4875 4272,4789 "/>
    <polygon class="fil11" points="3400,5239 4482,5235 4488,5239 3880,5299 3272,5359 "/>
    <polygon class="fil11" points="3400,5239 4482,5235 4302,5124 3432,5209 "/>
    <polygon class="fil9" points="4337,5446 4522,5582 3914,5642 3305,5701 3452,5533 "/>
    <polygon class="fil9" points="4370,5785 4555,5916 4527,5918 3443,5918 3485,5872 "/>
    <polygon class="fil7" points="2867,4741 2885,4925 2000,5012 1982,4828 2433,4784 "/>
    <polygon class="fil12" points="2463,4220 2839,4321 2430,4361 2416,4225 "/>
    <polygon class="fil12" points="2463,4220 2839,4321 2848,4320 2834,4184 "/>
    <polygon class="fil12" points="3293,4139 3711,4098 3724,4234 3306,4275 "/>
    <polygon class="fil7" points="2804,4561 3402,4503 3178,4711 3064,4722 "/>
    <polygon class="fil12" points="2085,4849 2158,4842 2170,4963 2097,4970 "/>
    <polygon class="fil12" points="2192,4839 2265,4832 2276,4953 2204,4960 "/>
    <polygon class="fil12" points="2295,4829 2368,4821 2380,4943 2307,4950 "/>
    <polygon class="fil12" points="2498,4809 2570,4802 2582,4923 2510,4930 "/>
    <polygon class="fil12" points="2607,4798 2679,4791 2691,4912 2619,4919 "/>
    <polygon class="fil12" points="2711,4788 2784,4781 2796,4902 2723,4909 "/>
    <polygon class="fil12" points="3473,4713 3545,4706 3557,4827 3485,4834 "/>
    <polygon class="fil12" points="3580,4703 3652,4696 3664,4817 3591,4824 "/>
    <polygon class="fil12" points="3683,4693 3756,4685 3767,4806 3695,4814 "/>
    <polygon class="fil12" points="3885,4673 3958,4666 3970,4787 3897,4794 "/>
    <polygon class="fil12" points="3994,4662 4067,4655 4079,4776 4006,4783 "/>
    <polygon class="fil12" points="4100,4659 4175,4679 4183,4766 4111,4773 "/>
    <polygon class="fil12" points="4100,4659 4175,4679 4172,4645 4099,4652 "/>
    <polygon class="fil12" points="2124,5244 2197,5244 2202,5298 2130,5305 "/>
    <polygon class="fil12" points="2124,5244 2197,5244 2191,5177 2118,5184 "/>
    <polygon class="fil12" points="2232,5244 2305,5244 2309,5287 2237,5294 "/>
    <polygon class="fil12" points="2232,5244 2305,5244 2297,5166 2225,5173 "/>
    <polygon class="fil12" points="2336,5244 2409,5243 2413,5277 2340,5284 "/>
    <polygon class="fil12" points="2336,5244 2409,5243 2401,5156 2328,5163 "/>
    <polygon class="fil12" points="2540,5243 2614,5243 2615,5257 2543,5264 "/>
    <polygon class="fil12" points="2540,5243 2614,5243 2603,5136 2531,5143 "/>
    <polygon class="fil12" points="2650,5242 2724,5242 2724,5246 2651,5254 "/>
    <polygon class="fil12" points="2650,5242 2724,5242 2712,5125 2640,5133 "/>
    <polygon class="fil12" points="2756,5242 2771,5242 2756,5243 "/>
    <polygon class="fil12" points="2756,5242 2771,5242 2829,5236 2817,5115 2744,5122 "/>
    <polygon class="fil7" points="4285,4918 4305,5124 3420,5210 3400,5005 3847,4961 "/>
    <polygon class="fil12" points="3506,5048 3578,5041 3590,5162 3517,5169 "/>
    <polygon class="fil12" points="3612,5037 3685,5030 3697,5151 3624,5158 "/>
    <polygon class="fil12" points="3716,5027 3788,5020 3800,5141 3728,5148 "/>
    <polygon class="fil12" points="3918,5007 3991,5000 4003,5121 3930,5128 "/>
    <polygon class="fil12" points="4027,4997 4100,4989 4112,5110 4039,5118 "/>
    <polygon class="fil12" points="4132,4986 4204,4979 4216,5100 4144,5107 "/>
    <polygon class="fil12" points="2150,5506 2222,5499 2234,5620 2161,5627 "/>
    <polygon class="fil12" points="2256,5496 2329,5489 2341,5610 2268,5617 "/>
    <polygon class="fil12" points="2360,5486 2432,5478 2444,5599 2372,5607 "/>
    <polygon class="fil12" points="2562,5466 2635,5459 2647,5580 2574,5587 "/>
    <polygon class="fil12" points="2671,5455 2744,5448 2756,5569 2683,5576 "/>
    <polygon class="fil12" points="2776,5445 2848,5438 2860,5559 2788,5566 "/>
    <polygon class="fil7" points="4318,5256 4337,5446 3452,5533 3433,5343 3880,5299 "/>
    <path class="fil12" d="M2916 5241l37 0 -37 4 0 -4zm166 0l20 0 13 133 146 -15 -11 -119 19 0 12 118 152 -15 2 19 -152 15 14 147 153 -15 2 19 -153 15 14 147 2 0 -1 2 0 8 153 -15 1 9 -153 15 15 147 152 -15 2 20 -152 15 4 42 -20 0 -4 -40 -147 14 3 26 -20 0 -2 -24 -165 16 -2 -19 165 -17 -14 -146 -165 16 -1 -9 165 -17 0 -1 -11 -8 10 -1 -15 -147 -164 16 -2 -19 164 -16 -14 -147 -165 16 -1 -19 164 -16 -13 -135zm181 138l-147 14 15 147 147 -14 -15 -147zm17 166l-147 14 14 147 147 -14 -14 -147zm16 166l-147 15 14 146 147 -14 -14 -147z"/>
    <path class="fil12" d="M2916 5241l37 0 128 -12 1 12 20 0 -2 -14 147 -15 3 28 19 0 -3 -29 153 -15 -2 -20 -152 15 -15 -147 153 -15 -2 -19 -153 15 -14 -147 152 -15 -1 -19 -153 15 -15 -152 -19 2 14 151 -146 15 -15 -152 -20 2 15 152 -164 16 2 19 164 -16 15 147 -165 16 2 20 164 -17 15 147 -165 16 2 16zm298 -361l-146 14 14 147 147 -14 -15 -147zm17 166l-147 15 14 146 147 -14 -14 -147z"/>
    <polygon class="fil12" points="3537,5370 3610,5363 3622,5484 3549,5491 "/>
    <polygon class="fil12" points="3644,5360 3717,5353 3728,5474 3656,5481 "/>
    <polygon class="fil12" points="3747,5350 3820,5342 3832,5463 3759,5471 "/>
    <polygon class="fil12" points="3950,5330 4022,5323 4034,5444 3962,5451 "/>
    <polygon class="fil12" points="4059,5319 4131,5312 4143,5433 4071,5440 "/>
    <polygon class="fil12" points="4163,5309 4236,5302 4248,5423 4175,5430 "/>
    <polygon class="fil12" points="2183,5845 2255,5838 2263,5918 2190,5918 "/>
    <polygon class="fil12" points="2290,5835 2362,5827 2371,5918 2298,5918 "/>
    <polygon class="fil12" points="2393,5824 2466,5817 2476,5918 2402,5918 "/>
    <polygon class="fil12" points="2595,5805 2668,5797 2680,5918 2607,5918 "/>
    <polygon class="fil12" points="2704,5794 2777,5787 2789,5908 2716,5915 "/>
    <polygon class="fil12" points="2809,5784 2882,5777 2893,5898 2821,5905 "/>
    <polygon class="fil7" points="4352,5599 4370,5785 3485,5872 3467,5685 3914,5642 "/>
    <polygon class="fil12" points="3570,5709 3643,5702 3655,5823 3582,5830 "/>
    <polygon class="fil12" points="3677,5699 3750,5691 3762,5813 3689,5820 "/>
    <polygon class="fil12" points="3781,5688 3853,5681 3865,5802 3792,5809 "/>
    <polygon class="fil12" points="3983,5669 4056,5661 4068,5783 3995,5790 "/>
    <polygon class="fil12" points="4092,5658 4165,5651 4176,5772 4104,5779 "/>
    <polygon class="fil12" points="4197,5648 4269,5641 4281,5762 4208,5769 "/>
    <path class="fil12" d="M2963 4354l3 1c3,3 7,4 13,4 0,0 1,0 1,0l17 4c-4,7 -9,13 -15,13 -14,1 -17,-9 -19,-22zm80 22l13 3c1,2 3,2 6,2l23 6c-1,1 -2,2 -2,5 -2,12 -2,21 -15,23 -2,0 -2,-3 0,-3 4,-1 11,-6 5,-5 -7,0 -17,-1 -16,-7 0,-2 2,-3 5,-3 2,0 4,3 8,2 8,-1 11,-13 -1,-14 -14,2 -24,6 -26,-8 0,0 0,-1 0,-1zm51 13l7 2c1,3 4,5 8,4 1,0 2,0 3,-1l9 3c-1,4 -8,6 -15,6 -5,1 3,5 7,4 2,0 2,3 0,3 -13,1 -15,-8 -19,-20 0,0 0,0 0,-1zm43 12l5 1c2,2 3,4 4,6 3,2 5,1 5,-1 -1,-1 -2,-2 -3,-3l5 1c3,2 4,3 5,1l9 3c0,0 0,0 0,0 -22,15 -49,5 -75,6 -1,0 -1,1 -1,1 0,0 0,0 -1,0 -26,4 -50,18 -75,8 11,-19 23,-27 39,-33 5,-1 19,-4 19,1 1,3 -9,1 -14,3 -15,4 -19,21 -17,23 2,4 9,3 19,1 10,-1 16,-1 22,-9 4,-6 2,-4 3,-18 0,-1 1,-2 3,-2 1,0 2,0 3,2 3,13 1,11 6,16 7,7 13,6 24,5 9,0 17,0 18,-4 0,-1 -1,-5 -3,-8zm35 9l6 2c-1,2 -1,6 2,8 -16,20 -68,4 -73,3 -1,0 -2,2 -1,4 2,2 8,6 10,11 3,9 -3,26 -18,27 -1,1 -1,1 -2,1 -1,0 -1,0 -2,0 -15,1 -25,-14 -23,-24 1,-4 6,-9 7,-13 1,-2 0,-3 -1,-3 -5,2 -52,28 -72,11 4,-5 -4,-15 -6,-8 0,9 -8,2 -7,-1 6,-9 21,0 30,2 13,4 43,-7 67,-11 1,0 1,0 2,0 1,0 2,0 3,0 24,-2 55,4 68,-2 3,-2 6,-5 10,-7zm13 4l3 0c-1,1 -2,1 -3,0zm-90 43c0,0 1,0 1,0 10,-1 18,-12 11,-23 0,9 -3,15 -12,15 0,0 0,0 -1,0 0,0 0,0 0,1 -9,0 -14,-4 -15,-14 -5,13 5,22 15,21 0,0 1,0 1,0zm-1 -15c0,0 0,0 0,0 8,-1 9,-8 6,-13 0,5 -4,8 -7,7 -3,1 -7,-1 -9,-5 -1,5 1,12 9,11 0,0 0,0 1,0zm-105 -47c-7,1 -15,-8 -17,-15 4,2 9,3 14,2 5,-2 5,-2 8,-6 6,7 6,18 -5,19zm12 13c-8,3 -15,-7 -17,-9 6,2 16,1 18,-5 2,5 4,11 -1,14zm4 10c-4,0 -6,-2 -7,-4 4,0 9,-2 10,-6 3,4 3,10 -3,10zm39 -15c-4,4 -6,11 -9,15 -2,3 -5,3 -4,1 2,-5 8,-14 13,-16zm-3 -2c-4,4 -8,8 -8,10 -6,7 -8,12 -10,8 -1,-1 2,-6 7,-10 3,-3 6,-7 11,-8zm32 62c-6,4 -20,2 -23,-5 8,-5 12,-9 17,-14 1,9 2,12 6,19zm-48 -15c5,-1 14,-1 20,-4 10,-4 15,-5 24,-10 -3,7 -13,14 -16,17 -7,8 -25,9 -28,-3zm93 11c6,2 20,-3 21,-10 -8,-3 -13,-6 -19,-10 1,9 0,12 -2,20zm44 -24c-5,0 -14,1 -20,0 -11,-2 -16,-2 -26,-5 5,6 15,11 19,13 9,6 26,4 27,-8z"/>
    <path class="fil12" d="M2963 4354l3 1c-1,-1 -2,-2 -4,-3 1,0 1,1 1,2zm17 5l17 4c1,-2 3,-5 4,-8 7,-14 21,-32 39,-30 16,3 27,18 29,42 0,5 -1,13 -6,14 0,0 -1,0 -1,0l23 6c1,0 2,-1 3,-1 3,0 5,1 6,3l7 2c-2,-3 -1,-8 6,-9 14,-2 25,0 23,-13 -1,-18 -8,-16 -9,-24 0,-4 4,-4 4,-1 -1,8 9,3 8,-2 0,-5 -3,-8 -10,-8 -11,2 -5,25 -4,34 0,6 -1,7 -7,8 -6,0 -8,-8 -9,-13 -2,-23 5,-40 20,-46 17,-5 35,9 45,22 5,7 14,18 22,17 15,-2 16,-15 15,-28 -4,6 -8,9 -15,10 -16,2 -39,-29 -61,-27 -14,2 -21,7 -27,25 -1,2 -2,2 -2,-1 1,-16 4,-21 8,-26 9,-12 19,-13 32,-14 20,-2 23,11 37,13 22,0 21,-28 8,-38 1,9 -11,19 -22,20 -11,1 -17,0 -28,1 -29,2 -43,26 -40,57 0,2 -2,2 -3,1l-3 -29 -1 -7c-1,-10 11,-28 18,-34 12,-12 31,-4 42,-17 23,-28 -14,-46 -39,-47 7,8 11,12 13,26 1,17 -6,21 -21,37 -7,6 -10,11 -14,19 -1,-10 -3,-32 3,-33 22,-2 27,-9 25,-21 -2,-31 -28,-32 -45,-42 -15,14 -40,19 -37,50 1,12 8,18 29,16 7,-1 9,21 10,31 -5,-6 -9,-11 -17,-15 -18,-13 -26,-16 -28,-33 -1,-14 2,-18 8,-28 -25,7 -58,31 -29,54 12,10 30,-1 44,9 8,4 23,19 24,30l1 6 2 29c0,2 -3,2 -3,0 -3,-31 -22,-51 -51,-48 -10,1 -16,3 -28,4 -10,1 -24,-6 -25,-15 -11,13 -6,40 15,36 14,-5 14,-18 35,-20 12,-2 23,-2 34,7 4,4 9,8 13,24 0,3 -1,3 -2,2 -10,-17 -18,-20 -32,-19 -21,2 -37,35 -53,38zm63 17l13 3c-1,-1 -1,-2 -2,-4 -1,-10 1,-34 -11,-33 -6,1 -8,5 -8,9 1,5 11,9 9,1 -1,-3 3,-4 3,0 1,8 -6,8 -4,24zm69 18l9 3c1,-1 1,-2 0,-4 0,-1 -2,-2 -5,-1 -1,0 -2,1 -4,2zm25 7l5 1c-2,-3 -5,-6 -7,-8 4,1 9,5 13,10l5 1c-1,-1 -3,-3 -6,-6 -1,-1 -6,-5 -10,-8 5,1 9,3 13,6 5,3 9,8 9,8 -1,1 -1,1 -1,1l9 3c-14,-17 -28,-22 -45,-24 -4,-1 -19,-1 -18,4 0,3 9,0 15,0 8,1 14,7 18,12zm35 9l6 2c2,-3 4,-4 6,-1 0,1 1,2 1,3l3 0c2,-1 4,-4 2,-5 -4,-5 -11,-3 -18,1zm-91 -98c-1,0 -2,-2 -2,-4 -1,-11 -5,-22 -5,-34 0,-5 1,-7 2,-8 2,0 4,3 4,7 3,12 1,24 2,35 0,2 0,4 -1,4zm-19 -91c-5,3 -7,12 -6,22 0,5 6,12 9,13 -3,-5 -7,-18 -3,-35zm20 132c-1,-3 -4,-3 -4,1 2,14 -4,14 -4,20 0,4 1,7 6,5 5,0 3,-8 3,-12l-1 -14zm-62 -67c-3,7 -14,13 -22,14 -27,3 -29,-27 -9,-43 1,20 13,31 31,29zm-26 43c-2,14 -6,23 -18,24 -15,0 -16,-22 -14,-31 9,13 21,13 32,7zm68 42c2,0 4,2 3,4 -1,3 -4,3 -5,1 -1,-2 -1,-5 2,-5zm19 -152c6,2 10,11 11,20 0,6 -3,13 -6,15 1,-6 3,-19 -5,-35zm7 133c0,-3 3,-3 3,1 1,14 8,13 9,18 0,4 -1,7 -6,7 -4,1 -4,-8 -5,-12l-1 -14zm47 -77c5,6 17,10 25,9 27,-2 23,-32 1,-44 2,20 -7,33 -26,35zm34 37c5,13 11,21 22,20 15,-3 13,-25 8,-33 -6,15 -18,17 -30,13zm-58 54c-3,0 -3,3 -2,5 1,2 4,2 5,-1 1,-1 0,-4 -3,-4zm77 10c6,-1 13,-12 13,-18 -4,2 -8,4 -13,4 -6,0 -6,-1 -9,-5 -5,9 -2,20 9,19zm-10 14c8,2 14,-9 15,-12 -5,4 -16,5 -18,-1 -2,6 -3,11 3,13zm-2 11c3,-1 5,-3 6,-5 -4,1 -9,0 -11,-3 -2,4 -1,10 5,8z"/>
    <polygon class="fil9" points="2572,4418 2725,4513 3064,4722 2433,4784 1802,4846 2094,4574 2226,4452 "/>
    <polygon class="fil13" points="3301,4597 2922,4634 2815,4568 3392,4512 "/>
    <polygon class="fil13" points="2103,5002 1962,5146 1847,5157 2003,5012 "/>
    <polygon class="fil13" points="2136,5336 1994,5480 1880,5491 2036,5346 "/>
    <polygon class="fil13" points="2168,5659 2022,5827 1914,5838 2064,5669 "/>
    <polygon class="fil13" points="2332,4442 1948,4832 1802,4846 2094,4574 2226,4452 "/>
    <polygon class="fil13" points="2747,3059 2923,2986 2360,4170 2299,4176 2238,4182 2578,3432 "/>
    <polygon class="fil13" points="2747,3059 2923,2986 3008,2807 2918,2682 "/>
   </g>
   <g>
    <path class="fil4" d="M2664 6789c39,-128 13,-279 39,-424 26,-145 105,-286 64,-405 -42,-119 -204,-216 -306,-236 -102,-20 -144,38 -207,86 -62,49 -144,89 -165,8 -22,-81 18,-283 66,-453 12,-42 25,-83 36,-121 36,-117 63,-214 39,-286 -32,-94 -152,-143 -234,-118 -81,24 -123,121 -160,198 -38,77 -71,133 -117,65 -46,-68 -106,-260 -192,-475 -87,-216 -200,-455 -290,-554 -90,-99 -158,-57 -171,105 -14,163 26,446 32,658 6,213 -21,355 -100,435 -79,79 -210,96 -247,159 -36,63 20,172 123,267 104,95 253,175 355,239 101,64 155,112 110,155 -44,44 -187,83 -267,161 -81,78 -98,194 -36,258 62,64 203,76 339,104 136,28 267,72 391,144 19,11 38,23 57,35l839 0 2 -5z"/>
    <path class="fil5 str0" d="M2302 6794c-243,-299 -469,-587 -616,-818 -184,-290 -242,-491 -280,-666 -4,-21 -9,-42 -13,-63"/>
    <path class="fil5 str0" d="M1393 5247c-29,-148 -44,-279 -59,-409"/>
    <path class="fil5 str1" d="M2075 6510c-169,-64 -337,-129 -456,-164 -119,-36 -188,-44 -257,-51"/>
    <path class="fil5 str1" d="M2216 6688c1,-146 2,-292 39,-414 37,-123 109,-222 182,-320"/>
    <path class="fil5 str1" d="M1538 5708c-181,-63 -362,-127 -544,-190"/>
    <path class="fil5 str0" d="M1642 5903c38,-157 76,-314 128,-434 39,-91 85,-160 133,-224"/>
    <path class="fil5 str0" d="M1903 5245c15,-20 31,-39 46,-59"/>
   </g>
   <g>
    <path class="fil4" d="M1892 5245l299 -1c-11,38 -24,79 -36,121 -48,170 -88,372 -66,453 21,81 103,41 165,-8 63,-48 105,-106 207,-86 102,20 264,117 306,236 41,119 -38,260 -64,405 -26,145 0,296 -39,424 -31,102 -103,189 -182,240 -146,-17 -290,-40 -428,-73 -90,-62 -187,-139 -288,-197 -124,-72 -255,-116 -391,-144 -11,-2 -22,-4 -33,-6 -18,-21 -33,-42 -46,-65 -76,-134 -58,-285 7,-426 15,-9 28,-17 36,-26 19,-18 21,-37 8,-58 89,-148 217,-284 328,-425 89,-114 166,-238 217,-364z"/>
    <path class="fil4" d="M1892 5245l299 -1c36,-117 63,-214 39,-286 -32,-94 -152,-143 -234,-118 -17,5 -33,13 -47,24 18,125 -6,254 -57,381z"/>
    <path class="fil5 str1" d="M2489 7024c-309,-379 -619,-758 -803,-1048 -51,-82 -93,-156 -127,-225"/>
    <path class="fil5 str1" d="M2075 6510c-169,-64 -337,-129 -456,-164 -119,-36 -188,-44 -257,-51"/>
    <path class="fil5 str1" d="M2216 6688c1,-146 2,-292 39,-414 37,-123 109,-222 182,-320"/>
    <path class="fil5 str0" d="M1642 5903c36,-149 72,-298 120,-414m114 -207c9,-12 18,-25 27,-37"/>
    <path class="fil5 str0" d="M1903 5245c15,-20 31,-39 46,-59"/>
   </g>
   <g>
    <path class="fil6" d="M4899 7048c-183,-135 -415,-223 -687,-271 -290,-50 -626,-56 -768,-211 -143,-155 -92,-461 94,-657 186,-196 506,-282 850,-249 343,33 710,186 896,476 163,255 187,616 181,885 -188,10 -377,19 -566,27z"/>
    <path class="fil5 str2" d="M5261 7031c-20,-92 -43,-178 -71,-250 -69,-180 -168,-285 -282,-378 -113,-93 -240,-174 -401,-231 -160,-58 -353,-91 -548,-78 -195,13 -391,72 -587,131"/>
    <path class="fil5 str2" d="M5212 6844c-35,-158 -71,-317 -89,-426 -17,-110 -17,-171 -4,-231 12,-60 38,-119 64,-178"/>
    <path class="fil5 str2" d="M4908 6403c-97,-6 -194,-12 -314,2 -120,15 -262,50 -384,108 -122,58 -223,137 -324,217"/>
    <path class="fil5 str2" d="M4507 6172c-139,-87 -278,-174 -374,-254 -95,-81 -148,-154 -200,-227"/>
   </g>
   <g>
    <path class="fil7" d="M3063 6740l20 206 -709 69c-61,-8 -121,-18 -180,-29l-16 -159 443 -43 442 -44z"/>
    <polygon class="fil7" points="3995,4631 4264,4703 4272,4789 3388,4876 3370,4692 3809,4649 "/>
    <polygon class="fil7" points="3995,4631 4264,4703 4254,4605 "/>
    <polygon class="fil8" points="2375,4197 3428,4479 3402,4503 2804,4561 2725,4513 2572,4418 2399,4435 "/>
    <polygon class="fil8" points="2375,4197 3428,4479 3470,4440 3601,4317 3774,4300 3748,4034 3057,4102 2373,4169 "/>
    <path class="fil9" d="M3437 3406l440 615 -820 81 -758 74 -61 6 340 -750 79 -174c20,2 40,4 59,7 248,29 486,81 721,141z"/>
    <path class="fil10" d="M2916 5241l484 -2 -128 120 161 -16 19 190 -147 168 162 -16 18 187 -147 163 162 -16 19 199 3 0 -152 142 162 -16 20 213 -502 50 -21 -214 166 -16 -179 -110 -19 -199 166 -16 -181 -131 -18 -186 166 -17 -181 -136 -18 -190 166 -16 -179 -111 0 -5 -2 -19zm268 1830l36 0c43,1 85,2 128,2l3 -3 5 3c82,2 165,2 247,2l-5 -45 -161 16 -175 17 -78 8zm402 -175l-503 50 -20 -206 166 -16 175 -17 162 -16 20 205z"/>
    <polygon class="fil10" points="2916,5241 3400,5239 3432,5209 3420,5210 3400,5005 3239,5020 3395,4875 3388,4876 3370,4692 3178,4711 3064,4722 2867,4741 2885,4925 2885,4927 3064,5038 2897,5054 "/>
    <polygon class="fil9" points="3428,4479 3995,4631 3809,4649 3178,4711 "/>
    <polygon class="fil9" points="3428,4479 3995,4631 4440,4587 4101,4378 3948,4283 3601,4317 3470,4440 "/>
    <path class="fil9" d="M2882 4925l182 113 -609 59 -530 52c8,-27 14,-55 19,-82l59 -55 879 -87z"/>
    <polygon class="fil9" points="2910,5260 3097,5376 2488,5435 1880,5495 2041,5346 "/>
    <polygon class="fil9" points="2949,5582 3130,5718 2522,5778 1914,5838 2064,5669 "/>
    <polygon class="fil9" points="2982,5921 3163,6052 2555,6112 1946,6171 2098,6008 "/>
    <polygon class="fil9" points="3016,6267 3195,6377 2587,6437 1978,6496 2132,6354 3016,6268 "/>
    <polygon class="fil7" points="2931,5392 2949,5582 2064,5669 2046,5479 2488,5435 "/>
    <polygon class="fil7" points="2964,5735 2982,5921 2098,6008 2079,5821 2522,5778 "/>
    <polygon class="fil7" points="2997,6068 3016,6268 2132,6354 2112,6155 2555,6112 "/>
    <polygon class="fil7" points="3029,6393 3050,6607 2165,6693 2144,6480 2587,6437 "/>
    <polygon class="fil8" points="2023,5245 2916,5241 2918,5260 2033,5346 "/>
    <polygon class="fil8" points="2023,5245 2916,5241 2897,5054 2455,5097 2013,5141 "/>
    <polygon class="fil9" points="4272,4788 4455,4901 3847,4961 3239,5020 3395,4875 4272,4789 "/>
    <polygon class="fil11" points="3400,5239 4482,5235 4488,5239 3880,5299 3272,5359 "/>
    <polygon class="fil11" points="3400,5239 4482,5235 4302,5124 3432,5209 "/>
    <polygon class="fil9" points="4337,5446 4522,5582 3914,5642 3305,5701 3452,5533 "/>
    <polygon class="fil9" points="4370,5785 4555,5916 3946,5975 3338,6035 3485,5872 "/>
    <polygon class="fil9" points="4404,6127 4587,6241 3978,6300 3370,6360 3522,6218 4404,6132 "/>
    <polygon class="fil9" points="3229,6724 2937,6752 2621,6784 2012,6843 2165,6693 2924,6619 3041,6608 3566,6556 3811,6532 4432,6471 4621,6587 4012,6647 3824,6666 3404,6707 "/>
    <path class="fil9" d="M3262 7063l-78 8c-272,-6 -546,-19 -810,-56l594 -58 106 -11 525 -51 155 -15 712 -70 188 116 -609 60 -278 27 -330 33 -175 17z"/>
    <polygon class="fil7" points="2867,4741 2885,4925 2000,5012 1982,4828 2433,4784 "/>
    <polygon class="fil12" points="2463,4220 2839,4321 2430,4361 2416,4225 "/>
    <polygon class="fil12" points="2463,4220 2839,4321 2848,4320 2834,4184 "/>
    <polygon class="fil12" points="3293,4139 3711,4098 3724,4234 3306,4275 "/>
    <polygon class="fil7" points="2804,4561 3402,4503 3178,4711 3064,4722 "/>
    <polygon class="fil12" points="2085,4849 2158,4842 2170,4963 2097,4970 "/>
    <polygon class="fil12" points="2192,4839 2265,4832 2276,4953 2204,4960 "/>
    <polygon class="fil12" points="2295,4829 2368,4821 2380,4943 2307,4950 "/>
    <polygon class="fil12" points="2498,4809 2570,4802 2582,4923 2510,4930 "/>
    <polygon class="fil12" points="2607,4798 2679,4791 2691,4912 2619,4919 "/>
    <polygon class="fil12" points="2711,4788 2784,4781 2796,4902 2723,4909 "/>
    <polygon class="fil12" points="3473,4713 3545,4706 3557,4827 3485,4834 "/>
    <polygon class="fil12" points="3580,4703 3652,4696 3664,4817 3591,4824 "/>
    <polygon class="fil12" points="3683,4693 3756,4685 3767,4806 3695,4814 "/>
    <polygon class="fil12" points="3885,4673 3958,4666 3970,4787 3897,4794 "/>
    <polygon class="fil12" points="3994,4662 4067,4655 4079,4776 4006,4783 "/>
    <polygon class="fil12" points="4100,4659 4175,4679 4183,4766 4111,4773 "/>
    <polygon class="fil12" points="4100,4659 4175,4679 4172,4645 4099,4652 "/>
    <polygon class="fil12" points="2124,5244 2197,5244 2202,5298 2130,5305 "/>
    <polygon class="fil12" points="2124,5244 2197,5244 2191,5177 2118,5184 "/>
    <polygon class="fil12" points="2232,5244 2305,5244 2309,5287 2237,5294 "/>
    <polygon class="fil12" points="2232,5244 2305,5244 2297,5166 2225,5173 "/>
    <polygon class="fil12" points="2336,5244 2409,5243 2413,5277 2340,5284 "/>
    <polygon class="fil12" points="2336,5244 2409,5243 2401,5156 2328,5163 "/>
    <polygon class="fil12" points="2540,5243 2614,5243 2615,5257 2543,5264 "/>
    <polygon class="fil12" points="2540,5243 2614,5243 2603,5136 2531,5143 "/>
    <polygon class="fil12" points="2650,5242 2724,5242 2724,5246 2651,5254 "/>
    <polygon class="fil12" points="2650,5242 2724,5242 2712,5125 2640,5133 "/>
    <polygon class="fil12" points="2756,5242 2771,5242 2756,5243 "/>
    <polygon class="fil12" points="2756,5242 2771,5242 2829,5236 2817,5115 2744,5122 "/>
    <polygon class="fil7" points="4285,4918 4305,5124 3420,5210 3400,5005 3847,4961 "/>
    <polygon class="fil12" points="3506,5048 3578,5041 3590,5162 3517,5169 "/>
    <polygon class="fil12" points="3612,5037 3685,5030 3697,5151 3624,5158 "/>
    <polygon class="fil12" points="3716,5027 3788,5020 3800,5141 3728,5148 "/>
    <polygon class="fil12" points="3918,5007 3991,5000 4003,5121 3930,5128 "/>
    <polygon class="fil12" points="4027,4997 4100,4989 4112,5110 4039,5118 "/>
    <polygon class="fil12" points="4132,4986 4204,4979 4216,5100 4144,5107 "/>
    <polygon class="fil12" points="2150,5506 2222,5499 2234,5620 2161,5627 "/>
    <polygon class="fil12" points="2256,5496 2329,5489 2341,5610 2268,5617 "/>
    <polygon class="fil12" points="2360,5486 2432,5478 2444,5599 2372,5607 "/>
    <polygon class="fil12" points="2562,5466 2635,5459 2647,5580 2574,5587 "/>
    <polygon class="fil12" points="2671,5455 2744,5448 2756,5569 2683,5576 "/>
    <polygon class="fil12" points="2776,5445 2848,5438 2860,5559 2788,5566 "/>
    <polygon class="fil7" points="4318,5256 4337,5446 3452,5533 3433,5343 3880,5299 "/>
    <path class="fil12" d="M2916 5241l37 0 -37 4 0 -4zm166 0l20 0 13 133 146 -15 -11 -119 19 0 12 118 152 -15 2 19 -152 15 14 147 153 -15 2 19 -153 15 14 147 2 0 -1 2 0 8 153 -15 1 9 -153 15 15 147 152 -15 2 20 -152 15 14 146 4 0 -4 4 1 8 153 -15 0 8 -152 15 14 147 153 -15 2 19 -153 15 15 151 153 -15 1 15 -153 15 15 147 152 -15 2 20 -152 15 3 31 -20 2 -3 -31 -146 14 3 32 -20 2 -3 -32 -164 16 -2 -19 164 -17 -14 -146 -165 16 -1 -16 164 -16 0 -1 -4 -2 4 -1 -14 -147 -165 16 -2 -19 165 -16 -15 -147 -164 16 -1 -8 164 -16 0 -1 -12 -9 11 -1 -14 -147 -165 16 -2 -19 165 -17 -14 -146 -165 16 -1 -9 165 -17 0 -1 -11 -8 10 -1 -15 -147 -164 16 -2 -19 164 -16 -14 -147 -165 16 -1 -19 164 -16 -13 -135zm179 1831l20 0 -1 -11 -18 2 -1 0 0 9zm168 2l20 0 -3 -29 -9 1 -10 1 2 27zm-166 -1695l-147 14 15 147 147 -14 -15 -147zm17 166l-147 14 14 147 147 -14 -14 -147zm16 166l-147 15 14 146 147 -14 -14 -147zm16 167l-147 14 15 147 147 -15 -15 -146zm16 166l-146 14 14 147 147 -14 -15 -147zm17 166l-147 14 14 147 147 -14 -14 -147zm16 166l-147 15 15 147 146 -15 -14 -147zm221 482l-153 15 4 38 -19 2 -4 -38 -147 15 4 38 -20 1 -3 -38 -165 17 -2 -20 165 -16 -15 -148 2 0 18 -2 14 148 147 -14 -14 -148 10 -1 9 -1 14 148 153 -15 2 19z"/>
    <path class="fil12" d="M2916 5241l37 0 128 -12 1 12 20 0 -2 -14 147 -15 3 28 19 0 -3 -29 153 -15 -2 -20 -152 15 -15 -147 153 -15 -2 -19 -153 15 -14 -147 152 -15 -1 -19 -153 15 -15 -152 -19 2 14 151 -146 15 -15 -152 -20 2 15 152 -164 16 2 19 164 -16 15 147 -165 16 2 20 164 -17 15 147 -165 16 2 16zm298 -361l-146 14 14 147 147 -14 -15 -147zm17 166l-147 15 14 146 147 -14 -14 -147z"/>
    <polygon class="fil12" points="3537,5370 3610,5363 3622,5484 3549,5491 "/>
    <polygon class="fil12" points="3644,5360 3717,5353 3728,5474 3656,5481 "/>
    <polygon class="fil12" points="3747,5350 3820,5342 3832,5463 3759,5471 "/>
    <polygon class="fil12" points="3950,5330 4022,5323 4034,5444 3962,5451 "/>
    <polygon class="fil12" points="4059,5319 4131,5312 4143,5433 4071,5440 "/>
    <polygon class="fil12" points="4163,5309 4236,5302 4248,5423 4175,5430 "/>
    <polygon class="fil12" points="2183,5845 2255,5838 2267,5959 2195,5966 "/>
    <polygon class="fil12" points="2290,5835 2362,5827 2374,5949 2301,5956 "/>
    <polygon class="fil12" points="2393,5824 2466,5817 2477,5938 2405,5945 "/>
    <polygon class="fil12" points="2595,5805 2668,5797 2680,5919 2607,5926 "/>
    <polygon class="fil12" points="2704,5794 2777,5787 2789,5908 2716,5915 "/>
    <polygon class="fil12" points="2809,5784 2882,5777 2893,5898 2821,5905 "/>
    <polygon class="fil7" points="4352,5599 4370,5785 3485,5872 3467,5685 3914,5642 "/>
    <polygon class="fil12" points="3570,5709 3643,5702 3655,5823 3582,5830 "/>
    <polygon class="fil12" points="3677,5699 3750,5691 3762,5813 3689,5820 "/>
    <polygon class="fil12" points="3781,5688 3853,5681 3865,5802 3792,5809 "/>
    <polygon class="fil12" points="3983,5669 4056,5661 4068,5783 3995,5790 "/>
    <polygon class="fil12" points="4092,5658 4165,5651 4176,5772 4104,5779 "/>
    <polygon class="fil12" points="4197,5648 4269,5641 4281,5762 4208,5769 "/>
    <polygon class="fil12" points="2217,6192 2289,6185 2301,6306 2229,6313 "/>
    <polygon class="fil12" points="2324,6181 2396,6174 2408,6295 2335,6302 "/>
    <polygon class="fil12" points="2427,6171 2500,6164 2511,6285 2439,6292 "/>
    <polygon class="fil12" points="2629,6151 2702,6144 2714,6265 2641,6272 "/>
    <polygon class="fil12" points="2738,6141 2811,6133 2823,6254 2750,6262 "/>
    <polygon class="fil12" points="2843,6130 2916,6123 2927,6244 2855,6251 "/>
    <polygon class="fil7" points="4384,5932 4404,6132 3519,6218 3500,6019 3946,5975 "/>
    <polygon class="fil12" points="3604,6056 3677,6049 3689,6170 3616,6177 "/>
    <polygon class="fil12" points="3711,6045 3784,6038 3796,6159 3723,6166 "/>
    <polygon class="fil12" points="3815,6035 3887,6028 3899,6149 3826,6156 "/>
    <polygon class="fil12" points="4017,6015 4090,6008 4102,6129 4029,6136 "/>
    <polygon class="fil12" points="4126,6005 4199,5997 4210,6118 4138,6126 "/>
    <polygon class="fil12" points="4231,5994 4303,5987 4315,6108 4242,6115 "/>
    <polygon class="fil12" points="2250,6531 2323,6523 2335,6645 2262,6652 "/>
    <polygon class="fil12" points="2357,6520 2429,6513 2441,6634 2369,6641 "/>
    <polygon class="fil12" points="2460,6510 2533,6503 2545,6624 2472,6631 "/>
    <polygon class="fil12" points="2663,6490 2735,6483 2747,6604 2675,6611 "/>
    <polygon class="fil12" points="2772,6479 2844,6472 2856,6593 2783,6601 "/>
    <polygon class="fil12" points="2876,6469 2949,6462 2961,6583 2888,6590 "/>
    <polygon class="fil7" points="4416,6257 4437,6471 3552,6557 3532,6344 3978,6300 "/>
    <polygon class="fil12" points="3638,6395 3710,6387 3722,6509 3649,6516 "/>
    <polygon class="fil12" points="3744,6384 3817,6377 3829,6498 3756,6505 "/>
    <polygon class="fil12" points="3848,6374 3920,6367 3932,6488 3860,6495 "/>
    <polygon class="fil12" points="4050,6354 4123,6347 4135,6468 4062,6475 "/>
    <polygon class="fil12" points="4159,6343 4232,6336 4244,6457 4171,6465 "/>
    <polygon class="fil12" points="4264,6333 4336,6326 4348,6447 4276,6454 "/>
    <polygon class="fil12" points="2283,6870 2356,6862 2368,6983 2295,6991 "/>
    <polygon class="fil12" points="2390,6859 2463,6852 2474,6973 2402,6980 "/>
    <polygon class="fil12" points="2493,6849 2566,6842 2578,6963 2505,6970 "/>
    <polygon class="fil12" points="2696,6829 2769,6822 2780,6943 2708,6950 "/>
    <polygon class="fil12" points="2805,6818 2877,6811 2889,6932 2817,6939 "/>
    <polygon class="fil12" points="2909,6808 2982,6801 2994,6922 2921,6929 "/>
    <polygon class="fil7" points="4450,6604 4470,6810 3586,6896 3566,6691 4012,6647 "/>
    <polygon class="fil12" points="3671,6734 3743,6726 3755,6847 3683,6855 "/>
    <polygon class="fil12" points="3778,6723 3850,6716 3862,6837 3789,6844 "/>
    <polygon class="fil12" points="3881,6713 3954,6706 3966,6827 3893,6834 "/>
    <polygon class="fil12" points="4083,6693 4156,6686 4168,6807 4095,6814 "/>
    <polygon class="fil12" points="4192,6682 4265,6675 4277,6796 4204,6803 "/>
    <polygon class="fil12" points="4297,6672 4370,6665 4381,6786 4309,6793 "/>
    <path class="fil7" d="M4479 6944l11 118c-296,9 -592,14 -887,13l-5 -45 169 -17 278 -27 434 -42z"/>
    <path class="fil12" d="M3694 7055l119 -11 3 31c-40,0 -80,0 -120,0l-2 -20z"/>
    <path class="fil12" d="M3860 7039l119 -12 4 46c-40,1 -80,1 -120,1l-3 -35z"/>
    <path class="fil12" d="M4109 7015l118 -12 7 66c-40,1 -80,1 -120,2l-5 -56z"/>
    <path class="fil12" d="M4274 6998l118 -11 8 78c-40,1 -80,2 -120,3l-6 -70z"/>
    <path class="fil12" d="M2963 4354l3 1c3,3 7,4 13,4 0,0 1,0 1,0l17 4c-4,7 -9,13 -15,13 -14,1 -17,-9 -19,-22zm80 22l13 3c1,2 3,2 6,2l23 6c-1,1 -2,2 -2,5 -2,12 -2,21 -15,23 -2,0 -2,-3 0,-3 4,-1 11,-6 5,-5 -7,0 -17,-1 -16,-7 0,-2 2,-3 5,-3 2,0 4,3 8,2 8,-1 11,-13 -1,-14 -14,2 -24,6 -26,-8 0,0 0,-1 0,-1zm51 13l7 2c1,3 4,5 8,4 1,0 2,0 3,-1l9 3c-1,4 -8,6 -15,6 -5,1 3,5 7,4 2,0 2,3 0,3 -13,1 -15,-8 -19,-20 0,0 0,0 0,-1zm43 12l5 1c2,2 3,4 4,6 3,2 5,1 5,-1 -1,-1 -2,-2 -3,-3l5 1c3,2 4,3 5,1l9 3c0,0 0,0 0,0 -22,15 -49,5 -75,6 -1,0 -1,1 -1,1 0,0 0,0 -1,0 -26,4 -50,18 -75,8 11,-19 23,-27 39,-33 5,-1 19,-4 19,1 1,3 -9,1 -14,3 -15,4 -19,21 -17,23 2,4 9,3 19,1 10,-1 16,-1 22,-9 4,-6 2,-4 3,-18 0,-1 1,-2 3,-2 1,0 2,0 3,2 3,13 1,11 6,16 7,7 13,6 24,5 9,0 17,0 18,-4 0,-1 -1,-5 -3,-8zm35 9l6 2c-1,2 -1,6 2,8 -16,20 -68,4 -73,3 -1,0 -2,2 -1,4 2,2 8,6 10,11 3,9 -3,26 -18,27 -1,1 -1,1 -2,1 -1,0 -1,0 -2,0 -15,1 -25,-14 -23,-24 1,-4 6,-9 7,-13 1,-2 0,-3 -1,-3 -5,2 -52,28 -72,11 4,-5 -4,-15 -6,-8 0,9 -8,2 -7,-1 6,-9 21,0 30,2 13,4 43,-7 67,-11 1,0 1,0 2,0 1,0 2,0 3,0 24,-2 55,4 68,-2 3,-2 6,-5 10,-7zm13 4l3 0c-1,1 -2,1 -3,0zm-90 43c0,0 1,0 1,0 10,-1 18,-12 11,-23 0,9 -3,15 -12,15 0,0 0,0 -1,0 0,0 0,0 0,1 -9,0 -14,-4 -15,-14 -5,13 5,22 15,21 0,0 1,0 1,0zm-1 -15c0,0 0,0 0,0 8,-1 9,-8 6,-13 0,5 -4,8 -7,7 -3,1 -7,-1 -9,-5 -1,5 1,12 9,11 0,0 0,0 1,0zm-105 -47c-7,1 -15,-8 -17,-15 4,2 9,3 14,2 5,-2 5,-2 8,-6 6,7 6,18 -5,19zm12 13c-8,3 -15,-7 -17,-9 6,2 16,1 18,-5 2,5 4,11 -1,14zm4 10c-4,0 -6,-2 -7,-4 4,0 9,-2 10,-6 3,4 3,10 -3,10zm39 -15c-4,4 -6,11 -9,15 -2,3 -5,3 -4,1 2,-5 8,-14 13,-16zm-3 -2c-4,4 -8,8 -8,10 -6,7 -8,12 -10,8 -1,-1 2,-6 7,-10 3,-3 6,-7 11,-8zm32 62c-6,4 -20,2 -23,-5 8,-5 12,-9 17,-14 1,9 2,12 6,19zm-48 -15c5,-1 14,-1 20,-4 10,-4 15,-5 24,-10 -3,7 -13,14 -16,17 -7,8 -25,9 -28,-3zm93 11c6,2 20,-3 21,-10 -8,-3 -13,-6 -19,-10 1,9 0,12 -2,20zm44 -24c-5,0 -14,1 -20,0 -11,-2 -16,-2 -26,-5 5,6 15,11 19,13 9,6 26,4 27,-8z"/>
    <path class="fil12" d="M2963 4354l3 1c-1,-1 -2,-2 -4,-3 1,0 1,1 1,2zm17 5l17 4c1,-2 3,-5 4,-8 7,-14 21,-32 39,-30 16,3 27,18 29,42 0,5 -1,13 -6,14 0,0 -1,0 -1,0l23 6c1,0 2,-1 3,-1 3,0 5,1 6,3l7 2c-2,-3 -1,-8 6,-9 14,-2 25,0 23,-13 -1,-18 -8,-16 -9,-24 0,-4 4,-4 4,-1 -1,8 9,3 8,-2 0,-5 -3,-8 -10,-8 -11,2 -5,25 -4,34 0,6 -1,7 -7,8 -6,0 -8,-8 -9,-13 -2,-23 5,-40 20,-46 17,-5 35,9 45,22 5,7 14,18 22,17 15,-2 16,-15 15,-28 -4,6 -8,9 -15,10 -16,2 -39,-29 -61,-27 -14,2 -21,7 -27,25 -1,2 -2,2 -2,-1 1,-16 4,-21 8,-26 9,-12 19,-13 32,-14 20,-2 23,11 37,13 22,0 21,-28 8,-38 1,9 -11,19 -22,20 -11,1 -17,0 -28,1 -29,2 -43,26 -40,57 0,2 -2,2 -3,1l-3 -29 -1 -7c-1,-10 11,-28 18,-34 12,-12 31,-4 42,-17 23,-28 -14,-46 -39,-47 7,8 11,12 13,26 1,17 -6,21 -21,37 -7,6 -10,11 -14,19 -1,-10 -3,-32 3,-33 22,-2 27,-9 25,-21 -2,-31 -28,-32 -45,-42 -15,14 -40,19 -37,50 1,12 8,18 29,16 7,-1 9,21 10,31 -5,-6 -9,-11 -17,-15 -18,-13 -26,-16 -28,-33 -1,-14 2,-18 8,-28 -25,7 -58,31 -29,54 12,10 30,-1 44,9 8,4 23,19 24,30l1 6 2 29c0,2 -3,2 -3,0 -3,-31 -22,-51 -51,-48 -10,1 -16,3 -28,4 -10,1 -24,-6 -25,-15 -11,13 -6,40 15,36 14,-5 14,-18 35,-20 12,-2 23,-2 34,7 4,4 9,8 13,24 0,3 -1,3 -2,2 -10,-17 -18,-20 -32,-19 -21,2 -37,35 -53,38zm63 17l13 3c-1,-1 -1,-2 -2,-4 -1,-10 1,-34 -11,-33 -6,1 -8,5 -8,9 1,5 11,9 9,1 -1,-3 3,-4 3,0 1,8 -6,8 -4,24zm69 18l9 3c1,-1 1,-2 0,-4 0,-1 -2,-2 -5,-1 -1,0 -2,1 -4,2zm25 7l5 1c-2,-3 -5,-6 -7,-8 4,1 9,5 13,10l5 1c-1,-1 -3,-3 -6,-6 -1,-1 -6,-5 -10,-8 5,1 9,3 13,6 5,3 9,8 9,8 -1,1 -1,1 -1,1l9 3c-14,-17 -28,-22 -45,-24 -4,-1 -19,-1 -18,4 0,3 9,0 15,0 8,1 14,7 18,12zm35 9l6 2c2,-3 4,-4 6,-1 0,1 1,2 1,3l3 0c2,-1 4,-4 2,-5 -4,-5 -11,-3 -18,1zm-91 -98c-1,0 -2,-2 -2,-4 -1,-11 -5,-22 -5,-34 0,-5 1,-7 2,-8 2,0 4,3 4,7 3,12 1,24 2,35 0,2 0,4 -1,4zm-19 -91c-5,3 -7,12 -6,22 0,5 6,12 9,13 -3,-5 -7,-18 -3,-35zm20 132c-1,-3 -4,-3 -4,1 2,14 -4,14 -4,20 0,4 1,7 6,5 5,0 3,-8 3,-12l-1 -14zm-62 -67c-3,7 -14,13 -22,14 -27,3 -29,-27 -9,-43 1,20 13,31 31,29zm-26 43c-2,14 -6,23 -18,24 -15,0 -16,-22 -14,-31 9,13 21,13 32,7zm68 42c2,0 4,2 3,4 -1,3 -4,3 -5,1 -1,-2 -1,-5 2,-5zm19 -152c6,2 10,11 11,20 0,6 -3,13 -6,15 1,-6 3,-19 -5,-35zm7 133c0,-3 3,-3 3,1 1,14 8,13 9,18 0,4 -1,7 -6,7 -4,1 -4,-8 -5,-12l-1 -14zm47 -77c5,6 17,10 25,9 27,-2 23,-32 1,-44 2,20 -7,33 -26,35zm34 37c5,13 11,21 22,20 15,-3 13,-25 8,-33 -6,15 -18,17 -30,13zm-58 54c-3,0 -3,3 -2,5 1,2 4,2 5,-1 1,-1 0,-4 -3,-4zm77 10c6,-1 13,-12 13,-18 -4,2 -8,4 -13,4 -6,0 -6,-1 -9,-5 -5,9 -2,20 9,19zm-10 14c8,2 14,-9 15,-12 -5,4 -16,5 -18,-1 -2,6 -3,11 3,13zm-2 11c3,-1 5,-3 6,-5 -4,1 -9,0 -11,-3 -2,4 -1,10 5,8z"/>
    <path class="fil9" d="M2572 4418l153 95 339 209 -631 62 -490 48c-6,-31 -15,-62 -27,-92l178 -166 132 -122 346 -34z"/>
    <polygon class="fil13" points="3301,4597 2922,4634 2815,4568 3392,4512 "/>
    <polygon class="fil12" points="3612,6520 3612,6520 3615,6500 3615,6500 "/>
    <polygon class="fil12" points="3626,6686 3626,6686 3619,6667 3619,6667 "/>
    <polygon class="fil9" points="3348,7073 3351,7070 3356,7073 "/>
    <polygon class="fil13" points="3348,7073 3351,7070 3356,7073 "/>
    <path class="fil13" d="M2103 5002l-141 144 -37 3c8,-27 14,-55 19,-82l59 -55 100 -10z"/>
    <polygon class="fil13" points="2136,5336 1994,5480 1880,5491 2036,5346 "/>
    <polygon class="fil13" points="2168,5659 2022,5827 1914,5838 2064,5669 "/>
    <polygon class="fil13" points="2201,5998 2063,6160 1946,6171 2098,6008 "/>
    <polygon class="fil13" points="2235,6343 2095,6485 1978,6496 2132,6354 "/>
    <polygon class="fil13" points="2268,6683 2128,6832 2012,6843 2165,6693 "/>
    <path class="fil13" d="M2332 4442l-384 390 -5 0c-6,-31 -15,-62 -27,-92l178 -166 132 -122 106 -10z"/>
    <path class="fil13" d="M2786 3273l-426 897 -61 6 -61 6 340 -750 79 -174c20,2 40,4 59,7 24,2 47,5 70,8z"/>
   </g>
   <g>
    <path class="fil14" d="M5701 4743c-26,-42 -72,-68 -121,-68 -7,0 -14,0 -20,1l0 101 60 0 49 -12 32 -22z"/>
    <path class="fil15" d="M5701 4743c-26,-42 -72,-68 -121,-68 -7,0 -14,0 -20,1l0 101 60 0 49 -12 32 -22z"/>
    <path class="fil16" d="M5555 4703l75 53c0,0 1,-11 3,-25 3,-27 12,-68 30,-76 27,-12 334,-127 225,-166 -109,-39 -275,88 -275,88 0,0 -9,3 -22,32 -8,14 -17,40 -24,61 -7,18 -12,33 -12,33z"/>
    <polygon class="fil17" points="4957,4784 4949,4780 4925,4807 4944,4849 4978,4835 4970,4802 "/>
    <path class="fil16" d="M4702 6207c0,0 46,131 66,160 20,30 33,85 33,85l18 110c4,25 6,50 6,75 0,25 45,389 45,389l18 22c53,-2 106,-4 159,-7 -7,-107 -21,-260 -21,-260l-89 -621 -235 47z"/>
    <path class="fil15" d="M4702 6207c0,0 7,20 16,46 16,40 38,96 50,114 20,30 33,84 33,84l18 111c4,25 6,50 6,75 0,10 7,73 16,145 13,111 29,244 29,244l18 22c53,-2 106,-4 159,-7 -5,-68 -12,-155 -17,-209 -2,-31 -4,-50 -4,-50l-76 -535 -7 -43 -6 -44 -235 47z"/>
    <path class="fil16" d="M4981 7044c17,-59 36,-144 49,-212 11,-59 18,-106 17,-112 -4,-16 7,-128 7,-128 0,0 13,-114 32,-151 13,-24 37,-114 53,-171 7,-30 13,-51 13,-51 0,0 -131,-11 -209,-15 -36,-2 -62,-2 -59,1 3,3 4,19 4,41 0,59 -9,163 -17,191 -13,39 -25,155 -19,166 5,11 3,86 3,86 -9,30 -14,62 -15,93 -1,21 -1,41 -1,62 0,35 1,71 4,106 1,16 -1,57 -4,100 47,-2 95,-4 142,-6z"/>
    <path class="fil16" d="M4750 4834l270 72c5,24 8,51 10,75 4,47 4,85 4,85l-20 5 -77 21 -145 -16 -56 -60 -10 -10 -15 -17 3 -16 1 -8 17 -107c4,-2 7,-6 10,-10 2,-2 4,-5 5,-8l0 0c1,-2 2,-4 3,-6z"/>
    <path class="fil16" d="M4750 4834l270 72c-7,-35 -18,-65 -35,-77 -14,-11 -25,-25 -32,-41 -6,-11 -11,-23 -14,-35 -1,-2 -1,-3 -2,-5 -6,-20 -11,-42 -13,-63 -3,-22 -19,-11 -45,-23 -67,-31 -183,-74 -143,23 6,14 11,28 15,43 1,2 1,5 2,7 12,48 6,80 -3,99z"/>
    <path class="fil15" d="M4736 4690c8,19 -4,-15 0,0 31,22 103,84 143,84 28,0 36,-5 60,-15 -8,-23 -13,-46 -16,-69 -3,-23 -243,-134 -187,0z"/>
    <path class="fil16" d="M4674 4577c0,0 0,0 0,0 0,96 73,177 168,187 6,0 13,1 19,1 0,0 1,0 1,0 103,0 187,-84 187,-188 0,-103 -84,-187 -187,-187 -104,0 -188,84 -188,187l0 0z"/>
    <path class="fil15" d="M4652 5235l432 -2c4,41 8,89 8,89 0,0 21,69 19,114 0,7 -1,15 -4,23 -11,29 -263,24 -377,21 -34,-1 -56,-2 -56,-2l-27 -70 5 -173z"/>
    <path class="fil15" d="M4652 5235l432 -2c-2,-28 -4,-52 -4,-54 0,-6 10,-103 10,-103l-20 -77 -58 -41c0,0 -26,39 -41,43 -16,3 -36,22 -36,22 0,0 -51,31 -67,14 -17,-17 -144,-93 -144,-93l-67 74 -5 217z"/>
    <path class="fil18" d="M4652 5235l431 -2c4,42 9,99 9,99 0,0 21,69 19,114 0,3 0,7 -1,10 0,5 -1,9 -3,13 -2,7 -19,12 -43,15 -65,10 -191,9 -281,7l-50 -1 -3 0c-34,-1 -56,-2 -56,-2l-27 -70 5 -183z"/>
    <path class="fil18" d="M4652 5235l431 -2c-2,-24 -3,-43 -3,-45 0,-6 10,-102 10,-102l-20 -77 -40 -28 -18 -13c-6,9 -13,18 -20,26 -5,8 -13,14 -21,17 -16,4 -36,23 -36,23 0,0 -51,31 -67,13 -13,-13 -90,-60 -126,-82l-18 -11 -9 10 -58 64 -5 207z"/>
    <path class="fil15" d="M5555 4703l75 53c0,0 1,-11 3,-25 -37,-16 -60,-50 -66,-61 -7,18 -12,33 -12,33z"/>
    <path class="fil19" d="M5251 4968l340 91c-2,6 -4,10 -4,10 0,0 -16,76 -105,72 0,0 -122,22 -148,0 -27,-23 -51,-41 -64,-43 -10,-4 -18,-10 -24,-18l0 -102 5 -10z"/>
    <path class="fil19" d="M5251 4968l340 91c11,-26 40,-101 42,-131 1,-37 68,-185 68,-185 -91,31 -141,-67 -141,-67 0,0 -40,87 -40,108 0,21 -48,119 -48,119 0,0 -24,25 -16,45 9,20 -19,16 -19,16l-38 -30c0,0 -33,-22 -48,-25 -16,-4 -42,-32 -42,-32l-17 4 -41 87z"/>
    <path class="fil15" d="M5437 5017l5 2 -5 48c-7,-5 -4,-28 0,-50z"/>
    <path class="fil15" d="M5437 5017l5 2 3 -41c0,0 -5,19 -8,39z"/>
    <path class="fil15" d="M4730 5490c114,4 366,8 377,-21 3,-7 4,-15 4,-23l-373 20 -8 24z"/>
    <path class="fil15" d="M4702 6207c0,0 7,20 16,46 48,-3 111,-6 170,-7 21,0 42,0 62,1 33,0 67,4 100,11 25,8 51,12 78,12 4,0 7,0 11,0 8,-30 13,-52 13,-52 0,0 -130,-10 -208,-14l-7 -44 -235 47z"/>
    <path class="fil20" d="M4601 5893l15 31c0,0 2,9 4,24 6,31 14,88 11,133 -4,66 10,167 10,167 0,0 316,-27 409,0 93,27 138,0 138,0 0,0 -11,-100 16,-151 19,-36 33,-192 33,-295 0,-48 -2,-84 -8,-91 -19,-24 -100,-256 -100,-256l-18 1 -49 3 -280 15 -44 2 -5 14 -132 403z"/>
    <path class="fil14" d="M4462 5790l-3 27c0,0 139,-45 132,-100 -7,-56 0,-49 0,-49l-112 9 -17 113z"/>
    <path class="fil15" d="M4462 5790l-3 27c0,0 139,-45 132,-100 -7,-56 0,-49 0,-49l-112 9 -17 113z"/>
    <path class="fil15" d="M5350 4994l7 2c-1,2 -3,3 -4,4l0 0c-13,11 -28,19 -43,24 -2,1 -4,1 -6,2 2,-1 4,-1 6,-2 3,-1 6,-3 8,-5 10,-7 20,-15 29,-22 1,-1 2,-2 3,-3z"/>
    <path class="fil15" d="M5350 4994l7 2c7,-5 12,-11 17,-18 -8,2 -17,10 -24,16z"/>
    <path class="fil15" d="M5384 5003l5 2c0,4 -11,18 -13,21 -5,9 -9,18 -13,27l-22 54c-3,-8 -4,-16 -4,-24 0,-3 0,-5 0,-7 0,-1 0,-1 0,-2 0,-7 1,-14 3,-20 3,-7 6,-12 11,-17 3,-4 22,-29 33,-34z"/>
    <path class="fil15" d="M5384 5003l5 2c0,-1 0,-1 0,-1 -1,-2 -3,-2 -5,-1z"/>
    <path class="fil15" d="M4731 5333c-15,-2 -30,-8 -41,-19 23,3 45,12 67,17 8,1 15,2 23,2 14,0 27,-3 40,-8 -26,13 -61,13 -89,8z"/>
    <path class="fil15" d="M4795 5176c1,0 2,0 3,0 3,0 6,-1 9,-3 17,-10 34,-20 51,-31 18,-10 34,-21 50,-34 -35,31 -66,57 -113,68z"/>
    <path class="fil15" d="M4748 5358c-2,0 -3,0 -5,0 -7,0 -15,0 -22,-2 -9,-2 -17,-7 -22,-14 1,-1 2,-1 3,-1 2,0 4,1 6,2 20,8 41,12 62,12 8,0 16,0 25,-2 -14,6 -32,5 -47,5z"/>
    <path class="fil15" d="M4911 5757c18,6 36,9 55,11 5,0 10,1 15,1 9,0 19,-1 28,-2l70 -4 36 -2c4,0 21,0 13,-9 -5,-4 -28,-1 -34,-1 -12,0 -24,-1 -35,-1 -24,0 -47,0 -70,2 -26,1 -52,3 -78,5z"/>
    <path class="fil15" d="M4992 5792c12,0 28,7 40,8 10,2 21,2 31,2 4,0 7,0 10,0 28,-1 55,-6 80,-16 -54,2 -107,4 -161,6z"/>
    <path class="fil15" d="M5143 5829c-5,1 -11,2 -16,4 -29,9 -61,1 -91,-6 8,11 22,16 35,19 13,3 26,5 39,5 10,0 19,-1 28,-3 7,-1 25,-3 29,-11 5,-11 -18,-9 -24,-8z"/>
    <path class="fil15" d="M4976 5884c-9,2 -17,5 -26,7 -33,8 -68,-3 -102,-10 -34,-8 -69,-12 -104,-12 -6,0 -13,0 -19,0 8,0 20,7 27,9 9,3 19,5 28,8 19,5 39,8 58,11 28,4 56,6 84,6 11,0 23,0 34,-1 18,-1 49,1 64,-8 -11,-6 -23,-10 -36,-10 -3,0 -5,0 -8,0l0 0z"/>
    <path class="fil15" d="M5039 5233l44 0c4,42 9,99 9,99 0,0 21,69 19,114 0,3 0,7 -1,10l19 -1c0,0 81,232 99,256 6,7 9,43 9,91 -8,-8 -18,-14 -28,-19 -32,-14 -129,-187 -145,-298 -1,-7 -2,-14 -2,-20 0,-2 0,-4 0,-6 -4,-59 -14,-151 -23,-226z"/>
    <path class="fil15" d="M5039 5233l44 0c-2,-24 -3,-42 -3,-45 0,-6 10,-102 10,-102l-21 -77 -39 -28c-2,-24 -5,-51 -10,-75l-54 -15c2,18 5,36 9,48 4,12 10,32 17,56 8,26 16,54 22,77 7,22 11,38 11,38 0,0 7,54 14,123z"/>
    <path class="fil15" d="M4966 4891l54 15c-7,-35 -18,-65 -35,-77 -10,-8 -18,-17 -25,-28 -3,-4 -5,-9 -7,-13 -6,0 4,-4 4,-4l3 17 4 23c0,0 -1,34 2,67z"/>
    <path class="fil19" d="M5045 5233l227 -1c12,61 25,119 34,129 19,22 195,312 132,364 -49,39 -102,74 -157,105 -7,4 -32,-43 -66,-57 -35,-15 -141,-209 -148,-318 -4,-56 -13,-146 -22,-222z"/>
    <path class="fil19" d="M5045 5233l227 -1c-14,-74 -26,-151 -26,-151l32 -106 -306 -82c2,14 5,27 8,36 13,36 50,170 50,170 0,0 7,60 15,134z"/>
    <path class="fil19" d="M4972 4893l306 82 31 -98c0,0 -31,-21 -29,-24 3,-4 -17,-20 -28,-25 -11,-5 -17,-17 -28,-37 -11,-21 -28,-5 -37,-9 -8,-3 -116,10 -126,13 -10,3 -49,3 -69,-10 -8,-5 -17,-8 -27,-8 -5,0 -11,1 -16,3l20 34c0,0 -1,42 3,79z"/>
    <path class="fil15" d="M4652 5235l56 -1c-5,36 -10,66 -13,79 -11,42 87,159 87,161 0,1 0,7 1,17 1,33 3,106 -1,191 -6,116 -133,245 -154,263 -2,1 -5,2 -8,3 -2,-15 -4,-24 -4,-24l-15 -31 132 -403 -3 0c-34,-1 -56,-2 -56,-2l-27 -70 5 -183z"/>
    <path class="fil15" d="M4652 5235l56 -1c11,-80 24,-189 24,-189l4 -29 6 -50 16 -121 -17 4c-2,4 -6,7 -10,10l-16 106 -58 64 -5 206z"/>
    <path class="fil19" d="M4542 5235l155 -1c-5,34 -9,61 -13,74 -10,42 87,160 87,160 0,0 1,8 1,23 2,35 4,105 -1,186 -6,115 -132,245 -154,262 -21,18 -37,-39 -37,-39 0,0 6,-53 14,-117 4,-36 9,-74 14,-109 8,-57 16,-104 21,-113 13,-26 -16,-108 -16,-108 0,0 -3,-84 -21,-103 -18,-20 -13,-70 -13,-70 0,0 -5,-21 -6,-30 -2,-10 -26,0 -26,0 0,0 -2,-6 -5,-15z"/>
    <path class="fil19" d="M4542 5235l155 -1c11,-80 24,-194 24,-194l5 -35 5 -37 1 -8 15 -120 0 0c-2,0 -99,22 -112,35 -12,13 -91,31 -91,31 -24,6 -43,26 -48,50 -1,2 -2,5 -2,7 -11,50 -7,56 -14,65 -6,7 45,159 62,207z"/>
    <path class="fil15" d="M4594 5783c35,-7 87,-24 86,-59 -1,-34 -41,-46 -72,-50 -5,35 -10,73 -14,109z"/>
    <path class="fil16" d="M4485 5765c1,3 7,5 15,8 19,4 38,8 57,9 19,2 119,-9 118,-63 -1,-39 -55,-49 -86,-52 -12,-1 -20,-1 -20,-1 0,0 -89,88 -84,99z"/>
    <path class="fil15" d="M4485 5765c1,3 7,5 15,8 31,-42 75,-95 96,-100 0,0 -3,-2 -7,-6 -11,-1 -20,-1 -20,-1 0,0 -89,88 -84,99z"/>
    <path class="fil19" d="M4339 5236l214 -1 -6 15c0,0 -47,26 -54,65 -7,38 -57,105 -57,105 0,0 7,24 0,36 -8,12 1,19 20,27 18,8 35,51 36,64 0,13 19,69 39,76 20,7 59,45 59,45 -35,8 -131,149 -131,149l-46 -85c-8,-18 -18,-35 -30,-51 -13,-18 -63,-72 -62,-83 1,-10 -16,-69 -33,-96 -17,-27 -24,-80 -23,-84 4,-25 7,-50 7,-75 0,-30 41,-57 41,-57 0,0 13,-30 26,-50z"/>
    <path class="fil19" d="M4339 5236l214 -1 20 -50 -58 -162 -35 5c-13,22 -27,44 -42,65 -10,11 -15,26 -16,41 0,15 -51,76 -68,85 -4,2 -10,9 -15,17z"/>
    <path class="fil15" d="M4387 5344c-19,-17 -44,-26 -69,-26 16,2 33,6 45,17 5,5 9,11 13,17 4,5 37,48 42,41 8,-10 -24,-43 -31,-49z"/>
    <path class="fil15" d="M4430 5235l22 0c2,12 13,68 13,68 0,0 0,0 0,0 0,0 0,0 0,0 -11,-1 -20,-7 -24,-17 -5,-10 -7,-20 -8,-31 -1,-6 -2,-13 -3,-20z"/>
    <path class="fil15" d="M4430 5235l22 0c-1,0 -1,-1 -1,-1 -3,-12 -6,-24 -9,-35 -3,-10 -4,-26 -11,-33 -3,5 -5,10 -7,16 -2,3 -3,6 -3,10 0,0 0,0 0,1 0,3 0,7 1,10 3,11 6,22 8,32z"/>
    <path class="fil15" d="M4750 4833l31 9c-3,9 -4,18 -2,28 3,10 5,21 7,31 1,18 -10,34 -23,46 -7,7 -15,13 -24,17 -3,1 -5,3 -8,4 -6,2 -11,4 -17,6 -3,0 -6,1 -8,1 -7,2 -14,2 -20,2 -2,0 -4,0 -6,0 -13,0 -26,-3 -39,-3 -1,0 -1,0 -2,0 -12,0 -25,6 -33,16 -7,9 -8,23 -17,31 -6,5 -13,7 -21,8 -9,2 -20,2 -24,-6 -1,-4 -2,-8 -2,-13 0,-1 0,-2 0,-4 -2,-17 -21,-27 -35,-38 -4,-3 -8,-7 -11,-12 5,-24 24,-43 48,-50 0,0 78,-18 91,-31 13,-13 109,-34 112,-35l0 0c1,-2 2,-4 3,-7z"/>
    <path class="fil15" d="M4750 4833l31 9c5,-20 20,-38 34,-53 9,-8 18,-17 27,-25 14,-13 24,-28 32,-45 4,-14 6,-28 6,-42 0,-4 0,-9 -1,-14 -1,-14 -2,-27 -2,-40 0,-6 0,-12 0,-18 7,-68 66,-121 124,-149l2 -2c-35,-39 -86,-62 -140,-62 -103,0 -187,84 -187,187 0,59 28,114 75,150 1,2 1,4 2,6 12,48 6,79 -3,98z"/>
    <path class="fil21" d="M4515 4770l259 70c-1,6 -1,13 0,20 3,10 5,21 7,31 0,18 -9,35 -22,46 -22,19 -50,30 -78,30 -2,0 -4,0 -6,0 -13,-1 -26,-4 -39,-3 0,0 -1,0 -1,0 -13,0 -26,5 -34,15 -7,10 -8,24 -17,32 -6,4 -13,7 -20,8 -9,1 -20,2 -25,-6 -1,-4 -2,-9 -2,-13 0,-1 0,-3 0,-4 -2,-17 -21,-27 -34,-38 -19,-16 -30,-40 -30,-65 0,-9 1,-18 4,-27 2,-6 6,-12 10,-16 12,-9 31,-6 43,-15l-13 -57c-1,-3 -1,-5 -2,-8z"/>
    <path class="fil21" d="M4515 4770l259 70c4,-23 20,-44 37,-61 21,-22 47,-42 58,-71 13,-35 0,-75 4,-113 6,-69 65,-121 123,-150 13,-6 35,-23 20,-40 -4,-5 -10,-7 -13,-11 -13,-13 0,-35 -5,-52 -5,-20 -28,-28 -48,-26 -20,2 -39,11 -58,13 -31,4 -61,-10 -91,-18 -30,-7 -66,-8 -87,15 -21,23 -19,62 -45,79 -12,8 -27,8 -40,14 -14,8 -25,19 -33,32 -17,27 -27,59 -27,91 0,6 1,11 1,17 2,21 8,40 11,61 1,6 1,13 1,20 0,15 -2,29 -5,43 -6,21 -18,44 -39,51 -5,1 -9,2 -14,5 -10,6 -11,19 -9,31z"/>
    <path class="fil15" d="M4745 4832l28 8c-1,6 -1,13 0,20 3,10 6,20 8,31 1,17 -10,34 -23,46 -21,19 -49,30 -78,30 -2,0 -3,0 -5,0 -13,-1 -26,-4 -39,-4 -1,0 -1,0 -2,0 -13,0 -25,6 -33,16 -7,10 -8,24 -17,32 -6,4 -13,7 -21,7 -9,2 -20,3 -24,-5 -2,-3 -2,-6 -2,-9 0,0 0,-1 0,-1 7,-1 14,-4 19,-8l0 0c10,-8 11,-22 17,-32 9,-10 21,-15 34,-15 0,0 1,0 1,0 14,-1 27,2 40,3 2,0 3,0 5,0 29,0 57,-11 78,-30 13,-12 23,-28 22,-45 -1,-11 -4,-21 -7,-32 -1,-4 -1,-8 -1,-12z"/>
    <path class="fil15" d="M4745 4832l28 8c4,-23 20,-44 37,-61 22,-22 48,-42 58,-71 14,-36 1,-76 4,-114 7,-68 65,-120 123,-149 14,-7 36,-23 21,-41 -4,-4 -10,-6 -13,-11 -13,-13 -1,-34 -5,-52 -5,-14 -17,-24 -32,-25 2,3 4,6 5,10 4,17 -8,39 4,52 4,4 10,6 14,11 15,17 -7,34 -21,41 -58,28 -116,80 -123,149 -4,38 9,78 -4,114 -11,29 -36,49 -58,70 -19,19 -37,43 -38,69z"/>
   </g>
   <g>
    <path class="fil4" d="M7092 5225l224 -1c-26,90 -24,180 24,264 118,209 460,296 737,423 -7,4 -14,8 -20,13 -102,63 -156,111 -111,155 44,43 188,83 268,161 80,77 97,194 35,258 -62,64 -203,76 -339,104 -136,28 -266,72 -391,144 -80,46 -158,104 -232,157 -187,20 -375,34 -564,46 -44,-48 -81,-108 -101,-174 -39,-128 -13,-278 -40,-423 -26,-146 -105,-286 -63,-405 41,-119 203,-216 305,-236 103,-20 145,37 207,86 62,49 144,88 165,7 22,-81 -18,-282 -66,-453 -12,-44 -26,-86 -38,-126z"/>
    <path class="fil4" d="M7092 5225l224 -1c22,-79 66,-157 119,-230 -34,-70 -75,-147 -146,-168 -81,-24 -202,24 -234,119 -23,70 3,166 37,280zm657 -587c3,-8 6,-16 9,-24 87,-215 200,-455 290,-554 45,-48 84,-63 113,-46 -41,224 -223,424 -412,624z"/>
    <path class="fil5 str1" d="M6854 6940c290,-355 573,-706 745,-978 46,-73 84,-140 116,-202"/>
    <path class="fil5 str1" d="M7211 6496c168,-64 337,-128 455,-164 119,-36 188,-43 257,-50"/>
    <path class="fil5 str1" d="M7069 6675c-1,-146 -2,-292 -39,-415 -36,-122 -109,-221 -182,-320"/>
    <path class="fil5 str1" d="M7644 5890c-16,-63 -31,-125 -47,-185"/>
   </g>
   <g>
    <path class="fil22" d="M5696 5231l389 -2c-11,20 -45,67 -45,67 0,0 -10,39 -59,65 -48,26 -102,-5 -110,-15 -8,-10 -149,-72 -177,-84 -2,-1 -4,-2 -5,-2 0,-1 0,-1 0,-2 0,0 0,0 0,0 0,-1 0,-1 0,-1l-5 -2 5 2c1,-4 2,-10 5,-18 0,-1 0,-1 0,-2 0,-1 0,-1 1,-2 0,-2 1,-3 1,-4zm431 -2l768 -3c0,16 1,62 -3,74 -3,8 3,95 9,166 0,5 1,10 1,15 5,-6 9,-14 11,-22 1,-12 52,-67 76,-70l1 -59 1 -42c0,0 1,23 -1,42 -1,14 -3,26 -8,26 -10,-1 -19,-27 -19,-27 0,0 -46,-54 -65,-103l309 -1c7,14 15,31 10,40 -7,13 -14,26 -19,40 0,0 -38,72 -58,86 -19,14 -108,129 -108,129 0,0 -96,109 -96,143 0,0 -5,-9 -14,-23l14 241c0,0 -33,29 -40,32 -34,23 -92,-14 -101,-21 -5,-4 -37,-3 -65,-1 6,130 -20,155 -20,155l-3 114c0,0 4,173 -8,200 -12,27 -12,137 -12,137 0,0 8,53 -1,64 -9,11 -3,53 4,75 6,21 1,75 1,75l-2 240c-69,4 -138,8 -207,12l-42 3c1,-10 2,-19 3,-24 2,-19 14,-112 14,-112 0,0 -6,-118 -1,-123 5,-5 21,-51 13,-67 -8,-15 -21,-115 -21,-121 0,-6 -11,-136 -11,-136 0,0 -10,-91 -7,-110 2,-20 -7,-91 -7,-91 0,-60 -34,-124 -34,-124l-1 2 -76 197c0,0 -12,60 -22,93 -7,23 -12,47 -16,70l-1 4c0,2 -1,4 -1,5l0 3 0 0c0,0 6,43 -3,56 -9,14 -19,55 -19,66 0,12 1,55 1,55 0,0 3,86 -6,96 -9,9 -4,17 -4,17 0,0 15,66 8,82 -6,17 -1,57 -1,57 0,0 -8,83 -12,117 -74,4 -147,9 -220,13l1 -8c0,0 7,-37 1,-66 -5,-29 -10,-119 -10,-119 0,0 4,-69 -3,-93 -8,-25 5,-70 7,-81 2,-10 -7,-106 -7,-106 0,0 8,-45 3,-78 -5,-33 5,-154 5,-154l14 -140c0,0 11,-44 9,-61 -1,-18 12,-78 12,-80 0,-2 0,-3 0,-5 0,-12 2,-23 7,-34 3,-8 5,-16 6,-25 -23,-17 -37,-48 -37,-48l0 0c-3,-5 -5,-9 -5,-9l13 -55c0,0 1,-75 9,-90 8,-14 13,-56 13,-56 0,0 15,-92 18,-112 -2,0 -3,0 -5,0 -1,0 -2,0 -4,0l2 -10c0,0 -1,0 -2,0 -1,0 -3,0 -5,0 0,0 35,-174 54,-214 12,-26 15,-83 15,-118z"/>
    <path class="fil23" d="M5696 5231l389 -2c2,-4 4,-6 4,-8 1,-10 38,-21 38,-21 0,0 0,12 0,29l768 -3c0,-3 0,-6 0,-6l0 0 1 -1c1,2 1,5 2,7l309 -1c-5,-10 -9,-18 -7,-22 3,-8 -21,-58 -21,-60 0,-2 -25,-30 -25,-45 0,-15 -34,-48 -34,-48 0,0 -44,-19 -49,-59 -5,-40 -53,-41 -53,-41l0 0c0,0 0,-4 0,-9 0,-13 -1,-35 -6,-47 -6,-11 -16,-20 -28,-23 -12,-4 -5,-32 -14,-42 -8,-8 -13,-20 -13,-31 0,-4 0,-8 1,-12 5,-15 -6,-54 -30,-59 -23,-5 -50,-15 -50,-15 0,0 -2,1 -6,1l-3 -1c-6,1 -12,2 -17,3 -1,0 -1,0 -1,0 -5,0 -9,-2 -13,-5 -8,-9 -73,-26 -86,-26 -12,0 -47,-16 -47,-16l-35 -27c-9,-7 -28,-37 -30,-42l0 0 0 0 0 0c-3,-7 -6,-14 -8,-22l0 0c12,-12 22,-26 30,-41 1,-2 2,-3 3,-5 1,0 3,0 5,-1l2 0c8,-5 14,-12 17,-21l0 0c1,-2 1,-3 2,-5l0 -2c0,-1 1,-2 1,-4l0 -2c0,-1 1,-2 1,-3 0,-2 0,-2 0,-2 0,-1 0,-4 0,-5l0 0c1,-6 2,-11 3,-17 0,0 0,0 0,0 1,-5 0,-1 0,0 0,0 0,0 0,0l0 0c0,0 0,0 0,0 0,0 0,0 0,0 5,-22 18,-40 27,-60l0 0c2,-3 3,-6 4,-9 1,-3 2,-7 3,-10 0,-1 1,-2 1,-3 1,-2 1,-5 2,-7 0,-1 0,-2 0,-3 1,-4 1,-7 1,-10 1,-4 1,-8 1,-11 0,-16 -3,-31 -9,-46 -6,-15 -15,-29 -21,-44 -9,-23 -12,-49 -23,-70 -19,-37 -64,-55 -101,-41 -18,6 -33,19 -51,25 -23,7 -49,1 -74,-2 -25,-3 -52,-4 -72,12 -23,19 -29,54 -51,74 -9,9 -20,15 -29,22 -7,6 -12,13 -15,21 0,1 -1,1 -1,2 0,0 0,1 0,2 0,1 -1,1 -1,2 0,1 0,1 0,2 0,1 0,1 0,2 0,1 0,1 0,2l0 0c0,2 1,3 1,4 0,1 0,1 0,1 0,1 1,3 1,4l0 0c0,2 1,3 1,4 1,1 1,1 1,2 0,0 1,1 1,1 3,6 6,13 7,19 1,2 1,3 1,5 0,2 0,5 -1,7 -2,5 -6,9 -9,12 -16,17 -29,37 -37,59 -1,2 -2,5 -2,7l0 0 1 0c2,1 4,2 7,2 1,0 2,0 4,0 1,1 2,1 3,1 5,0 9,-1 13,-2l4 -1c6,-1 12,-3 17,-6 0,2 0,4 0,5 0,2 0,2 0,3 0,73 41,139 106,171l1 5 1 5 -3 -2c0,0 -14,-8 -28,13 -10,14 -24,24 -40,31 -15,6 -147,23 -153,42l-68 4c0,0 -25,4 -27,54 -3,51 -16,56 -16,56 0,0 -28,50 -26,75 3,26 -22,39 -22,39l-3 46c0,0 -27,-4 -34,27 -7,31 -20,46 -20,46 0,0 -45,37 -47,68l-24 15 -4 2c0,0 -23,-5 -45,-15l-268 -72c2,5 5,9 8,12l96 103 2 2 21 26c-3,9 -6,17 -9,24l0 1c0,2 -1,3 -1,5l-1 1c0,0 0,0 0,1z"/>
    <path class="fil24" d="M5580 5056l268 72c-14,-7 -28,-15 -33,-25l-5 -4c0,-1 0,-1 0,-1l0 0c-10,-9 -30,-28 -27,-24 1,3 2,6 2,9 0,1 0,3 -1,4l-5 -5 -12 -14c0,0 -95,-109 -156,-117l0 0c-13,4 -23,14 -27,27 -7,21 -13,55 -4,78z"/>
    <path class="fil25" d="M5703 5231l170 -1 13 27 -46 32c0,0 -100,3 -147,-20 0,0 3,-16 10,-38z"/>
    <path class="fil25" d="M5703 5231l170 -1 -53 -110 -18 -5c-54,11 -84,73 -99,116z"/>
    <path class="fil25" d="M5802 5115l18 5 -3 -6c-5,0 -10,0 -15,1z"/>
    <path class="fil26" d="M5707 5231l170 -1 13 27 -46 32c0,0 -71,2 -121,-11 -9,-2 -18,-5 -27,-9 -8,-3 0,-1 1,-2 0,0 0,0 0,0 0,-1 0,-1 0,-1 3,-12 6,-24 10,-35z"/>
    <path class="fil26" d="M5707 5231l170 -1 -31 -65 -22 -44 -21 -5c-6,1 -12,3 -18,6 -27,13 -47,39 -60,66 -4,7 -7,14 -10,21 -3,7 -6,14 -8,22z"/>
    <path class="fil26" d="M5803 5116l21 5 -2 -4 -1 -3 -2 0 -3 0c-4,0 -9,1 -13,2z"/>
    <path class="fil14" d="M6675 5900c0,0 100,-10 109,-3 8,8 65,44 99,21 33,-23 11,-104 11,-107 0,-3 -3,-117 -3,-117l-60 -81 -75 -141 -154 -15 4 224 0 115 69 104z"/>
    <path class="fil27" d="M6675 5900c0,0 100,-10 109,-3 8,8 65,44 99,21 33,-23 11,-104 11,-107 0,-3 -3,-117 -3,-117l-60 -81 -75 -141 -154 -15 4 224 0 115 69 104z"/>
    <path class="fil28" d="M5577 5055l220 59c-3,19 -15,93 -68,95 0,0 -18,-11 -41,-28 -38,-28 -91,-75 -111,-126z"/>
    <path class="fil28" d="M5577 5055l220 59c0,-3 0,-4 0,-4l-14 -17 -13 -14c0,0 -163,-188 -196,-86 -7,21 -5,42 3,62z"/>
    <path class="fil15" d="M5779 5109l18 5c-3,19 -15,93 -68,95 0,0 -18,-11 -41,-28l-5 -7c10,6 22,9 33,9 1,0 2,0 2,0 18,0 35,-10 42,-27 6,-12 12,-25 17,-39 1,-2 1,-5 2,-8z"/>
    <path class="fil15" d="M5779 5109l18 5c0,-3 0,-4 0,-4l-14 -17c-1,6 -2,11 -4,16z"/>
    <path class="fil29" d="M5728 5230l108 0c-8,25 -27,50 -65,56l-14 -18 -29 -38z"/>
    <path class="fil29" d="M5728 5230l108 0c10,-28 7,-57 6,-65 0,-1 0,-2 0,-2l-22 -43 -36 -9c0,3 -2,7 -3,11 -5,13 -11,26 -17,39 -7,16 -23,27 -41,27 -1,0 -2,0 -2,0 -12,-1 -23,-4 -34,-9l24 30 17 21z"/>
    <path class="fil29" d="M5784 5111l36 9 -2 -3 -1 -3 -5 -5 0 0c-9,-9 -29,-27 -26,-23 2,3 2,11 -2,25z"/>
    <path class="fil30" d="M6700 6051l-3 112c0,0 4,172 -8,199 -12,27 -12,136 -12,136 0,0 8,52 -1,63 -9,11 -2,53 4,74 6,22 1,75 1,75l-2 241c-66,5 -131,8 -197,12l-49 3c2,-11 3,-21 4,-26 2,-20 14,-112 14,-112 0,0 -6,-117 -2,-122 5,-5 21,-51 13,-67 -8,-15 -21,-114 -21,-120 0,-6 -10,-135 -10,-135 0,0 -10,-90 -7,-109 2,-19 -7,-90 -7,-90 0,-59 -34,-123 -34,-123l-1 2 -74 195c0,0 -12,59 -22,93 -7,22 -12,46 -16,69l-1 4c0,2 0,4 0,5l-1 3 0 0c0,0 6,42 -3,56 -9,13 -18,54 -18,65 0,11 0,55 0,55 0,0 4,85 -5,94 -4,3 -6,7 -6,12 0,2 1,4 2,6 1,2 14,65 8,81 -7,17 -2,56 -2,56 0,0 -9,89 -13,120 -72,4 -144,9 -216,13 1,-7 1,-12 1,-12 0,0 7,-37 2,-65 -6,-29 -11,-118 -11,-118 0,0 4,-68 -3,-93 -7,-25 5,-69 7,-80 3,-10 -7,-105 -7,-105 0,0 8,-45 3,-77 -4,-33 5,-154 5,-154l14 -139c0,0 11,-43 9,-60 -1,-18 12,-79 12,-79 0,-2 0,-4 0,-5 0,-12 2,-23 6,-33 8,-16 12,-69 12,-69l76 -176 38 -154 507 -5c0,0 1,13 4,38 4,24 8,60 13,105 4,40 9,88 14,141 15,169 -17,200 -17,200z"/>
    <path class="fil28" d="M6653 4653l-119 126c0,0 -151,-60 -135,-81 6,-8 5,-33 1,-61 -6,-44 -17,-95 -17,-95 0,0 265,-43 242,1 -8,17 -7,36 -1,53 6,21 16,40 29,57l0 0z"/>
    <path class="fil15" d="M6626 4543c-9,17 -12,18 -7,36 -35,37 -79,78 -134,78 0,0 0,0 0,0 -29,0 -58,-7 -84,-20 -6,-45 -18,-96 -18,-96 0,0 265,-42 243,2z"/>
    <path class="fil28" d="M6675 4462c0,105 -85,190 -190,190 -105,0 -190,-85 -190,-190 0,-1 0,-2 0,-3 3,-103 87,-185 190,-185 104,0 189,84 190,188l0 0z"/>
    <path class="fil15" d="M6703 5715c-26,0 -109,1 -203,2l-1 0 -31 1 -1 0c-111,1 -220,-20 -264,-16 -94,9 33,-86 33,-86 60,14 122,22 184,22 10,0 20,-1 29,-1l27 -1c85,-5 170,-13 215,-26 3,24 7,60 12,105z"/>
    <path class="fil31" d="M6703 5710c-26,0 -109,1 -203,2l-1 0 -31 1 -1 0c-111,2 -220,-20 -264,-16 -94,9 33,-86 33,-86 60,15 122,22 184,22 10,0 20,0 29,-1l27 -1c85,-5 170,-13 215,-26 3,25 7,60 12,105z"/>
    <path class="fil15" d="M6229 5228l477 -1 4 205c0,0 -27,94 -6,104 21,9 -7,70 -7,70 0,0 -150,50 -162,40 -13,-10 -99,-5 -99,-5 0,0 -118,18 -157,-1 -38,-20 -105,11 -105,11l55 -423z"/>
    <polygon class="fil15" points="6229,5228 6706,5227 6697,4800 6672,4719 6603,4677 6533,4733 6499,4738 6434,4706 6287,4775 "/>
    <path class="fil29" d="M6227 5229l479 -2 4 196c0,0 -27,94 -6,104 21,9 -6,70 -6,70 0,0 -151,49 -163,40 -13,-10 -99,-5 -99,-5 0,0 -118,18 -157,-2 -38,-19 -105,11 -105,11l53 -412z"/>
    <polygon class="fil29" points="6227,5229 6706,5227 6698,4791 6672,4709 6603,4668 6533,4724 6500,4729 6434,4696 6287,4765 "/>
    <path class="fil15" d="M6399 4648c0,0 -6,5 -8,37 -2,32 -24,104 -24,104 0,0 83,-58 125,-51l-93 -90z"/>
    <path class="fil29" d="M6399 4639c0,0 -6,5 -8,37 -2,32 -24,103 -24,103 0,0 83,-57 124,-51l-92 -89z"/>
    <path class="fil15" d="M6626 4623l-131 115c0,0 110,65 124,81 14,16 29,-156 29,-156l-22 -40z"/>
    <path class="fil29" d="M6630 4613l-131 115c0,0 111,66 125,82 14,16 28,-157 28,-157l-22 -40z"/>
    <path class="fil15" d="M6129 5229l209 -1 -2 19 -11 130 -42 194 -53 195c0,0 -84,181 -130,190 -47,10 -77,-58 -77,-58l13 -54c0,0 0,-75 8,-89 8,-15 13,-56 13,-56 0,0 17,-105 18,-114 1,-10 -14,-7 -14,-7 0,0 35,-173 53,-212 15,-32 16,-111 15,-137z"/>
    <path class="fil15" d="M6129 5229l209 -1 18 -271 28 -192c0,0 31,-103 20,-117 0,0 -15,-7 -28,14 -10,13 -24,24 -39,30 -16,6 -146,23 -151,43l-68 4c0,0 -24,3 -26,53 -3,50 -15,55 -15,55 0,0 -28,50 -26,75 2,26 -21,39 -21,39l92 240 7 19c0,0 0,3 0,9z"/>
    <path class="fil19" d="M6125 5229l207 -1 -1 9 -11 131 -42 193 -53 195c0,0 -84,181 -130,191 -47,9 -77,-58 -77,-58l13 -55c0,0 1,-75 9,-89 8,-15 12,-56 12,-56 0,0 17,-105 18,-114 1,-10 -13,-6 -13,-6 0,0 34,-174 52,-213 14,-29 16,-95 16,-127z"/>
    <path class="fil19" d="M6125 5229l207 -1 19 -281 27 -191c0,0 32,-103 21,-117 0,0 -14,-7 -28,14 -10,13 -24,24 -39,30 -16,6 -145,23 -151,42l-68 4c0,0 -23,3 -26,53 -3,50 -15,56 -15,56 0,0 -28,49 -26,75 3,25 -21,38 -21,38l96 250 3 9c0,0 1,8 1,19z"/>
    <path class="fil15" d="M5799 5230l75 0 13 27 -47 32c0,0 -71,2 -121,-11l-26 -11 -5 -2 5 1c27,8 48,8 64,3 20,-7 33,-21 42,-39z"/>
    <path class="fil15" d="M5799 5230l75 0 -32 -65c0,-1 0,-2 0,-2l-22 -43 -7 -1c2,21 4,73 -14,111z"/>
    <path class="fil15" d="M5813 5119l7 1 -1 -3 0 0c-1,-1 -2,-2 -3,-3 -1,-1 -2,-3 -3,-4 0,0 0,-1 -1,-1l0 0c1,1 1,3 1,5 0,1 0,3 0,5z"/>
    <path class="fil19" d="M5806 5230l282 -1c0,1 0,1 0,2 -2,10 -48,74 -48,74 0,0 -11,39 -59,65 -47,25 -100,-5 -108,-15 -8,-11 -180,-86 -180,-86 65,22 98,-3 113,-39z"/>
    <path class="fil19" d="M5806 5230l282 -1c6,-9 37,-19 37,-19l68 -165 -146 -100 -22 6 -3 46c0,0 -27,-4 -34,27 -7,31 -20,45 -20,45 0,0 -44,37 -46,68l-12 7 -15 10c0,0 -51,-12 -72,-33l-5 -1c2,18 5,70 -12,110z"/>
    <path class="fil19" d="M5818 5120l5 1c-2,-2 -4,-5 -5,-7 0,0 0,2 0,6z"/>
    <path class="fil15" d="M6599 5227l272 -1c1,59 17,241 17,241l25 420c0,0 -33,28 -40,31 -7,4 -14,-148 -14,-153 0,-6 -185,-277 -185,-277 0,0 -24,-40 -24,-48 0,-9 -24,-90 -24,-90l-27 -123z"/>
    <path class="fil15" d="M6599 5227l272 -1c0,-9 0,-15 1,-17 4,-14 3,-79 3,-79l119 -168c0,0 2,-38 -6,-56 -6,-11 -16,-19 -27,-23 0,0 -5,-31 -15,-40 -8,-9 -12,-20 -12,-32 0,-4 0,-8 1,-11 5,-16 -6,-54 -29,-60 -23,-5 -50,-14 -50,-14 0,0 -32,6 -40,-2 -8,-9 -72,-26 -84,-26 -12,0 -47,-16 -47,-16l-34 -26c-10,-8 -21,-43 -21,-43l-23 106 -16 476 8 32z"/>
    <path class="fil19" d="M6608 5227l273 -1c0,30 5,93 9,147 4,51 8,94 8,94l11 178 14 242c0,0 -33,28 -40,31 -7,3 -15,-148 -15,-154 0,-5 -184,-276 -184,-276 0,0 -25,-40 -25,-48 0,-9 -23,-90 -23,-90l-28 -123z"/>
    <path class="fil19" d="M6608 5227l273 -1c-1,-9 0,-15 0,-17 5,-15 3,-79 3,-79l0 0 119 -168c0,0 0,-3 0,-9 0,-12 0,-35 -6,-46 -5,-11 -15,-19 -27,-23 0,0 -4,-31 -14,-41 -8,-9 -13,-20 -13,-32 0,-4 1,-7 2,-11 5,-15 -7,-54 -30,-59 -23,-6 -49,-15 -49,-15 0,0 -32,7 -40,-2 -8,-9 -73,-26 -85,-26 -12,0 -46,-16 -46,-16 0,0 -24,-18 -34,-26 -11,-8 -31,-42 -31,-42l-13 105 -16 476 7 32z"/>
    <path class="fil15" d="M6519 6663c0,0 94,23 100,38l-100 -38z"/>
    <path class="fil15" d="M6152 6732c0,0 -49,14 -1,43 48,29 1,-43 1,-43z"/>
    <path class="fil15" d="M6372 5965c5,0 92,-29 123,-16 21,8 44,13 68,13l-191 3z"/>
    <path class="fil15" d="M6383 6056l-1 8 -74 195c0,0 -12,59 -22,92 -7,23 -12,47 -16,70l66 -408 47 43z"/>
    <polygon class="fil32" points="6499,5712 6468,5713 6467,5713 6449,5632 6476,5631 "/>
    <path class="fil28" d="M6875 5615l-20 16 -66 55c0,0 -179,96 -229,5 -43,-80 160,-138 209,-150l11 -3 95 77z"/>
    <path class="fil15" d="M6108 4831c0,0 36,16 44,38 8,22 -44,-38 -44,-38z"/>
    <path class="fil15" d="M6000 5070c0,0 -51,62 -30,86 20,24 30,-86 30,-86z"/>
    <path class="fil15" d="M6913 4866c0,0 -48,4 -50,46l50 -46z"/>
    <path class="fil15" d="M6469 5520c5,-5 115,-168 141,-153l-141 153z"/>
    <path class="fil15" d="M6675 4462c0,0 0,0 0,0 0,31 -8,62 -22,89l-2 0c-12,-2 -18,-16 -27,-25 -7,-6 -16,-10 -26,-10 -6,0 -12,1 -17,4 -14,8 -22,22 -22,38 0,1 0,2 0,3 -6,-25 -4,-53 -10,-78 -6,-26 -23,-52 -48,-52 -10,0 -23,4 -30,-4 -5,-5 -6,-12 -9,-18 -18,-28 -71,-14 -93,0 -21,15 -47,38 -74,50 3,-103 87,-185 190,-185 104,0 189,84 190,188l0 0z"/>
    <path class="fil32" d="M6462 4404c3,6 4,13 9,18 7,8 20,4 30,4 25,0 42,26 48,52 6,25 4,52 10,78 0,-1 0,-2 0,-3 0,-16 8,-30 22,-38 5,-3 11,-4 17,-4 10,0 19,4 26,10 9,9 15,23 27,25 12,3 24,-9 28,-21 4,-13 4,-27 7,-40 5,-25 22,-45 31,-69 5,-14 8,-29 8,-44 0,-15 -3,-31 -9,-45 -6,-15 -15,-29 -21,-44 -9,-22 -12,-48 -23,-70 -19,-36 -63,-54 -99,-40 -18,6 -33,19 -50,24 -24,8 -49,2 -73,-1 -25,-4 -52,-4 -71,12 -23,19 -29,53 -50,74 -9,8 -20,14 -30,21 -10,8 -18,20 -16,33 1,16 17,31 11,47 -2,4 -5,8 -8,12 -18,18 -31,41 -39,65 43,14 89,-33 122,-56 22,-14 75,-29 93,0z"/>
    <path class="fil15" d="M6875 5615l-20 16c-17,-29 -89,-87 -89,-87l3 -3 11 -3 95 77z"/>
    <path class="fil29" d="M6895 5585c0,0 -7,18 -15,34 -7,15 -15,29 -16,17 0,-22 -93,-97 -93,-97l13 -12 14 -14 97 72z"/>
    <path class="fil15" d="M6898 5467l10 178c-25,-38 -93,-137 -136,-134l106 -122c4,-5 8,-10 12,-15 4,50 8,93 8,93z"/>
    <path class="fil15" d="M6895 5585c0,0 -7,18 -15,34 -28,-39 -66,-84 -96,-92l14 -14 97 72z"/>
    <path class="fil19" d="M6942 5226l243 -1c6,15 21,39 14,50 -7,13 -13,26 -19,40 -5,14 -37,72 -56,85 -20,14 -107,128 -107,128 0,0 -95,108 -95,142 0,0 -91,-153 -146,-149l107 -122c0,0 18,-20 19,-32 1,-12 51,-67 75,-70 0,0 4,-32 -6,-33 -11,-1 -20,-27 -20,-27 0,0 -3,-4 -9,-11z"/>
    <path class="fil19" d="M6942 5226l243 -1c-2,-5 -3,-9 -2,-11 2,-9 -21,-58 -21,-60 0,-3 -25,-30 -25,-45 0,-15 -33,-48 -33,-48 0,0 -44,-18 -48,-58 -5,-40 -53,-41 -53,-41l-29 -22c0,0 -94,109 -94,162 1,41 43,99 62,124z"/>
    <path class="fil15" d="M7017 5016c0,0 -67,49 -53,65 14,16 53,-65 53,-65z"/>
    <path class="fil15" d="M7020 5220c0,0 124,-40 137,0l-137 0z"/>
    <path class="fil15" d="M6142 5006c0,0 0,182 -16,200 -2,2 -3,1 -4,-5 -4,-32 20,-195 20,-195z"/>
    <path class="fil15" d="M6861 5065l23 65c0,0 9,-64 -23,-65z"/>
    <g>
     <path class="fil15" d="M6297 4367c6,-15 -10,-29 -12,-45 -1,3 -2,8 -2,12 0,0 0,1 0,2 1,12 10,23 12,34 1,-1 1,-2 2,-3l0 0z"/>
     <path class="fil15" d="M6562 4539c-6,-25 -4,-52 -10,-77 -6,-25 -24,-51 -49,-52 -10,0 -22,4 -30,-4 -5,-4 -6,-12 -9,-18 -18,-28 -71,-14 -92,1 -33,21 -78,67 -120,57 -2,4 -4,9 -5,14 43,14 89,-33 122,-56 22,-14 75,-28 93,0 3,6 4,13 9,18 7,8 20,4 30,4 25,0 42,26 48,52 6,25 4,53 10,78 0,-1 0,-2 0,-3 0,-5 1,-9 3,-14l0 0z"/>
     <path class="fil15" d="M6682 4509c-5,13 -16,24 -28,22 -13,-3 -19,-17 -28,-25 -7,-7 -16,-11 -25,-11 -7,0 -13,2 -18,5 -13,7 -21,22 -21,37 0,0 0,1 0,1 3,-9 10,-18 19,-23 5,-3 11,-4 17,-4 10,0 19,4 26,10 9,9 15,23 27,25 12,3 24,-9 28,-21 3,-8 4,-15 5,-23 -1,2 -2,5 -2,7l0 0z"/>
     <path class="fil15" d="M6719 4400c-9,24 -25,45 -31,69 -1,5 -1,11 -2,16 6,-25 22,-45 31,-69 4,-11 6,-22 7,-33 -1,6 -3,12 -5,17l0 0z"/>
    </g>
   </g>
  </g>
 </g>
</svg>
