<?xml version="1.0" encoding="utf-8"?>
<!-- Generator: Adobe Illustrator 22.1.0, SVG Export Plug-In . SVG Version: 6.00 Build 0)  -->
<svg version="1.1" id="Layer_1" xmlns="http://www.w3.org/2000/svg" xmlns:xlink="http://www.w3.org/1999/xlink" x="0px" y="0px"
	 viewBox="0 0 480 480" style="enable-background:new 0 0 480 480;" xml:space="preserve">
<style type="text/css">
	.st0{fill:#BECD4D;}
	.st1{fill:#6EC5B2;}
	.st2{fill:url(#SVGID_1_);filter:url(#Adobe_OpacityMaskFilter);}
	.st3{mask:url(#id0_1_);fill:#FEFEFE;}
	.st4{fill:#F6B691;}
	.st5{fill:#E1E2E6;}
	.st6{fill:#B69858;}
	.st7{fill:url(#SVGID_2_);}
	.st8{fill:#CEDF53;}
	.st9{fill:#ADBA47;}
	.st10{fill:#483779;}
	.st11{fill:#F5C687;}
	.st12{fill:#531F1C;}
	.st13{fill:#C8D5DA;}
	.st14{fill:#F9A751;}
	.st15{fill:url(#SVGID_3_);}
	.st16{fill:#F69B50;}
	.st17{fill:#FBFBE8;}
	.st18{fill:url(#SVGID_4_);}
	.st19{fill:#F86D57;}
	.st20{fill:#F9E8E8;}
	.st21{fill:#B7C3C7;}
	.st22{fill:#3FA38C;}
	.st23{fill:#ADBA48;}
	.st24{fill:#997334;}
</style>
<g id="Layer_x0020_1">
	<g id="_2300532267232">
		<path class="st0" d="M320.1,168c3.2,1.7,7.1,4.1,11.2,4.1c-0.6-1.8-1.8-2.5-2.8-4.8c-0.9-2-1.5-4.2-1.5-7c0.1-3,0.4-3.7,2.7-5.2
			c16.2-10.1,26.9-23.1,20.4-43.2c-3.1-9.7-12.4-16.4-20.7-21.7c-6.9-3.3-10.4-5.2-19-6.5c-15.6-2.5-30.7-1.7-44.8,5.4
			c-7,3.5-15.1,10.3-15.7,10.5c-1.4-1.8-2.3-5.2-6.3-10.1c-16.4-20.4-51.1-23.8-75.1-14.5c-10.3,4-21.5,12.7-25.5,23.1
			c-7,17.9,1.5,33.7,16.6,42.9c2,1.2,2.8,2,5,2.9c2.7,1.1,3.3,1.1,3.4,4.4c0.1,2.7-0.6,4.5-1.4,6.4c-1.1,2.4-1.9,2.2-2.9,4.9
			l4.8-0.9c1.9-0.9,5.1-2.4,6.9-3.7c8.8-7,0-5.6,13.9-4.4c9.3,0.9,18.2-0.4,26.8-2.6c16.6-4.2,21.8-12.3,25.6-14.1
			c1.4,1.3,2.9,4.8,5,7.7c12.7,17.5,34.3,22.1,55.5,21.3c4.4-0.2,8.6-1.5,12-1.2c1.2,1.6,0.9,2.1,2.5,3.6
			C317.7,166,319.5,167.2,320.1,168z"/>
		<path class="st1" d="M309.5,383c0-3.1,1.3-8,1.7-10.5c0.4-2.1,0.5-3.1,0.9-5.4c0.4-2.6,1-1.7,1-5.6l-97.3,0.1
			c7.7-11.3,17.3-26.8,24.6-42.4c0.8-1.8,1.6-3.6,2.4-5.4c0.6,1.2,1.1,2.7,1.5,3.9l1,3.6c1.2,1.8,0.4,12.1,0,15.2
			c-1.4,2.2-0.4,3.1-2.7,4.1c-0.1,0.2-3.4,2.6-3.5,3c0.3,0,70.9,1.1,75,0.3c0.1,0,0.3-0.1,0.5-0.1l0-1.2l-0.9-8
			c-10-0.6-13.6,0.6-19.3-6.4c-4.3-5.2-5.7-16.6-2.7-20.4c-0.8-2.3,0.1-3.4,0.3-6l1-6l0.8-4.3l1.9-7.4l0.8-5.4
			c2-1.9,7.3-32.1,28.4-45.1c-0.5-7.7,11.3,4.6,14,2.7c-5.4-14.1-1.5-17.2-12-17.1c-9.2-2-7.2-7.2-1.1-5.7c1.4,0.3,1.9,0.8,3.1,1.3
			c10.1,4.2,8.5-0.1,18.7,8.8c1.5-1.6,2.6-6.3,2.6-8.6c-3.8-3.6-6.2-4.9-8.2-11c-1.9-6.1-0.8-12.1-0.3-18.1l-23.4,5.4
			c-21.9,6-37.7,17.9-58.1,26.5c-14,5.9-35.3,5.4-50.3,3.7c-7.6-0.9-42.7-6.4-47.6-8.8l1.2,8.8c-4.1-1-8-2-11.6-2.7
			c-17.6-3.5-27.7-2-35.5,1.8c-3.8,1.8-7.1,4.3-10.1,7.1c-0.7-1.1-1.1-2.1-2.1-3.1l0.1,3c-12.2,4.9-30.4,28.6-42.5,47.5
			c-3.4,5.1-8,12.2-11.4,18.9c-3.9,7.7-8.6,19.7-10.3,28.3l-0.5,2.3c1.2,2.6-3.2,7.1-0.6,6.9c0.8-0.2,3.9,1.7,6.8,5.6
			c2.8,0.5,10.5-3.8,13.2-2.4c2.2-0.3-1.2-3-0.2-5.3c0.5-1.1,0.4-2.5,0.4-3.7c-0.5-1.8-1-3.5-1.5-5.2c0.9-0.1,0.4,0,1.3-0.1l1.1,2.7
			c2.8,0,3.5-2.3,6.8-3.3c8.7-2.7,14.7,4.9,17.2,12.2c3.8,11,1.3,24,0.5,35.9c0.5,0.3-0.9,1.8,1.1,0.2c1.3-2.2,2.7-4.1,4.2-5.8
			c1.3,10.5,3.3,14.8,8.5,17.2c7,3.3,19.9,3.3,37.4,3.3s39.7,0,51.4,0c0.7,0,1.4,0,2,0l0,0H309.5z M210.8,236.2
			c1.1,0.4,2.2,0.8,3.3,1.2c0-4.2,0.7-4.7-1.9-6.2c-1.7,1.1-1-0.7-1.5,2.2C210.7,233.7,210.8,235.8,210.8,236.2L210.8,236.2z
			 M219.3,239.2c1,0.4,2.1,0.7,3.1,1.1C221.5,239.5,220.5,239.2,219.3,239.2z M235.4,245.6c4.8,2.4,8.8,5,11.8,8.4l31.3,0
			c0-10.8-10.2-17.9-21.1-20l-0.2-13.7l-3,0.3c-0.6,3.3,1.2,11-0.7,13.1c-0.5,0.5-0.2,0.3-1.2,0.7c0,0-1.3,0.2-1.5,0.2
			C245.2,235.6,238.9,240,235.4,245.6z M439.6,324.2c1.9-0.9,3.6-1.9,5.8-1.8c2.8-2.3,15.9-3.3,19,5.4c0.9-0.9,1.2-3.5,2.2-5.2
			c22.1-63.9-16.7-131.6-83.9-134.5v0c-0.4,0-0.9-0.1-1.2-0.1c0.4,4.7-0.2,7.9-2.8,12.7c-1,1.9-2.4,4.1-3.9,5.9
			c-1.5,1.9-3.4,3.6-4.3,5c-2.3,3.9-4.6-0.4-3.8,8.8c0.1,1.4,0.5,4.1,0.7,5.6c0.4,2.2,0.5,2.6,2.8,3.3c5.5,1.5,10.7,3.9,15.2,6.2
			c2.3,1.1,4.5,2.4,6.6,3.7c2.1,1.3,4.5,3.9,6.5,3.9c10.3,20.6,16.1,10.5,18.8,45.2l0.8,9.6c-2.8,2.9-1.6,1.3-1.3,4.7
			c0.1,1.8,0.6,5.6,0.8,7.4c1.7-1.4,4.7-6.2,6.1-8.3c3.8-5.6,9.1-10.9,13.9-15.7c1.2-1.2,1,1.3,1.2,0.3l1.8-1.8
			c0.8,14.6-3.9,27.6-4.4,37.6C437.3,321.8,438.4,324.6,439.6,324.2z"/>
		<defs>
			<filter id="Adobe_OpacityMaskFilter" filterUnits="userSpaceOnUse" x="187.7" y="246.8" width="121.8" height="83.7">
				<feColorMatrix  type="matrix" values="1 0 0 0 0  0 1 0 0 0  0 0 1 0 0  0 0 0 1 0"/>
			</filter>
		</defs>
		<mask maskUnits="userSpaceOnUse" x="187.7" y="246.8" width="121.8" height="83.7" id="id0_1_">
			
				<linearGradient id="SVGID_1_" gradientUnits="userSpaceOnUse" x1="19243.5625" y1="-16247.4141" x2="18924.1328" y2="-21519.8047" gradientTransform="matrix(2.834696e-02 0 0 -2.834696e-02 -290.5243 -276.861)">
				<stop  offset="0" style="stop-color:#FFFFFF"/>
				<stop  offset="0.6" style="stop-color:#FFFFFF"/>
				<stop  offset="1" style="stop-color:#FFFFFF;stop-opacity:0"/>
			</linearGradient>
			<rect x="187.7" y="246.8" class="st2" width="121.8" height="83.7"/>
		</mask>
		<path class="st3" d="M232.8,254l-45,76.3c0,0,121.9-4.2,121.8,0c-0.1,4.2-31-76.3-31-76.3l-17.9-7.2L232.8,254z"/>
		<path class="st4" d="M341.6,186c-0.4,6.1-1.6,12,0.3,18.1c2,6.1,4.4,7.4,8.2,11c0,2.3-1.1,6.9-2.6,8.6c-10.2-9-8.6-4.6-18.7-8.8
			c-1.2-0.5-1.7-1-3.1-1.3c-6.1-1.5-8.1,3.7,1.1,5.7l0,1.8c-0.1,0.6-1.1,7.3-1.3,8.7l0,0c-0.5,1.1-0.3,0.7-0.7,1.4
			c-0.3,1.2-0.1,1.2-0.1,2.5c1.4,0.2,3.2,1.6,4.6,2.4c0.1,2.7-0.4,3.7-1.5,5.6c-1.3,2.2-2.2,2.6-1.4,5c3.4,1.9,4.9,3,9,4.2l3.4,0.3
			c3.4-11.1,1.6-8.7,7.9-20.5c1.3,0.1,9.1,5.9,18.2,1.5c1.7-0.8,1.2-0.4,2.6-1.5c2.5-2.1-1.2-1.2,2.5-1.6c-2.2-0.7-2.4-1.1-2.8-3.3
			c-0.3-1.6-0.6-4.2-0.7-5.6c-0.8-9.2,1.5-4.9,3.8-8.8l-1.2-0.3c0.6-1.9,1.2-3,1.9-4.8c1.1-2.9,0.3-2.7,2.7-4.3c3-2,4.9-5.1,3.6-9.6
			l-3.2-0.5c-1.7,1.9-1.8,5-8.8,6.9l0.5-12.5c-13.6-2.6-13.2,0.6-24.2-8.5c0.7,3.1,1.8,1.4,1.1,4.3C342.7,183.2,342,184.7,341.6,186
			z"/>
		<path class="st5" d="M158.4,277.3c0.5,0.7,0.3,0.1,0.7,1.2l0.7,5.8c4.6-2.2,3.3-8.5,10.3-8.1c3.5,3.8,5.2,10.8,4.8,17.1
			c-2.9,2.9-4.1,1.7-6.5,3.6l-5.8,5c-0.1,4.2,0.9,10.3,2.2,13.7l14.9-0.7l0.1,3c0.8-0.7,0.5-1.9,0.8-3.6c5.1-0.9,12-4.1,15.2-8.2
			c1.3-1.8,0.9-0.7,2.2-2.7c-2.2-0.2-0.8-2.5-0.9-5.2c-0.3-9.8-2.6-2.9-3.2-6.8c-0.3-1.4-0.1-3.3-0.3-4.9l-0.9-16.8
			c0-0.2,0-0.5,0-0.8c-0.1-1.9-0.3-5.6-0.5-8.2c-0.1-1.4-0.1-3.5-0.3-7.1c-2.4-0.2-6,1.7-9,2.4c-1.6,0.7-3.7,1.5-5,2
			c-0.3,0.1-0.6,0.2-0.8,0.3c-6.2,2.7-17.3,5.7-19.7,6C157,268,157.8,274.5,158.4,277.3z"/>
		<polygon class="st6" points="182.7,349.4 316.7,349.4 316.7,362.8 182.7,362.8 		"/>
		<path class="st4" d="M122.6,236.9c3,1.7,3,0.3,4.3,2.6l4.3,9.3c0.8,1.8,0.9,3.3,2.5,4.8l-0.3-2.6c6.2,0,8-1.6,12.9-2.1l-0.9,24.9
			c-0.3,1.5-0.2,0.9-0.5,1.5c-0.1-0.1-0.3-0.4-0.3-0.3l-0.7-0.6c-0.1-0.1-0.2-0.3-0.3-0.3l-1.4-1.5c1.1,3.1,1.5,4.9,4.2,5.8
			c0.4-7.1,0.1-42.7,1.4-45.8c3.9-0.8,7.1,0.5,10.8,1c-4.2-4.9-16.3,4.8-16.1-13c8.6-2.4,12.5-6,15.6-13.5c3.7-9.2,0.2-12-4.7-22.1
			l-2.6,1.7c-11.8,10.5-14.5,0.1-17,11.3c-0.4,1.8-0.5,2.7-1.5,3.9c-1,1.2,0.3-0.1-1,0.8l-0.9-1.8c-0.1-0.5-0.3-1-0.5-1.7
			c-1.8-4.7-6-4.2-7.8-1.8c-0.5,0.6-4.5,9.1,5.6,9.3c0.1,5.2-0.1,11.1,0.4,16.2l2.2,14.8L122.6,236.9z"/>
		
			<linearGradient id="SVGID_2_" gradientUnits="userSpaceOnUse" x1="22874.8691" y1="-21542.4219" x2="26750.666" y2="-21542.4219" gradientTransform="matrix(2.834696e-02 0 0 -2.834696e-02 -290.5243 -276.861)">
			<stop  offset="0" style="stop-color:#CEDF53"/>
			<stop  offset="1" style="stop-color:#BAC94C"/>
		</linearGradient>
		<path class="st7" d="M400.3,349.3c0.8,3,4.3,10.1,6.1,16c1.5,5,4.4,11.2,5,16.5l-1.4,0.8c-0.1,0.1-0.6,0.3-0.8,0.4
			c8.9,0,28.8,1.8,32.7-10.4c5.6-17.7,6-9.4,16.8-22.4c1-1.2,1.9-2.1,2.9-3.4l2.3-3.4c11.2-19.5-2.4-33.1-24.5-22.3
			c-1.3,0.4-1.9,0.7-2.9,1c0.5-10.1,5.2-23.1,4.4-37.6c-4.5,0.2-14.5,13.5-17,17.2c-1.3,2-2.5,4.3-4.1,5.7v0h0
			c-0.2,0.2-0.5,0.4-0.8,0.7c-0.2,0.1-0.3,0.2-0.5,0.3l0,0.6c0.1,3.9,0.3,13.4-1.1,17.2l-1.1,2c0,2.6-1.4,4.7-2.7,7.3
			c-0.6,1.2-1.4,2.2-2.1,3.1c-1.2,1.4-1.5,1.6-2.7,2.2c-0.9,1.6-3.1,2.7-4.8,3.5c-2.8,1.3-4.7,1-3.9,4.4L400.3,349.3z M404.4,383
			c-0.2-0.1-0.5-0.1-0.9-0.1c-0.9,0-1.3,0-1.6,0.1H404.4z M396.6,383l0.1-1.9c0-0.1-0.1-0.2-0.1-0.3c-0.6,1.1-0.5,1.6-0.9,2.2H396.6
			z M393.3,383c-0.3-0.7,0.4-1.4-1.3-2.2c-0.6,1.2-0.6,1.8-0.7,2.2H393.3z M388.7,383c-0.3-0.5-0.3-1-0.6-2.4
			c-0.5,0.9-0.3,0.1-0.3,1.6c0,0,0.1,0.4,0.1,0.9H388.7z M377.2,383l-0.9-1.6l-0.8,1.6H377.2z M359.5,383c-0.3-1.5-0.9-1.4-1.3-1.5
			c-0.1,0.7-0.2,1.1-0.3,1.5H359.5z"/>
		<path class="st8" d="M55.4,312.1c1.1,4.9,2.7,9.1,4,13.8c-1.1,22.4-36.6-22.7-52.9-20.9c0.4,24,50.5,74.6,78.5,78h15.3
			c-2.6-12.3,10.2-6.3,11.7-16.6c1-7.2-2.4-8-5.6-11.4c-7.9,0.6-7.2-0.3-12.8,4.1c-3,2.4-5.5,5.3-7.8,9.2c-2,1.6-0.6,0.1-1.1-0.2
			c0.9-11.9,3.3-24.9-0.5-35.9c-2.5-7.3-8.5-14.9-17.2-12.2c-3.4,1-4,3.3-6.8,3.3l-0.8-3.5c4.6-1.2,16.5-8.5,19.1-12.2
			c2.4-3.3,2.5-6.9-0.4-9.8c-15.8-15.4-16.8,28.2-20.9,14.6c-1-3.4-5.6-19.8-4.5-21.9c1.2-2.3,23.3-8.1,11.1-18.4
			c-7.9-6.7-11,9.1-13.2,11.3c-0.3-0.7-2.2-10.8-2.5-12.8c-1.1-6.9,0.6-6.1,2.7-11.8c3.3-8.8,5-19.6-8.1-17.7
			c-10.5,1.5-4.9,14.6-1.4,20.5c3.2,5.4,2.7,3.4,4.6,10.9c1,4.2,2.5,8.6,2.5,13.4c-2.9-1.6-16-16.5-20.1-5.7
			c-4.6,12.2,13.7,10.9,21.8,11.4c0.7,5.9,3.1,10.8,3.6,16.9c-1.6-0.5-2.5-1.1-3.6-2c-0.3-0.3-0.6-0.6-1-0.9
			c-0.7-0.6-1.5-1.3-2.1-1.9c-0.2-0.2-0.3-0.3-0.5-0.5c-1.7-1.9-6.3-3.9-8.9-4.3c-3.1-0.4-4.8,0-7.3,1.9c-2,1.5-2.7,4.1-1.3,6.3
			c0.3,0.5,0.7,0.9,1.1,1.4c0.5,0.5,1.1,0.9,2,1.5c0.9,0.5,2.2,1.1,3.5,1.6c1.3,0.5,2.6,0.9,3.8,1.1c0,0,0.1,0,0.2,0
			c0.3,0.1,1,0.1,1.8,0.2c0.8,0.1,1.9,0.1,2.4,0.1c0.2,0,0.3,0,0.5,0C48.3,312.8,50.9,312.5,55.4,312.1z"/>
		<path class="st9" d="M64.3,313.5c4.5-2.5,9.8-6.2,11.3-8.1c1.2-1.7,1.6-3.3,0-4.8c-0.7-0.7-2.8-2.6-4-2.2
			c-1.9,0.6-3.8,5.3-4.5,6.9c-0.9,2.5-1.7,5-2.6,7.5C64.4,313,64.3,313.2,64.3,313.5z M54.2,285.1c1.8-0.9,3.5-1.7,5.2-2.7
			c1.2-0.7,4.1-2.6,4.4-4.1c0.2-1.1-1.6-2.7-2.3-3.3c-0.2-0.2-0.9-0.7-1.2-0.7c-0.9,0.2-2.4,3-2.7,3.8
			C56.6,279.9,55.5,283.1,54.2,285.1z M45.6,261.1c0.1-0.3,0.3-0.5,0.4-0.8c0.5-0.9,0.9-1.9,1.3-2.9c0.3-0.7,0.5-1.4,0.7-2
			c0.7-2.2,2.2-7.8,0.7-9.8c-1-1.3-4.1-1-5.5-0.8c-0.9,0.1-2,0.4-2.4,1.2c-1,1.7,0.1,5.5,0.7,7.2c0.8,2.2,1.9,4.4,3.1,6.4
			C45,260.1,45.3,260.6,45.6,261.1z M44.4,287.5c-0.5-0.4-0.9-0.8-1.4-1.2c-1.4-1.2-2.9-2.4-4.4-3.5c-1-0.7-4.5-3.1-5.8-2.7
			c-0.4,0.1-0.8,1.1-0.9,1.4c-0.3,0.8-0.8,2.3-0.2,3.1C33,286.7,39.3,287.3,44.4,287.5z M47.4,309L47.4,309
			c-0.2-0.2-0.4-0.4-0.7-0.6c-0.7-0.7-1.5-1.3-2.2-2c-0.2-0.1-0.3-0.3-0.5-0.4l-0.1-0.1l-0.1-0.1c-1.1-1.2-5-2.9-6.6-3.1
			c-2.1-0.3-2.8-0.1-4.5,1.1c-0.3,0.3-0.7,0.7-0.4,1.1c0.2,0.3,0.4,0.5,0.7,0.8c0.4,0.4,0.8,0.7,1.3,0.9c0.9,0.5,1.9,1,2.9,1.4
			c1,0.4,2,0.7,3,0.9c0.1,0,0.1,0,0.2,0c0.5,0.1,1,0.1,1.5,0.2c0.7,0,1.5,0.1,2.2,0.1c0.1,0,0.3,0,0.4,0
			C45.5,309.1,46.4,309.1,47.4,309z"/>
		<path class="st10" d="M384,383h3.9h0.8h2.7h2h2.4h0.9h5.3h2.5h3.5c0.2,0,2,0,2,0h1.6c-0.5-5.3-3.7-12.7-5.2-17.7
			c-1.7-5.9-5.3-13-6.1-16l-0.2-0.8l-1.1-1c-2,0.1-11.1,4.5-14.4,5.4c-10.4-5.4-38.1-1.1-58.6,3.6c-1.3-0.5-3-1.2-4.3-2
			c-4-3.2-2.9-2.8-5.5-6.7l0.1,1.7c-0.2,4.4-1.9,6.9-2.5,11.6c-0.4,1.9-0.9,3.6-1.4,5.4c-0.5,1.8-0.7,4.1-1.1,5.8
			c-0.4,2.6-1.8,7.5-1.7,10.5h28.8h3.9h3.9h4.7h7.2h1.6h16h1.7H384z"/>
		<polygon class="st11" points="219.6,343.1 211.5,343.1 180.9,343.1 180.9,349.9 317.4,349.9 317.4,343.1 314.7,343.1 314.6,342.6 
			314.6,343.1 254.3,343.1 243.4,343.1 241.1,343.1 221.7,343.1 		"/>
		<path class="st12" d="M341.9,177.7c11.1,9.1,10.6,6,24.2,8.5l-0.5,12.5c6.9-1.9,7-5,8.8-6.9l3.2,0.5c1.3,4.6-0.6,7.7-3.6,9.6
			c-2.3,1.5-1.5,1.3-2.7,4.3c-0.7,1.8-1.3,2.9-1.9,4.8l1.2,0.3c0.9-1.4,2.8-3.1,4.3-5c1.4-1.7,2.9-4,3.9-5.9
			c3.3-6.1,3.3-9.5,2.4-16.9c-2.2-5.8-8.5-12.3-14.4-14.7c-8.3-3.3-12.1,3-26.4,2.3C340.3,174.9,340.4,175.2,341.9,177.7z"/>
		<path class="st13" d="M232.8,254l45.7,0c0-10.6-9.9-17.7-20.6-19.9l0,0v-14.9c-0.6,0.2-1.2,0.5-1.7,0.6c-1.1,0.4-2.2,0.7-3.2,0.9
			V234c-0.1,0-0.3,0.1-0.8,0.2c0,0-1.3,0.2-1.5,0.2C242.5,236.1,232.8,244.9,232.8,254z"/>
		<path class="st4" d="M196.8,266c0.1-0.1,0.2-0.1,0.3-0.2l4.5,5.7c2.6,1.9,3.8-2.6,7.1,0.1l-0.1,3.2c1-1.6,0.5-3.6,1.4-5.6
			c2.7-14.8,13.5-9.2,15.9-14.1c1.6-3.3-0.5-9.5-1.7-12.3c-2.1-4.6-5.2-4.1-10.1-3.3c-0.4-6.3,1-6.8-2-8.4c-1.7,1.1-1-0.7-1.5,2.2
			c0,0.2,0,2.4,0,2.7c0,2,0,3.7-0.2,5.7l-2.4,0.6c-5,1.3,0.2,5.6-4.2,11.8c-1.4,2-6.3,6.2-7.9,8.4c0.6,0.1,0.3,3,0.5,3.2
			C196.8,266,196.8,266,196.8,266z"/>
		<g>
			<path class="st14" d="M220.6,342.7c0.1,0,0.1,0.1,0.1,0.1C220.7,342.7,220.6,342.7,220.6,342.7z M228.7,312
				c1.3,2.7-0.4,3.9-2.7,5.6c-1.6,1.2-1.1,3.5-3.9,0.7c0.4-4.7,0.3-6.7,4.9-7.8l-0.8-2l-3.3,1.2c-4.5,3.3-7.8,16.5-8.7,22.1
				c-0.8,4.9,2,11.3,7.6,11.3c3.8,1,13.4,1,16.8,0.6c15.8-1.6,7.9-18,5.8-26c-0.7-1.9-1.4-4.3-2.7-5.8c-0.9-1-1.1-1.1-2.2-1.9
				c-1.8-1.3-1.2-0.2-2.1-1.7c-1,0.9-1.1,0.9-2,1.8c-0.7,0.7-1.5,1.6-2,2C231.1,314,230.5,314,228.7,312z M220.7,342.7
				c0.1,0,0.2,0.1,0.3,0.1C220.9,342.8,220.8,342.8,220.7,342.7z M221.5,343c0.1,0,0.1,0.1,0.2,0.1
				C221.6,343.1,221.6,343.1,221.5,343z M221.5,343c-0.1,0-0.1,0-0.2-0.1L221.5,343z M221.3,343c-0.1,0-0.1,0-0.2-0.1L221.3,343z
				 M221.1,342.9c-0.1,0-0.1,0-0.2-0.1L221.1,342.9z"/>
		</g>
		<path class="st14" d="M113.9,332.1c-0.4,1.9-1,1.6-0.5,3.2c-0.5,5.3-5.7,16.1-3.6,18.5c0.1,0.1,0.4,0,0.5,0.2
			c0.1,0.2,0.3,0.1,0.5,0.2c0,0,1.9,0.4,7.8-1.5c8.1-2.6,16.2-6,22.8-10.9c6-4.4,17.7-18.7,18.3-27.4c-3.4,1.1-1.9,0.7-5.3,5.6
			c-6.3,9.2-14.3,23-27.9,19.4c-4.7-1.2-8.6-5.3-10.8-8.4L113.9,332.1z"/>
		<path class="st4" d="M158.9,287.4c-0.1,0.1-0.1,0.3-0.2,0.4c-0.6,1.2-1.3,1.6-2.1,3.4c-1.3,2.8-6,7.9,0,11
			c0.6,0.3,1.1,0.5,1.5,0.6c0,0,0.1,0,0.1,0c0.3,0.1,0.6,0.1,1,0.1c0.1,0,0.3,0,0.5,0h0.3c0.3,0,0.6,0,0.9-0.1
			c0.6-0.2,1.2-0.6,2-1.2c0.7-0.5,1.5-1.2,2.4-2l0.1,0l0,0l0.1-0.1l0,0l0.1-0.1l0.1,0l0,0l0.1-0.1l0,0l0.1,0l0.1-0.1l0,0l0.1,0
			l0-0.1l2.6-2.2c2.4-1.9,3.5-0.7,6.5-3.6c0.3-6.3-1.4-13.4-4.8-17.1c-5.3-0.3-5.8,3.3-7.8,5.9c0,0,0,0.1,0,0.1
			c-0.1,0.3-0.2,0.4-0.8,1.1c-0.6,0.8-1.6,2.3-2.2,3.3C159.1,287,159,287.2,158.9,287.4z"/>
		
			<linearGradient id="SVGID_3_" gradientUnits="userSpaceOnUse" x1="13737.3418" y1="-21567.4141" x2="17697.8926" y2="-19732.9648" gradientTransform="matrix(2.834696e-02 0 0 -2.834696e-02 -290.5243 -276.861)">
			<stop  offset="0" style="stop-color:#FEB556"/>
			<stop  offset="1" style="stop-color:#FDC865"/>
		</linearGradient>
		<path class="st15" d="M198.6,302.5c2.9-4.8,4.5-6.5,6.5-12.4c0.8-2.5,1.7-4.6,2.4-7.2c1-3.8,1.1-7.5,2-11.3
			c-3.3-2.7-4.6-0.9-7.1-2.8c-2.1-2.7-2.5-3.3-4.9-5.6c-0.3-0.2-0.7-0.5-1.3-0.5c-0.3,0.4-0.5,0.7-0.5,1l-3.1,2.2l1,20.6
			c0.4,3.3,0.4,17.3,3.7,17.7L198.6,302.5z M197.4,263.5c-0.1,0.1-0.2,0.1-0.3,0.1C197.3,263.5,197.4,263.5,197.4,263.5z
			 M195.9,264.1c-0.1,0-0.1,0.1-0.2,0.1C195.8,264.1,195.8,264.1,195.9,264.1z M195.1,264.6c-0.1,0-0.1,0.1-0.2,0.1
			C195,264.6,195,264.6,195.1,264.6z M159.7,303c-0.2,0-0.3,0-0.5,0c-0.4,0-0.7-0.1-1-0.1c0,0-0.1,0-0.1,0c-0.5-0.1-0.9-0.3-1.5-0.6
			c-5.9-3.1-1.3-8.2,0-11c0.9-1.8,1.5-2.2,2.1-3.4c0.1-0.1,0.1-0.3,0.2-0.4c0.1-0.2,0.3-0.4,0.4-0.7c0.7-1,1.6-2.6,2.2-3.3
			c0.6-0.8,0.7-0.8,0.8-1.1c0,0,0-0.1,0-0.1c-0.6,0.9-1.4,1.6-2.5,2.1l-0.7-5.8c-0.4-1.1-0.1-0.5-0.7-1.2c-0.6-2.9-1.4-9.3-0.9-13
			c3.1-0.4,20.7-5.2,23.4-8.1c-0.7-2.3-5.8-8.9-7.5-12c-4.8-8.1-7-7.3-7.9-8.8c0.2-0.7-0.2,0.1,0.3-1.2c0.1-0.2,0.1-0.3,0.1-0.5
			h-0.1v0l-1,0l-3.1-1.3l-0.3,1.2l-1,0c1.9,1.8,0.9,2.7-0.5,6.7c-0.6,1.8-1.4,4.2-1.9,6l-7.7,25.5c-1.1,4.1-1.7,9.5-4.3,12.2
			c-4.2-3.4-23.1-28.5-28.4-33.5c-9.3-8.7-6.4-14.6-15.6-6.3c-1,0.9-1.7,1.6-2.5,2.6c-0.4,0.5-0.8,1.1-1.2,1.6
			c-2.6,2.6-2.9,8.3-3,11.9c-0.1,6.4,2.7,25.7,4.8,31.8c1.6,4.8,10.6,32.2,13.9,35.2l0.1,4.9l1.7-1c2.2,3.1,6.1,7.1,10.8,8.4
			c13.7,3.6,21.7-10.3,27.9-19.4c3.4-4.9,1.9-4.6,5.3-5.6c-0.6,8.6-12.3,23-18.3,27.4c-6.6,4.8-14.8,8.2-22.8,10.9
			c-5.8,1.9-7.7,1.5-7.8,1.5c-0.1,0-0.4,0-0.5-0.2c-0.1-0.2-0.3-0.1-0.5-0.2c-2.1-2.4,3.9-15.1,4.4-20.4c-2.3,0.9-1.8,2-4,8.7
			l-2,5.5c-0.1,0.1-0.2,0.3-0.3,0.5c-1,1.5-1.6,5.3-1.6,7c3.1,3.4,6.6,4.2,5.6,11.4c-1.5,10.2-14.3,4.3-11.7,16.6h89
			c0-1.6-0.3-3.5-0.8-5.8c-0.3-0.6-0.4-1.4-0.5-2.2c-0.8-3.9-2-9.8-3-14.7h0l-0.6-2.8l0-0.1c-1-4.6-1.6-7.2-2.1-9.4
			c-2.6-9.4-3.8-17.9-2.4-30.2l-0.1-3l-14.9,0.7c-1.2-3.4-2.3-9.5-2.2-13.7l2.5-2.2c-0.9,0.7-1.7,1.4-2.4,2c-0.8,0.6-1.4,1-2,1.2
			c-0.3,0.1-0.6,0.1-0.9,0.1H159.7L159.7,303z M160.1,303c0.1,0,0.1,0,0.2,0 M160.7,303C160.7,303.1,160.7,303.1,160.7,303
			C160.7,303.1,160.7,303.1,160.7,303z M161.2,303.3C161.2,303.3,161.2,303.3,161.2,303.3C161.2,303.3,161.2,303.3,161.2,303.3z
			 M161.4,303.7C161.4,303.7,161.4,303.7,161.4,303.7L161.4,303.7z M161.4,303.7L161.4,303.7L161.4,303.7l-0.1-0.1l0-0.1l0,0l0-0.1
			l0,0l0,0c0,0-0.1-0.1-0.1-0.1l0,0 M137.5,282.4c0.2,1.4,0.1,1.2,1,1.9c0.6,2.3,6.4,12.6,6.2,14.1c-1,2-6.3,6.2-8.3,7.4
			c-1.8-1.8-3.3-10-3.9-12.6c-2.4-10.2-2.1-5.8-1.4-14.4c5.6,2-4.5-2.3,1.7,1.1l1.8,0.5c1.7,0.4,0.1-0.4,1.6,0.7L137.5,282.4z"/>
		<path class="st8" d="M244.4,291.2c1.3,6.7-6.2,16.4-10.4,16.9c0-6,0.9-8.4,0-15c-0.5-3.3,0.3-3.9,3.9-4.1
			C241.4,288.8,242.9,289.6,244.4,291.2z M213.4,279c-1.4,3.1,0.1,6.3,1.3,9.2c2.4,6.2,10.9,17,11.5,20.3l0.8,2
			c0.7,2.3,0.8-0.4,1.7,1.6c1.8,2,2.4,2.1,4.6,0.2c0.5-0.5,1.3-1.4,2-2c0.9-0.9,1.1-0.8,2-1.8c2.4-2,4.8-4.9,6.7-8.2
			c6.6-11.3-1.2-13.5-11-11.6c-0.9-1.4-1.5-2.9-2.4-4.5c-0.3-0.5-1.2-2-1.6-2.4C226,278.4,216.2,273,213.4,279z"/>
		<path class="st16" d="M138.4,284.3c-0.9-0.7-0.8-0.5-1-1.9l-1.4-1.3c-1.5-1.1,0.1-0.3-1.6-0.7l-1.8-0.5c-6.1-3.4,3.9,0.9-1.7-1.1
			c-0.6,8.7-0.9,4.2,1.4,14.4c0.6,2.6,2.2,10.8,3.9,12.6c2-1.2,7.3-5.4,8.3-7.4C144.9,296.9,139.1,286.6,138.4,284.3z"/>
		<path class="st9" d="M237.9,289c-3.6,0.2-4.4,0.8-3.9,4.1c0.9,6.6,0,9,0,15c4.2-0.6,11.7-10.3,10.4-16.9
			C242.9,289.6,241.4,288.8,237.9,289z"/>
		<path class="st17" d="M228.9,317.7c0.7-2.7,1.2-6.4-1.9-7.3C215.3,313.2,222.3,329,228.9,317.7z"/>
		
			<linearGradient id="SVGID_4_" gradientUnits="userSpaceOnUse" x1="22166.2285" y1="-22358.1602" x2="23684.6289" y2="-18046.0605" gradientTransform="matrix(2.834696e-02 0 0 -2.834696e-02 -290.5243 -276.861)">
			<stop  offset="0" style="stop-color:#3C63B3"/>
			<stop  offset="1" style="stop-color:#6E9AE0"/>
		</linearGradient>
		<path class="st18" d="M418.5,308.9l-0.4-11.1l-0.8-9.6c-0.7-9.6-1.7-19.3-5-27.2c-3.9-9.4-11.8-16.7-20.2-22
			c-2.1-1.3-4.3-2.6-6.6-3.7c-4.5-2.2-9.8-4.6-15.2-6.2c-3.7,0.4,0-0.5-2.5,1.6c-1.3,1.1-0.9,0.7-2.6,1.5c-9.2,4.4-17-1.3-18.2-1.5
			c-6.3,11.8-4.6,9.4-7.9,20.5l-3.4-0.3c-4.1-1.2-5.7-2.3-9-4.2c-0.9-2.4,0.1-2.9,1.4-5c1.1-1.9,1.6-2.9,1.5-5.6
			c-1.3-0.9-3.2-2.2-4.6-2.4c-19.9,12.3-25.8,36.9-31.1,57.9l-0.8,4.3l-1,6c-0.6,9-4.7,17.7,2.4,26.4c5.7,7,9.3,5.8,19.3,6.4l0.9,8
			l1.5,5.3l1.3,2c0.7,1.7-0.3,0.9,0.9,2l3.3,2.7c1.3,0.9,3,1.6,4.3,2c15.3,5,42.6,1.1,58.6-3.6c3.2-0.9,12.4-5.3,14.4-5.4l1.1,1
			c-0.8-3.4,1-3.1,3.9-4.4c2.4-1,5.8-3.7,7.5-5.7c0.7-0.9,1.5-1.9,2.1-3.1C418.4,326.5,418.8,318.8,418.5,308.9z M331,304.8
			c0.2,1.4,2.5,5.1,3.9,6.9c2.8,3.4,3.2,3.1,7,4.9c-0.1,3.7-1.4,5.2-1.8,8.7l-1.1,2.9c-2.3,0.2-2.4-0.4-3.7,1
			c-7,0.5-6.5,2.1-10.9-2.6c0.1-2.8,1.7-8.4,2.4-11.9c0.4-1.9,0.9-3.4,1.2-5.6C328.5,305.6,327.9,304.7,331,304.8z"/>
		<path class="st4" d="M324.3,326.6c4.5,4.7,3.9,3,10.9,2.6c1.3-1.4,1.4-0.9,3.7-1l1.1-2.9c0.4-3.5,1.8-5,1.8-8.7
			c-3.8-1.8-4.2-1.5-7-4.9c-1.4-1.7-3.7-5.4-3.9-6.9c-3.1-0.1-2.5,0.8-3,4.2c-0.4,2.2-0.9,3.7-1.2,5.6
			C326,318.3,324.4,323.8,324.3,326.6z"/>
		<path class="st19" d="M132.5,254c1.5,3.3,9.8,20.1,10.1,22.5l1.7,1.8c0.1,0.1,0.3,0.3,0.4,0.4l0.8,0.7c0.1-0.1,0.2,0.3,0.4,0.4
			c0.4-0.7,0.2,0,0.6-1.8l1-29.5c-5.7,0.6-7.9,2.5-15.3,2.5L132.5,254z"/>
		<path class="st20" d="M142.1,272.6c-0.5-3.7-8.4-18.3-10.9-23.8l-4.3-9.3c-1.3-2.3-1.3-0.9-4.3-2.6l-3.6-0.7
			c-4.1,0.5-10.4,1.4-14,3.6c-3.2,1.9-8.1,6.6-8.2,11c0.4-0.4,1.1-2,1.4-2.5c0.4-0.5,0.8-1.1,1.2-1.6c0.8-1,1.5-1.6,2.5-2.6
			c9.2-8.2,6.3-2.4,15.6,6.3c5.3,5,24.3,30.1,28.4,33.5c2.6-2.7,3.2-8,4.3-12.2l7.7-25.5c0.5-1.8,1.3-4.2,1.9-6
			c1.4-4,2.3-4.9,0.5-6.7l-6.1-3.5c-3.7-0.5-2.5,0.2-6.3,1c-1.3,3.1-1.1,40.3-1.5,47.4C143.6,277.5,143.2,275.7,142.1,272.6z"/>
		<path class="st12" d="M104.2,224.6c2.1,2.3,1.8,4.2,6.2,7.3c3.1,2.3,8.4,4.2,12.3,4.9l7.6,0.8l-2.2-14.8c-0.5-5.2-0.3-11-0.4-16.2
			c-10-0.2-6-8.7-5.6-9.3c1.9-2.4,6.1-2.9,7.8,1.8c0.2,0.7,0.3,1.2,0.5,1.7l0.9,1.8c1.2-0.9,0,0.4,1-0.8c1-1.2,1.1-2.1,1.5-3.9
			c2.5-11.3,5.2-0.9,17-11.3l2.6-1.7c4.9,10,8.4,12.8,4.7,22.1c-3,7.6-7,11.2-15.6,13.5c-0.2,17.7,11.9,8.1,16.1,13l1.8-0.1l5.4,0.1
			c-0.1-4.3-1.4-6-1.9-9.9l-1.5-11c-1.7-9.9,1-21.6-3.4-30c-3.7-7.1-11.7-13.1-22.6-11.1c-9.9,1.4-18.8,13.7-23,20.5
			c-2.6,4.2-5,9.2-6.7,14.4C103.6,215.6,104.4,215.2,104.2,224.6z"/>
		<ellipse transform="matrix(0.927 -0.3751 0.3751 0.927 -71.6115 114.5175)" class="st21" cx="258.4" cy="241.2" rx="4.6" ry="6"/>
		<g id="_2300660099824">
			<path class="st22" d="M287.9,142.1l18.8-1.8l1,10.1l-21.1,2l-1-10.2L287.9,142.1z M290.7,135l11.7-1.1l0.5,4.7l-11.6,1.1
				l-2.3,0.2l-0.5-4.7L290.7,135z M294.8,125.8l1.3-0.2l0.7,6.8l-1.3,0.1l-1.6,0.1l-0.6-6.8L294.8,125.8z M310.1,107.5
				c0,0.6,0,2.1-0.3,2.5c0.1,0.7,0.1,1.7-0.2,2.2c-0.3,0.6-0.6,0.5-1.3,0.6l-1.6,0.1l0.1-0.4c0.1-0.4,1.2-5,1.2-5
				c-0.1-0.6,0.1-1.4,0.2-2.1l0.3-2.3c0.5-0.1,1-0.2,1.3,0.1c0,0,0.5-0.3,0.5,0.9L310.1,107.5z M276.9,106.1l0.6,2.2
				c0.7,2.3,1.7,4.5,2.7,6.7l0.2,0.4l-1.6,0.1c-0.8,0.1-1,0.2-1.4-0.3l-0.7-2.3l-0.6-2.3c-0.2-0.6-0.4-1.5-0.6-2.2
				c-0.1-0.3-0.3-0.9-0.3-1.2C275.1,106.2,276,106.2,276.9,106.1z M308.6,100.3v-0.6c2.3-0.4,4.1,0.8,4.9,2.6
				c0.6,1.5,0.1,4.9-0.1,6.7c-0.2,2.4,0,4.3-1.4,5.9c-1.3,1.5-4.3,1.5-6.6,1.6l0.6-1.4c5.6-0.4,5.6-0.5,6-5.9
				c0.1-1.7,0.4-3.5,0.4-5.1c0.1-1.8-1.2-3.1-2.7-3.1l-1.1,0.1C308.5,100.7,308.5,100.5,308.6,100.3z M276.4,104.1l-1.1,0.1
				c-1.5,0.3-2.5,1.8-2.1,3.5c0.4,1.6,0.9,3.3,1.4,4.9c0.4,1.6,0.8,3.7,1.8,4.4c1.3,0.9,3.4,0.4,5.2,0.3l0.8,1.3
				c-2.5,0.3-5.1,0.8-6.8-0.4c-1.6-1.2-1.8-3.2-2.5-5.5c-0.5-1.7-1.6-5-1.3-6.5c0.4-1.9,1.9-3.3,4.3-3.4
				C276.2,103.3,276.5,103.6,276.4,104.1z M306.4,96.4c0.5,6.3-0.3,12.6-2.3,17.8c-0.7,1.7-1.7,3.7-2.8,5.1
				c-0.2,0.3-0.3,0.5-0.6,0.8c-1.9,2.2-4.4,4-8.1,3.6c-9.1-1.6-14.2-16.3-14.9-24.7c1.6-0.3,21.3-2,25.1-2.4l3.4-0.3
				c0,0,0.1,0,0.1,0S306.4,96.4,306.4,96.4z M275.7,99.4l0.1,1.3l-0.6,0.1c-0.9,0.1-1.4,0.3-2.2,0.7c-0.2,0.1-0.3,0.2-0.5,0.3
				c-1.8,1.1-2.7,3-2.9,5.1c0.2,1.8,0.6,2.8,1,4.6l0.6,2.1l0.6,2.3c0.4,1,0.4,1.5,1,2.4c3.4,5,9.9,1.6,11.3,2.5
				c1,1.2,2.3,2.4,3.6,3.2c0.4,0.2,0.8,0.5,1.2,0.7c1.9,0.9,2.2,0.3,2.4,2.1c0.1,0.8,0.7,5.7,0.4,6.2l-2,0.2l-2.3,0.2
				c-0.6,0.2-0.8,0.3-0.9,0.9l0.5,6l-1.3,0.2c-0.3,0-0.8,0-1.1,0.1c-0.5,0.1-0.6,0.3-0.9,0.3c-0.4,1.2,0.2,5.3,0.4,6.9
				c0.2,1.7,0.3,5.7,0.9,6.9c0.3,0,0.4,0.2,0.9,0.1c0.4,0,0.9-0.1,1.2-0.1l2.3-0.2l2.3-0.2l2.2-0.2l2.3-0.2l2.2-0.2l2.3-0.2l2.2-0.2
				l2.3-0.2l2.2-0.2c0.4,0,0.9-0.1,1.3-0.1c0.5-0.1,0.6-0.3,0.9-0.3c0.5-1.4-0.2-5.2-0.4-6.9c-0.1-1.7-0.3-5.7-0.9-6.9
				c-0.3,0-0.4-0.1-0.9-0.1c-0.4,0-0.8,0.1-1.1,0.1l-1.3,0.1l-0.6-5.8c-0.3-0.6-0.5-0.7-1.1-0.8L301,132l-1.9,0.2
				c-0.3-0.1-0.1,0.1-0.3-0.2c-0.1-1.3-0.3-2.7-0.4-4c-0.1-0.7-0.1-1.3-0.2-1.9c-0.1-1.1-0.4-1.2,0.5-1.5l1.4-1
				c2.1-2.3,2.9-4.8,5.6-5c1.6-0.1,3.9-0.3,5.3-0.7c0.4-0.2,0.7-0.3,1.1-0.5c1.2-0.7,2-1.7,2.6-3c0.4-1,0.3-1.5,0.5-2.5l0.2-2.4
				l0.2-2.2c0.1-1.8,0.3-2.8,0.1-4.7c-1-3.8-3.7-4.8-7.3-4.9c-0.1-0.4-0.1-0.9,0-1.3c-0.1-0.4,0-1-0.2-1.4c-0.1-0.5-0.4-0.5-0.7-0.8
				l-31.4,2.9c-0.3,0.3-0.5,0.4-0.6,0.9C275.5,98.3,275.6,99,275.7,99.4z"/>
			<path class="st23" d="M305.1,103.1c-0.4,4.9-1.3,9.3-3.5,13.4c-0.3,0.5-0.7,1.4-1.4,1.6c-0.8,0.2-1.5-0.6-1.1-1.5
				c0.5-1.1,1.1-1.7,1.9-3.9c1.1-2.8,1.7-6.2,2-9.2c0.1-0.9,0-1.8,0.9-2C304.9,101.3,305.1,102.1,305.1,103.1z M303.9,98
				c1.2-0.4,1.7,1.5,0.7,1.9c-0.7,0.3-1.2-0.1-1.4-0.6C302.9,98.6,303.3,98.2,303.9,98z M292.6,123.7c3.8,0.4,6.2-1.4,8.1-3.6
				c0.3-0.3,0.3-0.5,0.6-0.8c1.1-1.4,2.1-3.4,2.8-5.1c2-5.2,2.8-11.4,2.3-17.8L286,98.3c0.8,6.5,1.8,14,4.1,20.1
				c0.3,0.9,0.7,2,1.1,2.8L292.6,123.7z"/>
			<path class="st23" d="M304.2,145.9c-0.2-1.8,1.9-1.9,2.1-0.2l0.2,2.2c0.2,1.9-1.9,2.1-2.1,0.2L304.2,145.9z M304.6,141.5
				c1.3-0.5,2,1.5,0.7,1.9C304,143.8,303.4,142,304.6,141.5z M286.6,152.5l21.1-2l-1-10.1l-18.8,1.8c-0.2,0.7,0.5,7.3,0.7,9
				c0.1,0.4,0.1,0.9,0,1.2L286.6,152.5z"/>
			<path class="st0" d="M292.6,123.7l-1.4-2.5c-0.4-0.8-0.8-1.9-1.1-2.8c-2.2-6.1-3.3-13.7-4.1-20.1l20.4-1.9c0,0-0.1,0-0.1,0
				s-0.1,0-0.1,0l-3.4,0.3c-3.7,0.3-23.5,2.1-25.1,2.4C278.4,107.4,283.6,122.1,292.6,123.7z"/>
			<path class="st23" d="M300.4,135.1c1.4-0.7,1.9,2.2,0.9,2.7c-0.8,0.3-1.4-0.1-1.5-0.8C299.6,136,299.7,135.5,300.4,135.1z
				 M291.3,139.7l11.6-1.1l-0.5-4.7l-11.7,1.1C290.8,136,290.9,139,291.3,139.7z"/>
			<path class="st0" d="M305.1,103.1c0.1-0.9-0.2-1.8-1.2-1.6c-0.9,0.2-0.8,1.1-0.9,2c-0.3,3-0.9,6.5-2,9.2
				c-0.8,2.1-1.4,2.8-1.9,3.9c-0.4,0.9,0.3,1.7,1.1,1.5c0.7-0.1,1.1-1.1,1.4-1.6C303.8,112.3,304.6,108,305.1,103.1z"/>
			<path class="st0" d="M308.6,100.3l0,0.8c0.5-0.1,0.8-0.1,1.1,0c1.5,0,2.8,1.3,2.7,3.1c0,1.6-0.3,3.4-0.4,5.1
				c-0.4,5.3-0.4,5.4-6,5.9l-0.6,1.4c2.4-0.2,5.3-0.1,6.6-1.6c1.4-1.6,1.2-3.5,1.4-5.9c0.1-1.8,0.7-5.2,0.1-6.7
				c-0.7-1.7-2.6-2.9-4.9-2.6V100.3z"/>
			<path class="st0" d="M275.3,104.3c0.3-0.3,0.6-0.2,1.1-0.2l-0.2-0.8l-0.1-0.5c-2.4,0.1-3.9,1.5-4.3,3.4c-0.3,1.6,0.8,4.9,1.3,6.5
				c0.7,2.4,0.9,4.3,2.5,5.5c1.7,1.2,4.3,0.7,6.8,0.4l-0.8-1.3c-1.8,0.1-4,0.7-5.2-0.3c-1-0.7-1.4-2.8-1.8-4.4
				c-0.5-1.6-1-3.3-1.4-4.9C272.8,106.1,273.8,104.5,275.3,104.3z"/>
			<polygon class="st0" points="295.5,132.5 294.8,125.8 293.2,125.9 293.8,132.7 			"/>
			<path class="st0" d="M291.3,139.7c-0.4-0.7-0.5-3.7-0.6-4.7l-2.2,0.2l0.5,4.7L291.3,139.7z"/>
			<path class="st0" d="M304.2,145.9l0.2,2.2c0.2,1.9,2.2,1.7,2.1-0.2l-0.2-2.2C306.1,144,304.1,144.1,304.2,145.9z"/>
			<polygon class="st23" points="294.8,125.8 295.5,132.5 296.8,132.4 296.1,125.6 			"/>
			<path class="st0" d="M300.4,135.1c-0.7,0.4-0.8,0.9-0.6,1.9c0.1,0.7,0.7,1.2,1.5,0.8C302.3,137.3,301.9,134.4,300.4,135.1z"/>
			<path class="st0" d="M304.6,141.5c-1.2,0.5-0.6,2.3,0.7,1.9C306.5,143,305.9,141,304.6,141.5z"/>
			<path class="st24" d="M309.7,101c-0.3-0.1-0.7-0.1-1.1,0l0-0.8c-0.2,0.3-0.1,0.5,0,0.9L309.7,101z"/>
			<path class="st0" d="M288.6,151.1c-0.2-1.7-0.9-8.3-0.7-9l-2.3,0.2l1,10.2l2-0.2C288.7,151.9,288.7,151.5,288.6,151.1z"/>
		</g>
		<g>
			<path class="st22" d="M188.8,123.1c0.1,0.7,0,2.5,0,3.3c-0.1,1.1-0.1,2.2-0.1,3.3c-0.7,0.1-4.5-1.2-5.6-1.5
				c-1-0.2-1.8-0.6-2.8-0.8c-1.3-0.3-4-1.2-5.6-1.6l-5.5-1.5c-2.5-0.7-2.6-3.1-2.5-5.3c0-0.4,0.2-1.2,0.3-1.6
				c0.1-0.2,0.2-0.3,0.4-0.6C168.5,115.3,184.9,121.9,188.8,123.1z M191.7,108.5c-0.2-0.8,0.2-1.8-0.1-2.5l0.1-2.2
				c0-0.7-0.1-1.6,0.2-2.1c0.9,0,1.8-0.4,2.4-0.5c5.5-0.9,11.3-2.3,16.7-3.3c0.6-0.1,1.4-0.3,2-0.4c0.8-0.1,3.5-0.8,4-0.8
				c-0.3,1.8-0.1,5-0.3,5.7C210.7,104.8,198.3,107,191.7,108.5z M209.3,108c0.3-0.1,0.5-0.2,0.7-0.3l4.5-1.5c1.3-0.4,2-1,2.9-0.1
				c0.4,0.3,0.5,0.8,0.7,1.3c0.1,0.1,0.1,1.7,0.1,2c0,0.3,0,0.7,0,1c0,0.3-0.1,0.5-0.2,0.7c-0.1,1-0.6,1.9-1.3,2.3
				c-0.1,0.1-16.8,4.7-17.2,4.8c-0.4,0.1-0.5,0.2-0.8,0.3c-0.4,0.1-0.5,0.1-0.9,0.2c-0.5,0.1-1.2,0.4-1.6,0.4
				c-0.1-0.4-0.1-0.2-0.1-0.7l-0.1-2.5c0-1.1-0.1-2.4,0-3.5C197,111.8,206.5,108.9,209.3,108z M192.6,122.6c1,0.3,16.7-3.4,17.8-3.7
				c1.1-0.2,3.7-0.5,4.4-1c0.2-0.1,0.9,0,0.4,0.4c-0.5,1-0.4,2.5-0.4,3.6c0,0.5,0.2,1.4,0,1.8c-0.6,0.4-19.8,6-24.9,6.1l0.2-6.5
				l1.8-0.5C192.2,122.8,192.6,122.8,192.6,122.6z M194.7,112.7c0.1,0.3,0.3,5.8,0.2,6.4c-0.5,0.1-2.6-0.7-3.3-0.7
				c-0.3,0-1.4-0.2-1.7-0.3l-5.8-1.4c-0.4-0.1-0.5-0.1-0.8-0.2l-3.3-0.8c-0.3-0.1-1.4-0.4-1.6-0.4c-0.7,0-3.5-0.9-4.3-1
				c-0.3-0.1-3.8-0.9-4.2-1.1c-0.1-0.8,0.1-1.2,0.1-1.9c0-0.3-0.6-3.7-0.6-3.9C170.3,107.2,194.5,112.4,194.7,112.7z M187.1,100.6
				c0.1,0.2,0.2,0.2,0.5,0.3l1.3,0.5c0.8,0.2,1,0.2,1.7,0.6c0.1,0.8,0,2.5-0.1,3.3c0,1-0.1,1.1-0.1,1.6c0,0.5,0,1.2-0.1,1.6
				c-1.4,0.2-17-4.7-19.9-5.4c-0.4-0.1-0.6-0.2-0.8-0.4c-0.3-0.1-0.1,0.1-0.3-0.3c-0.5-0.5-0.9-1.7-0.9-2.3l0.1,0.1
				c-0.1-0.1-0.1,0-0.1-0.2l-0.1-0.6c0-0.6,0-2,0.1-2.4c0.1-0.6,0.7-1.7,1.5-1.8c0.9-0.1,2.7,0.7,3.9,1l0.9,0.3
				c0.4,0.3,0.1,0,0.2,0.3l1.5,0.5c0.3,0.1,0.6,0.2,0.8,0.3l1.5,0.5c0.1,0,0.3,0.1,0.4,0.1l1.8,0.6c0.2,0.1,0.5,0.2,0.8,0.3
				c0.1,0.1,0.3,0.1,0.4,0.1c0.8,0.3,0.3,0.1,0.8,0.3l1.8,0.6c0.3,0.1,0.5,0.2,0.8,0.3C186.1,100.3,186.7,100.5,187.1,100.6z
				 M188.9,123.1c0,0.1,0,0.1,0,0.3C188.9,123.2,188.9,123.1,188.9,123.1L188.9,123.1z M188.5,129.9
				C188.5,129.9,188.5,129.9,188.5,129.9L188.5,129.9z M191.9,129.6L191.9,129.6L191.9,129.6L191.9,129.6L191.9,129.6L191.9,129.6
				L191.9,129.6L191.9,129.6L191.9,129.6L191.9,129.6L191.9,129.6L191.9,129.6L191.9,129.6L191.9,129.6L191.9,129.6l-0.1,0l0,0l0,0
				l0,0h0l0,0l0,0l0,0h0l0,0h0L191.9,129.6z M167.8,94.2c-1.6,2.8-1.6,6.8,0.4,9.4c0.2,0.3,0.3,0.2,0.4,0.6
				c-0.1,0.1,0.2,0.1-0.2,0.1c-4.2,0.1,0.6,4.5,0.6,4.7c0.2,1.8,0.3,1.5,0,3.5c-0.4,0.3-1.2,0.6-1.6,0.6c-0.5-0.1-1.5,0.6-2,0.7
				l-0.1,0.1c-0.1,0.2-0.1,0.1-0.1,0.2c-0.1,0.2,0-0.1-0.1,0.2c0.9,0.3,1.4,0.3,1.4,0.5c0,0.5,0,0.2-0.2,0.4
				c-2,0.9-1.8,9.5,1.8,10.7c0.1,0.1,0.2,0.1,0.3,0.1c0.2,0.1,0.1,0,0.1,0.1c5.5,1.8,13.4,3.6,17.8,5.8c0.1,0,0.1,0.1,0.2,0.1
				c0.3,0,0.9,0.2,1.1,0.3c4.4,0.4,31.8-6.9,32.2-7.5c-0.8-1-3.7-1.3-4-1.8c-0.5-1,0.1-3.9,0.7-4.9c0.3-0.5,0.9-1.1,1.6-1.2
				c0.2-0.1,0.5-0.2,0.7-0.5c0.1-0.4,0.2-0.4,0-0.9c-0.6-0.1-0.8-0.3-1.4-0.4c0-0.4,0.4-0.7,0.8-0.8c0.2-0.1,0.1-0.1,0.3-0.2
				l0.4-0.7c0.4-0.7,0.4-0.9,0.7-1.6c0.1-0.2,0.2-0.7,0.2-0.8c0.1-0.9,0.2-1.5,0.2-2.4c0-0.4,0-0.9-0.1-1.2
				c-0.1-0.5-0.2-0.7-0.2-1.2c-0.1-0.5-0.6-1.2-0.8-1.6c-0.2-0.1-0.1,0.1-0.2-0.2c0.1-0.3,0.1-0.3,0.6-0.3c0.6-0.1,1.1-0.3,1.8-0.3
				l0.3-0.2c0.2-0.2,0.1-0.1,0.2-0.3c-0.3-0.4-0.2-0.3-0.7-0.5c-2.1-1.1-3.2-0.7-3.4-1.7c-0.3-1.8,0-3.7,1.1-5.1
				c0.7-0.8,2.3-0.5,2-1.9c0-0.1-17.6-5.6-18.2-5.6C196.6,89.2,170.4,91.9,167.8,94.2z"/>
		</g>
	</g>
</g>
</svg>
