<svg id="Layer_1" data-name="Layer 1" xmlns="http://www.w3.org/2000/svg" viewBox="0 0 480 480"><defs><style>.cls-1{fill:none;}.cls-2{fill:#ffc748;}.cls-3{fill:#395f7d;}.cls-4{fill:#85c3c0;}.cls-5{fill:#fd685f;}.cls-6{fill:#0d1a41;}.cls-7{fill:#fdd3b9;}.cls-8{fill:#000e27;}.cls-9{fill:#17232b;}.cls-10{fill:#fefefe;}.cls-11{fill:#3a5bbe;}.cls-12{fill:#ffd3b5;}.cls-13{fill:#b6b6b7;}.cls-14{fill:#f19757;}</style></defs><title>infoprodiutama</title><polygon class="cls-1" points="-274.05 205.61 187.55 205.61 187.55 429.07 -274.05 429.07 -274.05 214.68 -274.05 205.61"/><g id="_2301093710976" data-name=" 2301093710976"><polygon id="_1" data-name="1" class="cls-2" points="0.95 399.13 85.94 354.85 88.52 354.58 88.63 262 88.73 262 88.73 180.07 88.79 140.41 88.73 85.33 0.95 85.33 0.95 399.13"/><path class="cls-3" d="M88.1,443.31c-2.53,2.37-17.8,9.9-26.28,14.17h0c-1.94.95-3.47,1.74-4.47,2.26L36.18,470.8h0l-9.69,5.06h0l-6.06,3.21H252l.06-72.2-2.9.42c-29,7.17-48.39,3.11-69.35-10.58-3.74-.26-60.93,30.86-69.36,35.18C105,434.73,93.26,441.84,88.1,443.31Z"/><path class="cls-4" d="M169.94,308.77l.05-86c-2.69-2.63-17-9.43-20.38-11.16-9.58-4.9-55.29-29.28-60.56-31.18l-.11,171.09C94.84,349.9,157.14,314.93,169.94,308.77Z"/><path class="cls-3" d="M89.05,168.32v12.06c5.27,1.9,51,26.28,60.56,31.18,3.37,1.73,17.69,8.53,20.38,11.16l-.05,86,.15-.74.11-85.36c4,1,13.32,6.21,17.22,8.32,5.42,2.95,11.37,6.42,17.17,9.16,2.63-1.42,4.1-8.85,8.42-11.37,1.58-3.8,5.11-4.43,8-9.64,1.79-3.27,4.58-8.79,5-12.69-1.84-2.11-4-5.16-2.26-8.74-4.58-1.32-2.42-5.8-.37-8.11.84-.9,6.11-6.22,6.9-6.59,2.47-1.21,3.74-.52,5.42.16V170.38l-.26-.16-50.4-29.33h0L88.73,85.33v83.05Zm146.71,52.14c-.1-.06-.21-.06-.31-.11l.31,5.11Z"/><path class="cls-4" d="M1,479.07H20.49l.58-.32,5.42-2.84v-.05l21.8-11.38h0l9.06-4.74c5.42-2.89,27.65-13.48,30.75-16.43l.06-87.57c-1.32-1.16,1.94-1.47-2.22-.89L1,399.13Z"/><path class="cls-5" d="M86.05,354.9c4.16-.63.89-.27,2.21.89v87.52c5.11-1.42,16.8-8.53,22.33-11.37,8.42-4.32,65.61-35.44,69.35-35.18a32.53,32.53,0,0,0-4.68-3.58c-4.27-4.21-8.17-6.84-11.54-12-3.05-3.11-6.42-8.69-8.84-13.54-3.43-6.95-3.59-14.8-5.38-16.85.64-2.69-3.21-12.22-2.58-18l43.4-.05c-.21-4.21-.43-8.43-.37-12.69,0-2.69-.21-8.06,1.47-10.43l-.16-11.48c-3-.79-16,8.85-21.06,9.9l-.16.69c-12.79,6.16-75.09,41.13-81,42.7V351l-.37.16-.05,3.42Z"/><path class="cls-5" d="M334,393.18c1.37,3,.42,68.3.48,85.89H479l-7.79-5.74h-.06C450,458,428.87,442,407.54,427.1l-3.63-2.64c-2.74-2.1-5.48-4.21-7.9-6-3.74-2.69-12.9-9.95-16.64-11.48-1.16,4.69-3.58,2.95-7.69,2.26-5.27-.94-24-4.68-27-6.37-1.53-9.32,7.16-7.84,9.53-7.84-5.69-.9-3.95.36-8.8-2.59-2.47-1.47-5.42-2.52-6.9-4.52Zm69.94,31.28Z"/><path class="cls-6" d="M254.72,311c-.79,3.48-7.32,8.22-13.32,8-5,3.9-28.7.53-36.76-1.15-4.48-.95-7.37-1.11-9.69-4.06-1.21-.47-.11.21-1.26-.74-1.32-1-.32-.1-1.06-1a8.8,8.8,0,0,1-1.31-2.32c-1.69,2.32-1.48,7.69-1.48,10.43-.05,4.21.16,8.43.37,12.69,2,7.11,2.16,14.27,7.69,18.48,4.42,3.43,12.59,6.38,20,6.69,9,.42,15.22-1.21,23-3.68,4.06-1.32,18.49-6.48,21.59-9a16.14,16.14,0,0,1,2.53-1.1c1.74-.74,3.32-1.37,5.27-2.16,12.48-4.79,16.06-4.16,16,8.48l-.06,11.11c-.37,2.32.37.79-.94,2.32,2.26,4.47.15,15,1.31,21.16l8.27.06L308,385l7.74.42,1.21-.53c.69-.31.53.95,1.06-.58.05-.26.37-.21.68-.36l-5.16-39.34c1-.79-1.53-1.58,1.74-.37-4.21-8.48-3.06-8.9-4.64-21-.47-3.63-.36-7.9-1.68-10.9-1.69-4-4.06-2.74-7.06-5-7.95-1.9-16.16,0-24.33.89C272.83,308.82,257.77,309.56,254.72,311Z"/><path class="cls-7" d="M254.72,311c3-1.47,18.11-2.21,22.85-2.74,10.22-1.16,33.29,1,35.23-10.53s-.42-12.22-.73-17.8l-.37-.21c-.16.16-.37.11-.48.37s-5.1,5.85-6.89,6.64c-3.22,1.36-8.8,1.84-13,2.26-3.32.74-9.27,1.16-12.22-.32-1.47.06-9-.58-11-.73l-14.49-2.22-1.26-.26c-3.42-.47-2.95.42-4.69-3.21a80.56,80.56,0,0,1-4.95-12.8L234,272.06l-2.74.85-12.58,4c.89,5.58,11.95,29.75,20.64,32.23C242.66,310.14,252.82,309.29,254.72,311Z"/><path class="cls-2" d="M170.09,308c5.06-1,18-10.69,21.07-9.9L193.63,277l1.11-6.69a133.65,133.65,0,0,1,3.95-15.53c1.32-4.11,5.53-11,6.06-14.69-5.8-2.69-11.91-6.11-17.33-9.06-3.9-2.11-13.27-7.32-17.22-8.32Z"/><path class="cls-8" d="M315.75,385.44,330,396.24c2-1.11.06.05,2-1.48a18,18,0,0,1,1.94-1.58l4.58-5.26a27,27,0,0,1,3.85-5.06c2-2.05,3.11-3.63,5.05-4.84,1-3.06-1.68-4.69-6.1-8.9l-17.12-17.07c-2.74-2.73-5.74-6.68-9-7.79s-.69-.42-1.74.37L318.7,384c-.31.15-.63.1-.68.36-.53,1.53-.37.27-1.06.58Z"/><path class="cls-9" d="M223.81,197.71l4.84,0c1.11,2.26,1.53,2.79,1.06,5.58-.27,1.9-.21.95-1.16,2.58s-.85.37-1.06,2.48a26.71,26.71,0,0,0,3.53,6.42c1.53,2,3.69,3.48,4.43,5.53,5.26,1.21,4.37,4.42,11,4.06,2.27-4,3.37-8.69-.74-12.06-7.84-4.22-11.58-4.37-9.68-13.85,1-4.85,0-3.64-.43-7.8l11,4.74c2.84,1.42,3.48,1.69,7.11,1.37,5.37-3.42-2.32-13.53-6.95-14.22-2.69-.37-2.58.69-5.22,1.16-6.26,1.06-6.74-2.89-11.21-.74-1.37.64-4,.58-5.9,2.11C219.81,188.91,216.49,195.65,223.81,197.71Z"/><path class="cls-8" d="M259.62,347l8.53,5.63L285.32,364c1.31-1.53.57,0,.94-2.32l.06-11.11c.05-12.64-3.53-13.27-16-8.48-1.95.79-3.53,1.42-5.27,2.16a16.14,16.14,0,0,0-2.53,1.1Z"/><path class="cls-10" d="M279.15,288.7c3,1.48,8.9,1.06,12.22.32,1.11-1.47,2.27-3.37,3.58-4.9,2.74-3.26,8.95-10.32,10.59-14.06L317.6,270c-1,2.42-6.22,8.95-5.9,9.74l.37.21,7.05-10.16-13.53-1.16-5.69-9.48Z"/><path class="cls-11" d="M379.37,407c-1.27-2.27-11.9-10.9-14.06-11.69L354.25,395c-2.37,0-11.06-1.48-9.53,7.84,2.95,1.69,21.69,5.43,27,6.37C375.79,409.93,378.21,411.67,379.37,407Z"/><path class="cls-11" d="M303.17,414.93c.16-5.27-6.8-14.32-8.8-18.22l-7.58.21c-1.47,4.53,5.11,18.91,7.42,25.23,1.22,3.37,1.64,6.31,4,8,3.9-.16,4-1.48,4.22-5.27S302.9,418.56,303.17,414.93Z"/><path class="cls-7" d="M213,228.78c5.74-.48,5.16.31,9.22-2.22,7.16,2.85,4.9,4.16,13.74,2l-.52-8.22c-.74-2-2.9-3.53-4.43-5.53a26.71,26.71,0,0,1-3.53-6.42l-1.42-2c-.47,3.9-3.26,9.42-5,12.69C218.12,224.35,214.59,225,213,228.78Z"/><path class="cls-12" d="M294.37,396.71c2,3.9,9,13,8.8,18.22.79-1.42,3.95-25.7,4.84-29.91l-13.11.16c.1,2.1.26,4.21.32,6.32,0,.58,0,2.31,0,2.89Z"/><path class="cls-13" d="M291.37,289c4.16-.42,9.74-.9,13-2.26,1.79-.79,6.89-6.53,6.89-6.64l.11-.16.32-.16.42.16,7.05-10.16-13.53-1.16Z"/><path class="cls-7" d="M338.55,387.92c1.48,2,4.43,3.05,6.9,4.52,4.85,2.95,3.11,1.69,8.8,2.59l11.06.26c-.11-.16-.32-.58-.42-.48l-1.58-1.63c-3.16-2.95-15.12-12.27-15.86-15.16-1.94,1.21-3.1,2.79-5.05,4.84A27,27,0,0,0,338.55,387.92Z"/><path class="cls-7" d="M245.71,212.35c.32-7.27,2.27-1.79,1.64-8.06-.32-3-.48-5.69-.74-8.85l-11-4.74c.43,4.16,1.43,3,.43,7.8C234.13,208,237.87,208.13,245.71,212.35Z"/><path class="cls-14" d="M226.07,206.45l1.42,2c.21-2.11.16-1,1.06-2.48s.89-.68,1.16-2.58c.47-2.79,0-3.32-1.06-5.58l-4.84,0C222.07,201.29,224.23,204.34,226.07,206.45Z"/><path class="cls-2" d="M175.15,393.18a36.69,36.69,0,0,1,4.69,3.53c21,13.69,40.33,17.75,69.35,10.58,1.69-1.1.42-.94,3.27-.63l.15,72.41h81.84c-.06-17.59.89-82.89-.48-85.89a18,18,0,0,0-1.94,1.58c-1.95,1.53-.06.37-2,1.48l-14.27-10.8L308,385c-.89,4.21-4.05,28.49-4.84,29.91-.27,3.63-.58,6.27-.79,9.95s-.32,5.11-4.22,5.27c-2.31-1.69-2.73-4.63-4-8-2.31-6.32-8.89-20.7-7.42-25.23l7.58-.21.85-2.32c0-.58,0-2.31,0-2.89-.06-2.11-.22-4.22-.32-6.32l-8.27-.06c-1.16-6.16.95-16.69-1.31-21.16l-17.17-11.33L259.62,347c-2.74-.11-14.59,5.95-18.7,7.27-7.79,2.47-14,4.1-23,3.68-7.42-.31-15.59-3.26-20-6.69-5.53-4.21-5.69-11.37-7.69-18.48h-.05v-1.47H146.82v1.52c-1.53,13.38,7,38.29,16.74,48.35C167,386.34,170.88,389,175.15,393.18Z"/><path class="cls-10" d="M191.16,298.13l.16,11.53a8.8,8.8,0,0,0,1.31,2.32c.74.95-.26,0,1.06,1,1.15,1,.05.27,1.26.74,2.32,3,5.21,3.11,9.69,4.06,9.37,1.94,46.66,7.95,50.08-6.8-1.9-1.74-12.06-.89-15.43-1.89-8.69-2.48-19.75-26.65-20.64-32.23l17.27-5.43c1.26-.36,6.79-2,7-1.37a81.66,81.66,0,0,0,4.79,12.17c1.74,3.63,1.27,2.74,4.69,3.21l-.42-3.53-1.79-10.27C248.93,264.85,246,256,243.77,249c-1.21-3.85-2.37-6.64-3.69-10.38-1-2.79-2.37-4.95-3.32-7.53l-.84-3c-9.43-.58-10.37.58-18.48-4.32l-1.16,1.05-1.85,1.79L211.38,230h.05c-5.63,5.32-10.37,17.53-12.74,24.75a133.65,133.65,0,0,0-3.95,15.53L193.63,277Z"/></g><polygon class="cls-1" points="-255.66 164.35 205.94 164.35 205.94 387.81 -255.66 387.81 -255.66 173.42 -255.66 164.35"/></svg>