<svg id="Layer_1" data-name="Layer 1" xmlns="http://www.w3.org/2000/svg" viewBox="0 0 1080 1080"><defs><style>.cls-1{fill:#ffc749;}.cls-2{fill:#3a5f7e;}.cls-3{fill:#85c3c0;}.cls-4{fill:#f16861;}.cls-5{fill:#171c41;}.cls-6{fill:#fdd3ba;}.cls-7{fill:#151826;}.cls-8{fill:#18232b;}.cls-9{fill:#fff;}.cls-10{fill:#425ea9;}.cls-11{fill:#fdd3b5;}.cls-12{fill:#b6b6b8;}.cls-13{fill:#f19757;}</style></defs><title>logoterbaru</title><path class="cls-1" d="M1.12,900.94l191.46-99.78,5.86-.45.23-208.59h.22V407.64l.23-89.43-.23-124.12H1.12Z"/><path class="cls-2" d="M197.54,1000.51c-5.63,5.4-40.09,22.3-59.24,32-4.28,2-7.89,3.82-10.14,5.17l-47.75,25-21.85,11.49-13.74,7.21H566.73L567,918.74l-6.53.9c-65.33,16.22-109,7-156.33-23.88-8.33-.67-137.18,69.61-156.33,79.29C235.61,981.14,209.25,997.13,197.54,1000.51Z"/><path class="cls-3" d="M381.8,697.54,382,503.82c-6.08-5.86-38.29-21.18-45.95-25.23-21.62-11-124.56-66-136.5-70.28l-.23,385.41C212.63,790.12,353,711.28,381.8,697.54Z"/><path class="cls-2" d="M199.79,381.05v27.26c11.94,4.28,114.88,59.24,136.51,70.28,7.66,3.83,39.87,19.15,45.95,25.23L382,697.54l.45-1.58.22-192.37c8.79,2.26,30,14,38.74,18.7,12.17,6.53,25.69,14.42,38.75,20.72,5.86-3.15,9.23-19.82,18.92-25.67,3.6-8.57,11.49-9.92,18-21.63,4.06-7.43,10.36-19.82,11.49-28.61-4.05-4.73-9-11.71-5.18-19.59-10.36-2.93-5.41-13.07-.9-18.25,1.8-2,13.74-14,15.54-14.87,5.63-2.7,8.34-1.12,12.16.45V386l-.67-.45L416,319.56h-.23L198.89,194.09v187ZM530.24,498.64a.77.77,0,0,0-.31-.19.89.89,0,0,0-.36,0l.67,11.49Z"/><path class="cls-3" d="M1.12,1081.15H45l1.35-.68,12.17-6.3v-.23l49.1-25.68,20.5-10.59c12.17-6.53,62.17-30.41,69.38-36.94l.23-197.32c-2.93-2.7,4.28-3.38-5-2L1.34,901.17v180Z"/><path class="cls-4" d="M192.81,801.38c9.46-1.35,2-.67,5,2v197.1c11.48-3.16,37.84-19.15,50.23-25.68,18.92-9.69,147.77-79.74,156.33-79.29a59.5,59.5,0,0,0-10.59-8.11c-9.69-9.46-18.47-15.32-25.91-27-7-7-14.41-19.6-19.82-30.41-7.66-15.77-8.11-33.34-12.16-38.07,1.35-6.08-7.21-27.48-5.86-40.54l97.76-.23c-.45-9.46-.9-18.92-.9-28.61,0-6.08-.45-18.24,3.38-23.42l-.45-25.91c-7-1.8-36,19.82-47.53,22.3l-.45,1.58c-28.83,14-169.17,92.58-182.46,96.18v-.67l-.9.45-.22,7.66Z"/><path class="cls-4" d="M751.44,887.65c3.16,6.76.91,153.85,1.13,193.5h325.49l-17.56-12.84h-.23C1012.74,1033.62,965.21,997.58,917,964l-8.11-5.85c-6.08-4.73-12.39-9.46-17.8-13.52-8.33-6.08-29.05-22.52-37.39-25.9-2.7,10.59-8.11,6.53-17.35,5.18-11.93-2-54.06-10.59-60.81-14.42-3.38-21,16.22-17.57,21.39-17.57-12.83-2-8.78.91-19.82-5.85-5.63-3.38-12.16-5.63-15.54-10.14Z"/><path class="cls-5" d="M572.82,702.49c-1.81,7.89-16.45,18.48-30,18-11.27,8.79-64.65,1.13-82.9-2.7-10.13-2-16.67-2.48-21.85-9.23-2.7-1.13-.22.45-2.92-1.58s-.68-.23-2.48-2.48a26,26,0,0,1-2.93-5.18c-3.83,5.18-3.38,17.34-3.38,23.43-.22,9.46.45,18.92.9,28.6,4.51,16,5,32.22,17.35,41.68,9.91,7.66,28.38,14.41,45.05,15.09,20.27.9,34.24-2.71,51.81-8.34,9.23-2.92,41.67-14.64,48.65-20.27a61.24,61.24,0,0,1,5.63-2.48c3.83-1.57,7.44-3.15,11.94-4.95,28.16-10.81,36.27-9.46,36,19.15l-.22,25c-.9,5.18.9,1.8-2,5.18,5.18,10.14.45,33.79,2.93,47.75l18.69.23,29.74-.23,17.34.9,2.71-1.12c1.57-.68,1.12,2,2.47-1.35.23-.68.9-.45,1.58-.91l-11.71-88.52c2.47-1.8-3.38-3.6,3.83-.9-9.46-19.15-7-20-10.37-47.3-1.12-8.11-.9-17.8-3.82-24.56-3.83-9-9.24-6.08-16-11.26-18-4.28-36.49,0-54.73,2C613.59,697.54,579.8,699.34,572.82,702.49Z"/><path class="cls-6" d="M572.82,702.49c7-3.38,40.77-5,51.58-6.08,23-2.7,75,2.25,79.29-23.65s-.9-27.48-1.58-40.1l-.9-.45c-.45.45-.9.23-1.12.91,0,.22-11.49,13.06-15.55,14.86-7.21,3.16-19.82,4.06-29.28,5.18-7.43,1.58-21,2.71-27.48-.67-3.38.22-20.5-1.35-25-1.58L570.11,646l-2.93-.68c-7.65-1.13-6.53.9-10.58-7.21a187.83,187.83,0,0,1-11.26-28.83l-19.6,5.86-6.08,1.8-28.39,9c2,12.61,27,67.12,46.41,72.53C545.79,700.47,568.54,698.66,572.82,702.49Z"/><path class="cls-1" d="M382.25,695.74c11.49-2.48,40.55-24.11,47.53-22.3l5.63-47.76,2.48-15.09a330,330,0,0,1,8.78-34.91c2.93-9.24,12.39-24.78,13.74-33.12-13.06-6.08-26.8-13.74-39-20.5-8.78-4.72-29.95-16.44-38.74-18.69Z"/><path class="cls-7" d="M710.45,870.08l32.21,24.33c4.28-2.48.23.23,4.5-3.38,2.48-1.8,1.81-2,4.28-3.6l10.37-11.94A79.18,79.18,0,0,1,770.37,864c4.28-4.73,7-8.11,11.48-10.81,2.26-7-3.83-10.59-13.74-20.05l-38.52-38.52c-6.08-6.08-12.84-15.09-20.27-17.57s-1.58-.9-3.83.9l11.71,88.53c-.67.45-1.35.22-1.57.9-1.13,3.38-.9.68-2.48,1.35Z"/><path class="cls-8" d="M503.21,447.28l10.82.23c2.47,5.17,3.37,6.3,2.47,12.61-.67,4.28-.45,2-2.7,5.86-2,3.37-1.8.9-2.48,5.63A63.88,63.88,0,0,0,519.21,486c3.38,4.51,8.33,7.89,9.91,12.39,11.94,2.7,9.91,9.91,24.78,9.24,5.18-9,7.65-19.6-1.58-27.26-17.57-9.46-26.13-9.91-21.85-31.08,2.25-10.82,0-8.11-.9-17.57l24.78,10.58c6.3,3.16,7.88,3.83,16,3.16,12.16-7.66-5.18-30.41-15.77-32-6.08-.9-5.86,1.58-11.71,2.7-14.19,2.48-15.1-6.53-25.23-1.57-3.15,1.35-9,1.35-13.29,4.73C494.2,427.45,486.77,442.77,503.21,447.28Z"/><path class="cls-7" d="M583.85,783.59,603,796.2l38.75,25.46c2.92-3.38,1.35,0,2-5.19l.23-25c.22-28.38-7.89-30-36-19.15-4.28,1.81-7.89,3.16-11.94,5a60.07,60.07,0,0,0-5.63,2.48Z"/><path class="cls-9" d="M628,652.26c6.54,3.38,20,2.48,27.49.68,2.47-3.38,5.18-7.66,8.11-11,6.08-7.43,20.27-23.2,23.87-31.76l27.26-.23c-2,5.41-14,20.28-13.29,21.85l.9.45,16-23-30.41-2.71-12.84-21.39Z"/><path class="cls-10" d="M853.71,918.74c-2.93-5.18-26.81-24.55-31.76-26.35l-25-.68c-5.41,0-25-3.38-21.4,17.57,6.53,3.83,48.88,12.16,60.82,14.42C845.6,925.27,851,929.33,853.71,918.74Z"/><path class="cls-10" d="M682.07,936.54c.45-11.94-15.32-32.21-19.83-41l-17.11.45c-3.38,10.14,11.48,42.57,16.66,56.77,2.71,7.65,3.61,14.18,8.79,18,8.78-.46,9-3.38,9.46-11.94C680.71,950.73,681.39,944.87,682.07,936.54Z"/><path class="cls-6" d="M478.88,517.34c12.84-1.13,11.72.67,20.73-5,16.22,6.31,11,9.46,30.86,4.51l-1.13-18.48c-1.58-4.73-6.53-7.88-9.91-12.38a56,56,0,0,1-7.88-14.42l-3.16-4.28c-1.12,8.78-7.43,21.17-11.49,28.61C490.37,507.43,482.49,508.77,478.88,517.34Z"/><path class="cls-11" d="M662.24,895.54c4.51,8.79,20.28,29.28,19.83,41,1.8-3.16,8.78-57.9,10.81-67.36l-29.51.46c.22,4.73.68,9.46.68,14.19a64.65,64.65,0,0,1,0,6.53Z"/><path class="cls-12" d="M655.49,652.94c9.46-.9,21.84-2,29.28-5.18,4.05-1.8,15.54-14.64,15.54-14.87l.23-.45c.22-.22.45-.22.67-.45l.9.45,16-23-30.41-2.7Z"/><path class="cls-6" d="M761.81,875.71c3.38,4.51,9.91,7,15.54,10.14,10.81,6.54,7,3.83,19.82,5.86l25,.68c-.22-.46-.67-1.36-.9-1.13l-3.6-3.61c-7.21-6.53-34-27.7-35.82-34.23-4.28,2.7-7,6.3-11.48,10.81A65.17,65.17,0,0,0,761.81,875.71Z"/><path class="cls-6" d="M552.54,480.17c.68-16.45,5.18-4.06,3.61-18.25-.68-7-1.13-12.84-1.58-19.82l-24.78-10.59c.9,9.46,3.16,6.53.9,17.57C526.42,470.48,535,470.7,552.54,480.17Z"/><path class="cls-13" d="M508.39,466.88l3.16,4.28c.45-4.73.45-2.26,2.48-5.63s2-1.58,2.7-5.86c1.12-6.31.22-7.43-2.48-12.61l-10.81-.23C499.38,455.39,504.11,462.15,508.39,466.88Z"/><path class="cls-1" d="M393.51,887.65a85.87,85.87,0,0,1,10.59,7.89c47.3,30.86,90.78,39.87,156.33,23.87,3.83-2.47.9-2,7.43-1.35l.45,163.09H752.57c-.22-39.65,2-186.74-1.12-193.5a30.83,30.83,0,0,0-4.29,3.61c-4.27,3.38-.22.9-4.5,3.38l-32.21-24.33-17.57-1.13c-2,9.46-9.24,64.2-10.81,67.35-.68,8.11-1.36,14.2-1.81,22.53s-.67,11.49-9.46,11.94c-5.18-3.83-6.08-10.36-8.78-18-5.18-14.19-20-46.63-16.67-56.77l17.12-.45,1.8-5.18a64.65,64.65,0,0,0,0-6.53l-.67-14.19-18.7-.23c-2.7-14,2-37.61-2.93-47.75l-38.74-25.46-19.15-12.61c-6.08-.22-32.89,13.52-42.12,16.44-17.57,5.63-31.54,9.24-51.81,8.34-16.67-.68-35.14-7.43-45-15.09-12.39-9.46-12.84-25.68-17.35-41.68h-.22v-3.37H330v3.37c-3.38,30.19,15.77,86.28,37.62,108.8C375.27,872.11,384.05,878.19,393.51,887.65Z"/><path class="cls-9" d="M429.78,673.44l.45,25.9a20.71,20.71,0,0,0,2.93,5.18c1.58,2-.68.23,2.48,2.48,2.7,2,.22.67,2.92,1.58,5.19,6.53,11.72,7,21.85,9.23,21.18,4.28,105.2,18,112.86-15.32-4.28-3.83-27.26-2-34.69-4.28-19.6-5.63-44.38-59.91-46.4-72.53l39-12.16c2.93-.9,15.32-4.51,15.77-3.16a189.11,189.11,0,0,0,10.81,27.48c3.83,8.12,2.93,6.09,10.59,7.21l-.9-7.88-4-23.2c-2.71-15.32-9.24-35.37-14.42-51.13-2.7-8.56-5.41-14.87-8.33-23.43-2.26-6.31-5.41-11.26-7.44-16.9l-1.8-7c-21.17-1.35-23.43,1.35-41.67-9.68l-2.7,2.47-4.06,4.06-7,7.88h.22c-12.61,11.94-23.42,39.42-28.61,55.87A292.7,292.7,0,0,0,438.79,611l-2.48,15.09Z"/></svg>