<svg id="Layer_1" data-name="Layer 1" xmlns="http://www.w3.org/2000/svg" xmlns:xlink="http://www.w3.org/1999/xlink" viewBox="0 0 1080 1080"><defs><style>.cls-bird-1{fill:none;}.cls-bird-2{fill:#fff;}.cls-bird-3{clip-path:url(#clip-path);}.cls-bird-4{fill:#155363;}</style><clipPath id="clip-path"><path class="cls-bird-1" d="M1210.62,302.07l-13.33-4.3-89.76-165.65,566.19,189.56.07,0,1.21.38.12.05,78.26,26.21-.36,1.74c4.23,2,8.41,4.05,12.49,6.35a163.34,163.34,0,0,1,43.72,35.63c5.67,6.61,10,14,15.14,20.41,1.14.53,2.46,1,3.5,1.45a225.75,225.75,0,0,0,30.12,9.46c17.56,4.33,34.47,7.52,51.6,13.77A179.36,179.36,0,0,1,1970.12,474c17.75,16.37,34.92,38.35,44.9,60.31,7.41,16.28,10.75,32.1,11.42,49.76.2.5.39,1,.58,1.57a294,294,0,0,1,12.08,38.64,202.17,202.17,0,0,0,9.47-61.28c0-103.4-78-190.52-180.82-201.56l-21.21-2.27L1759.32,235l92.61,1.69c177.8,3.28,320.31,148.5,320.31,326.34,0,180.26-146.16,326.42-326.42,326.42-178.09,0-322.89-142.65-326.35-319.89l-191-60-55.24-103.38-11.33-3.65Z"/></clipPath></defs><title>logo</title><path class="cls-bird-2" d="M716.54,484A213.13,213.13,0,0,1,719,511.05a193.88,193.88,0,0,1-4.58,48.34c-2.9,12.22-7.29,23.4-12.41,34.82-.86,2-1.72,3.92-2.63,5.88-1.13,2.49-2.49,4.37-5.34,5.3-4.18,1.43-7.8-.67-10-4.07-1.26-1.93-2.44-4-3.62-6q-7.36-12.47-14.56-25c-2.39-4.16-6.36-9.52-3.73-14.19.4-2.09.67-4.58.94-6.54,1.77-12.68,3.46-26.75,3.27-39.57-.19-11.61-2.6-20.08-5.87-31-3.59-12.09-7.29-24-14.29-34.67C638.9,433.3,627.82,423.43,617,416a164,164,0,0,0-31.15-16.43c-10.48-4.35-21.13-8.13-31.88-11.77-10.4-3.52-20.86-6.92-31.34-10.32L43,222.22,4.59,151.41,589.81,347.34v.08c15.09,5.15,30.4,10.7,44.29,18.48a140,140,0,0,1,37.32,30.37,177.14,177.14,0,0,1,11.07,14.67,110.38,110.38,0,0,0,7.91,10.62c5.42,6,12.25,9.08,19.68,12.06a306.06,306.06,0,0,0,40.24,12.71c18.13,4.45,36.14,7.69,53.78,14.15A157.57,157.57,0,0,1,857.59,493c15.66,14.43,31.61,34.51,40.38,53.81,6.16,13.54,8.55,26.14,9,40.86a40.23,40.23,0,0,0,.27,5c.45,2.82,2.2,6.81,3.19,9.46,6.19,16.52,12,33.73,14.34,51.27s1,38.33-7.08,54.53c-5.65,11.31-13.88,19.22-24.07,26.33-3.6,2.52-7.3,4.85-11.88,3.11-5.28-2-6.14-7.16-7.1-12-2.39-11.77-5.58-22.55-12-32.87-8.15-13.11-21.66-25.47-35-33.22A82.89,82.89,0,0,0,786.73,648a84.16,84.16,0,0,0-38.47,8.61c-11.77,5.89-21.53,14.61-29.71,24.85-8.47,10.54-15.58,23-19.46,36a82.47,82.47,0,0,0-2,39.51,90.4,90.4,0,0,0,18.31,40.35C726,810.39,740.7,820,756.19,826.42a174.08,174.08,0,0,0,23.49,7.64c138.34-16.19,243-133.89,243-273.44,0-140.46-106-258.72-245.61-273.71l-3.62-.37-35.82-51,15.82.29c177,3.27,318.81,147.78,318.81,324.81,0,179.44-145.48,324.92-324.92,324.92S422.43,740.06,422.43,560.62c0-8.52.35-17.08,1-25.58L191.81,462.28l-38.37-71.8L508.2,508.13l53.64,70.37-89.62-28.15c-.14,3.43-.22,6.87-.22,10.27,0,124.88,84,233.36,202.72,265.64-.35-.46-.67-.91-1-1.37A151.12,151.12,0,0,1,654.61,789a129.59,129.59,0,0,1-8.34-43.56,143.45,143.45,0,0,1,8.53-49.9c5.89-16.11,14.72-29.95,26.06-42.79,11.66-13.22,26.08-25.66,41.61-34.13s32-12.81,49.49-14.4c16.62-1.47,34.53-.58,50.7,3.49A115.84,115.84,0,0,1,862,626c4.26,3,8.26,6.25,12.12,9.6,0-.11-.08-.22-.11-.35-2.41-6.3-6.81-13.22-10.81-18.63a34.67,34.67,0,0,1-3.05-4.48c-1.83-3.49-2.15-7.86-2.58-11.69-1.52-13.35-3.29-27.32-8.12-40A71.09,71.09,0,0,0,824,527.78c-13.91-10.11-32-16.92-48.07-22.84-19.68-7.27-39.54-13.92-59.3-20.92ZM83.63,276.16l352.71,112.9,45.42,69.84L116.87,341.2Z"/><g class="cls-bird-3"><path class="cls-bird-4" d="M764.16,869.35l-14.42-19.88L992.53,413.25l14.83,22.85c9.54-74-6.11-359,30.27-424.41,64.1-115.17,358.08,75.84,485.23,34.83a445.67,445.67,0,0,1,101.59-20.34L1472.18-93.09l216.06-388.2,37.75,29.8-20.48-60.84L1810.8-701.48c.89,224.15-11.21,477-75.65,713.1a1575.07,1575.07,0,0,1-102.1,272.91,167.25,167.25,0,0,1-175.46,273.69q-34.85,41.63-73,79.37C1255,765.58,936.06,791.36,764.16,869.35Z"/></g></svg>