<?xml version="1.0" encoding="utf-8"?>
<!-- Generator: Adobe Illustrator 22.1.0, SVG Export Plug-In . SVG Version: 6.00 Build 0)  -->
<svg version="1.0" id="Layer_1" xmlns="http://www.w3.org/2000/svg" xmlns:xlink="http://www.w3.org/1999/xlink" x="0px" y="0px"
	 viewBox="0 0 1080 1080" style="enable-background:new 0 0 1080 1080;" xml:space="preserve">
<style type="text/css">
	.st0{fill:#FFFFFF;}
</style>
<path class="st0" d="M718.5,478.1c1.4,9,2.2,18,2.5,27.1c1.3,28.8-4.5,57.4-17,83.3c-0.9,1.9-1.7,3.9-2.6,5.9
	c-1.2,2.5-2.5,4.4-5.4,5.3c-4.2,1.4-7.8-0.7-10.1-4.1c-1.2-1.9-2.5-4-3.6-6c-4.9-8.3-9.8-16.7-14.6-25.1c-2.4-4.2-6.4-9.5-3.7-14.2
	c0.4-2.1,0.7-4.6,1-6.6c1.8-12.7,3.4-26.8,3.3-39.6c-0.2-11.6-2.6-20.1-5.9-31.1c-3.6-12.1-7.3-24.1-14.3-34.7
	c-7.3-11.1-18.4-21-29.2-28.5c-9.8-6.6-20.3-12.2-31.2-16.5c-10.5-4.4-21.2-8.1-31.9-11.8c-10.4-3.5-21-6.9-31.4-10.3L43.7,215.8
	L5.2,144.9l586.3,196.3v0.1c15.1,5.2,30.5,10.7,44.4,18.5c14.1,7.9,26.8,18.2,37.4,30.4c3.9,4.7,7.7,9.6,11.1,14.7
	c2.4,3.7,5.1,7.3,7.9,10.7c5.4,6,12.3,9.1,19.7,12.1c13.1,5.1,26.6,9.4,40.3,12.7c18.1,4.5,36.2,7.7,53.9,14.2
	c19.9,7.2,38.1,18.3,53.6,32.7c15.7,14.4,31.7,34.5,40.5,53.9c6.2,13.6,8.6,26.2,9,40.9c0,1.7,0.1,3.4,0.3,5
	c0.8,3.3,1.9,6.4,3.2,9.5c6.2,16.5,12,33.8,14.4,51.3s1,38.4-7.1,54.6c-5.7,11.3-13.9,19.3-24.1,26.4c-3.6,2.5-7.3,4.9-11.9,3.1
	c-5.3-2-6.2-7.2-7.1-12c-2.4-11.8-5.6-22.6-12-32.9c-8.2-13.1-21.7-25.5-35.1-33.3c-12.4-7.3-26.6-11.3-41-11.4
	c-13.3-0.2-26.6,2.7-38.5,8.6c-11.8,5.9-21.6,14.6-29.8,24.9c-8.7,10.7-15.3,22.9-19.5,36.1c-3.9,12.8-4.6,26.4-2,39.6
	c2.7,14.8,9,28.7,18.3,40.4c10.7,13.1,25.4,22.7,40.9,29.2c7.6,3.1,15.5,5.7,23.5,7.6c138.6-16.2,243.4-134.1,243.4-273.9
	c0-140.7-106.2-259.2-246.1-274.2l-3.6-0.4l-35.9-51.1l15.8,0.3c177.3,3.3,319.3,148.1,319.3,325.4c0,179.8-145.7,325.5-325.5,325.5
	S423.8,734.7,423.8,554.9c0-8.6,0.3-17.1,1-25.6l-232-72.9l-38.4-72l355.4,117.9l53.7,70.5l-89.8-28.2c-0.1,3.4-0.2,6.9-0.2,10.3
	c0,124.3,83.2,233.3,203.1,266.1c-0.3-0.4-0.7-0.9-1-1.3c-8-11.1-14.4-23.2-19.2-36c-5.3-14-8.1-28.7-8.4-43.7
	c-0.1-17,2.8-34,8.6-50c5.9-15.8,14.8-30.4,26.1-42.9c11.7-13.2,26.2-25.7,41.7-34.2c15.5-8.5,32.1-12.8,49.6-14.4
	c17-1.6,34.2-0.5,50.8,3.5c14.2,3.6,27.6,9.8,39.5,18.4c4.3,3,8.3,6.3,12.2,9.6c0-0.1-0.1-0.2-0.1-0.3c-2.8-6.7-6.4-12.9-10.8-18.7
	c-1.1-1.4-2.2-2.9-3.1-4.5c-1.8-3.5-2.2-7.8-2.6-11.7c-1.5-13.4-3.3-27.4-8.1-40c-5-13.2-13.9-24.7-25.5-32.8
	c-13.9-10.1-32.1-17-48.2-22.9c-19.7-7.3-39.6-13.9-59.4-21L718.5,478.1z M84.5,269.8L437.8,383l45.5,70L117.7,335L84.5,269.8z"/>
</svg>
