<?xml version="1.0" encoding="UTF-8"?>
<!DOCTYPE svg PUBLIC "-//W3C//DTD SVG 1.1//EN" "http://www.w3.org/Graphics/SVG/1.1/DTD/svg11.dtd">
<!-- Creator: CorelDRAW X8 -->
<svg xmlns="http://www.w3.org/2000/svg" xml:space="preserve" width="91.44mm" height="91.44mm" version="1.1" style="shape-rendering:geometricPrecision; text-rendering:geometricPrecision; image-rendering:optimizeQuality; fill-rule:evenodd; clip-rule:evenodd"
viewBox="0 0 9144 9144"
 xmlns:xlink="http://www.w3.org/1999/xlink">
 <defs>
  <style type="text/css">
   <!-- <![CDATA[
    .fil0 {fill:#FEFEFE}
   ]]> -->
  </style>
 </defs>
 <g id="Layer_x0020_1">
  <metadata id="CorelCorpID_0Corel-Layer"/>
  <path class="fil0" d="M6296 5987l542 -694 1110 -4c-26,98 -637,843 -720,943 -110,131 -270,401 -555,211 -75,-51 -328,-370 -377,-456zm-3393 -620c-101,-45 -382,-438 -478,-563 -138,-177 -313,-381 -466,-583l-911 -1155 1126 6c230,274 431,528 651,808 106,134 210,264 325,404 85,103 240,281 301,391 -55,106 -192,257 -274,361 -84,106 -183,238 -274,331zm4074 -2737c-64,201 223,452 443,733 85,107 501,595 528,700l-1110 -5c-214,-298 -482,-601 -722,-905 -185,-235 -494,-774 -1007,-469 -147,87 -275,284 -391,425l-1086 1356c-105,-75 -185,-206 -265,-311 -89,-117 -180,-218 -263,-322 -887,-1112 -634,-1007 -1309,-1007 -1078,0 -1367,-116 -918,439l852 1070c189,239 388,467 572,711 88,116 475,671 602,662 113,-7 1375,-1653 1459,-1759 245,-309 474,-598 712,-891 121,-150 306,-316 538,-128 62,50 305,361 343,435 -77,148 -1110,1400 -1311,1654l-994 1248c-213,258 -286,281 -224,452 181,56 212,-39 294,-146l415 -518c78,-94 126,-172 208,-257 327,311 733,1075 920,918 179,-150 -649,-867 -738,-1136 73,-115 486,-643 563,-686 308,341 1258,1706 1571,1821 277,101 525,-33 644,-174l747 -944c101,-125 381,-377 263,-501 -109,-113 -513,-51 -689,-51 -242,0 -489,-5 -731,-1 -179,3 -191,11 -271,116l-466 610c-132,-57 -382,-415 -479,-546 -137,-182 -318,-370 -430,-548 77,-123 808,-1045 891,-1094 112,151 223,268 335,410 134,171 148,314 420,319 242,3 1304,62 1422,-51 94,-102 13,-170 -66,-265l-1024 -1281c-77,-104 -94,-128 -248,-83z"/>
 </g>
</svg>
