<?xml version="1.0" encoding="UTF-8"?>
<!DOCTYPE svg PUBLIC "-//W3C//DTD SVG 1.1//EN" "http://www.w3.org/Graphics/SVG/1.1/DTD/svg11.dtd">
<!-- Creator: CorelDRAW X8 -->
<svg xmlns="http://www.w3.org/2000/svg" xml:space="preserve" width="169.333mm" height="169.333mm" version="1.1" style="shape-rendering:geometricPrecision; text-rendering:geometricPrecision; image-rendering:optimizeQuality; fill-rule:evenodd; clip-rule:evenodd"
viewBox="0 0 16933 16933"
 xmlns:xlink="http://www.w3.org/1999/xlink">
 <defs>
  <style type="text/css">
  
    #logo-footer .fil6 {fill:none}
    #logo-footer .fil0 {fill:#FEFEFE}
    #logo-footer .fil1 {fill:#5BA997}
    #logo-footer .fil4 {fill:#086199}
    #logo-footer .fil3 {fill:#0F5263}
    #logo-footer .fil5 {fill:#F9624D}
    #logo-footer .fil2 {fill:#FFCD50}
  
  </style>
   <clipPath id="id0">
    <path d="M919 6688l-92 -30 -615 -1135 3881 1299 0 0 8 3 1 0 536 180 -2 12c29,13 58,28 86,43 112,63 215,147 299,245 39,45 69,96 104,139 8,4 17,8 24,10 66,27 137,48 206,65 121,30 237,52 354,95 155,56 293,140 415,252 121,112 239,263 308,413 50,112 73,220 78,341 1,4 3,8 4,11 32,87 62,175 83,265 42,-133 64,-274 64,-420 0,-709 -534,-1306 -1239,-1381l-145 -16 -598 -851 635 12c1218,22 2195,1017 2195,2236 0,1235 -1002,2237 -2237,2237 -1220,0 -2213,-978 -2237,-2192l-1309 -411 -378 -709 -78 -25 -351 -688z"/>
   </clipPath>
 </defs>
 <g id="logo-footer">
  <metadata id="CorelCorpID_0Corel-Layer"/>
  <path class="fil0" d="M8183 10518l266 0 0 -57 -182 0c26,-25 173,-140 173,-234 0,-60 -49,-120 -129,-120 -81,0 -129,68 -135,80l36 43c6,-13 35,-68 92,-68 44,0 78,30 78,70 0,73 -178,215 -202,237l3 49zm458 5c107,0 154,-93 154,-208 0,-114 -47,-208 -154,-208 -106,0 -153,94 -153,208 0,115 47,208 153,208zm0 -54c-65,0 -96,-66 -96,-154 0,-87 31,-153 96,-153 66,0 97,66 97,153 0,88 -31,154 -97,154zm189 49l267 0 0 -57 -182 0c26,-25 173,-140 173,-234 0,-60 -50,-120 -130,-120 -80,0 -129,68 -135,80l36 43c7,-13 36,-68 92,-68 45,0 78,30 78,70 0,73 -177,215 -202,237l3 49zm458 5c107,0 155,-93 155,-208 0,-114 -48,-208 -155,-208 -106,0 -153,94 -153,208 0,115 47,208 153,208zm0 -54c-65,0 -96,-66 -96,-154 0,-87 31,-153 96,-153 66,0 97,66 97,153 0,88 -31,154 -97,154zm409 138l51 0 0 -584 -51 0 0 584zm446 -84c79,0 131,-49 131,-110 0,-121 -210,-117 -210,-197 0,-34 28,-54 75,-54 48,0 91,40 101,51l39 -40c-13,-13 -72,-66 -140,-66 -79,1 -131,49 -131,110 0,121 210,118 210,197 0,34 -28,54 -74,54 -51,0 -93,-41 -101,-50l-40 39c12,13 72,66 140,66zm235 -377c17,0 32,-14 32,-33 0,-18 -15,-32 -32,-32 -18,0 -33,14 -33,32 0,19 15,33 33,33zm-29 372l57 0 0 -302 -57 0 0 302zm286 -307c-35,0 -67,16 -90,42l0 -37 -57 0 0 302 57 0 0 -172c0,-47 34,-82 78,-82 44,0 77,35 77,82l0 172 59 0 0 -174c0,-75 -52,-133 -124,-133zm486 140c-6,-80 -74,-143 -155,-144 -86,1 -156,70 -156,157 0,17 3,34 8,49 22,64 84,106 148,107 93,0 142,-72 153,-101l-49 -16c-9,26 -49,64 -104,64 -41,0 -77,-27 -90,-64l245 -44c1,-2 0,-5 0,-8zm-253 7c1,-6 1,-10 1,-12 4,-47 43,-85 91,-87 42,-1 81,26 96,66l-188 33zm452 -147c-35,0 -68,16 -90,42l0 -37 -57 0 0 302 57 0 0 -172c0,-47 33,-82 77,-82 15,0 31,7 46,18l17 -59c-15,-8 -32,-12 -50,-12zm306 5l0 34c-28,-24 -63,-39 -103,-39 -86,0 -156,71 -156,156 0,87 70,157 156,157 40,0 75,-15 103,-39l0 8 0 0c-1,48 -40,101 -99,101 -54,0 -95,-38 -105,-64l-46 23c11,29 58,94 151,94 79,0 155,-63 156,-154l0 -277 -57 0zm-101 254c-56,0 -98,-44 -98,-103 0,-57 42,-101 98,-101 56,0 99,44 99,101 0,59 -43,103 -99,103zm268 -324c18,0 33,-14 33,-33 0,-18 -15,-32 -33,-32 -18,0 -33,14 -33,32 0,19 15,33 33,33zm-29 372l58 0 0 -302 -58 0 0 302zm743 0l-87 -406 -51 0 -98 286 -98 -286 -51 0 -87 406 58 0 64 -300 97 300 34 0 97 -300 65 300 57 0zm337 -167c-6,-80 -74,-143 -155,-144 -87,1 -156,70 -156,157 0,17 2,34 8,49 22,64 84,106 148,107 93,0 142,-72 153,-101l-49 -16c-9,26 -50,64 -104,64 -42,0 -77,-27 -90,-64l245 -44c0,-2 0,-5 0,-8zm-253 7c1,-6 1,-10 1,-12 4,-47 43,-85 90,-87 43,-1 82,26 96,66l-187 33zm665 -147c-50,0 -90,23 -111,57 -22,-35 -59,-57 -103,-57 -34,0 -67,16 -89,42l0 -37 -58 0 0 302 58 0 0 -172c0,-47 33,-82 77,-82 44,0 78,35 78,82l0 172 58 0 0 -172c0,-47 33,-82 78,-82 44,0 77,35 77,82l0 172 59 0 0 -174c0,-75 -52,-133 -124,-133zm355 0c-39,0 -75,14 -102,38l0 -182 -57 0 0 451 57 0 0 -33c27,23 63,38 102,38 87,0 156,-70 156,-156 0,-86 -69,-156 -156,-156zm-1 257c-56,0 -99,-43 -99,-101 0,-58 43,-102 99,-102 56,0 98,44 98,102 0,58 -42,101 -98,101zm456 -252l0 33c-28,-24 -63,-38 -103,-38 -86,0 -156,70 -156,156 0,86 70,156 156,156 40,0 75,-15 103,-38l0 33 57 0 0 -302 -57 0zm-101 252c-56,0 -99,-43 -99,-101 0,-58 43,-102 99,-102 56,0 98,44 98,102 0,58 -42,101 -98,101zm378 -257c-35,0 -67,16 -90,42l0 -37 -57 0 0 302 57 0 0 -172c0,-47 33,-82 78,-82 44,0 77,35 77,82l0 172 59 0 0 -174c0,-75 -52,-133 -124,-133zm436 5l0 34c-27,-24 -63,-39 -102,-39 -87,0 -156,71 -156,156 0,87 69,157 156,157 39,0 75,-15 102,-39l0 8 0 0c-1,48 -40,101 -99,101 -54,0 -95,-38 -104,-64l-46 23c10,29 58,94 150,94 79,0 155,-63 156,-154l0 -277 -57 0zm-101 254c-56,0 -98,-44 -98,-103 0,-57 42,-101 98,-101 56,0 99,44 99,101 0,59 -43,103 -99,103zm443 -254l0 171c0,47 -34,83 -78,83 -44,0 -77,-35 -77,-82l0 -172 -59 0 0 174c0,74 52,133 125,133 34,0 67,-16 89,-42l0 37 57 0 0 -302 -57 0zm278 -5c-35,0 -67,16 -90,42l0 -37 -57 0 0 302 57 0 0 -172c0,-47 34,-82 78,-82 44,0 77,35 77,82l0 172 59 0 0 -174c0,-75 -52,-133 -124,-133zm657 307l61 0 -167 -406 -55 0 -167 406 61 0 45 -114 177 0 45 114zm-199 -171l66 -166 66 166 -132 0zm412 176c78,0 116,-38 116,-88 0,-99 -188,-89 -188,-136 0,-24 26,-37 62,-37 51,0 88,37 88,37l38 -34c0,0 -46,-54 -125,-54 -79,0 -117,38 -117,88 0,99 189,89 189,136 0,24 -26,37 -62,37 -51,0 -88,-37 -88,-37l-38 33c0,0 45,55 125,55zm412 -307l0 33c-27,-24 -63,-38 -102,-38 -87,0 -156,70 -156,156 0,86 69,156 156,156 39,0 75,-15 102,-38l0 33 58 0 0 -302 -58 0zm-101 252c-56,0 -98,-43 -98,-101 0,-58 42,-102 98,-102 56,0 99,44 99,102 0,58 -43,101 -99,101z"/>
  <path class="fil0" d="M8239 8009l511 0c346,0 552,-192 552,-427 0,-100 -37,-191 -105,-263 68,-74 105,-165 105,-266 0,-235 -206,-426 -552,-426l-511 0 0 1382zm326 -818l0 -259 185 0c136,0 227,51 227,129 0,79 -91,130 -227,130l-185 0zm0 513l0 -258 185 0c136,0 227,52 227,128 0,78 -91,130 -227,130l-185 0zm1936 -752l0 -325 -1038 0 0 1382 1038 0 0 -326 -713 0 0 -201 387 0 0 -326 -387 0 0 -204 713 0zm1755 1057l-247 -1382 -285 0 -274 684 -273 -684 -285 0 -247 1382 326 0 127 -789 268 789 167 0 270 -791 127 791 326 0z"/>
  <path class="fil0" d="M9054 8419l-269 791 -271 -791 -300 0 421 1228 298 0 419 -1228 -298 0zm901 1243c384,0 615,-282 615,-628 0,-348 -231,-630 -615,-630 -385,0 -615,282 -615,630 0,346 230,628 615,628zm0 -271c-180,0 -300,-143 -300,-357 0,-216 120,-359 300,-359 181,0 302,143 302,359 0,214 -121,357 -302,357zm1767 -972l-330 0 -386 489 0 -489 -290 0 0 1228 290 0 0 -322 121 -152 263 474 308 0 -392 -703 416 -525zm1072 1228l308 0 -491 -1228 -271 0 -490 1228 307 0 94 -254 450 0 93 254zm-435 -543l117 -319 117 319 -234 0zm1203 558c212,0 426,-143 426,-361 0,-335 -566,-402 -566,-538 0,-53 57,-88 141,-88 140,0 262,154 262,154l196 -196c0,0 -207,-229 -456,-229 -212,2 -426,143 -426,363 0,333 565,403 565,536 0,53 -56,88 -141,88 -139,0 -261,-154 -261,-154l-196 196c0,0 207,229 456,229zm606 -15l289 0 0 -1228 -289 0 0 1228zm1321 15c281,0 506,-185 506,-494l0 -751 -289 0 0 751c0,133 -87,223 -217,223 -129,0 -216,-90 -216,-223l0 -751 -289 0 0 751c0,309 227,494 505,494zm667 -15l289 0 0 -1228 -289 0 0 1228z"/>
  <path class="fil1" d="M919 6688l-92 -30 -615 -1135 3881 1299 0 0 8 3 1 0 536 180 -2 12c29,13 58,28 86,43 112,63 215,147 299,245 39,45 69,96 104,139 8,4 17,8 24,10 66,27 137,48 206,65 121,30 237,52 354,95 155,56 293,140 415,252 121,112 239,263 308,413 50,112 73,220 78,341 1,4 3,8 4,11 32,87 62,175 83,265 42,-133 64,-274 64,-420 0,-709 -534,-1306 -1239,-1381l-145 -16 -598 -851 635 12c1218,22 2195,1017 2195,2236 0,1235 -1002,2237 -2237,2237 -1220,0 -2213,-978 -2237,-2192l-1309 -411 -378 -709 -78 -25 -351 -688z"/>
  <g style="clip-path:url(#id0)">
   <g id="_2440567821424">
    <path id="1" class="fil2" d="M1219 8502c-6,-273 -11,-508 6,-656 16,-147 54,-206 383,-341 330,-135 951,-345 1196,-162 212,158 142,611 386,1145 40,-7 80,-17 119,-28 21,-6 41,-13 61,-20 79,-28 154,-64 223,-108 46,-28 89,-60 131,-95 -2,27 -2,54 -2,81 0,45 1,89 5,133 19,240 88,465 197,666 151,240 347,450 576,616 66,42 136,79 208,112 137,62 284,106 437,129 43,6 86,11 129,14 3,25 7,51 11,76 1,9 3,19 5,28l1 7c13,65 31,127 53,188 38,13 75,26 113,37 761,234 1329,-4 1156,108 -173,113 -1087,576 -1999,688 -912,113 -1822,-127 -2383,-473 -561,-346 -774,-799 -885,-1180 -111,-382 -120,-692 -127,-965z"/>
    <path class="fil3" d="M-2141 10576l-99 -137 1664 -2989 102 156c65,-507 -42,-2460 207,-2908 440,-790 2454,519 3326,238 233,-75 465,-121 696,-139l-1044 -817 1481 -2661 259 204 -141 -417 722 -1296c6,1536 -77,3269 -519,4887 -176,648 -411,1277 -699,1871 197,205 318,485 318,792 0,633 -513,1146 -1146,1146 -131,0 -257,-22 -375,-63 -159,190 -326,372 -500,544 -888,877 -3074,1054 -4252,1589z"/>
    <path class="fil4" d="M16897 7736l1387 0 -482 3048 -1388 0 45 -284c-83,77 -178,141 -282,194 -225,112 -472,157 -722,157 -322,0 -636,-75 -892,-278 -258,-205 -390,-489 -390,-818 0,-100 9,-203 21,-304 16,-140 36,-281 58,-420l208 -1295 2437 0zm-10377 830c-695,15 -1253,583 -1253,1281 0,330 124,630 328,857l-3 8c-7,24 -14,48 -22,72l104 0c229,214 536,345 875,345 338,0 645,-131 874,-345l1427 0 220 -434 268 0 92 434 1336 0c128,39 261,58 397,58 265,0 525,-51 751,-179l-19 121 1388 0 482 -3048 -1387 0 -33 210c-101,-72 -211,-131 -327,-176 -161,-62 -330,-92 -502,-92 -320,0 -616,98 -850,318 -166,157 -271,346 -318,557l-174 -817 -2720 0 -134 147 24 -147 -279 0c-66,88 -130,178 -192,269l0 0c-31,46 -488,-151 -545,-105 -44,35 133,317 291,499 -33,55 -66,111 -99,167zm1893 79l-645 648 184 274 461 -922z"/>
    <path class="fil5" d="M10094 7809c-788,386 -1738,469 -2521,433 -112,145 -287,239 -485,239 -300,0 -549,-216 -602,-501 -125,-159 -552,-688 -628,-688 -86,0 -687,24 -688,24 -444,-379 -880,-804 -1184,-1033l2471 -1944 1732 1605 -384 302c193,1 385,30 577,85 410,119 771,349 1083,638 262,243 484,523 629,840z"/>
   </g>
  </g>
  <path class="fil6" d="M919 6688l-92 -30 -615 -1135 3881 1299 0 0 8 3 1 0 536 180 -2 12c29,13 58,28 86,43 112,63 215,147 299,245 39,45 69,96 104,139 8,4 17,8 24,10 66,27 137,48 206,65 121,30 237,52 354,95 155,56 293,140 415,252 121,112 239,263 308,413 50,112 73,220 78,341 1,4 3,8 4,11 32,87 62,175 83,265 42,-133 64,-274 64,-420 0,-709 -534,-1306 -1239,-1381l-145 -16 -598 -851 635 12c1218,22 2195,1017 2195,2236 0,1235 -1002,2237 -2237,2237 -1220,0 -2213,-978 -2237,-2192l-1309 -411 -378 -709 -78 -25 -351 -688z"/>
  <path class="fil0" d="M5086 8013c8,54 14,109 15,163 3,96 -6,199 -28,293 -17,73 -44,141 -75,210 -5,12 -10,24 -16,35 -6,15 -15,27 -32,32 -25,9 -47,-4 -60,-24 -8,-12 -15,-24 -22,-36 -30,-50 -59,-101 -88,-151 -15,-25 -39,-58 -23,-86 3,-13 4,-28 6,-40 11,-76 21,-161 20,-239 -1,-70 -16,-121 -36,-187 -22,-73 -44,-145 -86,-209 -44,-67 -111,-127 -177,-172 -59,-41 -121,-72 -188,-99 -63,-27 -128,-50 -192,-72 -63,-21 -126,-41 -190,-62l-2898 -938 -232 -428 3536 1184 0 1c91,31 184,64 268,111 84,47 163,111 225,184 25,28 46,58 67,88 15,22 30,45 48,65 33,36 74,55 119,73 78,31 161,56 243,76 109,27 218,47 325,86 121,44 228,109 323,197 95,87 191,208 244,325 37,82 52,158 54,247 1,9 1,20 2,30 3,17 13,41 19,57 38,100 73,204 87,310 14,107 6,232 -43,329 -34,69 -84,117 -145,160 -22,15 -44,29 -72,18 -32,-12 -37,-43 -43,-72 -14,-71 -34,-136 -72,-199 -50,-79 -131,-153 -212,-200 -76,-45 -159,-68 -247,-69 -80,-1 -161,16 -232,52 -72,35 -130,88 -180,150 -51,64 -94,139 -118,217 -23,79 -27,158 -12,239 17,88 54,174 111,244 64,79 153,137 246,176 46,19 94,34 142,46 836,-98 1468,-809 1468,-1652 0,-849 -640,-1563 -1483,-1654l-22 -2 -217 -308 96 1c1069,20 1926,893 1926,1963 0,1084 -879,1963 -1963,1963 -1084,0 -1963,-879 -1963,-1963 0,-52 2,-103 6,-155l-1400 -439 -231 -434 2143 711 324 425 -541 -170c-1,21 -2,41 -2,62 0,755 508,1410 1225,1605 -2,-3 -4,-5 -6,-8 -48,-69 -86,-139 -115,-217 -32,-85 -50,-173 -51,-263 -1,-101 17,-208 52,-302 35,-97 89,-181 157,-258 71,-80 158,-156 252,-207 93,-51 193,-77 299,-87 100,-9 208,-3 306,21 87,22 165,60 238,111 26,18 50,38 73,58 0,0 -1,-1 -1,-2 -14,-38 -41,-80 -65,-112 -7,-9 -13,-18 -18,-28 -11,-21 -13,-47 -16,-70 -9,-81 -20,-165 -49,-242 -31,-81 -83,-146 -154,-197 -84,-61 -193,-103 -290,-138 -119,-44 -239,-85 -358,-127 -1,0 -1,0 -1,0zm-3824 -1256l2131 682 274 422 -2204 -711 -201 -393z"/>
 </g>
</svg>
